<svg width="400" height="400" viewBox="0 0 400 400" fill="none" xmlns="http://www.w3.org/2000/svg"><path d="M213.304 222.51c-.842 2.734 2.858 12.537 4.189 16.625l.234.737c3.164 8.739 5.559 17.833 9.626 26.218 2.683 5.532 6.086 10.786 9.348 15.993 2.954 4.715 28.209 43.767 30.682 44.471 1.567.443 4.484-1.536 5.954-2.197.417.919 1.047 1.977 1.169 2.979l-.475.859c.127.341.018.219.4.391 1.899.851 7.217.458 8.124 2.434l-.108.421c-3.677 1.661-18.534-5.882-20.593-.206-.317.874-.243 1.88.154 2.716a3.34 3.34 0 0 0 1.992 1.766c1.646.544 3.806.289 5.541.244a120 120 0 0 1-5.592 6.263c-3.87 4.099-8.553 8.221-8.143 14.408.164 2.481 1.357 4.023 3.067 5.682-1.728-.014-3.471-.078-5.197-.007-6.572-.265-13.236-.038-19.819-.038l-38.099-.005c.485-.403 1.001-.84 1.406-1.326.664-.797.915-1.586 1.024-2.607.367-3.446-.346-7.278-.704-10.718l-1.644-15.814c1.144.125 2.976.55 4.037.025.605-.299.874-1.216 1.064-1.82.636-2.017 2.479-9.618 2.316-11.362-.045-.483-.216-.793-.439-1.212-4.28-.924-8.732-1.44-13.062-2.144a914 914 0 0 1-24.003-4.102l-3.42-.639c-.192.055-.331.087-.517.179-.391.194-.604.508-.75.91-.547 1.506-2.797 11.318-2.156 12.343.965 1.541 4.794 2.235 6.495 2.735-.795 2.286-1.722 4.54-2.595 6.798-.836-1.032-1.717-2.07-2.709-2.954-1.365-1.216-3.07-2.299-4.973-2.132-.861.076-1.737.428-2.271 1.134-.515.681-.612 1.565-.444 2.385.494 2.414 2.833 3.786 4.761 4.98-7.476 3.452-19.049 4.748-24.436 11.389-2.139 2.637-3.085 6.231-2.644 9.6.269 2.058 1.353 3.234 2.944 4.422-3.159-.064-12.186-.461-14.848.062-.564.11-.911.248-1.232.728l.197.464.081-.352.045.475c.069.052.132.112.205.156.327.199.579.223.951.234 10.721.301 21.545.02 32.276.019l63.381-.005 95.529-.003c4.434 0 27.54.365 29.062-.176.531-.19.805-.419 1.033-.927l-.38-.4c-2.563-.782-15.179-.329-18.751-.33l-40.285.037c6.549-2.551 12.143-7.336 17.684-11.55l13.057-9.961c2.365-1.824 9.364-6.525 9.641-9.504.11-1.19-.467-2.203-1.109-3.16-1.735-2.593-4.159-4.847-6.289-7.112-4.02-4.274-8.14-8.508-11.954-12.968 1.018-.719 2.828-1.766 3.086-3.088.287-1.475-6.122-11.287-7.426-13.024-1.464-1.914-2.691-4.096-4.001-6.128l-8.086-12.524-9.141-13.873c-2.123-3.226-4.344-6.478-6.174-9.88-.855-1.589-1.38-3.092-1.778-4.849-4.557-.504-8.812-1.19-13.097-2.883q-.183.289-.375.573c-6.481 9.44-16.944 14.528-27.911 16.576l-.718-1.945c-2.269-7.07-4.794-14.065-7.078-21.133a362 362 0 0 1-2.169-6.897c-.439-1.491-.76-3.053-1.312-4.505-.32-.841-.656-1.472-1.316-2.086zm126.034 140.099.034.01-.049-.024zm-86.672-92.361c4.484-.743 9.038-.09 12.791 2.594 3.402 2.433 5.475 6.157 6.129 10.257.995 6.243-1.011 12.67-4.719 17.7-2.716 3.685-5.945 6.162-10.012 8.197l-1.098-1.558c3.446-2.219 6.399-3.883 8.975-7.175 3.526-4.506 5.762-10.441 4.997-16.21-.491-3.695-2.236-7.146-5.243-9.416-3.141-2.372-7.105-3.01-10.939-2.465-4.061.577-9.083 2.484-11.953 5.523-1.103 1.168-1.831 2.477-2.791 3.729l-.166.214-1.211-1.927c3.733-5.239 8.869-8.407 15.24-9.463m-6.62-210.676c3.726-.326 6.996-1.295 9.437-4.317 1.83-2.264 2.744-5.387 2.42-8.272a11.44 11.44 0 0 0-4.384-7.742c-2.745-2.144-6.264-2.982-9.698-2.507a11.97 11.97 0 0 0-8.034 4.8c-1.241 1.678-1.952 3.564-2.385 5.594-8.271-2.973-17.145-3.18-25.251.587-6.878 3.196-12.005 9.603-14.565 16.657-2.973 8.192-4.218 24.705-.528 32.543a20.56 20.56 0 0 0 11.552 10.556c2.433.869 4.944 1.17 7.502 1.415l.025 5.548c-14.829.357-28.715 2.438-39.529 13.684a39.32 39.32 0 0 0-11.037 27.871c.172 7.692 2.892 15.037 7.473 21.187 1.399 1.878 2.992 3.564 4.464 5.378 2.895 3.292 6.091 6.193 9.224 9.245l1.019.912c.719.524 1.422 1.048 2.197 1.487.979-.649 1.899-1.294 2.782-2.071 4.786 2.01 6.051 4.939 9.244 8.718l.971 1.095c4.446 4.404 9.872 8.309 15.261 11.489.216.124.427.245.657.341 3.885 1.618 3.821-2.348 5.62-3.221.731-.354 1.807.076 2.659-.342 1.375-.674 1.857-2.398 2.288-3.742q.087.001.175-.001l.29-.011c4.527-.146 2.975-2.422 4.594-3.797.81-.688 2.128-.603 3.017-1.345.757-.631 1.216-1.472 1.255-2.465.084-2.14-1.376-4.024-2.708-5.546l4.952-6.057c6.701 3.509 13.627 6.968 21.441 6.343a24.04 24.04 0 0 0 13.242-4.155c6.236-4.233 9.937-11.086 11.272-18.399 1.933-10.596-.067-24.357-6.263-33.336 3.881-3.97 7.348-8.574 10.948-12.816 5.119-6.031 10.452-11.928 15.265-18.206.784-.529 1.228-.93 1.651-1.788 2.575-2.473 7.049-7.599 9.099-10.489.704-.277 1.171-.48 1.643-1.102.17-.645.101-.98-.094-1.611 2.569-3.407 5.851-6.405 8.62-9.67 2.103-2.479 3.238-5.394 2.892-8.692-.194-1.85-1.036-4.147-2.259-5.607-2.092-2.497-6.455-5.618-9.074-7.807-4.214-3.524-8.315-7.254-12.623-10.656-2.79-2.204-5.648-3.15-9.212-2.691-4.845.623-7.527 4.48-10.48 7.898-1.714 1.985-3.436 3.96-5.049 6.03-.931.414-1.556.62-1.945 1.627q-.084.225-.159.45c-2.237 2.577-7.241 7.809-8.836 10.44-.727.623-1.199 1.236-1.726 2.024-4.177 4.407-7.981 9.269-11.897 13.914a1516 1516 0 0 0-18.648 22.157l-.027-15.162c4.624-.196 8.242-1.362 11.441-4.869 2.107-2.31 3.18-5.159 2.995-8.308a13.1 13.1 0 0 0-1.02-4.315c1.383-6.62.161-12.618-2.156-18.875" fill="#1B1813"/><path d="M315.209 91.685c2.569-3.407 5.851-6.405 8.62-9.67 2.103-2.48 3.238-5.394 2.892-8.693-.194-1.85-1.036-4.147-2.259-5.606-2.092-2.497-6.455-5.618-9.074-7.808-4.214-3.523-8.315-7.254-12.623-10.656-2.79-2.204-5.648-3.15-9.212-2.691-4.845.623-7.527 4.48-10.48 7.898-1.714 1.986-3.436 3.961-5.049 6.03-.931.414-1.556.62-1.945 1.628a12 12 0 0 0-.159.45c-2.237 2.576-7.241 7.809-8.836 10.439-.727.623-1.199 1.237-1.726 2.025-4.177 4.407-7.981 9.268-11.897 13.913a1521 1521 0 0 0-18.648 22.157c-.551.717-1.27 1.927-2.062 2.355-.575 1.133-1.495 1.983-2.402 2.855-3.901 4.784-8.142 9.296-12.003 14.108 3.388 2.738 6.612 5.658 9.891 8.524l.988 1.052.109.191c2.27 4.099 2.638 8.318 6.537 11.799.369.329.904.885 1.397.944.085.01.624-.081.683-.089.628-.089.902-.092 1.471.163l.184.08 1.068.937a170 170 0 0 0 13.844 8.787l.119.049c.075-.463.025-.581.35-.94l1.019-.036.204.16c1.469-2.539 5.05-6.223 7.059-8.576l13.428-15.767c3.881-3.971 7.348-8.574 10.948-12.816 5.119-6.031 10.452-11.928 15.265-18.207.784-.529 1.228-.929 1.651-1.788 2.575-2.473 7.049-7.598 9.099-10.488.704-.278 1.171-.481 1.643-1.103.17-.645.101-.979-.094-1.61" fill="#4A69E8"/><path d="M315.209 91.685c2.569-3.407 5.851-6.405 8.62-9.67 2.103-2.48 3.238-5.394 2.892-8.693-.194-1.85-1.036-4.147-2.259-5.606-2.092-2.497-6.455-5.618-9.074-7.808-4.214-3.523-8.315-7.254-12.623-10.656-2.79-2.204-5.648-3.15-9.212-2.691-4.845.623-7.527 4.48-10.48 7.898-1.714 1.986-3.436 3.961-5.049 6.03-.931.414-1.556.62-1.945 1.628a12 12 0 0 0-.159.45c-2.237 2.576-7.241 7.809-8.836 10.439-.727.623-1.199 1.237-1.726 2.025 2.948 2.998 6.452 5.591 9.666 8.31l.941.818c2.61 2.05 5.122 4.235 7.663 6.37 1.633 1.371 3.409 2.707 4.934 4.19l1.041.902a504 504 0 0 1 8.333 7.067c1.552 1.324 3.21 2.969 4.974 3.986.784-.529 1.228-.929 1.651-1.788 2.575-2.473 7.049-7.598 9.099-10.488.704-.278 1.171-.481 1.643-1.103.17-.645.101-.979-.094-1.61" fill="#FFADC1"/><path d="M278.024 60.49c-.931.413-1.556.618-1.944 1.627q-.085.222-.16.45c-2.237 2.576-7.241 7.808-8.836 10.439-.727.623-1.199 1.236-1.726 2.024 2.948 2.999 6.452 5.592 9.666 8.31l.941.819c2.61 2.05 5.122 4.235 7.663 6.369 1.633 1.372 3.409 2.708 4.934 4.19l1.041.903a509 509 0 0 1 8.333 7.066c1.552 1.325 3.21 2.97 4.974 3.987.784-.529 1.228-.93 1.651-1.788 2.576-2.473 7.049-7.599 9.099-10.489.704-.277 1.171-.48 1.643-1.102.17-.645.101-.98-.094-1.61l-25.826-21.783c-3.744-3.133-7.414-6.544-11.359-9.413" fill="#4A69E8"/><path d="M278.024 60.49c-.931.413-1.556.618-1.944 1.627q-.085.222-.16.45c2.661 2.786 6.031 5.214 8.994 7.69l17.073 14.32 7.752 6.54c1.21 1.034 2.55 2.527 3.921 3.28.704-.277 1.171-.48 1.643-1.102.17-.645.101-.98-.094-1.61l-25.826-21.783c-3.744-3.133-7.414-6.544-11.359-9.413m26.537 44.397c-1.041-1.803-10.644-9.37-12.898-11.273-8.156-6.89-16.237-13.944-24.579-20.607-.726.623-1.199 1.237-1.726 2.025 2.948 2.998 6.452 5.591 9.666 8.31l.942.818c2.609 2.05 5.122 4.235 7.662 6.37 1.633 1.371 3.409 2.707 4.935 4.19l1.04.902a504 504 0 0 1 8.333 7.067c1.552 1.324 3.211 2.969 4.974 3.986.784-.529 1.228-.929 1.651-1.788" fill="#1B1813"/><path d="M275.024 83.34c-8.541 9.504-16.568 19.587-24.769 29.391-7.315 8.744-14.89 17.319-22.018 26.212l.989 1.052 17.053-20.255c.245-.411.74-.865 1.06-1.235 5.693-6.482 11.07-13.279 16.669-19.847l1.017-1.18c3.309-4.023 8.168-9.127 10.941-13.319zm13.538 11.378c-2.4 2.564-4.612 5.332-6.868 8.024a981 981 0 0 0-12.418 15.111c-.421.458-.832.929-1.295 1.346-5.426 6.624-11.093 13.056-16.486 19.704-.384.455-.757.923-1.185 1.338-3.308 4.376-7.019 8.779-10.704 12.841l1.069.938c3.517-3.783 6.743-7.887 10.05-11.856.362-.447.766-.872 1.149-1.302 1.435-2.28 3.589-4.406 5.34-6.483l11.129-13.247c.28-.46.839-.932 1.218-1.329 2.731-3.119 5.282-6.397 7.915-9.599l12.127-14.583z" fill="#fff"/><path d="M232.751 113.456c.114-2.554-.444-17.879.422-18.816 1.223-1.323 4.227-.743 5.892-1.216 4.006-1.139 8.037-5.418 8.236-9.618.106-2.252-.615-4.468-2.175-6.12-1.029-1.088-2.375-1.739-3.885-1.732-2.066.009-3.845 1.072-5.498 2.19-.256.172-.708.585-.994.662-.337.091-.321.085-.537-.14-.435-.453-.462-.91-.41-1.503q.02-.225.05-.448c-2.145-1.403-4.595-2.325-6.824-3.595-7.194-4.099-15.535-9.866-20.282-16.692-3.916 2.145-10.867 7.19-12.102 11.705-1.56 5.703-2.355 16.861-1.33 22.721a19.5 19.5 0 0 0 2.486 6.8c2.527 4.223 6.513 7.302 11.314 8.462 2.201.524 4.469.706 6.726.54 1.646-.13 4.291-1.431 5.322-.887.226.471.229.54.172 1.062-.686.998-2.35 1.406-3.481 1.612-.587.107-1.17.19-1.767.217.029 2.014.076 4.001.277 6.008l-1.472 1.091c5.037 2.165 12.261 2.183 17.458.552.907-.872 1.828-1.722 2.402-2.855" fill="#FECFAA"/><path d="M213.742 94.611c-1.825.22-3.237 2.157-5.093 2.614-1.863.459-3.729-.62-5.529-.382-.551.073-.589.186-.875.61.034.61.054.66.422 1.145 2.735 1.006 5.306.99 8.014-.07 1.076-.42 3.018-1.24 3.362-2.481.178-.644-.034-.88-.301-1.436m-9.106-9.515c-.542-.003-1.124-.018-1.645.147-.939.3-1.793.977-2.196 1.886-.425.957-.384 2.101.007 3.06.648 1.587 1.739 2.261 3.26 2.887.497-.086.73-.183 1.127-.495.4-1.482-2.541-2.202-2.811-3.696-.28-1.554 1.755-1.569 2.508-2.456.101-.605-.024-.776-.25-1.333m10.258-12.786c-.805-.059-1.83-.21-2.59.108-.477.199-.603.382-.786.846.064.221.063.472.191.663.249.372 3.148.494 3.74.625.644.142 1.226.479 1.792.802l.232.136c.659.49 1.318 1.122 2.197.995.355-.052.331-.139.529-.397-.006-.487-.096-.788-.367-1.185-1.065-1.567-3.171-2.225-4.938-2.593m-14.034-1.79c-.91-.042-1.764.054-2.623.38-.84.319-1.871.965-2.208 1.847-.164.427-.114.498.053.893l.473.18c.747-.024 1.222-.36 1.849-.738 2.024-.902 3.397.593 4.97.005.258-.481.264-.476.157-1.01-.667-.907-1.625-1.246-2.671-1.558" fill="#1B1813"/><path d="M209.099 164.46c-1.612 1.636-3.589 3.609-4.715 5.616.731.575 1.558 1.213 1.631 2.218.079 1.097-.991 2.003-1.69 2.705 5.864 4.621 5.692 3.192 12.353 4.791l1.573.422c1.464-1.887 2.958-3.811 4.632-5.516l.11-.276c-.28-.535-.632-.652-1.142-.962-4.637-2.645-8.847-5.305-12.752-8.998" fill="#4A69E8"/><path d="M221.851 173.458c-1.732 2.033-3.305 4.468-5.173 6.333l1.573.421c1.464-1.887 2.958-3.811 4.632-5.516l.11-.276c-.28-.535-.632-.652-1.142-.962" fill="#fff"/><path d="M222.883 174.696c-1.675 1.705-3.169 3.629-4.632 5.516 3.561 1.082 10.807 3.755 12.649 7.205.405.76.533 1.679.271 2.509-.231.727-.731 1.255-1.259 1.782.734.509 1.469 1 2.141 1.592l4.952-6.057c-1.702-.928-3.279-2.049-4.806-3.24-1.976-1.543-9.04-7.078-9.316-9.307m-22.852-22.317c-1.457 1.673-2.9 3.348-4.462 4.925 2.529 3.8 5.684 7.167 8.239 10.938 1.396-1.65 2.819-3.284 4.168-4.973-3.079-3.384-5.674-6.924-7.945-10.89" fill="#4A69E8"/><path d="M195.569 157.304c-1.422-2.079-8.089-12.116-9.909-12.909-.445.238-.49.229-.691.683.081.968 9.785 13.827 11.005 15.358 2.553 3.204 5.397 6.885 8.409 9.64 1.127-2.007 3.104-3.98 4.716-5.616l-1.124-1.191c-1.348 1.689-2.771 3.323-4.167 4.973-2.555-3.771-5.71-7.138-8.239-10.938m60.438 4.576-1.02.035c-.325.359-.275.478-.349.94 1.16.811 9.419 5.166 10.439 5.164.562 0 .649-.098 1.044-.451l-.03-.418c-1.6-1.68-7.385-3.554-9.881-5.11z" fill="#fff"/><path d="M212.096 130.812c-.738.059-1.579.173-2.041.835-1.813 2.594 6.001 10.24 6.539 12.597-.141.483-.173.571-.532.917-3.223-.233-5.919-8.823-8.327-9.953-.677-.317-1.207-.301-1.893-.035-.342.3-.518.543-.621.998-.751 3.329 4.809 8.992 6.471 11.745.39.646.596 1.187.414 1.941-.244.194-.281.319-.618.284-2.141-.226-4.897-6.049-6.226-7.768-.545-.706-1.018-1.198-1.947-1.313-.557.152-.734.275-1.098.722-1.044 3.348 5.833 8.613 6.632 12.035.113.484.051.67-.209 1.076-.341.108-.704.265-1.05.072-2.005-1.12-3.889-6.95-6.206-7.661l-.385.295.129-.277c-.4.25-.537.271-.616.771-.301 1.899 4.13 7.769 5.403 9.491 5.675 7.254 11.133 10.747 18.929 15.214 3.719-4.318 8.957-12.42 11.647-17.545-3.12-2.812-5.608-5.586-7.247-9.531-.572-1.374-.908-2.994-1.684-4.264-.795-1.301-8.559-8.289-9.947-8.936-.28-.13-.409-.011-.684.078l-.138.435c.404 2.111 2.739 4.459 4.056 6.131.511.648 1.095 1.162.993 2.028-.308.379-.467.509-.933.66-2.396-.389-6.255-9.177-8.811-11.042m-9.017 45.901c-1.242.405-10.763 11.593-12.66 13.708 4.088 2.442 6.361 5.879 9.491 9.313 3.973 4.36 7.064 6.52 12.034 9.646 1.247.785 2.505 1.79 3.816 2.449.288.145.596.185.893.055.546-.239 1.149-.723 1.296-1.328.442-1.818-3.752-3.642-4.595-5.124-.013-.58.041-.562.425-1.009 1.666-.614 5 3.099 6.701 3.767.54.211 1.184.321 1.703-.014.404-.26.741-.747.812-1.225.325-2.179-3.969-3.42-4.93-5.06-.028-.531-.043-.527.275-.949.631-.256.714-.234 1.388-.102 1.919 1.341 4.228 3.337 6.671 3.412.462.015 1.045-.093 1.365-.449.315-.35.464-.819.408-1.286-.182-1.484-3.777-3.276-4.958-4.184-.719-.554-1.213-.955-1.341-1.884.247-.445.274-.478.728-.707 2.33.342 4.486 3.183 6.725 4.147.771.332 1.646.497 2.43.106.447-.223.789-.578.902-1.073.159-.7-.264-1.482-.595-2.07-2.493-4.442-9.516-5.976-10.813-8.375-.158-.292-.071-.357.007-.652 2.147-1.363 4.992 2.6 7.378 2.113.414-.363.459-.428.627-.952-.251-1.343-1.715-2.167-2.783-2.841-3.312-2.092-6.8-3.655-10.676-4.339-2.145-.379-4.379-.606-6.441-1.331-2.381-.837-4.304-2.229-6.283-3.762" fill="#FECFAA"/><path d="M182.581 250.933c-2.282 2.552-4.435 5.24-6.632 7.866-.996 1.191-2.444 2.57-3.182 3.913-.502.893-1.214 1.263-2.063 1.788-2.757 15.334-5.292 30.775-8.371 46.045a915 915 0 0 0 27.423 4.741c4.33.705 8.782 1.22 13.063 2.143.558-1.504.722-3.388 1.016-4.973l1.896-10.174 7.122-38.045c-5.853.414-10.85 1.408-16.054 4.24 2.405 6.066 4.146 11.628 2.851 18.224-.647 3.299-2.241 6.23-5.112 8.088a9.48 9.48 0 0 1-7.424 1.279 8.54 8.54 0 0 1-5.281-3.942c-1.519-2.61-1.528-6.019-.702-8.864 1.815-6.242 7.452-12.472 13.082-15.559-3.648-5.755-7.053-11.671-11.632-16.77" fill="#99DCFE"/><path d="M194.993 269.51c-3.992 2.406-7.354 5.927-9.823 9.864-1.783 2.843-3.203 6.344-2.358 9.747.505 2.035 1.741 3.321 3.461 4.398q.105.046.209.088c1.928.737 3.914.865 5.828.015 2.272-1.009 3.878-2.855 4.751-5.165 2.328-6.157.478-13.191-2.068-18.947m60.764 37.928c3.446-2.219 6.399-3.883 8.975-7.175 3.525-4.506 5.762-10.441 4.996-16.211-.491-3.695-2.235-7.145-5.242-9.415-3.141-2.372-7.105-3.011-10.94-2.466-4.06.578-9.082 2.485-11.952 5.524-1.103 1.167-1.831 2.477-2.791 3.728l-.167.215a881 881 0 0 0 11.222 17.142c1.918 2.867 3.786 5.937 5.899 8.658" fill="#99DCFE"/><path d="M254.34 242.385c-6.481 9.44-16.944 14.528-27.911 16.576 2.475 6.439 5.825 12.403 9.435 18.25l1.562 2.5c3.733-5.239 8.869-8.407 15.24-9.463 4.484-.743 9.038-.09 12.791 2.594 3.402 2.433 5.475 6.157 6.129 10.257.995 6.243-1.011 12.67-4.719 17.7-2.547 3.454-5.543 5.847-9.259 7.81l-.753.387 3.541 5.251c9.166-4.2 17.784-9.574 26.144-15.179 3.495-2.342 6.891-4.885 10.452-7.119-1.464-1.914-2.691-4.096-4.001-6.128l-8.086-12.524-9.141-13.873c-2.123-3.226-4.344-6.478-6.174-9.88-.855-1.589-1.38-3.092-1.778-4.849-4.557-.504-8.812-1.19-13.097-2.883q-.183.289-.375.573m10.146 32.252c-3.141-2.372-7.105-3.01-10.939-2.465-4.061.577-9.083 2.484-11.953 5.523-1.103 1.168-1.831 2.477-2.791 3.729l-.166.214a880 880 0 0 0 11.221 17.142c1.798 2.689 3.552 5.555 5.505 8.145l.394.513c3.446-2.219 6.399-3.883 8.975-7.175 3.526-4.506 5.762-10.441 4.997-16.21-.491-3.695-2.236-7.146-5.243-9.416m31.935 20.382a270.6 270.6 0 0 1-34.688 21.006c1.796 2.902 4.02 5.652 6.069 8.386 1.625-.318 4.209-1.973 5.787-2.761 9.83-4.906 20.521-9.868 28.829-17.173a450 450 0 0 0-5.997-9.458m-132.702 17.938-.502-.066c-.837.635-2.197 8.354-2.573 9.995 4.384 1.574 9.039 2.491 13.601 3.38a211 211 0 0 0 24.06 3.48l.387-.121c1.049-1.885 1.999-7.903 2.506-10.253-4.415-.84-8.916-1.423-13.354-2.152a842 842 0 0 1-24.125-4.263" fill="#99DCFE"/><path d="m196.136 355.477-64.072.003c-.015.672-.011 1.343.063 2.011.153 1.393.795 2.147 1.87 2.978 1.974 1.057 3.808 1.278 6.011 1.319 11.123.21 22.276.022 33.401.021l10.934.014c2.492.002 5.06.132 7.531-.239 1.188-.179 2.447-.715 3.295-1.592 1.237-1.279 1.038-2.887.967-4.515m120.513-27.581c-7.473 5.171-14.669 10.794-21.912 16.278-3.472 2.628-6.949 5.553-10.664 7.819-1.86 1.134-3.953 2.214-6.091 2.695-4.329.973-9.049.395-13.458.503-1.717.041-3.364.343-5.064.524-.762.081-1.237.042-1.72.645-.079.374-.086.599.008.977.365 1.473 1.561 2.605 2.764 3.408a12 12 0 0 0 1.981.651c1.989.474 4.143.393 6.175.388 7.042-.016 10.85-.657 16.963-4.515 3.801-2.399 32.699-23.979 32.947-25.993.148-1.208-1.222-2.52-1.929-3.38m-49.388 3.434c-.812-.072-1.87-.278-2.641.03-.48.193-.643.502-.858.939.088.542.177.798.602 1.17.885.774 2.357.515 3.429.441 2.026-.183 3.04-.652 4.557-1.962q-2.54-.35-5.089-.618m-111.089-.882c-.379-.004-.828.014-1.174.183-.448.219-.465.394-.543.831.624 1.905 3.319 3.285 4.95 4.323.424-.013.921-.125 1.249-.41.212-.184.156-.336.179-.595-.795-1.76-3.04-3.344-4.661-4.332m120.123 5.892c-1.575-.067-4.042-.139-5.261.97-.239.654-.157.756.02 1.405 1.503-.074 4.231.049 5.361-.951.18-.637.069-.805-.12-1.424m-114.603 1.307-1.988.661a61 61 0 0 1 3.367 4.169c.198.15.388.199.62.279.445-.218.48-.246.728-.674-.026-1.489-1.84-3.257-2.727-4.435m-6.362 2.404c-.637.226-1.256.506-1.878.769a62 62 0 0 0 3.621 3.161c.323.146.512.158.859.184.425-.29.443-.324.628-.805-.288-1.304-2.209-2.488-3.23-3.309" fill="#fff"/><path d="M182.732 191.8c-3.132-3.053-6.328-5.954-9.223-9.245-4.983 5.373-9.575 11.168-14.264 16.801l-18.288 21.608c-2.752 3.219-5.428 6.516-8.242 9.681 2.446.686 7.826 6.197 10.359 7.994l1.137.941c4.093 3.47 8.444 7.293 12.796 10.408l1.203.958c3.626 2.969 7.213 6.15 11.064 8.823l1.401 1.13 2.092 1.813c.739-1.343 2.187-2.722 3.183-3.913 2.197-2.626 4.35-5.313 6.631-7.866.405-.558.883-1.081 1.324-1.613l30.302-35.891c-5.389-3.18-10.816-7.084-15.261-11.488l-.971-1.096c-3.194-3.779-4.458-6.707-9.244-8.718-.884.778-1.803 1.423-2.783 2.072-.775-.44-1.477-.964-2.196-1.487z" fill="#4A69E8"/><path d="M197.974 200.845c-4.666 5.393-9.35 10.898-13.744 16.514-.423.459-.84.926-1.285 1.364-1.783 2.54-3.914 4.917-5.888 7.315l-10.315 12.463c-.382.461-.755.925-1.181 1.346-1.993 2.883-6.067 7.59-8.555 10.14l1.203.959c2.41-2.292 5.489-6.46 7.737-9.134l1.166-1.263c1.794-2.521 3.893-4.889 5.861-7.278l10.402-12.559c.277-.438.772-.894 1.118-1.29 1.754-2.348 3.766-4.576 5.626-6.846 2.917-3.561 5.779-7.185 8.826-10.636z" fill="#fff"/><path d="M165.946 241.812c-2.247 2.674-5.327 6.843-7.737 9.134 3.627 2.969 7.214 6.15 11.065 8.823-.19-2.385-.764-4.791-1.22-7.14z" fill="#4A69E8"/><path d="m182.732 191.799-25.997 30.744-9.159 10.783c-1.491 1.755-3.105 3.488-4.502 5.312l1.137.942c2.267-2.397 4.337-5.067 6.473-7.588 3.617-4.268 7.272-8.511 10.835-12.825.268-.433.734-.881 1.066-1.277l16.288-19.466 1.196-1.344c1.261-1.421 2.582-2.818 3.682-4.369z" fill="#fff"/><path d="M346.562 196.766a3 3 0 0 0-.925.353c-.412 2.017-.15 4.482-.147 6.558l.025 13.142-22.823-.01.021-13.748c.005-1.597.312-3.859-.022-5.362-.108-.486-.375-.606-.785-.808l-.318.132c-.627 1.38-.266 16.96-.26 19.788l-22.424.001c.078-2.558.477-18.697-.333-19.93-.431.016-.337-.076-.591.212-.269.306-.389.568-.425.968-.198 2.15-.032 4.448-.034 6.615-.001 4.042-.065 8.099.068 12.139l-14.281-.009c-1.617 0-3.816-.275-5.37.045-.539.11-.62.278-.94.687l.031.24c.383.359.819.452 1.328.518 2.267.293 4.804.049 7.104.034l12.065.027c.003 7.692-.175 15.425.069 23.111-2.449-.004-16.294-.403-17.326.288-.059.456-.067.447.185.83 1.439.797 14.669.37 17.139.376-.203 2.602-.069 5.308-.07 7.922l.001 14.836c-2.204-.049-4.876-.393-6.962.441l-.067.445c1.554 1.037 5.19.606 7.042.585-.041 2.276.01 4.555-.008 6.831-.01 1.338-.153 2.787-.024 4.115.052.541.284.96.683 1.324.211.002.253.054.39-.115.834-1.03.388-10.232.381-12.165l8.772.008 13.577-.002-.005 14.595c-.001 1.972-.244 4.254.052 6.18.061.394.127.541.386.831.376.005.318.085.548-.165.299-.324.4-.649.44-1.075.191-2.075-.013-4.377-.016-6.469l-.023-13.896 22.817.001-.001 12.693c-.008 2.132-.164 4.321-.037 6.444.046.769.088 1.951.697 2.501l.282-.165c.951-2.254.441-17.889.44-21.476 6.919.004 13.888.183 20.801-.058.5-.294.494-.313.707-.856-.462-.418-.906-.494-1.521-.563-2.099-.237-4.345-.017-6.461-.015l-13.531-.028.009-22.716 1.01.001 13.71.01c1.824 0 3.976.224 5.768-.039.446-.066.522-.164.829-.47-.036-.295.016-.404-.226-.618-.318-.283-.645-.379-1.06-.401-2.08-.111-4.221.02-6.309.019l-13.723-.015-.003-23.091 13.269.003c2.279.003 4.687.171 6.951-.055.585-.059.946-.152 1.316-.612-.046-.25-.02-.298-.2-.498a7 7 0 0 0-.444-.351c-.558-.227-18.642-.028-20.888-.028.005-3.001.418-18.388-.33-20.04m-23.877 46.19c7.6.002 15.216-.089 22.814.011l.007 22.763c-7.6-.168-15.205.032-22.806-.076.001-7.552.173-15.15-.015-22.698m-1.388 22.739c-7.43-.043-14.877.094-22.304-.043v-22.693l22.321-.006zm.003-47.35.006 23.112c-3.193.004-20.683.427-22.361-.193l.023-22.92zm24.21 0 .002 23.093-22.805.019-.017-23.131zm-87.063-24.758c-7.814.624-14.741-2.834-21.442-6.344l-4.952 6.057c1.333 1.522 2.792 3.406 2.708 5.546-.038.993-.497 1.834-1.254 2.466-.889.741-2.207.656-3.017 1.344-1.62 1.375-.068 3.651-4.594 3.797l-.291.011q-.088.002-.175.001c-.431 1.344-.912 3.068-2.288 3.743-.852.418-1.927-.013-2.658.341-1.8.873-1.736 4.839-5.62 3.221-.231-.096-.441-.217-.657-.341l-30.302 35.891c4.419 5.571 8.409 11.14 11.923 17.329 5.508-3.216 11.235-3.99 17.471-4.467.599-3.503 3.333-20.133 4.427-22.31-1.051-3.487-5.32-14.446-4.422-17.363l.532-.115c.66.614.996 1.246 1.316 2.087.552 1.452.873 3.013 1.312 4.505a377 377 0 0 0 2.169 6.897c2.285 7.068 4.809 14.063 7.078 21.132 11.554-1.894 19.942-6.79 27.218-15.962-6.206-3.86-12.507-7.566-15.408-14.663-1.367-3.344-1.935-7.281-.43-10.682 1.066-2.411 3.144-4.546 5.642-5.441 2.488-.891 5.346-.621 7.69.562 3.958 2 6.447 6.18 7.722 10.286 2.086 6.72.963 12.904-2.28 19.023 3.708 1.318 7.474 1.967 11.35 2.541-1.109-4.224-1.601-8.706-2.288-13.021a331 331 0 0 0-3.535-19.578c-.54-2.554-3.531-15.059-3.377-16.181z" fill="#99DCFE"/><path d="M99.014 39.124c-.326.166-.457.256-.651.582-.731 1.228-1.06 3.359-1.442 4.744l-2.804 10.067c-.579 2.055-1.076 4.25-1.932 6.206-1.908-1.076-18.325-10.63-18.921-10.69l-.27.269c-.183 1.211 8.954 16.747 10.231 18.973-2.734.975-20.132 5.3-20.74 6.295.257.369.585.49 1 .63 1.334.453 2.796.677 4.164 1.056 5.186 1.44 10.591 2.727 15.632 4.598-1.249 2.336-10.066 17.826-10.229 18.652l.207.299c.256.013.437-.006.668-.125 6.26-3.222 12.186-6.976 18.523-10.085 1.632 4.72 2.83 9.669 4.202 14.478.578 2.026 1.02 4.222 1.892 6.144l.468-.156c.389-.407.551-.809.735-1.339.826-2.388 1.309-4.968 1.986-7.407 1.083-3.906 2.31-7.784 3.523-11.651 2.463 1.24 17.795 10.284 18.669 10.325.258.012.203-.024.376-.234-.198-2.23-8.372-15.669-9.986-18.924 4.698-1.778 9.836-2.972 14.702-4.24 1.717-.447 3.623-.66 5.267-1.307.472-.186.71-.285.906-.77-1.198-1.218-18.045-5.245-21.025-6.146 1.142-2.091 10.039-17.833 10.154-18.704.036-.274-.154-.403-.307-.61-.147.001-.301-.043-.44.002-1.258.406-2.727 1.673-3.923 2.358-4.697 2.688-9.415 5.65-14.258 8.042l-.21.102c-1.153-4.057-2.329-8.11-3.427-12.182-.8-2.972-1.35-6.514-2.74-9.252" fill="#4A69E8" fill-opacity=".4"/><path d="M132.715 230.645c-.387.428-.808.86-.986 1.421-.765 2.42-1.133 5.126-1.665 7.62l-3.369 15.823-4.416 20.883c-.796 3.791-1.788 7.647-2.309 11.479.253.509.239.479.774.68.68-.054 1.195-.211 1.82-.488 1.043-.464 2.015-1.102 3.035-1.617 2.693-1.36 5.48-2.591 8.193-3.923 12.273-6.023 24.465-12.383 36.913-18.023.849-.526 1.561-.895 2.062-1.789l-2.092-1.812-1.401-1.13c-3.851-2.674-7.438-5.854-11.064-8.824l-1.203-.958c-4.352-3.115-8.703-6.938-12.796-10.407l-1.137-.942c-2.533-1.796-7.913-7.307-10.359-7.993" fill="#1B1813"/><path d="m133.908 233.536-.427.187c-.87 3.795-1.549 7.641-2.344 11.453l-4.701 22.445c4.051 3.487 8.235 6.844 12.341 10.269 5.067-2.653 10.303-5.057 15.435-7.588 4.735-2.285 11.088-4.93 15.443-7.659-11.85-9.778-23.979-19.229-35.747-29.107" fill="#fff"/><path d="M356.719 98.304c-1.824.765-3.129 11.05-5.502 13.552-3.148 3.32-12.975 3.974-14.244 5.706 1.078 1.453 7.521 2.84 9.549 3.484 1.358.43 2.956.974 4.088 1.865 3.393 2.667 3.772 10.498 5.769 14.367 1.684-.93 3.081-11.289 5.191-13.718 2.947-3.395 11.861-3.532 14.074-5.563.245-.225.163-.178.155-.552-1.305-1.373-8.134-2.762-10.382-3.572-1.241-.448-2.658-1.064-3.57-2.035-2.545-2.707-3.385-9.788-5.128-13.534" fill="#4A69E8" fill-opacity=".4"/><path d="M246.648 211.754a7.5 7.5 0 0 0-1.76.083c-2.023.344-3.939 1.488-5.091 3.196-1.549 2.294-1.892 4.886-1.341 7.566 1.36 6.619 6.318 10.793 11.65 14.364l3.941 2.295c1.11-2.151 2.151-4.344 2.667-6.723 1.13-5.221.196-11.093-2.735-15.587-1.779-2.727-4.104-4.509-7.331-5.194" fill="#99DCFE"/><path d="M328.45 146.208c-1.265 1.329-2.27 3.025-3.34 4.519l-6.107 8.455c3.023 4.292 6.191 8.588 9.501 12.663 1.335-1.511 2.512-3.239 3.74-4.843 1.967-2.567 3.977-5.111 5.855-7.745-3.105-4.396-6.326-8.817-9.649-13.049M89.61 319.139c-3.167 3.095-6.078 6.668-9.03 9.979 1.146 1.32 8.014 9.259 8.824 9.561 3.406-2.828 6.482-6.313 9.595-9.468a664 664 0 0 1-9.39-10.072M63.87 135.083c-.746 1.014-1.567 6.136-2.568 8.062-1.543 2.97-5.126 3.612-8.045 4.553 1.907.659 3.978 1.045 5.757 2.024 3.092 1.704 3.662 6.769 4.58 9.933l.169.03c.656-.756 1.66-6.275 2.433-7.849 1.37-2.784 5.39-3.35 8.067-4.2-1.93-.541-4.14-1.01-5.88-2.044-3.217-1.912-3.682-7.143-4.512-10.509" fill="#36C99F"/><path d="M106.648 286.158c-4.727-.086-44.086-.299-44.773.237-.433.339-.454.493-.531 1 .21.511.367.659.83.955 5.439.406 12.18.06 17.754.057l16.961-.024c2.403-.003 4.818.112 7.219.04.795-.023 1.733-.031 2.484-.29.515-.177.667-.316.876-.804-.158-.61-.365-.773-.82-1.171m-13.361-31.253c-2.178-.137-13.565-.378-15.161-.003-.495.116-.586.317-.865.702-.019.587.204.861.522 1.32 2.33.361 12.302.344 14.675.047.696-.087.853-.258 1.248-.785-.005-.63-.087-.734-.419-1.281m-42.31-.003c-2.815-.207-5.73-.064-8.557-.069-1.956-.004-4.184-.228-6.108.092-.61.101-.783.279-1.112.753.086.592.286.761.648 1.224 2.145.33 12.233.381 14.343.037.647-.105.816-.308 1.166-.807.049-.574-.091-.762-.38-1.23m58.009-31.454c-2.353-.134-14.252-.416-15.7.11-.414.15-.425.276-.601.65.146.615.208.718.638 1.185 2.56.224 5.219.112 7.791.13 2.204.015 4.585.202 6.769-.06.653-.078.955-.223 1.379-.751.109-.526-.065-.794-.276-1.264m-63.061.023c-3.058-.181-6.147-.107-9.21-.111-1.951-.002-4.113-.177-6.047.104-.56.082-.689.196-1.001.653.004.568.134.803.405 1.281q.62.043 1.243.066c1.66.049 13.511.338 14.27-.132.168-.105.29-.27.435-.404.16-.584.072-.902-.095-1.457m21.002-.013c-2.405-.19-13.097-.363-15.152-.019-.532.089-.604.221-.925.614-.086.57.09.851.349 1.334.519.048 1.036.084 1.556.091 2.632.03 11.523.421 13.6-.091.305-.075.498-.24.716-.452.157-.628.03-.865-.144-1.477m20.816.004c-2.095-.141-13.777-.395-14.977.014-.45.153-.508.368-.716.756.054.573.233.743.597 1.158 3.496.341 9.904.324 13.447.112.906-.054 1.34-.047 1.95-.741.032-.624-.018-.736-.3-1.299m-16.043 31.453c-2.702-.17-5.47-.086-8.178-.097-1.91-.008-3.987-.168-5.878.082-.62.082-.793.182-1.186.66-.085.546.182.898.44 1.353 2.419.363 11.14.351 13.661.073.68-.075.885-.199 1.298-.737.09-.55.01-.819-.157-1.334m41.894-.021c-3.757-.194-9.475-.323-13.179-.056-.86.063-1.309.092-1.881.758.04.646.223.814.581 1.338 2.246.327 10.96.305 13.119.066.815-.09 1.236-.162 1.759-.812.005-.642-.089-.757-.399-1.294m11.178-31.42c-2.648-.218-5.699-.323-8.353-.137-.878.062-1.549.087-2.14.782 0 .595.087.722.38 1.25 2.465.223 5.118.27 7.594.207.946-.023 1.99-.053 2.667-.785.14-.558.037-.796-.148-1.317" fill="#4A69E8"/><circle cx="1.758" cy="1.758" r="1.758" transform="matrix(-1 0 0 1 215.251 80.469)" fill="#1B1813"/><circle cx="1.758" cy="1.758" r="1.758" transform="matrix(-1 0 0 1 200.798 78.906)" fill="#1B1813"/></svg>