<svg width="400" height="400" viewBox="0 0 400 400" fill="none" xmlns="http://www.w3.org/2000/svg"><path d="M136.397 267.697c-1.362 11.668 1.495 23.535 8.863 32.804 3.851 4.844 8.236 7.775 13.5 10.627l1.065.57c-.765 3.044-2.233 5.862-3.122 8.857l.41.058c6.238.933 12.315 3.745 18.423 5.372 19.732 5.258 39.481 8.9 59.99 6.787 3.414-.352 7.198-.616 10.485-1.599.254-11.603.021-23.267.025-34.876l.001.001c-.005 11.609.229 23.273-.025 34.877-3.287.983-7.072 1.246-10.486 1.598-20.509 2.114-40.257-1.528-59.99-6.786-6.108-1.628-12.184-4.44-18.422-5.373l-.41-.057c-2.082.34-15.126-2.233-18.202-2.708-.419-.265-.783-.46-1.27-.579-4.575-1.126-9.658-1.467-14.345-2.142-5.143-.74-10.772-2.034-15.943-2.114-3.464-.045-7.94-.84-11.291-1.762 2.783-7.937 6.018-15.78 9.025-23.638h.001c2.369-6.39 4.986-12.689 7.365-19.077.942.214 1.986.384 3.102.511l.012.003-.002-.002c6.767.768 16.162.012 21.241-1.352M365.171 38.894c.425-.146.758-.17 1.201-.148 1.217 1.375 12.077 37.26 13.537 42.47l.012.042c.467 1.666.894 3.19-.073 4.771-.916 1.496-2.598 1.945-4.182 2.368l-.063.017c-.727-.226-1.442-.463-2.118-.816-.824-.43-1.427-.947-1.891-1.76-1.499-2.628-2.181-6.16-3.043-9.074-1.832-6.189-3.519-12.45-5.558-18.573-1.969 3.57-3.612 7.375-5.351 11.061l-8.981 19.125-29.056 62.384c-3.523 7.462-6.947 15.008-10.715 22.349-1.229 2.394-2.39 4.928-3.783 7.222-.521.855-1.242 1.625-2.111 2.134-1.13.662-2.98 1.022-4.229.484-1.129-.485-2.474-2.478-3.137-3.536-4.615-7.375-8.91-16.671-12.922-24.509-6.034-11.79-12.252-23.518-18.125-35.385l-8.856 16.633c-1.958 3.647-4.086 7.292-5.764 11.073-1.351 2.602-7.018 13.936-7.276 14.451 1.935 2.22 4.012 4.079 5.806 6.081 8.08 9.018 9.346 16.68 8.5 28.406-.583 8.071-1.958 16.222-3.329 24.191-.458 2.662-.695 5.372-1.289 8.011l-.298.151-.109-.062c-4.939-1.042-10.208.849-14.33 3.517-10.037 6.498-16.186 17.477-21.31 27.938-6.406-.22-13.003.428-19.363-.274.001.394-.021.623.018.827-.039-.205-.017-.433-.018-.828 6.36.702 12.956.054 19.362.274 5.124-10.462 11.274-21.441 21.311-27.939 4.121-2.668 9.391-4.559 14.33-3.517l.109.062.298-.151c.594-2.639.83-5.349 1.289-8.011 1.371-7.969 2.746-16.118 3.329-24.189-15.317.597-34.067 19.848-45.716 29.429-3.35 2.755-6.867 5.077-10.506 7.419 1.25-6.097 3.161-23.175 7.038-27.441l.158-.555c-3.368-2.136-8.305-2.564-12.157-3.259-1.194 1.439-2.408 2.866-3.528 4.363-.949 3.378-1.615 6.833-2.447 10.241a505 505 0 0 1-3.96 14.906 1153 1153 0 0 1-25.344 78.658l-.001.001c-4.989-2.196-9.2-5.134-12.782-9.262-8.462-9.755-10.417-21.059-9.569-33.556 3.313-1.247 6.578-2.625 9.664-4.37 7.077-4.002 14.859-10.799 17.07-18.951.616-2.274 1.03-5.371-.279-7.454a4.17 4.17 0 0 0-2.727-1.883c-2.967-.615-6.636 1.396-9.012 3.057-9.201 6.43-14.091 17.383-16.058 28.1-5.962 1.989-16.336 2.52-23.834 1.19l.065-.244c.103-1.765 1.429-4.157 2.102-5.794-1.79-3.025-3.231-6.354-4.763-9.522a612 612 0 0 1-8.88-18.996c-3.853-8.604-7.957-17.099-11.739-25.732l-21.64 41.961c-2.203 4.28-8.897 18.595-11.934 21.109-.93.769-2.019 1.228-3.238 1.088-1.25-.143-2.318-.841-3.244-1.653-2.06-1.803-3.737-4.306-5.46-6.427l-8.952-10.881c-.92 3.713-3.017 7.537-4.57 11.049l-7.68 17.583-7.232 16.634c-1.52 3.588-2.807 7.96-5.022 11.164-.762 1.101-1.88 1.84-3.22 2.007-1.325.165-2.695-.298-3.695-1.172-1.017-.89-1.558-2.189-1.557-3.534.004-2.579 24.322-57.897 27.19-63.806.366-.753.774-1.417 1.4-1.98.872-.782 2.505-1.496 3.688-1.317 1.279.193 2.622 1.307 3.523 2.163 2.114 2.01 3.935 4.555 5.796 6.807q4.312 5.22 8.773 10.315c2.157-4.717 4.708-9.265 7.079-13.876l13.211-25.507q3.603-6.768 7.133-13.576c1.493-2.876 2.909-5.909 4.643-8.648.748-1.181 1.724-2.517 2.96-3.214.995-.561 2.187-.559 3.254-.211 1.391.454 2.398 1.457 3.23 2.623 3.054 4.281 5.528 10.304 7.843 15.103 6.281 13.024 11.913 26.364 18.313 39.323 5.761-16.383 10.357-33.34 15.061-50.055 1.784-6.338 3.335-12.811 5.377-19.066 2.95-12.756 5.268-17.861 8.359-25.02 12.623-6.346 23.7-8.27 54.545-4.378-.933 2.571-1.832 5.072-2.101 7.818-.686 7.006 2.542 14.848 7.013 20.131 1.967 2.325 5.054 4.896 8.211 5.04 1.825.083 3.868-.831 5.166-2.082 3.57-3.442 2.942-9.31 3.1-13.835.165-4.724 1.017-8.284 4.591-11.609l3.752 1.292c5.265-10.382 10.902-20.613 16.419-30.864 3.007-5.586 5.78-11.457 9.064-16.874.674-1.111 1.81-3.104 2.945-3.732 1.115-.616 2.439-.929 3.692-.601 1.564.409 2.59 1.594 3.47 2.875 3.933 5.727 7.892 14.522 11.166 20.912a1758 1758 0 0 0 20.337 38.939c3.633-9.247 8.264-18.298 12.485-27.299l17.943-38.77 13.188-28.291c3.114-6.679 5.894-13.92 10.228-19.9-8.271 3.804-16.832 8.252-25.46 11.115-1.388-.545-2.784-1.159-3.839-2.244-.815-.839-1.441-1.895-1.386-3.1.054-1.151.741-2.408 1.594-3.16 2.589-2.285 7.257-3.676 10.436-5.092q11.04-4.96 22.186-9.68c2.395-1.026 4.797-2.367 7.249-3.212m-160.54 222.599c-.998 11.668-3.755 23.216-4.608 34.879v.001c.852-11.664 3.609-23.212 4.608-34.88" fill="#99DCFE"/><path d="M301.242 16.147c-9.769 3.561-18.631 9.914-26.674 16.422-6.837 4.566-13.258 9.751-19.977 14.493a5500 5500 0 0 0-49.719 35.403c-.664-.305-1.458-.53-1.82-1.203.982-1.132 5.009-3.154 6.793-4.713 2.083-1.819 3.896-4.09 4.646-6.795.702-2.529.086-15.929-.129-19.147-.384-5.759-2.308-11.05-6.751-14.887-4.985-4.305-12.108-6.946-18.721-6.42-4.372.348-8.198 2.175-11.818 4.545-1.471-3.788-3.743-6.735-7.564-8.406a15.12 15.12 0 0 0-11.574-.191c-3.237 1.288-5.88 3.713-7.295 6.917a15.12 15.12 0 0 0-.054 11.82c1.505 3.558 4.355 5.899 7.901 7.245 2.357.895 4.794 1.296 7.28 1.64-.764 6.089-.651 13.037 3.319 18.106 3.181 4.061 8.156 5.896 12.823 7.675-.052 1.424-.076 2.851-.276 4.264-6.557 1.066-12.435 2.941-18.271 6.179-5.263 2.92-10.161 6.793-14.443 11.274-6.815 7.131-16.609 45.64-15.712 54.612.489 4.894 3.606 9.531 6.697 12.622l4.122 3.607c5.091 4.223 10.741 7.515 15.914 11.605.53 5.333 3.055 11.27 7.094 14.84a502 502 0 0 1-15.332 15.563c-2.507 2.438-6.494 5.696-8.492 8.319-.25.327-.342.557-.33.965.003.083.02.165.029.247.508.302.296.31.813.167 3.778-1.042 23.209-19.295 26.71-22.825 1.692 1.145 3.419 2.642 5.598 2.185 2.244-.471 3.02-1.666 5.465-1.266.994.163 1.805.039 2.627-.602 1.453-1.137.972-2.507 3.082-2.974.396-.088.915-.166 1.263-.385.279-.175 4.447-4.995 4.98-5.638.334-.2.68-.609.927-.921.719-.911 1.12-1.954.957-3.123-.36-2.583-2.351-4.343-4.339-5.769 1.389-1.471 5.168-4.36 5.481-6.302.106-.658-.104-1.139-.525-1.629-.536-.623-1.611-.986-2.399-.847-2.358.415-4.838 4.594-6.218 6.397-2.974-2.158-6.562-4.134-9.12-6.762-2.737-2.811-4.933-8.136-6.89-11.668a152 152 0 0 0-5.108-8.579c13.043.179 24.455.225 37.508-1.09l2.284-.302c.636-.111 1.214-.352 1.814-.583 4.985-9.978 8.546-21.299 10.545-32.25.411-2.248.516-4.874 1.942-6.723 4.407-3.642 8.378-8.162 12.525-12.127l27.609-26.093c6.059-5.69 12.08-11.712 18.639-16.83 2.845-2.22 6.675-1.875 9.897-3.21 3.017-1.253 5.404-3.6 8.307-5.056 2.07-1.039 4.374-.447 6.03-2.382 2.258-2.64 2.127-4.429.688-7.37-.152-.312-.629-1.055-.675-1.355-.142-.934.758-2.584.643-3.785-.158-1.656-1.665-2.25-2.795-3.198-.344-1.06-.697-1.933-1.317-2.86 3.518-2.066 8.213-4.745 9.409-8.967.213-.754.223-1.54-.251-2.208-.423-.597-1.114-.858-1.814-.937-1.896-.216-4.013.556-5.795 1.206z" fill="#1B1813"/><path d="M274.571 32.569c8.043-6.508 16.904-12.86 26.674-16.423 1.814-.66 4.003-1.488 5.958-1.265.699.079 1.39.34 1.814.937.474.668.464 1.454.251 2.208-1.196 4.222-5.892 6.9-9.41 8.967.621.927.974 1.8 1.318 2.86 1.13.948 2.636 1.542 2.794 3.198.115 1.2-.785 2.85-.643 3.785.046.3.523 1.043.676 1.356 1.438 2.94 1.57 4.729-.689 7.369-1.655 1.935-3.959 1.343-6.029 2.382-2.903 1.457-5.29 3.803-8.308 5.055-3.222 1.337-7.051.991-9.897 3.211-6.558 5.118-12.58 11.14-18.638 16.83l-27.609 26.093c-4.148 3.965-8.119 8.485-12.526 12.127 1.645-4.252 32.445-31.107 38.329-37.633l-.196-.162.677-.472-.625.638.051-.274c-4.195 3.506-37.949 36.286-38.293 36.395-.245.078-.514.028-.772.042.191-3.766-.059-7.509-1.059-11.154-1.85-6.744-5.779-11.94-11.828-15.43l53.172-37.753c13.683-9.655 28.998-23.404 44.748-28.606l.249-.356c.939-.232 1.683-.51 2.62-.167.464.536.571.639.513 1.397-.185 2.44-2.315 4.082-4.17 5.308-1.584 1.047-3.092 1.737-4.061 3.442 3.854-1.462 7.182-5.206 9.357-8.564.046-.819-.095-1.575-.743-2.154-.823-.738-2.181-.53-3.164-.327-3.967.818-10.055 3.663-13.582 5.699-2.383 1.376-15.495 11.411-16.959 11.44" fill="#FECFAA"/><path d="M274.57 32.569c8.043-6.508 16.904-12.86 26.674-16.423 1.815-.66 4.003-1.488 5.958-1.265.7.079 1.391.34 1.814.937.474.668.464 1.454.251 2.208-1.196 4.222-5.891 6.9-9.409 8.967.62.927.973 1.8 1.317 2.86 1.13.948 2.637 1.542 2.795 3.198.115 1.2-.785 2.85-.643 3.785.046.3.523 1.043.675 1.356 1.439 2.94 1.57 4.729-.688 7.369-1.656 1.935-3.96 1.343-6.03 2.382-2.903 1.457-5.29 3.803-8.307 5.055-3.222 1.337-7.052.991-9.897 3.211-6.559 5.118-12.58 11.14-18.639 16.83l-27.609 26.093c-4.147 3.965-8.118 8.485-12.525 12.127 1.644-4.252 32.444-31.107 38.329-37.633l-.197-.162.677-.472-.625.638.052-.274c-4.196 3.506-37.95 36.286-38.293 36.395-.246.078-.515.028-.772.042 12.052-12.184 24.75-23.8 37.233-35.541l12.574-11.79c2.964-2.745 6.02-5.735 9.35-8.034 2.876-1.985 6.262-1.805 9.421-2.986 3.087-1.155 5.988-3.43 8.715-5.255-.312-1.025-.214-2.069-.503-3.037-.428-1.428-4.309-2.662-5.738-3.42-.905 2.212-1.863 4.842-3.295 6.752-.72.961-1.676 1.999-2.934 2.15-.148.018-.296.028-.445.04l.202.217c-.102-.05-.455-.229-.548-.265-.61-.236-.809-.325-1.161-.875.727-1.025 2.236-1.204 3.121-2.101 1.618-1.64 2.58-4.38 3.783-6.38-.758-.479-1.152-.682-1.404-1.553l.359-.337c2.788-.316 4.371 1.678 6.805 2.438.966.301 1.75.36 2.665-.115.4-.563.61-.886.547-1.603-.451-5.122-9.058-5.31-11.002-7.167l.069-.272c1.006-.543 1.988-.387 3.094-.505.777-1.12 1.707-2.356 2.847-3.13 1.245-.847 3.834-1.01 5.255-.678 2.186-1.936 8.066-5.214 8.876-7.934.213-.716.118-.835-.232-1.431-.845-.445-1.712-.23-2.622-.13l.25-.357c.939-.232 1.683-.51 2.619-.167.464.536.571.639.514 1.397-.186 2.44-2.315 4.082-4.171 5.308-1.584 1.047-3.091 1.737-4.06 3.442 3.853-1.462 7.181-5.206 9.356-8.564.046-.819-.095-1.575-.742-2.154-.823-.738-2.182-.53-3.165-.327-3.967.818-10.055 3.663-13.582 5.699-2.382 1.376-15.494 11.411-16.959 11.44" fill="#1B1813"/><path d="M301.251 38.488c.879.028 1.208.366 1.815.94.397.939.367 1.76.029 2.715-.701 1.977-1.637 2.788-3.49 3.69-.392-.197-.785-.38-1.107-.685-.54-.509-.903-1.214-.799-1.971.234-1.702 2.317-3.62 3.552-4.69m-5.733-10.427c1.256-.05 2.328-.098 3.346.738.284.668.396.872.155 1.61-.266.81-1.199 1.658-1.945 2.026-.691.342-.744.282-1.445.058-1.43-.78-2.872-1.34-4.403-1.888 1.4-.935 2.754-1.845 4.292-2.544m5.049 3.552c.403.253.877.515 1.191.882.494.577.7 1.517.555 2.243-.243 1.225-1.046 1.875-2.06 2.492-.596-1.331-1.435-2.28-2.434-3.31.985-.715 1.86-1.48 2.748-2.307M143.975 168.391c-4.072-3.886-8.111-7.961-8.253-13.927-.267-11.125 5.965-35.646 10.655-45.871 1.593-3.471 3.542-6.648 6.216-9.393 2.275-2.335 5.244-4.885 8.691-4.82 3.024.056 5.748 1.93 7.709 4.11 3.745 4.16 4.559 9.822 4.179 15.218-.751 10.669-7.485 23.719-11.611 33.679 1.819 3.747 4.232 7.219 6.331 10.816 2.457 4.209 6.26 12.878 9.488 15.859 3.852 3.558 12.505 7.715 15.19 11.311.633.847.839 1.626.964 2.658-.55 1.523-1.555 2.67-2.549 3.922-.797-1.786-2.254-4.88-3.834-6.026-.395-.286-.411-.184-.856-.115-.869 1.542 2.887 5.385 2.701 7.674a2.31 2.31 0 0 1-1.148 1.809c-2.498 1.449-3.633-4.201-5.728-4.922l-.325.209c-.561 2.696 2.957 4.4 2.275 7.028-.215.824-.642 1.278-1.366 1.709-2.9.536-3.588-4.232-5.864-5.131-.499.256-.517.278-.77.779.247 1.404 1.527 2.263 1.984 3.556.192.544.077.705-.129 1.205-.635.441-1.212.711-1.99.808-1.706.213-3.14-.75-4.44-1.721-1.576-1.176-3.349-2.373-4.728-3.775-3.107-3.159-4.587-8.787-5.206-13.065-2.352-2.195-5.257-4.03-7.831-5.971-3.295-2.486-6.47-5.119-9.755-7.613m57.181-128.019c4.14 2.229 9.1 5.753 10.76 10.349 1.39 3.847 1.771 17.026.057 20.588-1.869 3.883-6.484 6.833-10.421 8.287-1.617.598-3.321.928-4.928 1.521-.514.19-.549.123-.778.651l.25.592c1.327.703 3.554-.291 4.907-.7-.226 1.644.034 3.93-.712 5.406-.581 1.15-1.959 1.965-3.149 2.32-3.978 1.187-8.676-.529-12.174-2.398-1.078-.639-2.118-1.358-3.168-2.042 2.455-2.275 1.979-6.525 2.109-9.658-1.539-2.35-3.042-4.676-4.36-7.16-1.365.517-2.66.861-4.09 1.14l-.198-.1-.328-.171c-.562-.288-1.123-.554-1.617-.956-1.821-1.49-2.982-3.974-3.162-6.297-.146-1.866.329-4.039 1.615-5.457.838-.923 1.898-1.402 3.143-1.448 2.917-.11 4.894 1.96 6.928 3.734.721-1.467 1.222-3.04 1.771-4.578q.258-.073.513-.158c7.432-2.43 13.394-6.424 17.032-13.465" fill="#FECFAA"/><path d="M197.369 68.092c1.94.417 3.914 2.299 6.971 2.78.466.073.206-.039.656.352l-.124.913c-.4.09-.81.18-1.221.203-1.838.104-4.126-.786-5.442-2.063-.741-.72-.82-1.168-.84-2.185m-21.467-7.912c.994.201 2.025.927 2.649 1.728.617.793.695 1.306.578 2.284-.247-.012-.417-.003-.649-.065-.925-.242-1.99-1.436-2.451-2.25-.388-.686-.312-.948-.127-1.696" fill="#1B1813"/><path d="M200.521 234.801c17.495-8.98 36.616-35.065 55.906-37.147-.56 6.76-1.637 13.536-2.755 20.226-.581 3.48-1.412 7.064-1.703 10.575-4.94-1.042-10.209.849-14.331 3.517-10.037 6.497-16.186 17.477-21.31 27.938-6.406-.22-13.003.428-19.363-.273 1.38-8.174 2.606-16.6 3.556-24.836m-40.532 1.416c.384-.018.779-.047 1.164-.016.791.063 1.628.426 2.063 1.119 1.119 1.781.452 4.851-.19 6.68-3.295 9.382-12.234 15.43-20.755 19.57l-3.635 1.486c1.352-5.073 2.747-9.825 5.351-14.428 3.534-6.248 8.851-12.424 16.002-14.411" fill="#99DCFE"/><path d="M192.283 206.122c-.599-.305-.744-.302-1.033-.895.099-.217.193-.437.304-.648.688-1.289 8.588-13.701 8.958-13.96.154-.107.359-.109.539-.163.433.399.419.48.544 1.064-1.199 3.605-3.556 7.207-5.785 10.239-1.194 1.439-2.407 2.865-3.527 4.363m15.684-1.106c1.355-1.64 2.696-3.528 4.42-4.79l.461.012c.195.937-.355 1.893-.856 2.656-.77 1.173-1.88 2.128-3.079 2.844-.442-.006-.675-.023-1.104-.166zm43.55 25.023c-3.691-.166-6.761.312-10.112 1.91-9.238 4.408-19.711 18.25-23.083 27.933l-1.994.028c-6.406-.22-13.003.428-19.363-.274.002.788-.089.913.404 1.51 2.211.79 4.934.252 7.262.347-.998 11.669-3.756 23.217-4.608 34.881 15.317-.367 30.691-.13 46.013-.077-.004 11.61.23 23.274-.024 34.878-.015 3.583-.471 7.935.177 11.434-7.109-.176-14.255-.036-21.368-.038l-41.738-.052c-.296 5.02-.091 10.132-.092 15.166q-.048 12.668.069 25.335l-68.958.01-21.532-.002c-3.283-.001-6.685-.239-9.951.008-.9.068-1.72.17-2.331.868.277.529.103.398.574.638.79.403 1.716.473 2.586.484 23.92.31 47.902-.03 71.828-.032l19.299-.007c2.779-.003 7.358.473 9.904-.284.996-1.642.4-35.722.387-40.265l63.096-.02c.305-3.893.101-7.926.055-11.828l.039-1.749.01-33.066 38.768.085c7.151-.001 14.34.152 21.483-.102.31-5.593.074-11.321.072-16.927l-.016-32.018 36.724-.019c3.934-.002 22.857.568 25.588-.491l.205-.384c-.882-.931-2.122-.951-3.332-.971h-.013c-11.31-.182-22.692.066-34.011.061-8.927-.005-17.998-.338-26.91.074-.475 16.25-.061 32.618-.049 48.881l-41.959-.013c.589-3.511.691-7.397-1.39-10.474-2.535-3.75-7.952-5.769-11.684-8.219-1.607-1.055-3.049-2.334-4.48-3.611-1.11-.991-2.644-2.782-3.974-3.362-.27.227-.508.427-.736.698l-.338-.7-.551-.125c.103-.181.174-.447.247-.644-1.28-1.499-4.771-1.807-6.706-1.978l-.077-.006c.328-1.997.465-4.054.678-6.068 2.451-.028 8.385.652 10.347-.29.403-.194.478-.81.618-1.215.037-2.417.851-5.269 1.276-7.669 1.293-7.314 3.09-14.864 3.671-22.249" fill="#1B1813"/><path d="M218.323 259.882c3.371-9.683 13.844-23.525 23.083-27.933 3.351-1.598 6.421-2.076 10.111-1.91-.581 7.385-2.377 14.935-3.671 22.249-.424 2.4-1.239 5.253-1.276 7.669-3.359-.26-6.845-.093-10.217-.092z" fill="#99DCFE"/><path d="m241.463 270.158.551.125.337.7c-.872 1.578-1.717 3.423-2.915 4.782-.4.453-.648.802-1.277.849-.321-1.895 2.266-4.961 3.304-6.456" fill="#fff"/><path d="m206.478 261.483 27.487.028c-.189 1.98-.121 5.726-1.089 7.401-.211.366-.627.333-1.01.427-8.764 1.214-17.791 1.416-26.626 1.323z" fill="#FECFAA"/><path d="M239.928 292.236c5.721-.196 11.451-.118 17.174-.146 1.542-.007 3.772-.367 5.233-.065.557.115.606.216.89.663l-.134.543c-1.498.679-33.486.577-37.608.626-2.908.005-21.85.546-23.123-.295-.39-.258-.32-.362-.415-.775 1.08-.765 33.617-.442 37.983-.551" fill="#fff"/><path d="M106.944 313.014c5.171.08 10.8 1.374 15.943 2.114 4.688.674 9.769 1.016 14.345 2.141.487.12.851.315 1.271.58-2.035 4.38-3.714 8.803-5.284 13.369 2.002 2.041 3.324 4.073 4.341 6.733-2.247.782-5.084 1.473-6.778 3.204l.092.295c2.349.096 4.877-1.376 6.995-2.318 1.614 5.563 2.146 12.333 6.749 16.379 2.009 1.767 4.39 3.108 6.237 5.063 1.975 2.092 2.778 4.612 2.728 7.451-.024 1.304-.139 2.451-1.18 3.36-2.997 2.618-14.272 1.911-18.104 1.519-2.692-.275-5.577-.773-8.051-1.904-7.419-3.393-32.747-22.518-37.734-28.601 4.633-6.19 9.47-12.424 13.353-19.119 1.918-3.307 3.475-6.799 5.077-10.266" fill="#1B1813"/><path d="M108.145 314.687a2063 2063 0 0 0 27.994 4.053 170 170 0 0 0-4.554 11.615c-.509.384-1.135.609-1.748.756-6.827 1.634-19.457-5.074-25.373-8.718a288 288 0 0 0 3.681-7.706" fill="#FECFAA"/><path d="M91.293 340.884c2.368.03 30.315 24.787 39.267 27.153 4.238 1.12 11.532.964 15.889.102 1.575-.311 3.563-1.412 5.131-1.272l.175.414-.317.57c-4.586 2.285-12.555 2.678-17.552 2.188-2.385-.234-4.574-.772-6.722-1.847-9.73-4.874-20.309-13.809-28.933-20.545-2.041-1.594-5.25-3.542-6.81-5.551-.363-.468-.194-.651-.128-1.212" fill="#fff"/><path d="M352.352 290.616c.481.142.783.334 1.186.628.686 2.556.611 5.538.873 8.189a385 385 0 0 0 1.979 16.906c2.475-2.019 16.9-14.275 18.417-14.355l.177.527c-.721 2.817-11.16 15.901-13.588 19.004 3.346.833 17.284 3.6 19.116 5.334l-.006.451c-1.522 1.133-16.07 2.09-18.778 2.218 1.627 2.144 13.655 18.13 13.53 19.581l-.504.235c-.768-.18-1.273-.474-1.906-.944-1.736-1.289-3.316-2.924-5.004-4.299-4.106-3.344-8.308-6.589-12.301-10.066-.027 4.77-.532 9.635-.863 14.397-.218 3.132-.205 6.553-.833 9.612-.133.647-.213.822-.661 1.275-.656-.055-.665-.103-1.157-.553-.837-7.947-1.871-15.869-2.609-23.829-3.535 2.851-15.99 12.783-19.477 14.279l-.584-.258c.035-.899.553-1.783 1.014-2.528 1.399-2.259 3.283-4.34 4.892-6.462 2.598-3.424 5.088-6.938 7.605-10.422-3.077-.363-17.281-1.173-18.919-2.674l.073-.389c.505-.402 17.217-3.901 19.46-4.426-3.277-4.659-7.34-8.947-11.153-13.183-1.462-1.625-3.141-3.236-4.433-4.993-.3-.408-.412-.709-.451-1.224l.364-.4c.683-.026 1.111.243 1.68.583 1.986 1.186 3.83 2.807 5.76 4.112 4.602 3.109 9.819 6.026 13.951 9.717.232-4.654 1.07-9.37 1.596-14.005.376-3.314.441-9.072 1.554-12.038" fill="#FFADC1"/><path d="M334.085 166.016c3.178 3.09 5.658 7.8 8.09 11.537 3.702-2.093 7.376-4.248 11.344-5.806-.041 3.956-1.289 7.706-2.174 11.53 4.393 1.127 9.23 1.467 13.73 2.232-3.994 3.425-8.481 6.212-12.513 9.598 1.46 4.501 3.078 9.008 4.243 13.593a72 72 0 0 1-12.594-5.819c-1.301.337-7.875 8.755-9.645 10.436-1.411-4.467-1.88-8.951-2.124-13.606-5.605-.181-11.217.031-16.817.276 3.871-4.243 8.196-7.893 12.462-11.72-3.407-3.295-6.962-6.513-9.863-10.276q6.729-.064 13.458.028c.432-3.991.668-8.332 2.403-12.003m-299.154-8.975c.53.094.883.327 1.286.68 3.648 3.2 6.969 7.227 10.401 10.709 5.172 5.243 10.747 10.313 15.617 15.823-4.254 2.049-10.09 3.453-14.677 4.946-3.967 1.293-16.914 6.131-20.235 6.136l-.249-.368c-.034-3.194 2.081-10.557 2.825-14.115 1.65-7.877 2.84-16.082 5.032-23.811" fill="#4A65E8"/><path d="M207.819 150.233c6.928.864 13.503 2.918 19.919 5.623l-.244.226c-3.468 3.26-4.212 8.349-4.326 12.897-.096 3.811.389 9.225-2.737 12.025-1.043.933-2.358 1.231-3.732 1.117-2.897-.242-5.279-2.528-7.001-4.703-4.179-5.276-6.925-12.245-6.043-19.04.346-2.658 1.264-5.129 2.351-7.563.636-.111 1.214-.351 1.813-.582" fill="#99DCFE"/><path d="m294.931 339.681.408.276c1.163 2.128 2.541 22.844 2.458 26.66-5.304-1.459-10.506-3.425-15.728-5.161-2.441-1.03-5.862-1.418-7.89-3.14l.062-.528c2.789-3.987 16.33-15.227 20.69-18.107M90.46 109.642c1.967 1.743 9.033 13.296 10.083 16.09-3.414.852-7.085 1.15-10.575 1.628-2.185.349-6.79 1.472-8.798.53l.414-.487-.38.226c1.007-3.348 7.172-15.033 9.256-17.987" fill="#4A65E8"/><path d="M287.126 223.175a5.398 5.398 0 0 1 2.909 10.398 5.4 5.4 0 1 1-2.909-10.398" fill="#1B1813"/><circle cx="2.318" cy="2.318" r="2.318" transform="matrix(-1 0 0 1 199.667 56.06)" fill="#1B1813"/><path d="M206.236 60.699c.353-.003.734-.013 1.074.104a2.42 2.42 0 0 1 1.434 1.339c.277.68.25 1.492-.005 2.172-.423 1.127-1.135 1.606-2.128 2.05-.325-.06-.477-.13-.737-.35-.26-1.053 1.66-1.565 1.836-2.625.183-1.103-1.146-1.114-1.638-1.744-.065-.43.016-.551.164-.946m-12.94-8.561c-.717.52-1.681 1.12-2.11 1.91-.269.495-.253.73-.098 1.228.201.131.368.332.603.394.458.122 2.982-1.823 3.568-2.135.636-.34 1.351-.481 2.044-.622l.285-.055c.883-.074 1.858-.033 2.514-.754.265-.291.187-.343.181-.69-.329-.383-.606-.56-1.099-.686-1.942-.499-4.155.459-5.888 1.41m18.283-1.43c-.701-.377-1.413-.617-2.221-.665-.79-.046-1.863.112-2.483.729-.301.298-.29.377-.317.773l.301.329c.598.26 1.108.155 1.754.073 1.959-.001 2.441 1.775 3.917 1.87.397-.308.399-.302.53-.792-.162-1.016-.781-1.661-1.481-2.317" fill="#1B1813"/><circle cx="1.803" cy="1.803" r="1.803" transform="matrix(-1 0 0 1 211.002 56.06)" fill="#1B1813"/></svg>