<svg width="400" height="400" viewBox="0 0 400 400" fill="none" xmlns="http://www.w3.org/2000/svg"><path d="M336.545 95.889c.393.159.364.197.598.52.275 2.191-1.518 7.57-2.078 9.973l-6.415 26.688a1516 1516 0 0 0-5.506 24.463c-.646 2.968-4.11 20.281-4.619 21.115-.218.357-.294.376-.672.476-1.058-1.358-1.942-2.895-2.918-4.316-1.648-2.397-3.426-4.703-5.064-7.107-2.315-3.399-4.465-6.887-7.131-10.032-8.203 7.419-15.884 15.367-23.767 23.116a2807 2807 0 0 1-36.352 35.368c-5.694 5.494-11.207 11.26-17.153 16.48l1.509-2.66c2.98-4.638 5.78-9.39 8.713-14.057l25.046-39.855 10.199-16.126c3.18-4.927 6.812-10.303 9.469-15.498-8.652-2.557-17.402-4.867-25.922-7.849 1.79-1.116 3.751-1.984 5.615-2.969a643 643 0 0 1 15.199-7.771c15.597-7.811 31.423-15.161 47.054-22.905 4.73-2.343 9.538-4.568 14.195-7.054" fill="#A2AFE1"/><path d="M59.101 54.681c2.258.761 8.965 7.008 11.138 8.85 2.006-1.097 10.473-5.709 12.221-5.214.47.133.685.36.854.804.676 1.776-4.186 10.771-5.13 12.901 1.535 1.822 9.274 9.165 9.475 10.626.064.467.013.82-.34 1.163-1.503 1.464-10.245.112-12.647-.115l-1.708-.05c-1.124 2.294-5.449 10.137-7.617 11.016-.491.199-1.052.23-1.515-.061-1.69-1.06-2.758-10.674-3.22-13.003-2.48-.716-11.98-2.064-13.073-3.641-.18-.26-.3-.465-.238-.78.11-.554.514-.956.935-1.305 1.121-.928 2.532-1.632 3.773-2.397a323 323 0 0 1 7.427-4.514c-.278-2.851-3.111-11.32-1.704-13.562.294-.469.873-.576 1.369-.718" fill="#000063"/><path d="M58.74 56.239c2.044.545 9.357 7.403 11.38 9.098 3.398-1.652 6.692-3.925 10.198-5.296.551-.215.992-.361 1.539-.107.29 1.028-4.66 10.596-5.411 12.483 2.933 2.993 7.975 7.489 10.104 10.906-3.648-.115-7.348-.63-11-.877a199 199 0 0 1-3.346-.302c-1.125 1.849-5.667 10.148-7.034 10.917-.29.162-.38.049-.668-.044-1.06-1.416-2.147-10.13-2.577-12.525-3.348-1.041-6.858-1.578-10.277-2.331-.718-.158-1.762-.302-2.18-.959.422-1.215 9.76-6.43 11.512-7.549-.552-4.493-1.973-8.885-2.24-13.414" fill="#FFADC1"/><path d="M370.48 168.001c.663 0 1.436.01 1.964.47 1.185 1.034.391 11.871.354 13.945 2.255 1.184 10.956 4.861 11.944 6.599.213.375.291.753.075 1.151-.988 1.824-11.041 3.8-13.446 4.394-.221 2.708-.465 11.118-1.945 13.002-.297.377-.713.657-1.21.65-2.733-.042-6.722-8.683-8.586-10.867-.301-.354-.342-.392-.781-.417-2.478.589-10.746 2.883-12.732 2.122-.506-.193-.617-.43-.842-.897.013-2.126 6.555-9.82 8.151-11.896-1.381-2.364-6.481-9.105-6.211-11.462.049-.426.216-.816.612-1.028 1.743-.933 10.925 3.061 13.327 3.933 3.365-2.864 6.306-6.463 9.326-9.699" fill="#000063"/><path d="M371.448 169.159c.806 1.411-.281 11.594-.333 13.997 1.953 1.236 11.754 5.328 12.429 6.352-.9 1.205-11.282 3.51-13.34 4.008-.16 1.648-1.097 12.007-1.743 13-.192.296-.103.188-.516.291-2.108-.788-5.569-9.498-7.998-11.11-.697-.462-1.952-.026-2.712.144-3.588.902-7.268 1.555-10.89 2.309 2.455-4.272 5.997-7.899 8.787-11.957-1.27-2.007-5.793-8.505-6.166-10.296-.087-.419-.036-.476.183-.814.487-.114.856-.053 1.326.091 1.334.408 2.638 1.065 3.942 1.574q3.555 1.356 7.141 2.632c3.428-3.272 6.493-6.911 9.89-10.221m-48.367 45.913c.084.001.168-.003.252.002.6.035 1.149.272 1.504.779.272.387.263.865.131 1.301-.387 1.276-17.883 18.237-19.802 20.125l-48.341 47.635c-3.419 3.372-6.925 6.659-10.325 10.045-2.15 2.14-4.468 5.251-7.068 6.812-.684.049-1.12-.08-1.706-.422-.164-.305-.276-.413-.266-.772.021-.862.775-1.77 1.321-2.376 1.339-1.485 2.998-2.786 4.417-4.221 5.921-5.989 12.003-11.795 17.961-17.742zm-263.58 90.222c.575.153 1.124.306 1.507.802.286.371.396.757.251 1.213-.32 1.003-2.73 3.214-3.592 4.097-3.243 3.321-6.727 6.426-10.034 9.688l-13.198 13.051c-1.981 1.949-5.155 5.843-7.448 6.953-.358-.079-.733-.168-1.056-.349-.463-.258-.67-.582-.812-1.083.137-.774.516-1.105 1.039-1.67 2.968-3.211 6.238-6.169 9.356-9.232l13.78-13.65c3.084-2.995 6.888-7.353 10.207-9.82" fill="#A2AFE1"/><path d="M315.9 52.987c2.061-2.12 4.18-4.171 6.223-6.31.655-.687 1.311-1.518 2.313-1.534.186.25.267.263.252.6-.057 1.269-6.374 7.128-7.642 8.42 2.236 2.205 6.293 5.583 7.768 8.194l-.869.322c-1.151-.192-6.769-6.19-7.946-7.357-2.505 2.114-4.581 4.904-7.155 6.88-.465.357-.816.413-1.38.324-.181-.194-.121-.072-.132-.385.671-1.544 5.905-6.462 7.349-7.998-1.266-1.597-7.326-6.869-7.555-8.148-.054-.304.256-.573.421-.81 1.774.682 6.634 6.143 8.353 7.802" fill="#000063"/><path d="M40.968 283.326c.603.11 1.169.325 1.566.817.23.285.384.775.27 1.139-.195.625-14.69 15.233-16.076 16.166-.363-.011-.68-.032-1.02-.178-.496-.214-.666-.602-.857-1.064.032-.432.052-.772.326-1.132 1.366-1.797 3.369-3.376 4.972-4.976 3.6-3.594 7.089-7.309 10.82-10.772" fill="#A2AFE1"/><path d="M344.487 290.86c.33.061.201.013.509.172.308.16.243.199.339.509-.673 1.827-4.318 4.921-5.792 6.467 1.101 1.39 4.468 4.505 5.069 5.66.233.447.14.564-.031.992l-.413.101c-2.171-1.197-4.073-3.803-5.751-5.608-1.888 1.996-3.784 4.11-5.905 5.858-.221-.176-.429-.369-.641-.557.07-1.107 4.461-5.255 5.477-6.456-1.136-1.295-5.448-4.843-5.685-6.165-.051-.285.023-.233.253-.48.074-.002.149-.011.223-.007 1.03.055 5.325 4.669 6.237 5.558 2.106-1.948 4.108-3.99 6.111-6.044m-42.11 33.566c.407.091.476.162.79.445v.515c-.866 1.681-8.822 9.043-10.749 10.824-.333-.007-.482-.063-.785-.183l-.156-.369c.368-1.554 9.263-9.64 10.9-11.232m15.311-14.886c.369.119.615.25.927.479l.031.399c-1.383 2.125-8.38 8.611-10.588 10.58-.111-.022-.228-.022-.331-.066-.44-.188-.481-.434-.572-.844.725-1.362 8.86-8.933 10.533-10.548" fill="#000063"/><path d="M43.746 127.175c.585.787.31 11.506.316 13.283 4.518.216 9.124-.218 13.624.156-.007-2.07-.39-7.542.347-9.19l.29-.01c1.05 1.688-.46 8.402.807 9.146 1.378-.114 7.815-.438 8.657.122l-.07.27c-1.537.847-7.059.4-9.027.394-.016 3.246-.433 8.159.044 11.2.341.268.694.3 1.078.302.325-.011.656.011.932.01 1.832.006 10.569-.331 11.637.315l-.03.288c-1.063.633-11.391.275-13.631.284v-.001l-.082.084a533 533 0 0 0-.044 11.633l.93-.059c2.638-.145 8.215-.307 9.533.213l-.052.276c-1.147.635-5.205.586-8.004.484l-2.224-.094c-.413 1.289-.271 7.483-.082 9.024l.54.188.543.179.058.328c-.63.426-1.122-.049-1.313.917-.066.331-.115.667-.17 1l-.304-.039-.133-.256c-.286-.544-.474-1.018-1.017-1.35-3.438-.174-7.113.364-10.539.049l-.681-.075c-.263.025-1.202.024-1.38.135-.925.585.416 7.841-.704 9.197l-.335-.064c-.637-1.42.326-6.902-.197-8.998l-.075-.271-.188-.043c-3.78.202-7.854.229-11.703.04l-1.634-.094c.106.65.286 1.461-.093 2.033l-.305-.152c-.47-.71-.97-1.62-.912-2.493.083-.059.351-.244.404-.321.446-.654.184-7.789.021-8.9-2.645-.008-7.147.343-9.496 0-.435-.063-.74-.245-1.072-.519l.033-.137c1.131-.483 8.817-.173 10.519-.164.45-2.381.104-9.124.025-11.851-.12.024-.237.059-.357.072-1.575.172-11.532.254-12.628-.062-.142-.041-.245-.166-.368-.249l.019-.375c1.003-.637 11.4-.271 13.325-.271q-.06-5.723-.058-11.447c-1.603-.013-6.968.366-8.018-.384l.094-.283c1.484-.622 6.143-.217 7.976-.207q.015-4.37-.026-8.74c.314-.311.296-.277.742-.276.479.521.259 7.631.259 9.017 4.53.126 9.082.054 13.613.026.006-3.931-.26-8.015-.022-11.922.034-.569.187-.99.608-1.368m15.241 48.551a7 7 0 0 1 .258-.014zm-1.238-9.362c-4.531-.135-9.099-.022-13.634-.019-.034 2.981-.269 6.151.017 9.118 2.774-.027 11.307-.397 13.573.118.114-3.07.062-6.146.044-9.217m-14.912-.126c-2.479.421-8.432.187-11.896.11l-1.356-.02c-.043 1.512-.386 7.917.17 8.931l.377.114 1.482-.014c3.653-.061 8.502-.283 11.488.161.142-3.089.102-6.24-.004-9.332zm.496-.15-.116.044zq.115-.037.23-.06zm.239-.264q-.094-.023-.19-.042.096.019.19.042m-.308-.064q-.116-.022-.23-.04zm-1.046-.128-.175-.011zm-.542-.026q-.19-.007-.38-.011.19.004.38.011m-2.607-.048.09.003a13 13 0 0 1-.447-.027zm-9.529-11.882c-.425 3.672.344 7.921-.064 11.455l-.043.34 1.098-.014q.555-.012 1.116-.028l2.256-.057 1.13-.012a33 33 0 0 1 3.322.139c1.552-.185 3.224-.09 4.792-.117l-.013-11.672zm14.566-.016c-.335 3.87-.107 7.885-.06 11.773.778.013 1.576-.009 2.352.056 3.664-.306 7.597-.044 11.297-.059a560 560 0 0 1 .06-11.352c-.419-.283-.9-.329-1.389-.349l-.49-.02c-2.456.329-9.133.167-11.77-.049m7.725-.23q-.602.02-1.224.046c.414-.016.825-.034 1.224-.046m2.872.02q-.08-.007-.164-.012.083.005.164.012m-7.718-.394c-1.32.009-2.34.08-2.647.286.37-.247 1.765-.299 3.472-.284q-.427-.004-.825-.002m-7.026.37-.24-.003h-.088zm-2.88-.001 1.084-.002h-.879zm15.472-.011.162-.004zm.646-.007q.213-.002.415 0-.202-.002-.415 0m-.049-.23q.402.006.766.004a89 89 0 0 1-2.488-.041zm2.029-.032.242-.02zm-25.335-.104q-.112.018-.22.044.24-.054.491-.078zm14.104-11.887c.037.022.066.058.175.154-.2 3.803-.072 7.656-.06 11.465 4.243.007 8.662-.234 12.883.061l.48-.094c.647-1.09.264-9.516.257-11.327-4.51-.196-9.044.011-13.56-.105-.164-.145-.148-.153-.246-.184zm-.833.078c-1.107.103-2.233.16-3.37.187q-.853.02-1.71.022c-2.29.005-4.6-.075-6.863-.109l-1.687-.015c-.039 3.423-.464 7.825.054 11.155.485.426 1.277.338 1.903.327l11.7-.031q.036-5.768-.027-11.536m15.293-.677" fill="#FFADC1"/><path d="M189.158 35.399c4.151-.575 7.322-.073 11.661.923 4.007.92 7.896 3.43 10.061 6.971 1.602 2.621 2.017 5.228 1.341 8.203 1.114 1.82 1.711 3.776 2.19 5.452 1.453 1.78 4.475 6.306 5.266 8.616 3.111 9.095.087 13.619-2.178 15.682-3.806 3.466-6.736 4.903-11.173 5.427-.295 2.028-.755 3.977-1.272 5.958.624.894 5.088 7.523 5.449 7.831.12.101.538.2.638.219 2.78.534 7.815-2.142 10.139-3.543 13.352-8.045 22.79-23.392 26.457-38.25l-.092-.101a28 28 0 0 1-1.136-1.309c-1.411-1.767-2.495-4.068-2.155-6.383.311-2.122 1.545-3.234 3.153-4.458-.091-.985-.128-2.046.299-2.964.298-.643.778-1.11 1.48-1.294 3.466-.903 11.894 2.07 14.761 4.116 1.597 1.14 2.342 3.047 2.601 4.934.616 4.485-.405 9.911-1.045 14.393-.68 4.757-1.665 9.396-2.75 14.076-3.643 15.7-8.571 25.523-17.996 38.386-3.4 4.245-8.427 9.271-13.453 12.622-4.448 2.965-13.843 8.341-13.905 8.377l-2.728 30.907c-.407 4.334-.491 9.007-2.005 13.114 3.264 4.517 7.306 8.67 10.947 12.91a1985 1985 0 0 1 24.293 28.501c3.462 4.157 7.183 8.241 10.335 12.63 5.955 8.294 8.564 18.637 6.278 28.698-1.071 4.712-3.012 9.276-4.812 13.751a1024 1024 0 0 1-7.715 18.434c-1.116 2.61-4.032 8.007-4.455 10.546l.01.005c.455.225.796.395 1.18.739.39.35.527.757.515 1.284-.076 3.413-2.704 8.481-5.148 10.813-1.191.093-2.395.103-3.59.142-1.517 5.761-3.955 11.609-4.866 17.472 1.933-1.446 3.945-2.8 5.956-4.135l.183-.121c1.989-1.322 4.576-3.043 7.029-2.469a5.32 5.32 0 0 1 3.408 2.55c.618 1.088.83 2.403.439 3.607-.979 3.011-5.216 4.776-7.822 6.197 3.028 1.069 24.117 10.045 25.56 11.282 1.99 1.708 2.69 3.953 2.798 6.481 4.521.027 37.15-.261 38.801.391.28.522.187.54.1 1.096-1.138.672-16.348.185-18.93.172l-185.425.032-58.837.015-17.039.051c-2.862.011-5.937.253-8.77-.087-.68-.082-.68-.133-1.087-.649l.075-.479c.54-.438 1.194-.487 1.866-.534 2.69-.19 5.543.024 8.248.027l18.288.013 53.145-.081c-2.165-1.02-4.427-2.121-6.22-3.735-4.547-4.096-8.479-9.218-12.609-13.761l-10.181-11.134c-2.224-2.433-5.157-5.043-6.69-7.957 1.317-1.261 17.118-13.642 17.698-13.745a6 6 0 0 0 1.072.645c4.181-3.093 8.088-6.831 12.06-10.201-.606-.854-1.092-1.773-1.598-2.688 1.571-2.123 6.961-7.524 9.42-8.322 1.072-.348 2.129.36 3.022.856 11.657-9.274 19.741-20.944 25.73-34.475-11.921-4.888-22.651-6.998-35.382-3.533-1.868 3.364-13.306 26.408-14.217 26.972-.135.083-.296.111-.444.166-2.517-.781-5.694-4.9-7.364-6.927-9.102-11.06-12.335-22.987-11.019-37.097-2.43-3.21-6.417-5.909-10.187-7.264-.93-.334-2.719-.549-3.472-1.072-.467-.324-.347-.454-.371-.935 1.056-2.165 2.657-4.176 4.042-6.141q4.46-6.293 9.079-12.47a484 484 0 0 1 74.098-79.972c7.14-6.113 14.458-12.207 22.084-17.701-12.661-12.077-27.512-43.413 14.376-72.138 5.586-2.826 6.769-3.765 12.507-4.56m-.008 200.517c-5.714 11.585-12.137 22.89-18.622 34.058-4.463 7.688-8.598 15.985-14.763 22.482-5.498 5.792-12.309 10.419-19.201 14.379-1.382.794-9.821 4.998-10.188 5.98-.347.929-.56 1.401-1.332 2.002-3.201 2.49-6.631 5.12-10.179 7.081-1.242-1.148-2.273-2.438-3.334-3.753-3.177 2.568-6.336 5.127-9.666 7.498 5.709 1.329 13.017 4.1 16.308 9.344.673 1.073 1.089 2.399.737 3.656a3.28 3.28 0 0 1-1.646 2.017c-1.613.847-3.7.443-5.338-.111-3.826-1.292-8.213-4.671-10.28-8.179-.796-1.352-1.405-3.155-2.605-4.19-.114.544-.069.769.127 1.31 1.3 3.588 3.502 7.192 5.237 10.61 3.046 5.997 5.922 12.014 9.292 17.841.837 1.642 1.362 2.699 1.377 4.584.267.139 87.277.396 95.766.153.03-1.787.035-3.566.399-5.322.38-1.834 4.689-15.346 5.41-16.123.311-.333.927-.555 1.342-.734.992-3.742 1.708-7.573 2.509-11.361.696-3.296 1.608-6.656 1.816-10.024-1.812-1.468-2.6-2.555-2.835-4.99-.254-2.631.199-5.921 1.984-7.955.657-.75 1.515-1.218 2.409-1.625a610 610 0 0 0 3.761-32.46c.472-4.789 1.305-9.779 1.374-14.581a809 809 0 0 0-27.51-14.996c-4.077-2.162-8.163-4.671-12.349-6.591" fill="#1B1813"/><path d="M200.88 94.607c.745-.121 1.587-.182 2.34-.118.612.051.993.327 1.37.796-1.45.832-5.021 1.175-6.766 1.695-3.624 1.082-7.242 2.92-10.468 4.876-6.47 3.921-12.646 9.199-18.093 14.448-4.462 4.3-8.611 8.998-12.807 13.557a554 554 0 0 0-33.34 39.639c-1.227 1.605-4.483 5.106-4.817 6.98-.077.433.082.462.329.791l.531.043c1.193-.714 8.105-10.388 9.653-12.366a689 689 0 0 1 25.845-30.52c12.348-13.664 32.049-36.168 51.58-37.157.879 1.016 1.572 2.07 2.279 3.207-2.608-.05-5.269-.228-7.813.471-7.624 2.094-13.711 10.057-18.427 15.99-11.748 14.781-20.233 31.779-30.301 47.681-3.038 4.8-6.468 9.373-9.614 14.106-9.78 14.712-19.539 29.639-28.079 45.107a1864 1864 0 0 0-17.766 33.546c-3.74 7.315-7.192 15.004-11.407 22.041a41 41 0 0 1-4.062-3.851c-9.858-10.59-13.174-21.952-12.62-36.107 3.097-2.539 13.536-19.265 16.558-23.76 2.556-3.801 5.378-7.508 7.774-11.408.41-.667.648-1.108.464-1.882l-.461-.223c-.567.15-.84.367-1.215.826-1.938 2.373-3.534 5.378-5.303 7.92a1825 1825 0 0 0-17.682 26.144c-3.8-4.575-7.835-7.036-13.359-9.161 3.04-4.91 6.548-9.539 10-14.164a645 645 0 0 1 13.703-17.85 452.8 452.8 0 0 1 76.218-76.072c12.868-10.2 29.081-23.313 45.756-25.225" fill="#4A69E8"/><path d="M247.957 65.33c5.294-1.442 10.52-1.765 15.608.626-2.524 19.55-8.538 38.036-21.954 52.923-2.746 3.047-5.548 5.927-8.814 8.429-7.354 5.637-15.627 9.764-24.283 12.998-1.327.496-4.717 1.316-5.271 2.501l.239.543c1.934.729 9.175-2.835 11.525-3.623-.458 10.064-1.184 20.02-2.078 30.055-.305 3.43-.217 7.435-1.137 10.738-.271.974-1.076 1.808-1.803 2.469-2.978 2.708-7.171 4.856-10.824 6.488a87.8 87.8 0 0 1-41.629 7.502c-3.59-.239-7.447-.532-10.686-2.232.2-5.259 2.892-20.85 4.694-25.513 1.574-4.071 7.013-12.096 9.515-16.207 5.151-8.466 9.925-17.171 15.61-25.305.529-1.176 1.593-2.364 2.412-3.357 5.254-7.224 14.21-20.413 23.591-21.85 3.317-.508 6.727.229 10.046-.16 9.759-1.144 19.442-11.072 25.121-18.474 4.339-5.657 7.287-12.062 10.118-18.552" fill="#fff"/><path d="M179.081 124.365c1.269.367 2.312.659 2.966 1.892.358.675.328 1.584.027 2.271-.349.797-.984 1.418-1.828 1.669a2.37 2.37 0 0 1-1.861-.22c-.896-.504-1.294-1.364-1.716-2.256.528-1.175 1.593-2.363 2.412-3.356m55.348-21.028c1.312.042 2.281.264 3.269 1.196.575.542 1.007 1.362.958 2.172-.081 1.317-.828 1.935-1.774 2.706-.247.055-.381.092-.648.113-.94.072-1.932-.281-2.599-.954-.644-.65-.899-1.572-.85-2.469.066-1.235.771-1.976 1.644-2.764m-75.267 66.923a2.984 2.984 0 1 1 2.491 5.423 2.984 2.984 0 0 1-2.491-5.423m24.107-27.254a2.935 2.935 0 1 1 1.142 5.758 2.935 2.935 0 0 1-1.142-5.758m-9.753 10.757a2.93 2.93 0 1 1 1.723 5.6 2.93 2.93 0 0 1-1.723-5.6m52.029-34.691a2.909 2.909 0 1 1 1.799 5.532 2.909 2.909 0 0 1-1.799-5.532M207.94 149.79q.252-.012.505-.012a3.3 3.3 0 0 1 2.512 1.139c.515.585.686 1.375.611 2.135-.12 1.233-.897 1.98-1.781 2.757q-.124.008-.25.014c-1.091.044-1.934-.117-2.727-.92-.559-.566-.766-1.317-.72-2.094.08-1.338.87-2.202 1.85-3.019m-26.302 24.124a2.853 2.853 0 0 1 3.627 1.789 2.853 2.853 0 1 1-5.409 1.823 2.854 2.854 0 0 1 1.782-3.612m12.376-16.064a2.841 2.841 0 1 1 1.228 5.548 2.841 2.841 0 0 1-1.228-5.548m19.447-48.092a2.843 2.843 0 1 1 .744 5.637 2.843 2.843 0 0 1-.744-5.637m-62.48 75.599a2.83 2.83 0 0 1 3.534 1.858 2.832 2.832 0 1 1-3.534-1.858m45.672-59.524c.49.028 1.006.051 1.483.176.755.197 1.448.756 1.823 1.437.378.684.376 1.377.138 2.105-.324.995-1.192 1.432-2.052 1.877-.283-.015-.477-.018-.745-.056-.897-.126-1.901-.678-2.421-1.432a2.4 2.4 0 0 1-.279-2.119c.343-1.011 1.196-1.47 2.053-1.988m53.852-50.944c.504-.02 1.039-.058 1.54.013.778.11 1.604.77 1.998 1.44a2.44 2.44 0 0 1 .251 1.885c-.286 1.063-1.007 1.526-1.92 2.034-.361.02-.773.058-1.131.002-.88-.137-1.704-.722-2.199-1.457a2.61 2.61 0 0 1-.354-2.185c.258-.957 1.017-1.295 1.815-1.732m-53.968 34.557a2.799 2.799 0 0 1 .462 5.58 2.8 2.8 0 1 1-.462-5.58m7.628 61.608c.952.199 1.795.631 2.346 1.467.428.65.503 1.417.32 2.158-.328 1.329-1.168 1.93-2.292 2.594-1.103-.31-2.06-.853-2.598-1.913-.345-.68-.356-1.486-.1-2.196.419-1.162 1.266-1.6 2.324-2.11m40.076-81.644a2.628 2.628 0 1 1 1.92 4.892 2.628 2.628 0 0 1-1.92-4.893m-77.47 101.143a2.054 2.054 0 1 1 1.472 3.835 2.054 2.054 0 0 1-1.472-3.835m23.09-4.165c.895-.002 1.615.014 2.298.679.427.415.578 1.039.507 1.615-.096.776-.604 1.263-1.159 1.754-.7-.189-1.535-.404-2.113-.867-.534-.428-.6-.783-.712-1.43.235-.821.565-1.169 1.179-1.751" fill="#4A69E8" fill-opacity=".7"/><path d="M211.205 184.451c.303.165.219.078.413.33 3.488 4.55 7.509 8.69 11.24 13.04 7.938 9.254 15.876 18.563 23.625 27.976 5.641 6.851 12.473 13.535 15.364 22.131 1.782 5.301 2.097 10.846 1.174 16.349-.947 5.649-3.557 11.014-5.636 16.319-3.628 9.262-7.305 18.712-11.69 27.645-6.632-1.015-13.437-1.824-19.985-3.256.25-3.837 1.092-7.736 1.602-11.558a358 358 0 0 0 1.87-17.849c.528-5.9.967-11.83 1.657-17.714 2.157-1.942 5.692-4.833 6.679-7.526l-.77-.324.796-.216-.015.442-.585-.357c-2.42.793-4.949 4.015-6.707 5.812-4.794-2.245-9.413-4.961-14.055-7.505l-19.042-10.237a1210 1210 0 0 1-20.547-11.047c-3.702-1.997-7.742-3.857-11.197-6.244-7.528-5.201-8.746-13.631-10.305-22.006 18.515 1.709 41.172-2.803 56.114-14.205" fill="#99DCFE"/><path d="M153.405 200.971c.83.947 1.442 6.188 1.895 7.758 3.204 11.1 9.54 13.957 18.941 19.017l13.451 7.349c-6.624 11.988-12.931 24.095-19.835 35.933-3.888 6.668-7.627 13.577-12.848 19.323-4.931 5.428-10.913 9.756-17.137 13.568-4.195 2.49-8.531 4.735-12.703 7.267-1.729-1.828-3.238-3.97-4.845-5.914a188 188 0 0 0-9.977-11.265c1.544-1.043 3.009-2.123 4.393-3.374a87.7 87.7 0 0 0 16.353-19.797c9.952-16.453 21.299-50.547 22.312-69.865" fill="#99DCFE"/><path d="M211.778 55.99c-3.275-5.126-10.28-12.257-16.135-14.086 1.979 4.545 1.986 8.49.148 13.091-1.852 4.636-5.133 9.571-9.885 11.582-1.558.66-2.836.955-4.439.274-1.268-.54-3.093-1.757-4.5-1.128-.898.401-1.518 1.323-1.77 2.25-.417 1.532-.038 3.278.811 4.597.739 1.147 1.852 1.993 3.197 2.274 1.875.392 3.257-.32 4.981-.948.023 2.768.146 5.565-.347 8.3-.534 2.955-1.826 5.72-2.714 8.575-.975 3.131-1.578 6.474-2.131 9.702 7.868-4.257 15.189-7.107 24.195-7.825a139 139 0 0 1 1.302-6.096c-1.277-.234-3.573-.379-4.429-1.43.109-.564.119-.573.544-.94l.017-.014c1.271-.27 2.749.296 4.042.45 4.241.503 8.789-1.322 12.379-5.172 4.687-5.026 1.653-13.207-.376-16.514-1.539-2.873-3.584-3.279-4.89-6.941" fill="#FECFAA"/><path d="M200.264 62.171a2.182 2.182 0 1 1 .512 4.334 2.182 2.182 0 0 1-.512-4.334m11.328-6.25a2.182 2.182 0 1 1 .512 4.334 2.182 2.182 0 0 1-.512-4.334m-4.273-3.785c-.308.403-.758.878-.762 1.433-.002.348.098.502.395.817.191.07.384.189.573.21.368.043 1.407-1.446 1.701-1.7.319-.276.768-.429 1.202-.579l.18-.06c.592-.12 1.293-.174 1.482-.703.076-.214.002-.242-.133-.47-.377-.225-.637-.319-1.032-.361-1.553-.169-2.747.644-3.606 1.413m-10.683 5.74c-.789.457-1.456.998-2.004 1.736-.535.721-1.054 1.822-.862 2.746.093.448.172.481.527.724l.495-.105c.615-.422.834-.962 1.158-1.618 1.218-1.852 3.181-1.334 4.188-2.678-.043-.544-.035-.542-.413-.934-1.051-.404-2.04-.172-3.089.13m14.445 4.281c.581-.003 1.206-.018 1.764.144 1.007.293 1.923.956 2.356 1.846.455.936.412 2.056-.008 2.995-.694 1.553-1.865 2.213-3.496 2.826-.533-.085-.784-.18-1.21-.485-.428-1.45 2.727-2.156 3.016-3.618.3-1.52-1.883-1.535-2.691-2.403-.107-.592.027-.76.269-1.305m-33.419 5.79c.382.007.759.018 1.135.085 1.145.202 2.138.863 2.814 1.791.108.647.173.686-.153 1.243-1.071-.41-2.325-.788-3.297-1.385-.522-.32-.722-.533-.87-1.116z" fill="#1B1813"/><path d="M76.525 321.628c1.314.606 3.17 3.284 4.2 4.445a629 629 0 0 1 9.095 10.381c4.15 4.888 8.187 10.13 13.234 14.137 2.066 1.639 4.283 2.836 6.621 4.026 1.018 1.645 2.608 3.673 3.111 5.541.205.758.057 1.14-.324 1.801-1.498 1.027-3.084.679-4.804.568-2.889-1.136-5.945-2.545-8.354-4.535-2.39-1.976-4.432-4.434-6.504-6.73l-8.221-9.113c-4.55-5.053-10.103-10.538-14.087-15.916a221 221 0 0 1 6.033-4.605m137.147 33.856c13.633-.3 27.298.009 40.932.152 2.477.026 8.898-.404 10.747.02 2.127.487 4.521 1.85 5.67 3.765.373.623.662 1.429.442 2.152-.154.507-.386.822-.847 1.074-7.003.001-55.516.567-57.092-.143-.531-.239-.731-.756-.848-1.297-.384-1.783.081-4.182.996-5.723" fill="#fff"/><path d="M224.336 319.265c4.824.834 9.731 1.387 14.583 2.061-2.1 5.988-3.586 12.385-5.209 18.528l-2.201.855a282 282 0 0 1-6.901 3.194 55 55 0 0 1-4.962-2.591z" fill="#FECFAA"/><path d="M107.253 293.097c1.042.456 15.202 17.65 17.238 20.016a98 98 0 0 0-8.624 6.029l-.576.278c-2.033-.947-14.009-17.076-16.061-19.745 2.744-2.081 5.363-4.386 8.023-6.578" fill="#99DCFE"/><path d="M249.452 44.217c.732-.063 1.334-.08 2.057.055.471.313.655.58.915 1.065.23.43.445.8.754 1.183l.638-.019c.643-.585.588-1.134.805-1.944 1.724-.174 1.571 1.454 2.498 1.924.728.37.902-.74 1.549-.646 1.638.235 4.292 2.026 5.235 3.337 2.222 3.093.643 10.917.135 14.631-1.591-.481-3.252-.754-4.882-1.074-3.664-.539-7.069-.33-10.694.363.435-1.685.792-3.32 1.004-5.048-1.381-1.701-3.273-3.715-3.423-6.003-.08-1.224.372-2.077 1.174-2.955 1.414.05 1.837 2.882 2.874 3.81 1.488-1.215-1.021-6.51-.639-8.679M99.966 304.12c.52.276 9.027 11.003 10.543 12.718-3.815 3.425-8.483 6.427-12.609 9.501l-.759.493c-1.59-.544-7.912-10.33-9.331-12.327a581 581 0 0 1 12.156-10.385" fill="#FECFAA"/><path d="M222.991 306.79c3.015.01 6.133.774 9.115 1.214 5.167.764 10.582 1.253 15.63 2.575-.716 2.88-1.871 5.374-3.224 8.007-.345.438-.95 1.213-1.532 1.342-1.344.299-20.056-2.497-20.942-3.404-.462-.473-.6-1.371-.663-1.999-.257-2.523-.051-5.747 1.616-7.735" fill="#99DCFE"/><path d="M101.026 327.068c5.045 1.452 12.911 4.135 15.696 8.99.564.981.602 1.578.337 2.66-1.665.547-3.108.5-4.778-.05-5.415-1.783-8.899-6.721-11.255-11.6m145.481 7.323c.403-.066.815-.133 1.224-.141.852-.016 2.142.241 2.741.903.471.521.603.987.602 1.682-.003 1.259-.898 2.454-1.788 3.255-1.774 1.598-4.688 3.221-7.108 3.07a132 132 0 0 1-5.601-2.343c3.182-2.228 6.432-4.725 9.93-6.426m-2.952 11.68c.759.175 1.324.349 1.766.995l-.236.513c-1.537 1.151-3.521 1.704-5.316 2.341-.685.074-1.474.139-2.088-.209l-.09-.403c1.072-1.903 4.015-2.601 5.964-3.237" fill="#fff"/><path d="M216.739 70.208c-1.576.425-2.57 2.349-4.143 2.992-1.579.646-3.357-.096-4.909.343-.474.135-.494.241-.69.66.107.545.131.587.516.98 2.533.568 4.791.234 7.035-1.06.892-.513 2.495-1.494 2.639-2.657.074-.602-.143-.789-.448-1.258" fill="#1B1813"/><path d="M202.261 290.798c.546.032 1.02.173 1.398.588.26.286.365.695.326 1.078-.095.925-.698 1.603-1.302 2.26-2.65 2.883-5.537 5.607-8.313 8.372-6.349 6.323-12.8 12.568-19.096 18.94L159.7 337.622c-2.3 2.302-4.492 5.022-7.007 7.046-.536.037-1.034.061-1.474-.302-.343-.284-.546-.653-.534-1.105.021-.78.546-1.394 1.047-1.938 3.474-3.768 7.324-7.269 10.937-10.911l23.321-23.397 11.339-11.428c1.605-1.602 3.151-3.384 4.932-4.789M137.317 83.679c.689.053 1.048.105 1.599.55.119.294.245.454.185.78-.14.76-.668 1.315-1.175 1.864-4.525 4.901-9.607 9.308-14.285 14.065a790 790 0 0 1-14.376 14.518c-2.599 2.606-5.237 5.679-8.227 7.82-.713.019-1.107-.068-1.688-.496-.115-.313-.212-.445-.16-.786.117-.784.78-1.557 1.285-2.131 1.683-1.912 3.682-3.63 5.474-5.447l16.177-16.14 9.488-9.431c1.8-1.757 3.621-3.747 5.703-5.166" fill="#A2AFE1"/></svg>