<svg width="160" height="160" viewBox="0 0 160 160" fill="none" xmlns="http://www.w3.org/2000/svg"><path d="M45.127 17h65.348c.313.164.68.324.943.56.88.788 1.698 1.663 2.533 2.498l4.486 4.492 6.444 6.443c1.083 1.083 2.194 2.146 3.252 3.253.236.247.678.677.786 1 .032.097.039.198.051.298.175 1.418.098 2.888.098 4.317l-.003 6.897-.002 23.166c-.665.013-1.388-.054-2.046.015.091 1.463.029 2.96.027 4.425 0 .977.09 2.07-.04 3.033.531-.388.995-.96 1.461-1.43l2.33-2.349c1.425-1.436 2.687-2.726 4.682-3.337a8.1 8.1 0 0 1 6.229.597c1.633.872 3.008 2.336 3.684 4.068.256.656.408 1.358.61 2.032v2.134l-.02.054c-.376 1.058-.549 2.086-1.162 3.06-1.034 1.643-2.797 3.124-4.174 4.498l-9.287 9.302-2.695 2.688c-.549.546-1.172 1.093-1.637 1.714.018 1.815.057 3.64-.001 5.454.67.086 1.367.001 2.042.021l-.001 9.488c.001 2.447.229 5.759-.377 8.082a10.5 10.5 0 0 1-2.741 4.71 10.5 10.5 0 0 1-5.391 2.915c-1.588.321-3.266.229-4.88.228l-6.044-.003-19.383-.002h-6.322c-1.183.001-2.38-.037-3.562.022.017-.408.133-1.723-.03-2.057-.645-.066-1.308-.043-1.957-.044-1.813 0-3.699.115-5.505-.026-2.098-1.948-4.083-4.055-6.108-6.08l-10.742-10.747c-.547-.436-1.053-1.044-1.551-1.542-.905-.905-1.875-1.795-2.715-2.76-.415-.333-.769-.727-1.123-1.122-1.382-1.206-2.966-2.868-4.238-4.212-1.826-1.712-3.567-3.548-5.339-5.317-.821-.82-2.381-2.2-3-3.095-.162-1.133-.073-2.38-.074-3.526-.001-1.302-.06-2.639.024-3.937-.638-.117-1.444-.015-2.094.018.074-1.743.017-3.51.018-5.255V42.254l-.001-10.08c0-1.875-.1-3.812.072-5.679.105-1.107.392-2.189.848-3.203 1.231-2.676 3.347-4.7 6.132-5.7.682-.244 1.42-.319 2.096-.573z" fill="#EDF0FD"/><path d="M127.004 77.397c.53-.388.995-.96 1.461-1.43l2.329-2.349c1.426-1.436 2.688-2.726 4.683-3.337a8.1 8.1 0 0 1 6.228.597c1.634.872 3.008 2.336 3.685 4.068.256.656.408 1.358.61 2.032v2.134l-.02.054c-.376 1.058-.55 2.086-1.162 3.06-1.035 1.643-2.797 3.124-4.175 4.498l-9.286 9.302-2.695 2.688c-.549.546-1.172 1.093-1.637 1.714-.654.506-1.236 1.176-1.822 1.762l-3.273 3.278-11.091 11.091c-.758.76-3.213 3.413-3.899 3.8-.301.17-.668.281-1.001.367-2.051.525-4.196.858-6.276 1.272-1.335.266-3.04.726-4.343.82-.558.04-1.132-.176-1.55-.544-.417-.369-.626-.882-.655-1.433-.057-1.093.655-3.749.892-4.944.388-1.947.7-3.937 1.165-5.865.08-.333.177-.694.358-.988.524-.854 1.649-1.777 2.37-2.498l4.585-4.578 16.269-16.27 5.234-5.234c1.008-1.007 2.078-1.994 3.016-3.067" fill="#32271E"/><path d="M131.157 79.306c.366.12 4.742 4.7 5.524 5.412-4.886 4.766-9.668 9.652-14.496 14.48l-16.375 16.399c-.372-.195-4.785-4.764-5.511-5.474 1.175-1.069 2.277-2.246 3.401-3.371l6.169-6.169z" fill="#36C99F"/><path d="M137.319 74.19c.227-.013.456-.027.683-.026.965 0 1.959.464 2.633 1.144a3.8 3.8 0 0 1 1.112 2.724c-.008 1.654-1.005 2.618-2.094 3.712l-.479-.472-5.005-5.002c1.003-1.008 1.731-1.748 3.15-2.08m-38.702 40.263c.636.443 2.185 2.176 2.863 2.832l-1.261.285q-1.161.232-2.326.447z" fill="#fff"/><path d="M45.127 17h65.348c.313.164.68.324.943.56.88.788 1.698 1.663 2.533 2.498l4.486 4.492 6.444 6.443c1.083 1.083 2.194 2.146 3.252 3.253.236.247.678.677.786 1 .032.097.039.198.051.298.175 1.418.098 2.888.098 4.317l-.003 6.897-.002 23.166c-.665.013-1.388-.054-2.046.015-.726-.014-1.453-.037-2.179-.006l-.003-19.805c0-3.982-.036-7.969.007-11.951l-7.128-.013c-1.603.001-3.448.196-5.004-.193a6.4 6.4 0 0 1-3.015-1.733 6.3 6.3 0 0 1-1.595-2.83c-.366-1.456-.198-3.193-.198-4.69V21.24l-42.36-.01-12.995.001c-2.167 0-5.075-.16-7.16.123-1.201.163-2.41.83-3.272 1.668-1.619 1.573-1.927 3.245-1.943 5.408l.003 36.89v14.205c-.001 2.44-.084 4.906.008 7.341-.7-.04-1.479-.07-2.176.013-.638-.117-1.444-.015-2.094.018.074-1.743.017-3.51.018-5.255V42.254l-.001-10.08c0-1.875-.1-3.812.072-5.679.105-1.107.392-2.189.848-3.203 1.231-2.676 3.347-4.7 6.132-5.7.682-.244 1.42-.319 2.096-.573z" fill="#32271E"/><path d="M112.148 24.289c.511.32 2.075 2.032 2.588 2.544l7.1 7.093-5.085.01c-.891.004-1.927.108-2.802-.05-.454-.083-.88-.27-1.205-.602-.325-.33-.5-.761-.573-1.214-.13-.8-.041-1.735-.04-2.547z" fill="#BECBFE"/><path d="M127.024 105.882c.67.086 1.367.001 2.042.021l-.001 9.487c.001 2.447.229 5.76-.377 8.083a10.5 10.5 0 0 1-2.741 4.71 10.5 10.5 0 0 1-5.391 2.915c-1.588.321-3.266.229-4.88.228l-6.044-.003-19.383-.002h-6.322c-1.183.001-2.38-.037-3.562.022.017-.408.133-1.723-.03-2.057.17-.572.056-1.613.054-2.23l27.081-.002 7.693.002c1.447.001 3.009.117 4.436-.115a6.17 6.17 0 0 0 3.328-1.707 6.27 6.27 0 0 0 1.747-3.166c.329-1.52.156-4.065.156-5.696l.013-10.481c.718.039 1.461-.002 2.181-.009" fill="#32271E"/><path d="M46.528 99.552q2.11.009 4.221-.015c0 1.043.137 6.83-.116 7.428-1.38-1.206-2.965-2.868-4.237-4.212.285-.446.137-2.559.132-3.201m5.229 8.535c.7-.145 1.54-.057 2.262-.057 1.733.001 3.478.042 5.21-.012-.096 1.391-.045 2.831-.022 4.226-.615-.002-2.75-.153-3.184.145-.547-.436-1.053-1.044-1.55-1.542-.906-.905-1.876-1.795-2.716-2.76" fill="#36C99F"/><path d="M81.168 46.667a21.1 21.1 0 0 1 14.514 4.562 21.1 21.1 0 0 1 7.852 14.27 21.1 21.1 0 0 1-3.799 14.567c-.763 1.065-1.66 2.016-2.461 3.05a20.2 20.2 0 0 0-3.754 8.177c-.527 2.622-.434 5.244-.425 7.903.003 1.063.1 2.225-.102 3.27a4.3 4.3 0 0 1-.891 1.911c-.853 1.05-1.954 1.406-3.255 1.548a6.37 6.37 0 0 1-.937 3.298c-.948 1.546-2.41 2.489-4.156 2.895-.374.066-.763.11-1.143.115a6.3 6.3 0 0 1-4.575-1.819c-1.223-1.207-1.858-2.772-1.87-4.482-1.05-.101-1.974-.364-2.787-1.066a4.24 4.24 0 0 1-1.331-2.147c-.248-.977-.138-2.108-.136-3.11.004-2.273.134-4.636-.106-6.894a18.1 18.1 0 0 0-3.818-9.358c-.957-1.205-2.03-2.285-2.913-3.555a21 21 0 0 1-3.693-10.555 21.2 21.2 0 0 1 5.11-15.218 21.24 21.24 0 0 1 14.676-7.362" fill="#32271E"/><path d="M81.686 50.885c.938-.078 1.93-.011 2.86.105a16.9 16.9 0 0 1 11.32 6.41 16.94 16.94 0 0 1 1.378 18.694c-.92 1.648-2.2 2.953-3.336 4.436-2.873 3.747-4.399 8.03-4.98 12.681l-4.317-.01.001-11.97c1.33-1.884 2.766-3.707 4.152-5.55.615-.818 1.35-1.659 1.857-2.546.194-.339.345-.683.35-1.08.006-.577-.258-1.155-.67-1.554a1.9 1.9 0 0 0-.858-.482c-.836-.211-1.816-.115-2.674-.114l-3.37.006-4.942-.006c-.823-.001-1.726-.074-2.54.04-.349.05-.662.151-.955.351a2.16 2.16 0 0 0-.915 1.448c-.063.418.018.782.203 1.158.483.98 1.327 1.906 1.984 2.776 1.39 1.843 2.815 3.67 4.154 5.55l.001 11.98-4.317-.006c-.32-4.075-1.493-7.81-3.808-11.201-.882-1.293-1.95-2.382-2.934-3.587a16.74 16.74 0 0 1-3.726-9.563 16.9 16.9 0 0 1 4.045-12.005c3.124-3.604 7.291-5.62 12.037-5.961" fill="#4A69E8"/><path d="m76.166 97.437 12.677.003-.007 4.223c-1.444-.037-2.898-.005-4.343-.005l-8.324-.004c-.024-1.404-.004-2.812-.004-4.218m4.19 8.491c1.43-.044 2.868-.017 4.3-.002-.128.559-.27.953-.616 1.415-.349.319-.71.542-1.183.627a2.05 2.05 0 0 1-1.543-.334c-.608-.425-.835-1.008-.958-1.706" fill="#DDDDDC"/><path d="m84.441 74.148.057-.003.03.085c-.568.975-1.396 1.825-2.018 2.776-.238-.345-.495-.68-.744-1.019l-1.38-1.828q2.028.01 4.055-.011" fill="#fff"/><path d="M105.772 44.493c.838.074 1.741.003 2.587.002l5.546-.003c.935 0 1.974-.097 2.893.088.398.08.784.243 1.074.535.312.315.484.741.559 1.173.203 1.167.072 2.512.071 3.703l-.003 7.228c-.635.134-3.368.022-4.244.022-.035-2.827-.008-5.657-.008-8.484-2.826-.032-5.655-.004-8.481-.005zm-56.659.008c3.369-.066 6.753.104 10.119-.007l.005 4.261-8.489-.003.005 2.572.002 5.917-4.23-.01-.022-7.1c-.001-1.231-.117-2.567.066-3.78.064-.428.175-.803.465-1.133.543-.62 1.312-.686 2.08-.717m-.524-19.048c.71.022 1.456.059 2.163-.014l-.004 4.26-2.107.011c-1.412.015-2.826 0-4.238 0q-.015-2.124.015-4.25c1.364.092 2.8-.002 4.172-.007" fill="#32271E"/><path d="M48.59 25.453c.71.022 1.456.059 2.162-.014l-.003 4.26-2.107.011c-.009-.777.119-3.758-.052-4.257" fill="#44A5CF"/><path d="m57.088 25.458 1.088-.019c-.077 1.41-.03 2.846-.021 4.259l-1.053.008c-1.412.032-2.83.006-4.242.003l.01-4.25c1.28.103 2.9-.009 4.218 0" fill="#32271E"/><path d="m57.088 25.458 1.089-.019c-.077 1.41-.03 2.846-.022 4.259l-1.053.008c-.105-1.386-.008-2.853-.014-4.248" fill="#44A5CF"/><path d="M61.336 25.447c1.258.118 2.931.004 4.235-.003l.006 4.27-4.264-.001q-.02-2.133.023-4.266M19 79.946c.364-.639.78-1.299 1.535-1.506.553-.15 1.06-.067 1.545.22.814.482 1.491 1.285 2.156 1.95l2.39 2.39 8.959 8.948c.579.572 1.847 2.072 2.472 2.393.619.896 2.179 2.275 3 3.095 1.773 1.769 3.514 3.605 5.34 5.316 1.272 1.345 2.856 3.007 4.237 4.213.354.395.708.788 1.123 1.122.84.965 1.81 1.855 2.715 2.76.498.498 1.004 1.105 1.552 1.542l10.741 10.746c2.025 2.026 4.01 4.133 6.108 6.081l.043.053c.779.944 1.906 1.924 2.795 2.813l5.987 5.985c.81.807 2.175 1.949 2.72 2.913.168.297.21.847.176 1.176-.06.587-.405 1.045-.857 1.404-.235.187-.495.277-.737.44H20.57c-.752-.438-1.144-.784-1.57-1.554zm16.917 47.086c.867-.005 4.305.19 4.846-.032a8 8 0 0 1-1.091-1.249c-1.21-1.68-1.953-4.147-1.605-6.221-.657-.77-1.423-1.464-2.156-2.163.102 3.187.066 6.474.006 9.665" fill="#32271E"/><path d="M23.234 85.673c.403.174 12.032 11.957 13.234 13.16l27.53 27.532 8.834 8.834c1.49 1.49 3.116 2.948 4.501 4.533-2.064.121-4.174.034-6.244.034l-11.653-.001-36.198.005zm12.684 41.359c.867-.005 4.304.191 4.845-.031a8.2 8.2 0 0 1-1.09-1.25c-1.212-1.68-1.954-4.147-1.605-6.22-.658-.771-1.424-1.465-2.156-2.164.101 3.187.065 6.474.006 9.665" fill="#99DCFE"/><path d="M33.412 110.153c.405-.033.796-.024 1.18.128.305.121.544.33.783.549.992.906 1.924 1.898 2.875 2.848l5.146 5.144 5.646 5.648c.994.994 2.026 1.967 2.982 2.996.243.262.594.625.72.961a2.17 2.17 0 0 1-.095 1.686c-.308.612-.814.945-1.451 1.144-.825.103-1.72.043-2.554.043l-4.547-.003-6.462-.005c-1.198.005-2.417.067-3.613.011-.378-.018-.753-.074-1.104-.225a1.97 1.97 0 0 1-1.072-1.164 2.6 2.6 0 0 1-.13-.738c-.049-1.021-.013-2.059-.013-3.082l-.001-5.726.001-5.218c0-.981-.034-1.977.02-2.957.019-.319.054-.594.196-.885.306-.626.86-.941 1.493-1.155m2.505 16.879c.867-.005 4.304.191 4.845-.031a8.2 8.2 0 0 1-1.091-1.25c-1.21-1.68-1.953-4.147-1.605-6.221-.657-.77-1.423-1.464-2.156-2.163.102 3.187.066 6.474.007 9.665" fill="#32271E"/><path d="M38.067 119.53c.996.91 1.932 1.895 2.886 2.85l4.672 4.679c-1.478.002-3.437.13-4.863-.059a8 8 0 0 1-1.09-1.249c-1.211-1.68-1.954-4.147-1.605-6.221" fill="#36C99F"/></svg>