<svg width="160" height="160" viewBox="0 0 160 160" fill="none" xmlns="http://www.w3.org/2000/svg"><path d="M17.143 16H143.8l.105.057c1.982 1.048 2.254 1.074 3.096 3.264v5.694c-.607 1.361-1.203 2.51-2.692 3.055-.449.165-.976.27-1.453.228l-.01.117c-.074.885-.04 1.785-.037 2.673l.006 4.187c0 .913.082 1.916-.109 2.81-.078.363-.241.696-.524.943-.363.317-.799.377-1.188.616a71 71 0 0 0-.027 3.186c.004.609.079 1.323-.026 1.918.621.148 1.24.377 1.585.957.256.43.271 1.047.285 1.535.093 3.2-.002 6.432-.002 9.636l.001 19.658.001 17.586c0 2.972.099 5.981-.01 8.95 1.244.092 2.354.482 3.185 1.45.506.591.675 1.221 1.015 1.89v5.699c-.586 1.394-1.181 2.464-2.646 3.075-.475.199-1.126.23-1.638.246-1.996.062-4.006.01-6.004.01l-11.554-.002h-5.971c-.909.001-1.906.097-2.803-.022l2.842 20.471.855 6.142c.151 1.087.389 2.234.403 3.331.011.814-.138 1.564-.651 2.226-.679.876-1.263.885-2.078 1.414h-7.236c-.506-.314-1.077-.477-1.556-.854-.473-.372-.784-.849-.978-1.413-.464-1.355-.535-3.003-.731-4.422l-1.086-7.955-13.238-.011c-1.47 0-7.707.174-8.668-.186-.743-.278-.93-1.043-1.22-1.684l-.19-.069c-1.622-.114-3.297-.023-4.925-.033-.13.643-.362 1.239-.93 1.616-.403.266-.874.306-1.344.335-1.519.093-3.08.021-4.603.021l-8.848.001-4.837.003c-.813.003-1.699.098-2.499-.029-.488 2.776-.794 5.607-1.181 8.4-.186 1.343-.255 2.896-.743 4.164a3.1 3.1 0 0 1-1.064 1.364c-.456.331-.965.478-1.442.752h-7.205c-.721-.442-1.427-.619-2.002-1.305-.47-.559-.7-1.23-.715-1.953-.025-1.173.216-2.379.377-3.539l.717-5.138 1.925-13.854c.36-2.591.78-5.19 1.054-7.791-1.272.084-2.582.017-3.858.017l-7.47.001-9.782.001c-1.747.002-3.514.058-5.258-.006-.481-.018-1.02-.064-1.478-.219-1.598-.54-2.003-1.586-2.715-2.942l-.026-.049v-5.897c.487-.757.502-1.293 1.241-2.069.777-.816 1.832-1.126 2.928-1.154.093-3.387.023-6.791.022-10.18 0-1.403-.08-2.853.023-4.248.028-.379.07-.835.254-1.17.366-.668.992-.789 1.666-.994-.098-1.27-.126-3.895.001-5.128-.527-.127-1.023-.253-1.425-.646-.363-.355-.464-.82-.5-1.31-.136-1.801-.02-3.76-.019-5.581l.004-10.98-.006-34.503-.196-.02a5.3 5.3 0 0 1-1.224-.263c-1.632-.54-2.001-1.496-2.719-2.89l-.05-.095V19.19c.189-.301.303-.659.474-.973.787-1.448 1.325-1.484 2.67-2.217m86.508 106.018.785.014c-.297-2.183-.552-4.382-.883-6.56-4.01-.131-8.052-.036-12.066-.036l-22.137.001-8.465-.002c-1.027.001-2.451.156-3.413-.002l-.908 6.574 31.883.006c5.064 0 10.142-.079 15.204.005M34.621 98.56a7.189 7.189 0 1 0-1.66-14.282 7.189 7.189 0 0 0 1.66 14.282" fill="#EDF0FD"/><path d="M140.94 44.748c.621.148 1.24.377 1.585.957.256.43.271 1.046.285 1.535.093 3.2-.002 6.432-.002 9.636l.001 19.658.001 17.586c0 2.972.099 5.981-.01 8.949 1.244.093 2.354.482 3.185 1.451.506.591.675 1.221 1.015 1.89v5.699c-.586 1.394-1.181 2.464-2.646 3.075-.475.198-1.126.23-1.638.245-1.996.062-4.006.01-6.004.01l-11.554-.001h-5.971c-.909.001-1.906.097-2.803-.022l2.842 20.471.855 6.142c.151 1.087.389 2.234.403 3.331.011.814-.138 1.564-.651 2.225-.679.876-1.263.886-2.078 1.415h-7.236c-.506-.314-1.077-.478-1.556-.854-.473-.372-.784-.849-.978-1.413-.464-1.355-.535-3.003-.731-4.422l-1.086-7.955-13.238-.011c-1.47 0-7.707.174-8.668-.186-.743-.278-.93-1.043-1.22-1.684l-.19-.069c-1.622-.114-3.297-.023-4.925-.033-.13.643-.362 1.239-.93 1.616-.403.266-.874.306-1.344.335-1.519.093-3.08.021-4.603.021h-8.848l-4.837.004c-.813.003-1.699.098-2.499-.03-.488 2.777-.794 5.607-1.181 8.401-.186 1.343-.255 2.895-.743 4.164a3.1 3.1 0 0 1-1.064 1.364c-.456.33-.965.478-1.442.752h-7.205c-.721-.442-1.427-.619-2.002-1.305-.47-.56-.7-1.23-.715-1.953-.025-1.173.216-2.38.377-3.539l.717-5.139 1.925-13.853c.36-2.591.78-5.19 1.054-7.791-1.272.084-2.582.017-3.858.017h-7.47l-9.782.002c-1.747.002-3.514.058-5.258-.006-.481-.018-1.02-.064-1.478-.219-1.598-.54-2.003-1.586-2.715-2.942l-.026-.049v-5.897c.487-.757.502-1.293 1.241-2.069.777-.816 1.832-1.126 2.928-1.154.093-3.387.023-6.792.022-10.18 0-1.403-.08-2.853.023-4.248.028-.379.07-.835.254-1.17.366-.668.992-.79 1.666-.994.534.128 1.037.258 1.435.669.3.31.432.682.491 1.1.187 1.318.056 3.42.056 4.817l.002 10.025 116.769.007.004-38.534-.001-12.047-.005-3.593c-.002-.7-.042-1.425.006-2.122.036-.515.186-1.04.538-1.43.399-.442.932-.61 1.511-.655m-37.289 77.269.785.015c-.297-2.184-.552-4.382-.883-6.56-4.01-.131-8.052-.036-12.066-.036l-22.137.001-8.465-.003c-1.027.001-2.451.157-3.413-.002l-.908 6.575 31.883.006c5.064 0 10.142-.079 15.204.004" fill="#32271E"/><path d="m56.007 125.935 49.001.007c.142 1.498.444 2.979.592 4.475-1.343-.091-2.728-.026-4.075-.025l-7.531.005-5.83-.008c-1.112-.004-2.28-.073-3.387.036a1.53 1.53 0 0 0-.87.362c-.706.593-.564 1.09-.855 1.533-.026.038-.155.078-.199.086-1.622-.114-3.297-.023-4.926-.033-.14-.666-.323-1.294-.941-1.676-.313-.193-.626-.246-.986-.274-2.078-.161-4.514-.029-6.629-.028l-13.963-.011c.165-1.487.412-2.965.599-4.449m81.173-18.903c1.967.001 3.942-.032 5.907.016l.007 4.448-89.445.01H28.408l-7.054.003c-1.002.001-2.164.122-3.145-.036-.139.007-.13.02-.264-.052-.183-.732-.046-3.457-.04-4.373 4.376-.101 8.774-.012 13.152-.013h25.456zm-88.632 8.381 4.959.007q-.33 2.661-.707 5.316c-.268 1.473-.423 2.984-.63 4.468l-1.195 8.619-1 7.188c-.188 1.354-.433 2.725-.54 4.088l-5.003-.01c.164-.903.257-1.83.384-2.74l.747-5.388 2.318-16.678zm58.943.005 4.971-.002q.308 2.451.666 4.897l3.438 24.781-5 .002c-.079-1.036-.261-2.077-.404-3.106l-.742-5.339-2.276-16.347a382 382 0 0 1-.653-4.886" fill="#99DCFE"/><path d="M17.143 16H143.8l.105.057c1.982 1.048 2.254 1.074 3.096 3.264v5.694c-.607 1.361-1.203 2.51-2.692 3.055-.449.165-.976.27-1.453.228l-.01.117c-.074.885-.04 1.785-.037 2.673l.006 4.187c0 .913.082 1.916-.109 2.81-.078.363-.241.696-.524.943-.363.317-.799.377-1.188.616l-.072-.032c-.699-.277-1.357-.238-1.744-1.023-.158-.32-.235-.702-.267-1.056-.095-1.045-.028-2.14-.026-3.191l.009-6.02c-1.94-.071-3.893-.028-5.835-.028h-10.047l-30.562-.001H45.925c-7.934 0-15.88-.098-23.812.008l-.002 34.816.004 10.834c0 1.713.117 3.768-.02 5.431-.042.498-.198 1.017-.565 1.375-.386.376-.88.527-1.395.626-.527-.127-1.023-.253-1.425-.646-.363-.355-.464-.82-.5-1.31-.136-1.801-.02-3.76-.019-5.581l.004-10.98-.006-34.503-.196-.02a5.3 5.3 0 0 1-1.224-.263c-1.632-.54-2.001-1.496-2.719-2.89l-.05-.095V19.19c.189-.301.303-.659.474-.973.787-1.448 1.325-1.484 2.67-2.217" fill="#32271E"/><path d="M17.91 19.943c1.258-.177 2.984-.05 4.284-.048l8.947.003h102.64c3.016 0 6.325-.11 9.312.03l.002 4.453-5.908.004-119.263-.01c-.066-1.469-.023-2.96-.014-4.433" fill="#99DCFE"/><path d="M112.02 32.854c11.468-.852 21.458 7.748 22.321 19.215s-7.727 21.465-19.194 22.34c-11.481.874-21.496-7.73-22.36-19.213-.864-11.482 7.749-21.489 19.233-22.342" fill="#32271E"/><path d="M102.236 66.222a16.935 16.935 0 1 1 23.255-.564c-6.376 6.323-16.58 6.571-23.255.564" fill="#4A69E8"/><path d="M111.528 43.13v-.171c.006-.589.175-1.098.619-1.509.399-.368.936-.55 1.477-.5a1.93 1.93 0 0 1 1.347.708c.37.461.483 1.007.414 1.584a8.3 8.3 0 0 1 1.558.67c.745.41 1.629 1.027 1.856 1.893.139.53-.033 1.1-.32 1.55-.547.857-1.499 1.027-2.397.615-1.196-.548-2.017-1.44-3.488-1.086-.491.118-1.014.466-1.259.917-.194.36-.175.83-.046 1.209.507 1.495 3.911 2.316 5.273 2.958 1.427.671 2.587 1.81 3.121 3.31.566 1.592.424 3.347-.307 4.862-.815 1.69-2.203 2.842-3.962 3.444.024.535.012 1.007-.138 1.525-.29.52-.637.961-1.234 1.14-.519.157-1.035.062-1.526-.137a3 3 0 0 1-.454-.369c-.537-.556-.554-1.193-.542-1.92-.747-.15-1.453-.331-2.151-.644-.764-.343-1.893-.934-2.18-1.772a2.03 2.03 0 0 1 .095-1.494 2.03 2.03 0 0 1 1.249-1.037c.907-.273 1.628.318 2.386.716.908.478 2.417.569 3.385.248a2.6 2.6 0 0 0 1.541-1.34c.307-.615.396-1.283.153-1.936-.424-1.143-2.915-1.74-4.031-2.242-1.885-.85-3.591-1.876-4.343-3.901-.499-1.345-.46-2.925.148-4.227.759-1.624 2.132-2.467 3.756-3.063" fill="#fff"/><path d="M79.713 45.168c.745-.016 1.207.2 1.765.685 1.228 1.067 2.346 2.35 3.5 3.505.89.89 1.995 1.78 2.752 2.778.26.342.467.722.489 1.16.032.66-.282 1.157-.71 1.624-1.135 1.236-2.386 2.396-3.574 3.583-.916.917-1.868 2.078-2.938 2.812-.329.226-.605.333-1.01.338a1.86 1.86 0 0 1-1.337-.55c-.366-.358-.653-.842-.637-1.366.012-.388.155-.762.367-1.085.613-.934 2.353-2.462 3.202-3.306-2.953.052-5.916.006-8.87.006H55.617l-6.101-.003c-1.737-.004-3.553-.117-5.261.234a10.7 10.7 0 0 0-5.366 2.877c-3.14 3.126-3.153 6.14-3.145 10.24l.008 6.133c0 1.025.087 2.118-.048 3.13-.051.383-.14.717-.39 1.021a2.06 2.06 0 0 1-1.411.739c-.543.034-1.091-.192-1.478-.569-.525-.511-.58-1.18-.585-1.875l.005-7.305c-.001-1.705-.08-3.445.062-5.144a14.46 14.46 0 0 1 4.237-9.134 14.46 14.46 0 0 1 7.122-3.893c2.143-.471 4.379-.354 6.56-.353l6.947.002 24.795.004c-.873-.872-3.174-2.855-3.473-3.899a1.73 1.73 0 0 1 .19-1.403c.352-.574.784-.834 1.428-.986m-46.835 39.12a7.189 7.189 0 1 1 1.825 14.262 7.189 7.189 0 0 1-1.825-14.262m1.418 10.373a3.283 3.283 0 1 0-1.012-6.487 3.283 3.283 0 0 0 1.012 6.487" fill="#32271E"/><path d="M33.21 88.185a3.283 3.283 0 1 1 1.158 6.463 3.283 3.283 0 0 1-1.157-6.463" fill="#36C99F"/><path d="M33.776 32.773c1.4.16 2.77 1.951 3.73 2.933.83-.854 2.419-2.842 3.601-2.914a1.98 1.98 0 0 1 1.475.574c.363.357.592.856.583 1.369-.02 1.265-2.015 2.841-2.913 3.711.82.806 2.527 2.183 2.838 3.27.13.454.097.993-.145 1.404-.343.584-.962.845-1.584 1.01l-.117-.001c-1.293-.027-2.87-2.031-3.74-2.92-.845.873-2.455 2.846-3.687 2.906-.515.025-.968-.172-1.333-.53-.374-.366-.64-.815-.64-1.349-.004-1.341 1.994-2.882 2.919-3.783-.859-.78-2.743-2.383-2.904-3.493-.075-.517.09-1.005.407-1.414.39-.503.904-.688 1.51-.773m31.999 2.929c.85-.861 2.353-2.786 3.572-2.888a1.98 1.98 0 0 1 1.5.532c.369.349.56.827.565 1.331.013 1.314-1.996 2.889-2.887 3.782.772.716 2.534 2.265 2.81 3.224.135.475.11 1.042-.15 1.471-.343.569-.972.827-1.585.978l-.11-.002c-1.264-.046-2.892-2.047-3.706-2.927-.855.838-2.4 2.78-3.573 2.894-.54.052-1.072-.154-1.47-.516a1.93 1.93 0 0 1-.64-1.376c-.021-1.259 2.045-2.892 2.92-3.75-.806-.747-2.669-2.322-2.875-3.4a1.93 1.93 0 0 1 .367-1.502c.368-.487.92-.696 1.504-.779.256.023.52.057.754.17.987.474 2.214 1.963 3.004 2.758M47.598 63.163c.153-.008.31-.017.464-.007 1.152.076 2.786 2.1 3.564 2.924.864-.876 2.458-2.897 3.709-2.923.527-.012 1.032.226 1.404.594.37.367.548.857.549 1.378.001 1.22-2.07 2.88-2.902 3.704.683.56 2.377 2.183 2.73 2.959.207.455.244.995.059 1.463-.233.588-.76.924-1.319 1.153a2.4 2.4 0 0 1-.587.057c-1.177-.022-2.838-2.08-3.642-2.888-.865.874-2.348 2.788-3.597 2.868a1.96 1.96 0 0 1-1.49-.536 1.86 1.86 0 0 1-.553-1.358c.017-1.28 2.013-2.852 2.908-3.729-.751-.669-2.47-2.221-2.79-3.114-.164-.46-.172-1.027.045-1.472.28-.575.87-.877 1.448-1.073m64.49 21.1c1.032-.084 2.094-.038 3.13-.037l5.418.002 6.186.002c.981 0 1.985-.056 2.962-.002.357.02.701.095 1.016.268.45.246.78.665.913 1.16a1.92 1.92 0 0 1-.204 1.48c-.301.515-.736.788-1.3.942-.922.106-1.875.06-2.802.06l-4.489-.005-6.64.005c-1.159 0-2.338.048-3.494-.01-.373-.018-.784-.061-1.126-.215a1.8 1.8 0 0 1-.962-1.057 2.2 2.2 0 0 1 .122-1.665c.251-.484.78-.752 1.27-.928m-30.985 0c1.102-.08 2.227-.038 3.331-.036l5.263.001h6.196c.916 0 1.855-.056 2.77-.012.352.017.704.08 1.025.233.476.22.843.623 1.019 1.116.168.472.135.991-.09 1.438-.283.563-.767.894-1.357 1.073-.938.1-1.894.062-2.837.062l-4.238-.001-6.666-.002c-1.206.002-2.42.036-3.624-.003-.325-.01-.678-.023-.989-.126a1.87 1.87 0 0 1-1.152-1.034 1.96 1.96 0 0 1 .007-1.58c.271-.608.74-.91 1.342-1.13m-30.961-.002c.96-.087 1.96-.036 2.925-.036l5.202.003 6.229-.002c1.122-.003 2.274-.058 3.394-.001.295.015.584.09.85.22.465.231.817.642.972 1.138a1.98 1.98 0 0 1-.165 1.567c-.292.503-.743.772-1.29.924-.95.121-1.946.066-2.905.065l-4.434-.002-6.507-.007c-1.193.002-2.403.065-3.594.008a3.2 3.2 0 0 1-1-.187c-.466-.178-.862-.502-1.048-.973-.167-.426-.243-1.048-.05-1.475.312-.692.729-.995 1.42-1.242m.505 10.475c1.91-.058 3.831-.014 5.742-.014 1.093 0 2.254-.09 3.337.02.343.034.682.1.99.262.46.243.776.632.904 1.138a1.98 1.98 0 0 1-.252 1.554c-.377.585-.865.784-1.514.912-1.876.046-3.758.005-5.635.011-1.215.005-2.545.12-3.746-.038-.416-.054-.849-.156-1.188-.415-.401-.307-.616-.77-.662-1.268a1.98 1.98 0 0 1 .49-1.517c.438-.486.912-.597 1.533-.645m61.983-.001c1.826-.053 3.661-.005 5.488-.01 1.173-.004 2.431-.107 3.594.017.389.04.77.132 1.103.345.43.274.659.668.77 1.158.131.58-.012 1.132-.345 1.62-.342.5-.923.653-1.484.744-1.906.043-3.818.015-5.725.018-1.172.002-2.412.084-3.575-.037-.36-.038-.735-.105-1.04-.31a2 2 0 0 1-.826-1.332c-.089-.576.086-1.08.443-1.53.416-.523.971-.627 1.597-.683m-31.002.002c1.762-.076 3.551-.02 5.316-.02 1.23 0 2.534-.086 3.757.025.35.031.691.099 1.005.266.442.235.758.623.884 1.11a2 2 0 0 1-.242 1.579c-.373.583-.864.783-1.51.91-1.888.046-3.782.005-5.67.016-1.197.007-2.5.127-3.681-.023-.412-.052-.813-.172-1.153-.417a1.77 1.77 0 0 1-.73-1.254 1.96 1.96 0 0 1 .462-1.534c.429-.497.942-.603 1.562-.658" fill="#32271E"/></svg>