<svg width="160" height="160" viewBox="0 0 160 160" fill="none" xmlns="http://www.w3.org/2000/svg"><path d="M45.697 73.007a7 7 0 1 1 .607 13.986 7 7 0 0 1-.608-13.986" fill="#32271E"/><path d="M77.316 13.055c36.981-1.483 68.159 27.3 69.63 64.282s-27.323 68.151-64.305 69.61c-36.965 1.458-68.117-27.319-69.587-64.284S40.35 14.537 77.316 13.055" fill="#32271E"/><path d="M86.578 111.045a1.999 1.999 0 1 1 .797 3.919 2 2 0 0 1-.797-3.919" fill="#F8F7F8"/><path d="M69.674 85c.854.76 1.644 1.662 2.448 2.48 1.954 1.984 3.883 4.005 5.878 5.947-1.667 1.39-3.29 3.128-4.864 4.645l-9.483 9.139-5.846 5.629c-.826.796-2.025 1.756-2.677 2.661-.332.463-.443 1.103-.336 1.661.337 1.762 2.783 1.505 4.084 1.865.905.25 1.793.696 2.567 1.231a9 9 0 0 1 3.852 7.029c.035.785-.174 1.631-.013 2.402.34 1.628 2.648 1.617 3.83 2.396 1.4.924 2.34 2.411 2.68 4.061.451 2.195-.167 4.022-1.333 5.854a61.85 61.85 0 0 1-27.162-11.254C32.206 122.644 24.024 111.087 20 97.833c.673-1.994 1.839-4.083 3.455-5.445 1.257-1.058 2.862-1.632 4.5-1.464 1.56.161 3.061 1.052 3.864 2.433.314.541.553 1.19.955 1.668.852 1.013 2.192.587 3.322.48a9 9 0 0 1 1.582 0c3.331.281 6.589 2.29 8.185 5.309.456.864.715 2.036 1.352 2.768.353.407.803.66 1.343.682.618.025 1.026-.255 1.493-.622.795-.624 1.513-1.399 2.246-2.098l4.128-3.93z" fill="#99DCFE"/><path d="M65.541 96.02c.42-.033.766-.045 1.162.128.532.231.98.663 1.185 1.227a1.93 1.93 0 0 1-.105 1.534c-.182.36-.513.675-.798.951-1.163 1.131-2.413 2.189-3.618 3.272l-6.685 6.022-6.37 5.739c-1.252 1.134-2.485 2.323-3.78 3.402-.34.282-.653.508-1.07.659-.371.058-.687.08-1.048-.048a2.18 2.18 0 0 1-1.241-1.143 1.9 1.9 0 0 1-.046-1.479c.156-.402.435-.707.732-1.002.926-.92 1.944-1.766 2.912-2.639l5.545-4.995 7.465-6.721c1.184-1.07 4.557-4.374 5.76-4.907" fill="#32271E"/><path d="M112.606 43.049c.24-.026.483-.025.725-.03 1.272-.02 4.499-.078 5.583.189.463.114.901.333 1.238.675.3.31.514.692.62 1.11.278 1.059.218 3.414.227 4.593.032 3.859-.88 7.781-2.851 11.121-1.763 2.987-4.229 5.261-6.661 7.692l-6.016 6.013L84.9 95l-3.76-3.76C77.097 87.2 73.103 83.09 69 79.11c.91-.828 1.763-1.746 2.633-2.617l5.098-5.097 15.376-15.377 4.676-4.68c1.74-1.74 3.415-3.504 5.495-4.853 3.128-2.028 6.615-3.15 10.328-3.437" fill="#4A69E8"/><path d="M104.989 81c.23.136 2.603 8.718 3.011 9.796-1.522 1.268-2.923 2.738-4.355 4.1-1.774 1.69-3.624 3.346-5.322 5.104l-2.265-1.77c-1.713-1.269-3.368-2.623-5.058-3.922 2.54-2.289 4.972-4.707 7.447-7.061 2.179-2.074 4.441-4.104 6.542-6.247" fill="#36C99F"/><path d="M45.734 78.012a3 3 0 1 1 .532 5.976 3 3 0 0 1-.532-5.976" fill="#F8F7F8"/><path d="M107.431 51.033a5 5 0 0 1 5.534 4.385 4.999 4.999 0 1 1-9.93 1.165 5 5 0 0 1 4.396-5.55" fill="#fff"/><path d="M86.232 107.054c3.295-.461 6.308 2.068 6.721 5.639.412 3.572-1.933 6.827-5.232 7.259-3.28.43-6.264-2.094-6.674-5.645-.41-3.552 1.908-6.795 5.185-7.253" fill="#32271E"/><path d="M78.026 17.057c1.92-.122 3.924-.03 5.843.098a62.88 62.88 0 0 1 43.388 21.26 62.83 62.83 0 0 1 15.619 45.535 62.92 62.92 0 0 1-21.409 43.439 62.88 62.88 0 0 1-46.449 15.413c.185-.39.345-.796.49-1.203a11.08 11.08 0 0 0-.478-8.452 9.9 9.9 0 0 0-5.577-5.07c-.078-2.056-.45-3.957-1.374-5.812-1.426-2.862-4.04-5.315-7.095-6.347.856-.715 1.652-1.54 2.462-2.308l4.524-4.296 13.058-12.406c.813.825 2.216 2.448 3.15 3.003.286.169.6.274.935.269 1.32-.016 2.687-1.797 3.543-2.662 1.445 1.373 3.432 2.843 5.021 4.143 1.154.943 2.801 2.464 4.006 3.204.542.333.917.442 1.555.274.424-.112.736-.371 1.058-.655 1.525-1.343 2.927-2.912 4.368-4.351l4.483-4.473c.773-.772 2.467-2.25 2.935-3.125.127-.235.242-.513.234-.784-.029-1.028-.515-2.233-.796-3.226l-1.458-5.14c-.536-1.891-1.1-3.78-1.587-5.685l6.366-6.363c1.43-1.43 2.931-2.829 4.225-4.384 3.821-4.594 5.778-10.22 5.848-16.174.011-.978-.039-1.963-.07-2.94-.074-2.323-.184-4.187-1.924-5.937-2.33-2.343-5.559-2.046-8.607-2.052-6.048-.01-11.76 1.905-16.44 5.78-1.584 1.31-3 2.834-4.453 4.286l-6.398 6.394c-2.753-.923-5.633-1.62-8.427-2.411l-3.269-.923c-.674-.19-1.377-.433-2.073-.52-.548-.068-1.02.14-1.44.48-.756.608-1.438 1.388-2.124 2.076l-3.99 3.993-3.575 3.568c-.743.737-1.576 1.468-2.216 2.295-.244.317-.355.677-.388 1.075-.038.459.174.819.413 1.194.763 1.197 1.826 2.304 2.728 3.406 1.518 1.854 3.003 3.757 4.576 5.564l-.116.107c-.848.808-2.564 2.09-2.56 3.37.004 1.247 1.586 2.43 2.431 3.248-2.057 1.745-4.205 3.915-6.192 5.782L49.331 99.368a14.8 14.8 0 0 0-3.191-3.84c-3.036-2.608-6.922-3.735-10.883-3.436-.736-1.178-1.602-2.177-2.756-2.967a9.4 9.4 0 0 0-7.18-1.439c-2.948.579-5.392 2.455-7.047 4.919-.672-3.127-1.069-6.42-1.203-9.617a62.8 62.8 0 0 1 16.4-45.377 63 63 0 0 1 44.555-20.554" fill="#EDF0FD"/><path d="M87.422 75.025c.455-.044.9-.042 1.331.115.504.183.88.567 1.086 1.02.194.425.23.926.011 1.35-.383.74-6.54 6.289-7.53 7.04a2.8 2.8 0 0 1-.788.404 2.4 2.4 0 0 1-1.08-.032c-.497-.139-.97-.472-1.212-.895-.257-.451-.32-1.029-.128-1.51.113-.284.35-.534.567-.76 1.144-1.186 2.47-2.282 3.698-3.4 1.072-.976 2.136-2.09 3.314-2.957.228-.166.465-.27.731-.375" fill="#32271E"/><path d="M73.672 56c2.016.62 4.061 1.166 6.09 1.743 1.398.398 2.816.874 4.238 1.172L72.194 70.76A95 95 0 0 0 69.988 73C68 70.561 66.053 68.067 64 65.686c1.66-1.548 3.236-3.208 4.839-4.815 1.612-1.615 3.277-3.202 4.833-4.871" fill="#36C99F"/></svg>