<svg width="154" height="220" viewBox="0 0 154 220" fill="none" xmlns="http://www.w3.org/2000/svg"><path d="M61.278 97.37c-11.558-.524-23.598-2.893-34.026-7.951-.971-.472-2.297-1.195-2.633-2.304-.408-1.347 1.36-2.258 2.222-2.979.47-.392.88-.86 1.273-1.326 8.1-9.61 5.34-31.553 7.133-44.073a50.3 50.3 0 0 1 5.68-17.342c4.41-8.083 11.738-15.601 20.776-18.245 3.082-.902 5.34-.734 8.244-1.3 1.968-.384 3.85-1.079 5.841-1.416a32.1 32.1 0 0 1 20.856 3.607c5.363 2.939 9.825 7.195 13.361 12.156 10.038 14.085 9.069 28.443 10.688 44.725.387 3.9.774 7.815 1.76 11.618.69 2.66 1.574 5.781 3.142 8.076a13.6 13.6 0 0 0 2.025 2.349c1.03.937 3.414 2.125 3.804 3.458-.056.524-.187.913-.542 1.315-.891 1.01-2.505 1.553-3.698 2.126-9.844 4.728-23.556 6.993-34.473 7.32-.004 1.397-.078 2.842.085 4.23 1.12.387 2.263-1.442 3.643-1.229.821.126 1.751 1.473 2.305 2.107 1.208 1.385 2.434 2.705 3.781 3.959 1.177 1.096 2.817 2.214 3.72 3.522 7.548 2.607 15.952 5.923 22.007 11.209 2.802 2.446 4.877 5.336 6.229 8.802 2.622 6.716 3.558 14.263 4.539 21.371a1599 1599 0 0 1 2.179 16.614c1.146 9.027 2.613 18.106 3.222 27.186.452 6.75.55 14.167-4.218 19.541-3.062 3.453-7.599 5.081-12.114 5.368-2.002.126-5.95-.108-7.473-1.457-.414.298-.611.302-1.117.332-1.884.116-3.839-.007-5.731-.007l-12.268.006-38.318.005H42.776c-1.896 0-6.477.236-8.122-.047-.183-.03-.371-.1-.535-.185a2.6 2.6 0 0 1-.792.447c-4.338 1.649-9.556 1.272-13.746-.649a16.05 16.05 0 0 1-8.402-9.196c-1.04-2.848-1.297-5.927-1.278-8.937.058-9.402 1.779-18.929 2.946-28.25l2.038-16.373c1.048-8.394 2.134-19.466 5.667-27.109 4.826-10.44 16.887-14.873 27-18.592l.048-.065.082-.106c1.088-1.49 3.44-3.123 4.825-4.491 1.632-1.612 2.965-3.529 4.765-4.959.888-.069 1.56.374 2.297.8.573.332 1.066.282 1.707.258z" fill="#32271E"/><path d="M79.448 160.076c1.172 1.03 4.743 1.313 6.391 2.036.248.107.489.194.592.451-.258.258-1.22.269-1.593.32-1.105.151-2.316.515-2.994 1.478-.557.789-.458 1.828-.261 2.721l.035.156c-.655.649-1.278 1.299-1.67 2.146-.611 1.328-.336 2.6.153 3.915-.534.876-.883 1.747-1.215 2.711-.235.133-2.593-.058-3.505.331-1.083.46-2.115 1.709-2.527 2.792a4.42 4.42 0 0 0 .124 3.446c.49 1.062 1.416 2 2.527 2.404.838.303 1.966.326 2.779-.053.253.909.557 1.741 1.039 2.555-.316.673-.622 1.36-.713 2.105-.127 1.031.07 2.108.721 2.938a3.32 3.32 0 0 0 2.338 1.272c.807.064 1.943-.156 2.562-.698 2.155 2.955 11.975 7.081 15.573 8.087 1.819.508 3.806.613 5.585 1.187.855.274 1.507 1.132 2.37 1.321-.347.862-1.268 1.468-1.424 2.411-.044.268-.006.532.159.753 1.136 1.515 10.042 9.037 11.974 10.42.624.447 1.373 1.019 2.148 1.126-.414.298-.612.302-1.117.332-1.885.115-3.84-.007-5.731-.007l-12.268.005-38.318.006H42.776c-1.896 0-6.478.236-8.122-.047-.183-.03-.371-.1-.535-.185.656.073 1.933-.776 2.47-1.127a22.4 22.4 0 0 0 4.27-3.713c1.893-2.161 18.388-24.133 18.426-25.062.059-1.451-2.671-2.653-3.413-3.817q-.027-.043-.052-.087c.404-.294.637-.99.841-1.438.142.025.138.033.307.016 2.106-.199 5.164-2.925 6.453-4.497 1.352.342 2.74.293 4.052-.194 1.577-.583 2.961-1.795 3.65-3.338l.122.034c.626.153 1.771-.2 2.31-.515 1.397-.825 2.087-2.316 2.491-3.816.281.08.612-.028.879-.13 1.276-.487 2.37-1.677 2.933-2.898 1.224-2.649.518-5.261-.41-7.853" fill="#778EEE"/><path d="M47.838 113.02c.133-.013.239.029.367.062.653.898 1.07 2.172 1.557 3.185 2.325 4.827 1.957 3.82 1.872 9-.06 3.61.481 10.95 3.149 13.641.906.914 1.642 1.005 2.889 1.004.465.892.948 1.765 1.5 2.606 1.049 1.594 4.18 5.351 5.921 5.879.831.252 1.749-.055 2.543.164.275.076.287.162.41.396-.237.503-2.306 1.415-2.894 1.784-1.692 1.06-3.332 2.247-4.9 3.482-3.259 2.564-6.348 5.525-9.14 8.589a207 207 0 0 0-4.006 4.515c-.92 1.082-3.538 4.742-4.426 5.284-.614-.149-1-.847-1.547-1.147-1.846-1.008-4.15 3.532-5.844 4.028-.05-2.587.054-5.183.07-7.774l.067-14.505c.03-2.963.234-6.022.063-8.976-.024-.422-.046-.973-.317-1.316a1.45 1.45 0 0 0-1.055-.558 1.36 1.36 0 0 0-1.011.336c-.414.382-.53 1.058-.572 1.597-.087 1.106.009 2.246-.007 3.357a495 495 0 0 0-.078 8.855l-.216 22.001c-.468.968-1.757 1.957-2.536 2.71l-7.234 6.94c-1.223 1.166-2.882 2.441-3.82 3.821-.246.362-.367.771-.259 1.205.096.383.353.685.691.88.315.179.725.251 1.078.145.366-.109.706-.4.988-.649 2.363-2.085 4.554-4.442 6.822-6.636 1.43-1.385 5.136-4.512 6.088-6.025.574-.193 5.857-5.397 6.347-6.217.475.911 14.426 13.621 15.4 13.997-.877 1.917-4.721 6.651-6.215 8.662l-6.526 8.818c-1.582 2.128-3.137 4.358-5.002 6.251-1.452 1.474-3.14 2.713-5.063 3.5-3.757 1.538-8.126 1.359-11.838-.213a12.7 12.7 0 0 1-6.94-7.159c-1.031-2.617-1.326-5.659-1.3-8.457.084-8.653 1.748-17.903 2.825-26.509l2.384-19.056c.978-7.583 1.958-17.49 5.044-24.443 4.262-9.605 15.547-13.536 24.67-17.054" fill="#778EEE"/><path d="M67.993 20.99c.34.28 1.861 5.146 2.41 6.197a26.7 26.7 0 0 0 8.095 9.37c4.707 3.38 10.134 4.92 15.883 3.972 3.179 2.378 6.425 4.582 10.018 6.29.302 1.786.605 3.698 1.149 5.422.986 3.128 3.411.254 5.486 1.441.992.568 1.437 1.804 1.698 2.853.679 2.727.307 6.073-1.193 8.48-.748 1.198-2.285 2.62-3.831 2.432-.763-.092-1.765-.574-2.51-.35-.354.108-.617.41-.779.73-.515 1.014-.681 2.406-.988 3.51-.436 1.57-1.012 3.037-1.706 4.512-3.35 7.117-9.456 13.05-16.892 15.727-3.031 1.153-6.552 1.533-9.772 1.279-11.115-.878-20.16-9.157-24.096-19.248-.421-1.08-1.557-5.675-2.072-6.188-.778-.776-2.232-.093-3.2-.059-.89.032-1.746-.38-2.39-.972-1.7-1.563-2.437-4.357-2.524-6.586-.07-1.78.263-4.403 1.55-5.753 1.517-1.592 2.856-.262 4.54-.414 1.057-.095 1.782-2.537 2.133-3.393 4.557-11.116 10.688-20.57 18.99-29.252" fill="#FECFAA"/><path d="M64.203 71.72c4.098-.144 8.225-.053 12.326-.055 2.78-.001 10.327-.372 12.65.42.212.242.29.427.322.75.255 2.579-2.87 7.616-4.564 9.57-.535.553-1.083 1.068-1.706 1.522a11.1 11.1 0 0 1-8.37 2.026c-3.374-.574-6.312-2.592-8.259-5.377-1.145-1.639-3.571-6.108-3.144-8.026.095-.424.4-.608.745-.83" fill="#32271E"/><path d="M66.269 74.11c6.81-.166 13.654-.021 20.467-.02-.716 2.377-1.615 4.512-3.288 6.4-1.144 1.182-2.531 2.125-4.096 2.65-2.258.757-4.631.536-6.743-.55-3.361-1.728-5.232-4.999-6.34-8.48" fill="#FE997F"/><path d="M63.04 53.018c.379.006.852.062 1.208.2a3.18 3.18 0 0 1 1.774 1.713c.473 1.07.479 2.416.055 3.501-.419 1.075-1.067 1.645-2.1 2.109-.414.005-.849-.02-1.234-.184-.861-.37-1.504-1.155-1.837-2.015-.423-1.096-.428-2.37.053-3.447.44-.985 1.09-1.495 2.08-1.877m26.768.026c.319.043.66.08.96.199.722.285 1.282.94 1.565 1.652.438 1.103.393 2.511-.076 3.597-.48 1.11-1.157 1.666-2.27 2.103-.443-.047-.902-.15-1.288-.38-.834-.498-1.374-1.447-1.586-2.373-.265-1.158-.146-2.442.513-3.45.54-.825 1.25-1.142 2.182-1.348M88.798 41.72c1.272-.119 2.552-.1 3.79.238 1.51.414 3.41 1.417 4.17 2.857.26.492.31.904.15 1.433-.243.277-.359.418-.75.467-.94.118-1.738-.661-2.408-1.206-4.454-2.728-5.55.146-8.107-.414-.327-.192-.514-.416-.615-.79a1.03 1.03 0 0 1 .13-.806c.668-1.089 2.49-1.528 3.64-1.78m-27.333.003c1.008-.094 2.352-.176 3.331.066 1.117.277 2.725.924 3.27 2.031.178.363.132.52.022.88-.263.293-.745.569-1.146.59-.784.04-2.478-.756-3.386-.911-.672-.115-1.38-.033-2.053.029-1.637.408-2.5 1.787-3.892 2.2-.449.133-.813.105-1.225-.106-.096-.127-.24-.266-.273-.421-.118-.563.05-1.02.354-1.492 1.063-1.643 3.173-2.471 4.998-2.866M76.027 62.34c.467.076.842.152 1.216.458.22.6-.151 1.132-.077 1.747.057.475.45.781.466 1.283-.18.46-.522.67-.906.947q-.12-.012-.24-.03a2.1 2.1 0 0 1-1.434-.903c-.357-.53-.432-1.17-.304-1.788.168-.813.618-1.277 1.28-1.714" fill="#32271E"/><path d="M105.674 112.776c8.158 3.112 19.652 7.129 24.419 14.872 1.961 3.185 2.927 7.046 3.736 10.656 2.067 9.219 3.016 19.526 4.239 28.944 1.311 10.099 3.053 20.51 3.458 30.673.121 3.05.152 6.214-.589 9.197-.807 3.251-2.725 5.849-5.602 7.574-3.176 1.904-7.948 2.84-11.586 1.913-1.155-.294-2.129-.764-3.127-1.413-1.609-1.047-10.079-8.048-10.834-9.338.503-.249 11.693-15.726 12.654-17.386.678.764 13 9.24 13.663 9.414.369.096.723.037 1.043-.168.341-.221.671-.597.718-1.015.212-1.899-4.619-3.648-5.672-5.023l-.047-.066c-.871-.204-8.813-5.74-9.419-6.52q-.017-13.84-.302-27.678l-.161-8.896c-.021-1.282.064-2.607-.04-3.883-.046-.553-.178-1.117-.471-1.595-.205-.334-.605-.756-1.021-.8-.355-.037-.643.083-.898.325-.427.405-.605 1.098-.651 1.669-.096 1.18.06 2.432.086 3.619l.144 7.832c.168 9.508.481 19.058.336 28.566a1 1 0 0 1-.298-.372c-1.186-2.27-1.637-7.661-2.486-10.5-.92-3.084-2.106-6.288-3.359-9.254-.532-1.256-1.172-2.466-1.684-3.728.567-.853 1.486-5.444 1.847-6.779.408-1.508.809-3.106-.048-4.542-.504-.844-1.325-1.343-2.269-1.558-1.072-.245-16.781.265-18.723.52-.677.089-1.362.266-1.94.64-1.623 1.051-1.885 3.024-2.277 4.76-1.257-.614-2.527-1.205-3.792-1.803.289-.715.64-1.48 1.069-2.121.913-1.362 1.137-.67 2.426-.988.51-.126 1.017-.593 1.432-.911 2.71-2.078 4.512-4.694 6.134-7.663 1.154-.037 1.769-.308 2.557-1.151 3.638-3.891 3.592-12.975 3.41-17.98 1.487-2.57 2.747-5.319 3.925-8.043" fill="#778EEE"/><path d="M110.856 164.895c.608 1.132 1.002 2.481 1.437 3.691 1.07 2.979 2.1 5.891 2.757 8.993.547 2.583.904 5.37 1.889 7.83.367.915 1.236 2.293 2.164 2.693-.344.823-9.082 12.972-9.666 13.367-.039-.004-.078-.006-.116-.014-1.007-.243-1.922-1.432-3-1.758-1.933-.585-4.021-.766-5.981-1.327-6.49-1.853-14.031-5.672-18.091-11.266-.713-.983-1.419-2.193-1.225-3.448.71.353 1.639 1.808 2.253 2.438 1.932 1.987 4.934 4.672 7.473 5.772.444.193.874.338 1.34.121.378-.177.651-.523.759-.923.117-.436-.043-.873-.353-1.19-.656-.67-1.789-1.202-2.58-1.748-2.566-1.768-5.357-4.022-7.048-6.672-.968-1.517-1.716-3.421-1.327-5.238l.158-.079c1.145 1.325 4.365 5.697 5.997 6.265q.071.024.142.045c.998 1.37 4.855 3.747 6.43 4.521.824.404 1.523.636 2.435.323.1-.114.273-.253.295-.402.11-.736-.348-1.399-.859-1.885-.914-.872-2.338-1.468-3.406-2.189-3.404-2.3-6.679-5.089-9.056-8.47-.587-.834-1.648-2.461-1.392-3.521.091-.38.263-.783.587-.989.85.636 1.386 1.67 2.12 2.44a44.4 44.4 0 0 0 5.55 4.838c1.568 1.162 7.63 5.457 9.404 5.041.348-.081.451-.247.635-.518.05-.293.075-.553-.009-.844-.302-1.053-1.11-1.426-1.987-1.887-4.788-2.509-9.52-5.781-12.946-10.015-.532-.657-1.283-1.544-1.488-2.38-.086-.349-.023-.49.146-.794.564-.232 1.02.017 1.538.27 2.634 1.285 4.988 3.111 7.497 4.619 3.532 2.124 7.245 3.66 11.118 5.025.973.343 2.394 1.058 3.415 1.096.554.019.91-.081 1.316-.462.116-.229.184-.385.167-.648-.029-.452-.155-.715-.491-1.02-.158-.142-.298-.255-.409-.44l-.08-.14c.96-2.992 1.429-6.16 2.488-9.121M72.49 150.858c3.06-.066 12.204 3.877 15.305 5.365-.234 1.014-.42 2.076-.799 3.046-.616.181-8.609-2.131-10.134-2.387-1.01-.976-2.102-2.193-3.35-2.851-.37-.196-.812-.366-1.227-.213-.386.143-.554.377-.731.732-.014.305-.05.469.106.753 1.043 1.886 3.808 3.626 5.123 5.768.844 1.373 1.264 3.313.863 4.898-.195.772-.58 1.517-1.278 1.938-.051-.077-.032-.042-.07-.138-.436-1.115-.896-2.036-1.603-3.017-1.025-1.426-3.509-4.621-5.3-4.84-.445-.055-.789.03-1.143.296-.767 2.114 5.607 5.508 5.528 9.088-.018.813-.46 2.339-1.114 2.877-.306.253-.474.232-.837.195-.538-.349-.915-2.234-1.288-2.882-.924-1.605-2.71-2.507-3.793-3.949-.183-.025-.114-.004-.28-.07-.615-.245-1.154-.507-1.833-.322-.404.111-.473.234-.65.577.048 1.698 3.666 3.983 4.639 5.723a2.8 2.8 0 0 1 .258 2.183c-.27.953-1.071 1.715-1.933 2.151-.599.304-1.388.587-2.05.372-.328-.455.09-1.787-.167-2.495-.219-.228-.335-.398-.688-.386-.4.015-.917.177-1.185.488-1.017 1.18-.806 2.723-2.409 4.259-1.833 1.759-4.031 1.906-5.608 3.223-.476.396-.788 1.068-1.195 1.545q-.07-.01-.14-.023c-.658-.135-8.434-7.366-8.88-8.138.607-.217 2.675-3.107 3.261-3.824 4.764-5.831 16.833-19.154 24.602-19.942m-8.095-57.84q1.77.871 3.635 1.519c7.305 2.499 14.702 1.737 21.57-1.646.004 2.384-.326 9.562.243 11.303.01.032.067.193.07.235.053.68-4.31 4.448-5.098 5.189l-7.809 7.381c-4.07-3.731-8.321-7.398-12.222-11.3-.197-.196-.872-.804-.901-1.069-.054-.489.542-1.438.576-2.05.047-.845-.062-1.746-.064-2.602z" fill="#FECFAA"/><path d="M55.66 117.873c4.852-.285 11.27 1.471 15.304 4.186-.25 2.653-.366 5.303-.087 7.959-1.39 1.285-2.908 2.364-4.475 3.422-2.893 1.88-5.975 3.121-9.39 3.625q-.278-.45-.515-.921c-2.09-4.119-2.029-9.869-1.79-14.352.058-1.094.049-2.462.43-3.483.11-.298.257-.308.523-.436m41.087.019 1.495.167c.245.955.353 2.01.45 2.992.488 5.009.416 12.026-2.942 16.1-2.875-.418-5.408-1.646-7.916-3.053-1.934-1.097-3.672-2.484-5.331-3.954.31-2.608.142-5.257.003-7.871 4.33-2.85 9.09-4.125 14.24-4.381" fill="#36C99F"/><path d="M95.758 103.536c2.485 2.501 4.702 5.038 7.44 7.306-.795 1.89-1.718 3.746-2.572 5.611-.415-.453-.846-.868-1.419-1.111-3.313-1.404-10.648.864-13.88 2.136a23.4 23.4 0 0 0-4.727 2.678c-.64-.161-1.311-.215-1.965-.294 5.32-5.767 11.308-11.063 17.123-16.326m-37.768.098a516 516 0 0 1 17.381 16.127l-2.141.343c-1.25-.916-2.552-1.63-3.96-2.272-3.63-1.674-8.043-2.755-12.038-2.933-1.701-.076-3.019.137-4.3 1.299-.714-1.741-1.567-3.424-2.39-5.116a51 51 0 0 0 7.447-7.448m18.641 31.949c.742.638 1.779 3.326 2.377 4.337 1.42 2.4 3.279 4.525 5.13 6.595-1.024 1.22-1.82 2.474-2.387 3.969-1.154-.259-2.306-.712-3.43-1.089-2.51-.88-4.79-1.544-7.498-1.273l-1.006-1.854c2.999-3.195 5.013-6.722 6.815-10.685" fill="#FEFEFE"/><path d="M72.873 132.224c.711.026 1.477.23 2.18.353-2.087 4.793-4.74 9.729-8.844 13.103-.654-.398-1.248-.903-1.849-1.377-1.55-1.471-2.7-3.098-3.78-4.931 4.731-1.581 8.569-3.831 12.293-7.148m6.787.072.115-.008c.909-.062 2.042 1.262 2.733 1.849 3.011 2.556 6.547 4.1 10.217 5.438-.813 1.406-1.724 2.641-2.785 3.868a28 28 0 0 1-2.467 2.247c-3.352-3.131-5.915-6.532-7.886-10.679-.36-.759-.841-1.584-1.014-2.403.235-.241.75-.25 1.087-.312m-3.917-9.603c1.382-.098 2.607.046 3.956.309.051 2.083.088 4.156.034 6.24-.557.142-1.129.219-1.696.31-1.553.138-2.885.028-4.406-.251q-.025-3.147.06-6.292c.677-.147 1.367-.225 2.052-.316" fill="#36C99F"/><path d="M76.763 178.554c.54.159 1.049.03 1.536.396.411.308.791.774.851 1.301.054.479-.158.935-.46 1.296-.288.343-.531.513-.966.566-.29.202-.512.302-.873.302-.425.002-.798-.087-1.097-.406-.38-.406-.443-.945-.383-1.475.111-.974.683-1.406 1.392-1.98" fill="#FEDD35"/><path d="M95.579 153.906a3 3 0 0 1 .674.007 1.4 1.4 0 0 1 .968.581c.278.404.285.897.178 1.361-.215.93-.703 1.4-1.47 1.889-.097-.002-.194-.002-.292-.008-.484-.03-.897-.16-1.214-.549-.31-.379-.357-.851-.273-1.319.168-.949.673-1.451 1.429-1.962" fill="#FEFEFE"/></svg>