<svg width="154" height="220" viewBox="0 0 154 220" fill="none" xmlns="http://www.w3.org/2000/svg"><path d="M67.754 3.489c8.65-4.012 16.267-4.694 25.34-1.365 9.494 3.483 17.148 11.164 21.354 20.282 2.994 6.493 4.142 14.54 1.611 21.375a22.4 22.4 0 0 1-3.561 6.258c2.115 1.768 3.147 4.009 3.406 6.744.343 3.632-.515 7.709-2.891 10.545-1.413 1.686-3.363 2.846-5.581 3.025-.728.06-1.461.014-2.189-.028-1.94 7.146-5.395 12.98-10.831 18.02-.034.91-.354 4.274.067 4.897.435.138.945.259 1.347.474.465.248.956.813 1.36 1.176 1.48 1.329 2.976 2.84 4.736 3.782 2.703 1.448 5.573 2.675 8.346 3.988l14.88 7.085c3.416 1.632 7.369 3.188 10.383 5.484 2.055 1.566 3.61 3.593 4.796 5.875 1.614 3.106 2.501 6.588 3.214 9.995 2.847 13.61 4.022 28.331 5.189 42.208q.623 7.169 1.014 14.359c.183 3.202.424 6.455.275 9.663a20.7 20.7 0 0 1-.947 5.461c-1.372 4.298-4.307 8.282-8.364 10.375-4.061 2.098-10.019 2.707-14.376 1.302a2.35 2.35 0 0 1-.971-.575c.039 1.456.556 4.774-.499 5.858-.142.144-.413.226-.616.216-.391-.019-.907-.201-1.154-.514-.152-.194-.225-.433-.292-.664-.109.058-.161.095-.274.133-1.015.335-10.487.091-12.165.091H71.897l-26.027.003c-4.122 0-8.782.236-12.85-.024a1.44 1.44 0 0 1-.66-.205c-.135.4-.23.734-.625.941-.401.211-.741.308-1.192.258-.375-.189-.538-.377-.683-.778-.59-1.634-.065-4.781-.043-6.588-1.404 1.465-5.761 2.034-7.797 2.074-4.434.09-9.01-1.516-12.22-4.603-4.816-4.627-6.402-11.161-6.493-17.631-.084-5.949.599-12.031 1.232-17.938a656 656 0 0 1 3.72-27.977c1.026-6.635 2.012-14.888 4.054-21.161 1.06-3.255 2.65-6.436 5.063-8.904 3.089-3.158 7.952-4.923 11.885-6.831l14.397-6.91c2.537-1.21 5.2-2.332 7.656-3.691 1.921-1.064 6.28-5.469 7.773-5.753l-.081-.123.34.108c.393-1.362.068-3.452.018-4.873-5.388-5.195-8.797-10.882-10.838-18.087-2.55.171-4.67-.154-6.666-1.901-2.567-2.246-3.78-5.778-3.967-9.104-.168-2.984.403-5.986 2.439-8.28.413-.465.908-.864 1.395-1.252-4.136-5.598-6.536-11.735-5.486-18.756 1.354-9.059 7.683-17.688 14.93-23.04 4.385-3.236 9.762-5.567 15.312-4.736q.64.09 1.271.237" fill="#32271E"/><path d="M60.711 150.548c3.28.524 6.457 1.499 9.6 2.555l-.023 13.625c0 2.412-.188 5.007.123 7.393.128.987.38 2.289 1.11 3.02 1.321 1.328 3.701 1.311 5.448 1.247.781-.029 1.8.004 2.506-.336.647.801 1.883 1.439 2.76 1.964a66.6 66.6 0 0 0 14.14 6.475c1.45.469 3.07.56 4.474 1.087.905.34 1.389 1.339 2.196 1.671l-.049.078c-.585.878-2.095 1.304-1.862 2.591.439 2.425 10.008 12.85 12.165 14.801a42.5 42.5 0 0 0 6.219 4.634c.618.381 2.137 1.391 2.828 1.29l.454 6.146c-.109.059-.162.095-.274.133-1.015.336-10.487.091-12.165.091H71.897l-26.027.004c-4.122 0-8.782.236-12.85-.024a1.45 1.45 0 0 1-.66-.205c.078-2.669.407-5.325.505-7.992 2.054-.432 6.038-6.127 7.174-7.869 1.679-2.572 10.33-17.609 9.95-19.543-.242-1.228-2.328-1.718-2.997-2.72 1.112-.822 1.745-2.179 2.954-2.91 1.553-.938 3.555-1.481 5.254-2.157 5.709-2.275 8.07-5.05 11.577-9.902 1.256-1.739 2.896-3.688 3.206-5.873.14-.987-.025-2.003-.634-2.813-.584-.775-1.431-1.168-2.377-1.297-.9-.123-1.733-.004-2.612.187-.782-2.355-1.745-3.726-3.649-5.351" fill="#778EEE"/><path d="M76.026 186.153a5.52 5.52 0 1 1 1.847 10.886 5.524 5.524 0 0 1-6.344-4.525 5.52 5.52 0 0 1 4.496-6.361" fill="#32271E"/><path d="M76.188 188.987a2.713 2.713 0 1 1 1.564 5.195 2.713 2.713 0 0 1-1.564-5.195" fill="#FEDD35"/><path d="m42.716 106.498.203.036c.41 1.254-3.493 16.523-2.723 18.594.31.836 5.76 2.895 6.987 3.43-.972 1.371-4.258 4.996-4.4 6.462-.175 1.813 4.9 7.625 6.184 9.22-7.899 4.067-11.96 11.23-16.419 18.511-.755 1.234-2.073 3.848-3.048 4.73-.802-.114-1.31-.769-2.22-.628-.484.076-.823.431-1.15.769-2.573 2.657-4.832 5.816-7.196 8.668-3.006 3.626-6.32 7.206-9.02 11.055-.285.406-.617.877-.5 1.397.092.412.411.759.775.961.227.125.623.231.877.146.339-.112.588-.289.83-.551 1.91-2.065 3.603-4.438 5.405-6.613l7.062-8.494c1.068-1.293 2.664-2.843 3.373-4.339q.024-.048.044-.099.047.084.096.165c1.019 1.633 15.172 12.35 16.62 12.659q.025.039.053.078c.426.543 1.632 1.418 2.285 1.534-.707 2.137-2.071 4.322-3.104 6.339-3.58 6.993-7.678 15.882-15.006 19.608-3.55 1.807-8.117 2.166-11.914.9-3.733-1.244-6.529-3.988-8.247-7.471-1.504-3.051-2.209-6.473-2.354-9.854-.262-6.121.503-12.504 1.165-18.584a635 635 0 0 1 4.092-30.042c.993-6.261 1.703-13.269 3.75-19.256.855-2.504 2.196-5.314 4.106-7.191 2.766-2.719 8.888-5.141 12.51-6.883z" fill="#778EEE"/><path d="M24.97 126.27c.462.075 1.046.146 1.331.571.6.896.791 2.729 1.007 3.784a121 121 0 0 1 2.54 23.989c.02 1.328.234 3.115-.118 4.378-.119.428-.628.642-.99.843-.488-.068-1.1-.127-1.4-.58-.49-.744-.332-6.627-.392-7.951-.27-5.87-.77-11.647-1.849-17.43-.274-1.47-1.532-5.415-1.137-6.65.165-.512.572-.709 1.008-.954" fill="#32271E"/><path d="M68.158 20.061c.423.39 1.26 4.47 1.582 5.377.658 1.856 1.685 3.671 2.799 5.29a24.8 24.8 0 0 0 5.979 6.152c1.55 1.13 3.154 2.046 4.877 2.88.333.162 1.775.77 1.943 1.016.269.396-.29 1.324.458 2.121 1.275.688 3.54-.67 5.131-.322 1.394.305 2.796 2.447 3.984 2.287.548-.074.91-.57 1.22-.977l.113-.149c1.087.226 2.411 1.202 3.433 1.707a54 54 0 0 0 3.54 1.583c-.053 1.681-.523 6.893.625 8.048.211.214.407.308.717.293.354-.019.848-.384 1.084-.648.66-.739.498-1.852.483-2.771q.396-.124.8-.224c1.226-.296 2.521-.262 3.617.418 1.234.767 1.885 2.17 2.195 3.54.667 2.958.136 6.746-1.549 9.299-.761 1.152-2.407 2.345-3.788 2.567-1.957.315-1.262-1.162-2.446-1.88-.216-.132-.428-.17-.668-.074-1.345.541-1.935 4.989-2.44 6.346-2.22 5.971-5.736 11.941-11.11 15.595-1.477 1.003-3.072 1.759-4.692 2.497a24.75 24.75 0 0 1-18.892-.184c-7.14-3.038-12.068-9.653-14.731-16.771-.774-2.069-1.15-4.375-1.998-6.38-.236-.559-.467-.831-1.02-1.05-.943.105-1.395 1.289-2.076 1.856-.512.06-1.034-.023-1.527-.168-1.646-.484-2.86-1.711-3.662-3.192-1.368-2.523-1.742-6.163-.905-8.91.407-1.338 1.199-2.612 2.476-3.264 1.334-.68 2.661-.424 4.027-.001-.003.805-.11 1.937.384 2.616.262.36.712.521 1.143.554a1.1 1.1 0 0 0 .866-.302c1.149-1.109.568-5.183.509-6.714 5.444-3.268 8.584-8.485 10.56-14.403 1.727-5.175 2.652-9.882 6.959-13.658" fill="#FECFAA"/><path d="M66.488 72.075q.249-.022.498-.034c3.888-.154 7.83-.035 11.723-.037 2.595-.001 5.379-.206 7.948.075.429.047.81.086 1.128.403.374.372.49.882.505 1.394.091 3.208-1.697 7.032-3.844 9.297-2.2 2.01-4.726 3-7.722 2.92-2.965-.078-5.78-1.184-7.825-3.368-2.072-2.212-3.405-5.821-3.258-8.879.04-.8.243-1.236.847-1.771" fill="#32271E"/><path d="M68.61 74.765c5.475.253 11.195.205 16.673.006-.727 2.066-1.131 3.861-2.375 5.735-1.05 1.291-2.45 2.236-4.096 2.563-2.186.435-4.705-.032-6.542-1.305-2.344-1.625-3.183-4.32-3.66-7" fill="#FE8383"/><path d="M62.891 39.627c1.203-.139 2.515-.143 3.68.227.615.196 1.755.607 2.027 1.246.143.337.138.805-.03 1.132-.673 1.325-3.495.287-4.626.25-.595-.019-1.163.161-1.725.336-1.034.496-1.716 1.544-2.725 1.947-.307.122-.672.075-.958-.081-.4-.219-.792-.631-.884-1.088-.08-.398.072-.778.288-1.106 1.057-1.6 3.143-2.508 4.953-2.864m.957 13.361c.392-.046.82-.074 1.208.003.685.136 1.32.591 1.715 1.159.545.783.69 1.831.492 2.753-.253 1.177-.863 1.83-1.861 2.458-.477.07-.934.113-1.409-.014a2.9 2.9 0 0 1-1.747-1.373c-.473-.825-.556-1.871-.294-2.777.317-1.094.93-1.662 1.896-2.21m24.789-.001c.388-.037.812-.053 1.194.033.74.166 1.414.728 1.79 1.375.48.822.576 1.86.318 2.77-.308 1.085-.922 1.667-1.876 2.21-.459.055-.91.107-1.363-.022-.708-.203-1.33-.727-1.68-1.373-.462-.855-.546-1.91-.267-2.838.318-1.057.937-1.636 1.883-2.155m-12.132 9.093a5 5 0 0 1 .615.009c.385.03.765.175 1.006.492.237.312.26.735.207 1.109-.143.992-.973 2.514-1.765 3.138-.542.003-1.077.009-1.495-.402-.278-.274-.353-.642-.323-1.02.081-1.048.987-2.627 1.755-3.326" fill="#32271E"/><path d="m111.03 106.277 14.084 6.786c2.99 1.441 6.383 2.751 9.015 4.8 1.481 1.154 2.537 2.504 3.41 4.157 1.368 2.593 2.173 5.427 2.802 8.277 2.159 9.775 3.259 19.863 4.248 29.814a554 554 0 0 1 1.907 22.316c.287 4.892.875 9.996.613 14.881a18.6 18.6 0 0 1-.843 4.717c-1.156 3.639-3.737 6.993-7.163 8.732-3.729 1.894-9.091 1.868-13.026.545-7.501-2.519-13.309-8.789-18.158-14.747-1.17-1.439-2.644-3.005-3.459-4.666q.066-.006.132-.017c.498-.091 18.846-15.365 19.485-16.375.403.702 2.293 2.323 3.066 2.572.794 1.213 8.983 7.636 10.748 9.115 1.26 1.055 2.472 2.238 3.768 3.238.178.139.368.226.585.289.58.163 1.19.148 1.709-.19a.98.98 0 0 0 .44-.651c.069-.441-.145-.866-.421-1.198-.961-1.158-2.605-2.219-3.78-3.206l-10.418-8.705c-1.096-.917-2.668-1.949-3.485-3.09q-.03-.04-.057-.083c-.263-8.654-.162-17.227.976-25.825q.488-3.704 1.178-7.377c.252-1.328.663-2.717.809-4.056.063-.571.023-1.196-.386-1.639-.295-.319-.679-.46-1.103-.475-.254.084-.428.159-.613.359-1.068 1.152-1.268 4.013-1.545 5.545-1.955 10.797-2.496 21.414-2.182 32.37-.314.496-.92 1.039-1.485 1.213-.34-.258-.645-1.281-.814-1.695-1.15-2.824-1.974-5.873-2.448-8.885-.524-3.331-.777-6.707-1.673-9.972-1.594-5.806-4.715-13.331-8.812-17.834.008-2.403.412-4.864-.175-7.221 1.277-.52 5.418-1.877 6.101-2.961.24-.381.141-1.245.095-1.682-.2-1.884-.665-3.81-1.013-5.676a799 799 0 0 1-2.112-11.5" fill="#778EEE"/><path d="M107.869 139.64c1.065 1.022 1.882 3.158 2.525 4.482 1.768 3.644 3.316 7.46 4.19 11.424.604 2.738.814 5.533 1.265 8.295a44 44 0 0 0 2.137 8.027c.44 1.224.908 2.608 1.591 3.718-.223.38-13.673 11.856-14.298 12.082-.84-.336-1.818-1.947-2.96-2.454-1.306-.581-2.938-.798-4.327-1.179a48 48 0 0 1-6.322-2.282c-3.687-1.605-17.164-9.021-18.503-12.84-.13-.369-.166-.788.022-1.143.179-.338.416-.511.768-.634 1.134-.101 4.408 2.557 5.498 3.217 1.882 1.139 10.01 5.989 12.053 5.385.332-.097.61-.309.747-.63.27-.634-.055-1.365-.566-1.771-.697-.556-3.724-1.663-4.734-2.16-2.818-1.384-12.956-7.099-14.043-9.931-.184-.478-.126-.964.08-1.42.125-.106.274-.279.431-.315 1.463-.337 4.496 2.024 5.736 2.779 3.205 1.928 11.981 6.511 15.52 6.269.467-.032.917-.174 1.218-.552.24-.3.353-.689.284-1.069-.13-.708-.693-.92-1.306-1.114-1.603-.507-3.228-.901-4.813-1.473-4.423-1.596-8.263-3.904-12.199-6.44-1.265-.815-4.636-3.082-4.882-4.581-.076-.464.053-.758.336-1.114.566-.367.999-.277 1.613-.094 1.92.571 3.761 1.665 5.56 2.538 4.23 2.052 11.742 5.572 16.369 5.202.74-.059 1.736-.296 2.206-.915a1.2 1.2 0 0 0 .232-.924c-.052-.391-.213-.601-.477-.877-1.521-1.594-3.475-2.992-5.172-4.41l-10.023-8.359c-.827-.682-1.638-1.736-1.698-2.846-.022-.414.057-.748.354-1.043.359-.355 1.127-.117 1.521.045 1.89.777 3.777 2.349 5.478 3.498a631 631 0 0 1 13.151 9.104c1.106.777 5.191 3.943 6.347 3.888a1.45 1.45 0 0 0 1.055-.549 1.27 1.27 0 0 0 .257-1.043c-.219-1.058-2.106-1.904-2.965-2.419.602-4.067.587-9.198.744-13.372m-48.299 4.069c3.566-.482 7.4 1.22 10.696 2.403l.013 4.038c-1.892-.656-3.863-1.185-5.81-1.643-1.137-.267-2.287-.522-3.455-.597-.622-.04-5.272.349-5.593.57a1.36 1.36 0 0 0-.57.952c-.043.369.073.727.338.99.47.464 1.393.7 1.99.999 1.182.593 2.343 1.543 3.182 2.563 1.454 1.768 2.012 4.099 1.754 6.354-.153 1.34-.716 2.191-1.75 3.016.004-1.808-.19-3.707-1.114-5.31-1.178-2.047-4.102-4.257-6.386-4.831-.465-.117-.817-.116-1.23.139-.202.241-.32.439-.38.752-.073.391-.075.862.19 1.183.886 1.072 3.635 1.254 5.285 3.852.99 1.558 1.215 3.215.803 5.022-.159.695-.58 2.13-1.247 2.5-.244.135-.346.076-.6.013-.635-.73-.156-2.277-.348-3.251-.34-1.722-1.593-3.039-3.004-3.991-1.001-.676-2.782-1.909-4.023-1.605a1.25 1.25 0 0 0-.788.623c-.91 1.818 4.444 3.238 5.157 5.144.449 1.197.109 2.737-.424 3.849-.629 1.312-1.574 2.318-2.971 2.798-.468.159-.815.214-1.268-.012-.176-.229-.262-.392-.313-.683-.215-1.239.74-1.93 1.363-2.845.347-.511.465-.892.323-1.507-.105-.46-.284-.589-.66-.815-.224-.02-.398-.028-.617.038-1.015.308-1.77 1.191-2.277 2.083-.607 1.068-.987 2.444-.652 3.659.05.298.101.606.207.889.29.776.923 1.469 1.692 1.78 1.149.463 2.524.26 3.635-.213 1.534-.651 2.9-1.945 3.533-3.492.063.036.149.091.221.118.759.279 2.014.14 2.744-.198 1.294-.596 1.995-1.594 2.487-2.889.513.122 1.004-.08 1.481-.258 1.955-.736 3.16-3.103 3.493-5.051.115-.672.063-1.606.333-2.216.233-.128.415-.191.682-.222.604-.071 1.075-.046 1.56.337.095.243.153.425.117.689-.216 1.581-1.782 3.297-2.714 4.567-3.556 4.846-5.37 7.103-11.115 9.278-1.57.594-3.414 1.108-4.829 2.01-1.76 1.122-2.54 2.813-3.915 3.848-.058-.006-.153-.012-.213-.029-1.24-.357-12.25-8.549-12.956-9.804.776-.539 7.146-11.525 8.43-13.332 4.913-6.916 11.151-10.859 19.513-12.262" fill="#FECFAA"/><path d="m51.335 102.364.102.013c.077.056.181.085.23.166.253.416 1.522 5.523 1.816 6.479a316 316 0 0 0 5.222 15.141c2.145 5.9 4.313 11.764 6.922 17.478-4.457-1.273-8.066-.547-12.351.825l-1.572.534q-3.054-3.787-5.892-7.739c1.248-1.627 3.927-4.659 4.698-6.412.21-.476.319-.972.1-1.467-.59-1.328-5.94-3.171-7.486-3.838 1.035-6.241 2.184-12.463 3.175-18.712z" fill="#778EEE"/><path d="M62.1 90.423c2.777 1.563 5.51 2.846 8.628 3.572 7.253 1.69 14.692.197 20.963-3.716.092 2.116.19 4.07.649 6.144-1.952 1.958-3.832 3.997-5.743 5.995-3.133 3.276-6.412 6.386-9.716 9.488a408 408 0 0 1-15.395-15.541c.47-1.955.52-3.944.614-5.942" fill="#FECFAA"/><path d="M95.425 97.358a238 238 0 0 0 4.12 3.415c-1.98 7.514-4.652 14.838-7.415 22.092l-5.144-3.656a545 545 0 0 1-7.73-5.528c5.653-5.201 10.916-10.727 16.17-16.323m-37.044-.003c1.26.875 5.124 5.34 6.452 6.74a388 388 0 0 0 9.526 9.559c-2.582 1.664-5.07 3.535-7.588 5.298-1.759 1.196-3.486 2.445-5.224 3.671a210 210 0 0 1-7.346-21.839c1.415-1.115 2.792-2.282 4.18-3.429" fill="#FEFEFE"/><path d="M102.152 102.161c1.863.913 3.754 1.777 5.631 2.662.881 6.279 2.165 12.536 3.317 18.77l-4.908 2.007c-.497-.314-1.027-.539-1.564-.775-2.491-.654-7.16-.265-9.828-.239 2.823-7.306 5.473-14.817 7.352-22.425" fill="#778EEE"/><path d="M70.736 119.579c.6.294 2.056 4.444 2.408 5.313q-.335.175-.656.374c-.843.516-1.505 1.168-1.868 2.102-.897 2.308-.47 9.82-.449 12.708.007.877.138 1.967-.062 2.818l-.205.062c-.917-.49-1.454-2.323-1.855-3.244-2.098-4.693-3.858-9.478-5.565-14.324 2.79-1.865 5.538-3.836 8.252-5.809m12.046.171c1.761.909 5.042 3.588 6.788 4.858l-1.903.013-6.88.018a146 146 0 0 0 1.995-4.889m-4.967 12.171a2.42 2.42 0 1 1 1.398 4.636 2.42 2.42 0 0 1-1.398-4.636" fill="#FEFEFE"/></svg>