<svg width="120" height="64" viewBox="0 0 120 64" fill="none" xmlns="http://www.w3.org/2000/svg"><mask id="a" fill="#fff"><path d="M108 .201c6.627 0 12 5.373 12 12v26c0 6.628-5.373 12-12 12H73.598L60 63.8 46.402 50.2H12c-6.627 0-12-5.372-12-12v-26C0 5.573 5.373.2 12 .2z"/></mask><path d="M108 .201c6.627 0 12 5.373 12 12v26c0 6.628-5.373 12-12 12H73.598L60 63.8 46.402 50.2H12c-6.627 0-12-5.372-12-12v-26C0 5.573 5.373.2 12 .2z" fill="#FCFCFD"/><path d="M108 .201v-2zm12 38h2zm-12 12v2zm-34.402 0v-2h-.829l-.586.586zM60 63.8l-1.414 1.414L60 66.627l1.414-1.414zM46.402 50.2l1.415-1.414-.586-.586h-.829zM12 50.2v2zm-12-38h-2zm12-12v-2zm96 0v2c5.523 0 10 4.477 10 10h4c0-7.732-6.268-14-14-14zm12 12h-2v26h4v-26zm0 26h-2c0 5.523-4.477 10-10 10v4c7.732 0 14-6.268 14-14zm-12 12v-2H73.598v4H108zm-34.402 0-1.415-1.414-13.597 13.598L60 63.799l1.414 1.414 13.598-13.598zM60 63.8l1.414-1.414-13.597-13.598-1.415 1.414-1.414 1.414 13.598 13.598zM46.402 50.2v-2H12v4h34.402zM12 50.2v-2c-5.523 0-10-4.477-10-10h-4c0 7.732 6.268 14 14 14zm-12-12h2v-26h-4v26zm0-26h2c0-5.523 4.477-10 10-10v-4c-7.732 0-14 6.268-14 14zm12-12v2h96v-4H12z" fill="#4A69E8" mask="url(#a)"/><path d="M31.18 26.5v.64l1.58-.02-.2-.16.68-.46zm-4.08-1h2.14v-.58H27.1zm0-2.1v.58h2.14v-.58zm6.2 0h-2.12v.58h2.12zm0 2.1v-.58h-2.12v.58zm2.7 3.34v1.28h-2.58v1.26c0 .76-.16 1-.72 1.18-.54.18-1.34.18-2.44.18-.1-.44-.3-.86-.48-1.2.56.02 1.22.02 1.4 0 .2 0 .28-.06.28-.24v-1.18h-3.54c.52.5 1.08 1.14 1.34 1.6l-1.58.8c-.26-.5-.84-1.28-1.38-1.8l1.26-.6h-3.1v-1.28h7v-.58h1.96v.58h1.06c-.14-.2-.36-.44-.58-.68-3.3.12-6.6.22-9.04.26l-.08-1.26h4.46v-.66h-3.96v-4.08h3.96v-.58h-4.52v-1.3h4.52v-.74h1.94v.74h4.56v1.3h-4.56v.58h4.02v4.08h-1c.64.5 1.28 1.1 1.66 1.56l-1.06.78zm-11.94 4.14h12.38V19.52H24.06zm-2.14-15.26H38.7v18h-2.26v-.96H24.06v1h-2.14zm24.92.1 1.56.9c-.52 1.7-1.2 3.88-1.74 5.44 1.2 1.54 1.46 2.88 1.46 4.02 0 1.3-.26 2.12-.9 2.56-.3.24-.68.36-1.14.44-.36.04-.82.06-1.28.04-.02-.58-.2-1.46-.52-2.02.36.02.64.02.86.02.22-.02.4-.06.56-.18.24-.18.32-.58.32-1.12 0-.94-.26-2.18-1.38-3.52.4-1.24.8-3 1.14-4.36h-1.56v15.7h-2.06V17.92h4.34zm11.46 5.06 1.48 1.56c-.72.5-1.54 1.02-2.36 1.46.68 2.06 1.86 4.26 3.02 5.52-.48.34-1.18 1.04-1.5 1.5-1.22-1.44-2.42-3.86-3.18-6.1l-.08.04c.96 3.18.52 6.52-.6 7.62-.62.76-1.3 1-2.34 1.02-.42 0-1.06 0-1.62-.04-.04-.62-.18-1.48-.56-2.12.66.08 1.32.1 1.76.1.48 0 .78-.08 1.06-.56.36-.38.6-1.34.62-2.58-1.48 1.16-3.4 2.22-5.02 2.84-.32-.52-.9-1.24-1.4-1.66 2.2-.62 4.84-2.02 6.22-3.42-.08-.32-.16-.68-.28-1.04-1.14.92-2.66 1.86-3.88 2.46-.3-.5-.82-1.28-1.26-1.68 1.46-.5 3.36-1.54 4.48-2.46-.2-.36-.44-.74-.7-1.08-1.06.76-2.18 1.4-3.22 1.88-.28-.4-.96-1.28-1.38-1.68 1.46-.54 2.94-1.3 4.12-2.22H48.2V20.2h3.16c-.48-.68-1.22-1.42-1.9-2.02l1.74-1.06c.94.68 1.9 1.68 2.38 2.4l-.96.68h1.8c.62-.88 1.42-2.16 1.82-3.1l2.28.64c-.54.88-1.14 1.74-1.66 2.46h2.96v2.06H54.5c-.26.28-.54.54-.84.8.56.62 1 1.34 1.34 2.08 1.18-.68 2.44-1.56 3.3-2.26m8.16-1.12 1.44.52c-.68 5.22-2.36 9.46-4.62 11.7-.34-.54-1.22-1.46-1.74-1.8 1.82-1.72 3.14-4.66 3.78-8.18h-3.08v-2.14h3.78zm5.92 6.46v1.18h3.06v2h-3.06v1.58c0 1.22-.26 1.82-1.08 2.18-.8.38-1.96.42-3.58.42-.12-.66-.5-1.64-.8-2.26 1.06.04 2.22.04 2.56.04.36-.02.48-.1.48-.42V31.4h-3.28v-2h3.28v-1.18h-2.4v-2h2.4v-1.04h-1.98v-2h1.98v-1.5c1.06-.48 2.16-1.22 3.1-1.96h-8.14v-2.16h10.44l.54-.12 1.6 1.2c-1.32 1.44-3.16 2.92-5.12 4v.54h1.8v2h-1.8v1.04h2.16v2zm5.84-7.54 1.84 1.52c-.98.88-2.14 1.82-3.16 2.54.64 3.1 1.82 5.9 3.74 7.38-.56.44-1.3 1.32-1.66 1.96-2.42-2.1-3.62-5.8-4.32-10.1 1.12-.82 2.66-2.22 3.56-3.3m18.48 1.84v-1.6h-1.18v-2.06h1.18v-1.78h2.32v1.78h1.681v2.06h-1.68v1.6zm-7.26-2.16v1.88h-7.28v-1.88h3.28c-.32-.76-.82-1.76-1.24-2.52l1.74-.86c.54.82 1.14 1.92 1.44 2.66l-1.28.72zm-.58 2.78v1.8h-5.88v-1.8zm-5.88 4.48v-1.8h5.88v1.8zm4.04 5.1v-2.24h-2.16v2.24zm1.96-4.14v6.06h-4.12v.84h-1.92v-6.9zm8.86 1.76h-3.8v2.54h3.8zm2.981-4.14h-6.18c-.26.74-.56 1.42-.9 2.08h6.34v7.42h-2.24v-.76h-3.8v.84H91.9v-4.72c-.42.48-.84.88-1.3 1.28-.3-.46-1.14-1.32-1.62-1.72 1.46-1.08 2.52-2.58 3.32-4.42h-2.84v-2.16h3.56c.14-.5.24-1 .34-1.52h-1.82v-1.56h-1.9v-2.08h1.9v-1.8h2.28v1.8H95v2.08h-1.18v1.12l1.84.3c-.1.58-.24 1.12-.36 1.66h5.52z" fill="#4A69E8"/></svg>