<svg width="663" height="80" viewBox="0 0 663 80" fill="none" xmlns="http://www.w3.org/2000/svg"><path d="M657.856 18.99q.207-.91 1.034-1.655.828-.786 1.779-.786.579 0 1.158.372.58.33.869.869.124.29.124 1.365.041 1.035-.082 1.531-.29 1.075-1.779 2.193-.497.33-.704.413-.165.084-.62.083-.993 0-1.283-.207-.29-.247-.662-1.2a2.8 2.8 0 0 1-.207-1.075q.042-.62.083-.869.083-.29.29-1.034m1.861 2.772q.042 0 .207.082.166.042.249.042.123-.041.331-.29.206-.247.455-.744a30 30 0 0 0 .579-1.2q.124-.331.124-.62.042-.332-.207-.704-.29-.455-1.365.165-.414.248-.538.497-.124.247-.331 1.2-.082.413-.165.662a3 3 0 0 0-.042.455.5.5 0 0 1 0 .29q-.041.082.083.123.166.042.124.083h.207a3 3 0 0 1 .289-.041M642.631 9.391a.9.9 0 0 1-.29.662q-.248.25-1.655 1.241-1.034.704-1.406 2.524-.083.29.082.248.166 0 .373-.206.083-.084.827-.58.745-.537 1.035-.868.495-.621.703-.621.373 0 .496.58.166.537-.165.744-.207.082-.497.496-.248.414-.207.497.084.083.373.083.29 0 .455.082.207.042.207.248 0 .331.041.538.083.165-.083.538-.123.33-.206.497-.042.165-.249.496t-.289.455-.29.414a8 8 0 0 1-.248.29q.041.124-.29.537-.29.415-.703.91-.413.497-.497.704.042.04.745-.29 1.861-.951 2.565-.372.58.455-.455 1.448-1.117 1.117-.993 1.282.331.332 1.324.083.828-.29 1.159.207.33.497-.125 1.034-1.117.786-1.861 1.159a4.5 4.5 0 0 0-.704.455.8.8 0 0 0-.331.496 2 2 0 0 0-.082.497q0 .207.041.869.042.62.041 1.075.042 1.614-.206 4.882-.207 3.227-.166 5.006 0 1.158-.041 1.448a1.3 1.3 0 0 1-.166.497q-.33.579-1.531.124-1.034-.415-.786-.91.083-.165.414-.331.455-.165.497-.331.29-5.586.289-9.144a15 15 0 0 1 0-1.572q.042-.62-.041-.91a8 8 0 0 0-.124-.455q-.042-.166-.249-.124a2.4 2.4 0 0 0-.413.124q-.166.082-.538.207a3 3 0 0 1-.662.165 3.3 3.3 0 0 0-.91.373 8 8 0 0 1-.745.33q-.332.25-.579.125a4 4 0 0 1-.373-.207 3 3 0 0 1-.206-.414q-.124-.207.62-.786.786-.58 1.076-.62.744-.208 2.358-.952.372-.165.455-.248.124-.124.124-.373 0-.33-.165-.786-.125-.495-.248-.62-.125-.124-1.117.29-1.904.827-2.441.289-.332-.372-.207-.662.166-.29 1.075-.951.125-.083.29-.249.62-.454.703-.579t.042-.372a6.6 6.6 0 0 1-.083-1.076v-.496q0-.249-.041-.414a.6.6 0 0 0-.042-.248q-.04-.084-.207-.042-.165 0-.455.166-.993.495-1.489 0-.331-.372-.166-.704.166-.33.911-.91.786-.579 1.034-.868.247-.332.579-1.035.579-1.282.166-1.282-.207 0-1.2.496-.952.497-1.366.827-.496.373-1.158.414-.497.042-.621.042-.123-.041-.206-.249-.207-.62.993-1.448.455-.371.992-.662.58-.33 1.324-.703.786-.372 1.159-.538.372-.248.455-.372.125-.124.165-.414.084-.33 0-.827-.041-.538-.124-.58t-.827.125q-.704.165-1.283.29-.579.081-.744-.042-.456-.125-.662.041-.58.33-.952-.041-.331-.414-.496-1.159-.124-.537-.745-1.82-.58-1.283-.91-1.737-.207-.29-.248-.952-.042-.704.165-.869.373-.372.91-.165.58.207.745.786.165.537.248.579.083 0 .29-.455.579-1.448 5.461-3.31.372-.207 3.641-.455.413.083.827.207.454.083.993.29.58.206.827.496.29.29.414.745t-.29.993q-.702 1.158-1.861 2.4-1.117 1.2-2.152 1.86-.29.126-.91.58-.58.414-.869.58-.413.165-.455.33 0 .165.166.455.207.29.207.538.041.165.082.29l.083.165a.5.5 0 0 1 .124.083h.166l.165-.083a.7.7 0 0 0 .166-.124q.123-.082.207-.124.123-.082.248-.207.166-.124.289-.207.786-.703 1.2-.413.29.166.29.537M641.1 2.4q0 .206-.579 1.323-.539 1.118-.621 1.118-.124 0-.786.868-.662.87-.662.993-.04.331 1.2-.455 1.696-1.034 1.738-.993.497-.165 1.406-1.158.166-.207.373-.455l.372-.373.248-.33a1.2 1.2 0 0 0 .207-.249l.083-.248q.083-.125.041-.207a.4.4 0 0 0-.041-.165.4.4 0 0 0-.166-.207 1 1 0 0 0-.248-.249q-.248-.082-1.076-.124-.786-.04-1.075.042-.414.083-.414.869m-1.531-.166q-.124-.208-.579-.124a1.74 1.74 0 0 0-.827.33q-.414.29-.331.539.041.165-.083.786a9 9 0 0 0-.166.993q-.041.372.125.579.206.124.827-.827.91-1.573 1.034-2.276m-4.882 2.4q0 .041-.372.496-.331.414-.248.58 0 .495.331 1.53.33.993.496.993.167 0 .579-.331.456-.372.704-.703l.331-.414-.166-.786q-.082-.248-.124-1.2-.04-.993-.207-1.158-.124 0-.744.455-.58.414-.58.538m6.041 11.915q.58-.87-.166-.87-.869-.165-1.282.828-.373.952.041 1.78.165.165.414-.166a6.5 6.5 0 0 0 .579-.91q.332-.58.414-.662m.91 4.55q.04-.33-.166-.289-.29.042-.331.331a.18.18 0 0 0 0 .166.5.5 0 0 0 .166.165.28.28 0 0 0 .207-.083 1 1 0 0 0 .124-.29m0 2.235q.455-.125.083-.455-.373-.29-.497.124-.125.207 0 .33.165.126.414 0m-21.844-8.316q-.331.29-1.324.745-.952.455-1.573.62-.247 0-.579-.29-.33-.33-.331-.537.082-.29.207-.414.165-.165.455-.33.332-.167.455-.29.496-.29 1.407-.704a14 14 0 0 0 1.448-.745l1.034-.579.249-1.034q.248-1.158.289-1.49a.76.76 0 0 1 .455-.579q.786-.33 1.2.787.082.289.166.455a.4.4 0 0 0 .289.124 3 3 0 0 0 .331-.083q.125-.042.414-.207a7 7 0 0 1 .496-.29 1.66 1.66 0 0 1 .704-.248q.372-.04.496.124.331.29-.083.87-.372.537-1.241 1.158-1.034.66-1.406.951a2 2 0 0 0-.621.662q-.207.372-.166.58.042.206.125.992t.082 1.572v.704a6 6 0 0 0-.041.537q0 .166.041.414.082.207.207.166t.373-.083q1.117-.621.33.786a6 6 0 0 1-.206.372 20 20 0 0 0-.621 1.324q-.165.414-.207.662-.04.207-.041 1.035.041.786-.042 1.696-.082.786-.082 2.11t-.124 2.11a2.8 2.8 0 0 1-.538 1.282q-.207.29-.538.207a2.1 2.1 0 0 1-.621-.372 13 13 0 0 0-.62-.497q-.331-.29-.497-.33-.662-.332-1.241-1.614-.165-.455-.662-.869-.455-.414-.62-.662a1.3 1.3 0 0 1-.125-.496q.042-.207.207-.207.332-.249.869-.828a53 53 0 0 1 1.283-1.324q.703-.744.91-.992l.951-.952-.041-2.896q0-2.896-.041-3.186-.207-.703-1.241.083m.082 9.474a1.3 1.3 0 0 0-.372.497.94.94 0 0 1-.207.372q-.455.414.331 1.696.869 1.365 1.076.828.082-.207.289-2.814 0-1.737-.041-1.779-.082-.041-.414.414a6 6 0 0 1-.662.786m-39.882-3.598q.29.29.289.744.042.456-.207.952-.247.496-.537.993-.29.455-.621.951-.29.456-.372.745 0 .125.496.207 1.614.248 1.283 2.193a8.6 8.6 0 0 1-1.2 3.061l-.042.042q-.123.455-.041.537.124.042.869.042h.414q1.198-.083 4.344.29 3.144.372 3.434.372.495 0 .62-.083.165-.083.166-.455 0-.207.331-.869.372-.662.496-.662.29-.082.579-.414.331-.372.621-.91.33-.579.496-.786.745-.951.497-1.158a4 4 0 0 0-.497-.042q-.165-.04-.579.042l-.621.124q-.165.041-.579.165t-.538.166q-1.53.33-1.282-.786.207-.705 1.655-1.034.083-.042.248-.083 1.448-.496 1.779-.87.372-.413.455-1.86l.041-1.077q-.537.084-1.117.29-.702.289-1.034.083-.33-.249-.207-.952.166-.827.869-.827.332 0 .786-.166.496-.165.621-.33.123-.166.207-1.242.04-.992.248-1.448.207-.496.703-.993l.414.207q.413.207.455.414.083.207-.124.786-.165.538-.207.993 0 .455.165.538.125.04.662-.207.58-.29.662-.414.042-.041.249-.744.248-.745.372-.87.207-.288.165-.454 0-.165-.289-.331-.372-.207-.455-.58-.082-.413 0-1.406.124-1.82-.083-4.055-.124-1.612-.124-2.151.041-.538.289-.993.166-.29.58-.414.413-.165 1.944-.455 2.11-.248 2.317.248.58.662-.083 2.028-.744 1.49-2.399 2.896l-.58.537-.248 1.076q-.289 1.614.124 1.696.331-.083 1.159-.992.868-.91.993-1.407.289-.33.869-.166.58.165.413.662-.165.87-1.779 2.565-.827.828-.951 1.366-.125.496.124.786.537.704-.29 1.406-.537.497-.786.91-.207.414-.538 1.49-.33 1.407-.207 1.407.125.123.828-.455a9 9 0 0 0 1.365-1.324q.62-.786.497-1.076 0-.621.331-.827.33-.207.786.165.289.207.248.869 0 .62-.29 1.24-.372.663-1.406 1.656-1.035.993-2.028 1.572-1.282.786-1.861 1.448-.58.662-1.076 1.862-.621 1.53-2.565 4.054-.414.539-.331.62.165.084.786.166t1.407.166q.827.041 1.158.124 1.2.248 4.882.165 3.723-.124 4.716-.372.786-.207 2.11-.455a68 68 0 0 0 2.069-.414 10.6 10.6 0 0 0 1.696-.662 7 7 0 0 0 1.779-1.158q.372-.33.703-.29.25.043.29.124.083.041.124.29.042.455-.289.869-.332.413-1.283 1.075a7.3 7.3 0 0 1-1.365.745 9 9 0 0 1-1.2.414q-.496.125-2.4.62-2.399.58-6.04.786-3.64.166-6.785-.206a372 372 0 0 0-5.585-.456q-3.765-.33-5.42-.537a12 12 0 0 0-1.655.041q-.993.083-1.655.041-1.282 0-1.613.207-.993.62-1.283.745-.29.124-.786.165-.702.042-.993-.248-.455-.455-.248-.91.249-.496 1.076-.786.248-.125.703-.29.496-.206.745-.29.247-.123.579-.33.332-.248.579-.497.62-.744 1.159-1.861.58-1.118.455-1.862l-1.159-.083q-.827-.04-1.034-.083-.165-.04-.248-.248-.29-.537.496-1.406.373-.456 1.117-1.573.786-1.117.786-1.282 0-.414-1.365-.455-.703-.041-.869-.083-.165-.041-.331-.248a.86.86 0 0 1-.165-.62q.082-.374.372-.539.166-.29 1.779-.165 1.614.124 1.821.538m18.741-13.488q-.125-.248-.993-.082-.868.123-.951.413-.084.124 0 .87.04.702.206.744.207 0 .869-.703.952-.952.869-1.242m-4.261 13.28q-.042-.412-.538-.165-.497.249-.579 1.945-.083 1.158.124 1.158a.3.3 0 0 0 .124-.041q.124-.082.496-1.365.414-1.283.373-1.531m-3.393-14.397q1.283.332 1.738.993.497.663.248 1.366-.207.702-.91 1.406a6 6 0 0 1-1.614 1.2q-.289.165-.62.331-.413.207-.497.414-.082.165-.165 1.117a1.7 1.7 0 0 0-.041.33q-.29 3.062.041 3.062.455-.372 1.324-1.82.869-1.49 1.282-1.78.207-.04.373.166.165.165.248.497a.9.9 0 0 1-.083.538q-.125.248-.951 1.53-.621 1.242-1.49 2.317-.827 1.076-1.613.993-.538 0-.662-.29t-.124-1.489q-.042-.495.082-1.862.166-1.365.166-2.358 0-1.035-.331-1.282-.249-.249-.248-.373 0-.165.248-.62.207-.372.207-.662.04-.33.041-1.407l-.041-1.53.372-.373q.372-.414 1.407-.496 1.034-.083 1.613.082m.497 2.359q.165-.455-.414-.662a2.1 2.1 0 0 0-1.158-.083q-.373.04-.497.869-.082.414.042.538.123.082.579-.083 1.365-.415 1.448-.58m-14.108 4.799q.247-.248.414-.29.165-.083.248-.041.125.04.414.165.33.124.662.207 1.116.414 1.406.786.456.497.373.91-.084.373-.538.414-.456.042-1.117-.248-.29-.165-.993-.331-.703-.207-1.035-.455-.537-.456.166-1.117m24.74 17.004q0 .248-.289.579-.29.33-.538.33-.497 0-3.268-2.482a7.8 7.8 0 0 0-1.614-1.158 41 41 0 0 0-1.117-.703q-.414-.29-.579-.497-.166-.248-.083-.413.082-.165.372-.331.621-.414 1.407-.083.745.372 2.358 1.738 1.655 1.323 1.945 1.489 1.406 1.035 1.406 1.53m-37.566-9.142q.497.372.662.372.042-.082.952.372.951.414 2.027.952 1.117.537 1.365.62.538.124.621.58.124.455-.29.91-.662.786-1.53-.041-.497-.497-2.069-1.2-1.53-.745-1.82-.62-.041 0-.083.04a.7.7 0 0 1-.041.166.7.7 0 0 1-.042.207 3 3 0 0 0-.082.414 5 5 0 0 1-.125.537 10 10 0 0 1-.165.745q-.125.455-.207.952-1.034 4.178-2.193 4.882-.413.33-.868.248-1.117-.083-1.945-1.572-.704-1.035-.372-1.49.248-.29.703.373.62 1.158 1.324 1.117.703-.083 1.076-1.283.827-2.069 1.241-4.799.165-.91.041-1.076.042-.082-.827-.33a44 44 0 0 0-2.234-.663q-1.324-.413-1.531-.455-.207-.083-.331-.413-.083-.331.041-.58.414-.413 1.117-.372.745.041 1.283.248.579.207 1.324.497.744.29 1.158.33.249 0 .29-.04.082-.042.124-.29.207-.91.289-3.145.124-2.275-.041-3.02-.125-.29-.414-.248-.248.041-1.075.497a8 8 0 0 0-.58.248 5 5 0 0 0-.579.29 16 16 0 0 1-.455.206l-.496.166q-.082 0-.414.083-.29.04-.414 0a1.3 1.3 0 0 0-.372-.042.94.94 0 0 1-.414-.165 4 4 0 0 0-.331-.29 3 3 0 0 1-.413-.414q-.496-.538-.621-1.903-.124-1.405.29-2.11.247-.33.703-.33t.786.413q.332.372 0 .786-.166.33-.124.91.041.58.289 1.117.249.539.456.414.744-.041 2.151-.827 1.448-.787 2.275-.787.538.041.745.332.207.247.414 1.2.165.495.207 1.323.04.786 0 1.407a42 42 0 0 1-.166 1.655 25 25 0 0 0-.083 1.365zm-25.816-4.096q.207.04.414 0 .207-.042.414 0 .207.04.331.248.33.248.455.704.124.412.248 1.696.207 2.151.455 2.151.166 0 .621-1.53.827-1.491 1.903-1.407.413-.084 1.241.703.868.745.952 1.158.082.248.289.704.249.455.373.868.123.373.206.828.166.828.331.91.166.041.621-.538.828-1.2 1.158-.703.207.248 0 .827-.083.125-.62 1.035-.538.869-.662.993-.579.702-.579 2.068 0 .705-.249 1.862-.206 1.158-.413 1.613-.248.455-.704.621-.455.125-.786-.165-.207-.373-.165-.538.04-.207.248-.538.249-.33.29-.497.082-.33.124-.827t-.042-.538q-.041-.04-1.075.952-1.449 1.406-1.862 1.406-.042 0-.372-.248-.29-.29-.373-.248-.124.041-.165.703.04 1.035-.91 1.324-.373 0-.497-.414-.083-.413-.083-2.316-.04-3.765-.124-4.924-.04-1.158-.372-3.185-.248-1.614-.414-2.152t-.455-.538q-.207 0-.91.662-.662.663-1.076 1.242-.744 1.2-1.034 1.53-.248.29-.538.29-.537 0-.538-.703 0-.29.414-1.076t.869-1.283q.248-.206.951-1.778.745-1.614 1.407-3.103.703-1.53.952-1.531.082-.042.289-.207l.29-.29a1 1 0 0 1 .372-.124.47.47 0 0 1 .497.124q.207.125.124.704 0 .414-.497 1.24a34 34 0 0 1-.91 1.49q-.455.662-.414.745m5.42 3.972q-.91-.58-1.365.248a4 4 0 0 0-.331.455q-.125.207-.248.455l-.207.414q-.042.123-.124.414-.083.288-.124.413a6 6 0 0 0-.125.497q-.041.33-.082.455 0 .082-.083.538-.042.413-.083.537.331.042 1.2-.662.91-.702 1.283-.827.91-.497 1.075-.662.166-.206 0-.662-.372-1.2-.786-1.613m1.034 5.337q.125-.373.125-.828.04-.495-.249-.58-.372.083-1.158.704t-.869.662q-1.738 1.449-1.696 2.276 0 1.2.248 1.2t1.862-1.531 1.737-1.903m-17.293-16.218q0 .579-.331.951t-.827.042q-.373-.249-1.738-.207-2.276.04-2.276-.58 0-.372.58-.95.248-.25.372-.29.124-.084.455 0 .496.082 1.903.082 1.242 0 1.531.166.331.165.331.786m-17.873 1.986q.663-.456.911-.497.289-.082.413.207a.7.7 0 0 1 0 .662q-.165.29-.91.951a9.4 9.4 0 0 0-.952 1.035q-.495.662-1.075 1.53-.579.828-.786 1.118t-.497.91q-.247.62-.538.993-.248.372-.786.662-.827.413-1.075-.083-.414-.786 1.034-2.4.413-.455 1.655-2.44a8.8 8.8 0 0 1 2.606-2.648m-.124 7.488q.455.164.621.662.165.495-.166 1.117-.248-.29-.496 3.31-.125 1.405-.042 2.11.29.62-.248 1.448-.496.826-1.117.579-.621-.166-.372-1.365.125-.497.207-1.49.123-1.035.207-2.4.082-1.365.124-1.778.123-.538 0-.538-.125 0-.786.91-.621.87-.786 1.241a3.2 3.2 0 0 1-.787 1.324 2.16 2.16 0 0 1-1.241.58.8.8 0 0 1-.413-.332.9.9 0 0 1-.083-.538q.207-.496 1.448-2.15 1.283-1.698 1.572-2.194.62-.91 1.489-2.068a46 46 0 0 0 1.49-1.986q.951-1.53 1.2-1.696.579-.331.91.082.33.414-.083.952-1.034 2.027-1.986 3.103-.951 1.117-.662 1.117m16.797-.58q0-1.737-.248-1.737-.082 0-.372.166-.249.123-1.655.455-1.365.29-1.779.29-.745 0-.91-.58-.166-.579.496-.951.372-.29.579-.331.207-.084.993-.083.828.082 1.738-.29.91-.413 1.489-.869.166-.289.786-.413.621-.124.786-.166.621-.29.869.207.249.497-.207 1.076l-.372.372a4 4 0 0 0-.207.372 6 6 0 0 0-.124.414q0 .124-.083.703-.082.539-.207 1.076-.082.745-.289 4.261-.207 3.475-.207 4.51.04 1.53-.166 1.986-.413.91-1.075 1.034a1.8 1.8 0 0 1-1.241-.29q-.58-.413-1.366-.992-.786-.62-1.158-.787a3.3 3.3 0 0 0-.538-.248 2.5 2.5 0 0 1-.455-.207 1.6 1.6 0 0 0-.29-.206 1.1 1.1 0 0 1-.248-.373 8 8 0 0 1-.165-.579q-.166-.497.496-.827.662-.332.952.082 2.109 1.697 3.144 2.193.29.083.414-.124.165-.248.124-.662 0-1.53.207-4.261.248-2.73.289-4.22m-45.302-9.433q.124-.207.207-.786.124-.58.331-.787.248-.247.91 0 .661.29.414 1.2-.083.082-.166 1.366-.082 1.24-.207 2.978a70 70 0 0 1-.207 2.441q-.248.621-.372 2.441-.083 1.821-.165 4.137-.042 2.276-.083 2.896-.083.125-.124 2.69 0 1.985-.124 2.647-.083.663-.373.828a1.3 1.3 0 0 1-.579.124.68.68 0 0 1-.455-.248q-.247-.124-.207-2.524.042-2.44.166-2.855.082-.413.124-4.55.083-4.18.248-4.469.125-.247.165-2.151.084-1.903.166-3.6.082-1.736.331-1.778m3.848 1.779a18.5 18.5 0 0 1 2.565-1.283 69 69 0 0 0 2.027-.91q.125-.083.993-.372.91-.29 1.034-.373.496-.372 2.11-.496 1.655-.125 2.689.165 1.324.496 2.069 2.607.744 2.11.579 4.592.042 1.861.165 2.524.249 1.283.249 4.633.04 3.351-.166 4.634-.165.87-.331 2.069-.29 2.068-1.117 2.11-.455.04-.91-.456-.414-.496-1.034-1.737-.58-1.117-.704-1.49-.083-.413.166-.537.496-.29 1.076.91.744 1.78 1.034-.58 0-.206.041-.661.042-.496.083-.621 0-.745.083-1.158.123-.663 0-3.351-.125-2.69-.29-3.6-.207-1.076-.207-3.02 0-1.779-.124-2.565a3.9 3.9 0 0 0-.496-1.448q-.87-1.49-3.02-1.448-.58 0-1.531.372a27 27 0 0 0-2.152.91q-1.199.538-1.613.704a15 15 0 0 0-3.599 2.027q-.745.579-1.117 0-.621-.952 1.448-2.151m7.86 2.068q.745.786-1.406 2.193-.332.373-1.986.91-1.656.538-1.945.703a3.46 3.46 0 0 1-1.82.331q-.91-.123-.952-.992.042-.498 1.779-.91.414-.124 1.407-.414t1.531-.456q.58-.206 1.241-.496t.993-.62q.041 0 .165-.125.166-.124.207-.124a.5.5 0 0 1 .166-.083q.124-.082.165-.082.082 0 .207.041.124.043.248.124m-6.868 8.936q0-1.985.083-2.606.124-.62.538-.951.248-.207 1.034-.125l-.041.58v.206a.8.8 0 0 1-.041.249v.372q-.042.662 0 .786.082.082.537-.207.373-.29 1.117-.537a6.7 6.7 0 0 1 1.407-.373q.869-.166 1.324.497.497.661.414 1.613-.083.91-.662 1.49-.456.455-1.903 2.399-.29.372-1.035.786a4.9 4.9 0 0 1-1.489.58q-.786.123-1.283-.373-.62-.746-.206-1.53.207-.373.206-2.855m1.821 2.69a.4.4 0 0 0 .248 0q.165-.041.414-.29.29-.248.455-.455.206-.207.455-.496a8 8 0 0 1 .331-.373q.082-.123.331-.455.248-.372.372-.662a1.1 1.1 0 0 0 .166-.538q.04-.29 0-.372-.042-.082-.248-.124-.663 0-1.738 1.2-1.076 1.2-.869 2.068.083.372.083.497m-31.649-8.234q-.083.165-.248.455a9 9 0 0 1-.166.372l-.124.249q-.04.123 0 .207.042.041.042.124.04.082.206.165a1.1 1.1 0 0 1 .29.207q.125.083.414.29.29.165.538.33 1.779 1.242 6.66 3.517.332.166 1.449.703 1.117.539 1.696.828.62.248 1.572.662a24 24 0 0 0 1.862.62q.868.249 1.737.373 1.821.247 2.814.744.413.166.413.58t-.372.703q-.331.248-.828.166-.992.082-4.178-.87a40 40 0 0 1-3.351-1.2 97 97 0 0 1-4.013-1.778 143 143 0 0 0-3.269-1.572q-.413-.165-2.192-1.117-1.738-.993-2.565-1.283-.166-.04-.497.29-.29.29-.703.786-.372.496-.704.951-.33.456-.703.993l-.496.662q-.745 1.035-3.434 4.303a1.2 1.2 0 0 1-.207.248q-.124.165-.166.248a1 1 0 0 1-.165.207 1 1 0 0 1-.207.166 1 1 0 0 1-.165.124q-.084.083-.166.083h-.207a.45.45 0 0 1-.248-.083 1.3 1.3 0 0 0-.207-.166q-.496-.413-.289-.992.206-.622.579-1.117.372-.497.62-.662a8.4 8.4 0 0 0 1.862-1.614q.91-1.035 2.234-2.896 1.324-1.903 1.49-2.11 1.116-1.448 2.11-3.806 1.034-2.358 1.034-4.055-.042-1.489.662-1.613.537-.083.827.827a.8.8 0 0 0 .042.248q.29 2.235-1.283 5.503m-28.216-2.565a.3.3 0 0 1 .042.124q0 .165-.29.33-.33.29-1.2 1.987-.868 1.655-1.158 1.944a65 65 0 0 0-2.441 3.6 66 66 0 0 1-1.82 2.895q-.538.787-.538 1.117 0 .165.083.29.123.082.124.207 0 .248-.538.951-.538.663-.579.787-.29.537-.993.537a.95.95 0 0 1-.538-.165.4.4 0 0 1-.166-.331v-.29q.042-.414.869-2.11.828-1.695 1.2-2.11.331-.455 1.696-2.689 1.407-2.235 1.779-2.606.332-.33 1.241-2.11.952-1.82.952-2.317-.042-.497-.579-.497-.331 0-1.159.332-.786.33-.91.33-.29.165-1.448.538-1.116.373-1.448.373-.496 0-.496-.58 0-.455.207-.868.165-.248.62-.497.496-.29.745-.29h.041q2.028-.413 5.916-2.233.331-.041.538-.249.249-.248.331-.455t.166-.62q.123-.373.207-.497.248-.95 1.861-3.31.207-.495.786-.496.455 0 .704.372.33.415.331.58 0 .165-.538.786-.414.454-.91 1.282t-.497 1.159q0 .165.207.165.331 0 1.448-.538.621-.248 2.606-1.241 1.986-1.034 3.434-1.49.249-.082.373-.082.372 0 .703.248.331.207.331.455 0 .165-.165.331-.29.538-2.441 1.283a6 6 0 0 0-.745.29 6 6 0 0 1-.662.289q-.207 0-.331.207-.331.33-1.696.993-1.324.662-2.731 1.075-.868.29-1.696 1.159-.828.827-.828 1.49zM433 33.056q-.414-.91-.414-1.448 0-.33.166-.331.165 0 .496.414.331.372.455.786.249.703.538.703.373 0 .538-1.407.165-1.282.165-3.268v-.29q0-.702-.124-.827-.704.165-2.358.869-1.614.704-2.524.744-.538 0-.703.166-.125.083-.207 1.034a94 94 0 0 1-.124 2.193q-.082 1.2-.124 1.655a1.37 1.37 0 0 1-.372.745q-.29.29-.621.29a.7.7 0 0 1-.455-.166q-.455-.372-.455-1.117l.165-1.283q.166-.662.455-4.55.29-3.89.456-4.965.165-.828.248-3.6.083-2.813.413-3.64.124-.497.993-.497.58 0 .828.248.248.165.248.414 0 .29-.331.993-.29.661-.29.869v.041q-.04.165-.041.29 0 .33.207.33.29 0 1.158-.868.828-.786 1.283-1.076.496-.33 1.407-.579.579-.124.951-.124.538 0 .828.33.33.29.661 1.077.25.578.29 1.034.041.455.041 2.358l.042 2.69q.661.33.786.454.165.124.165.331 0 .331-.496 1.076a11 11 0 0 0-.497.827q-.082.249-.082.786 0 .663-.083 1.159-.042.455-.041.62-.124 2.442-.331 4.717 0 .828-.083 1.076-.042.206-.248.496-.373.496-.869.496-.372 0-.662-.33l-.538-.538q-.496-.539-.91-1.407m1.944-12.701q.166-.207.166-.62 0-.167-.042-.621-.083-.952-.206-1.242-.125-.33-.414-.33-.414 0-1.407.786l-.165.165q-.249.29-.993.91-.703.579-.952.828a1.14 1.14 0 0 1-.538.413q-.454.166-.579 1.035v.372q0 .62.497.62.661 0 1.944-.661 1.324-.662 2.11-1.242.456-.206.579-.413m.083 2.482q-.082-.29-.331-.29-.372 0-1.655.787-1.324.786-1.944.992-1.49.415-1.614.91-.082.29-.082 1.035 0 .87.289.869.869 0 2.648-.704 1.78-.744 2.648-1.406.123-.082.124-1.035 0-.869-.083-1.158M395.226 6.248q-.496 0-.248-.91.124-.207.166-1.242.041-1.035.289-1.117.497-.247.869 0 .414.207.414.786.082.496.207.621.165.166 2.234-1.034 1.779-1.117 3.227-.58.372.165.868.662.538.497.621.786.124.29.083 1.118 0 .826-.124 1.365-.207.744-1.117 2.44-.91 1.656-1.448 2.193a3.7 3.7 0 0 1-1.738 1.035q-1.035.248-1.738-.124-.372-.165-.455-.124-.082 0-.124.33-.04.166-.083.249-.082.744-.496 1.034-.414.248-.869-.166-.331-.454-.124-2.895.207-2.482.083-3.145-.125-1.282-.497-1.282m7.24-.745q0-.497-.082-.662-.042-.165-.29-.414-.414-.413-.827-.372-.414 0-1.2.414-.662.372-2.855 1.82-.041.165.083 1.034.124.87.165.952.207.207.786-.786.29-.414.911-.91.661-.497 1.158-.662 1.531-.539 1.82.165.207.538.29-.083a2.5 2.5 0 0 0 .041-.496m-.413 1.53q.083-.206 0-.206-.083-.041-.414.124a13 13 0 0 0-.869.372q-.207.084-.538.373-.33.248-.786.786l-.869.951-.041.786q0 .58.041.745.042.125.249.248.248.124.372.083.125-.082.621-.58 1.075-.909 2.234-3.681m3.103 6.662q.123.33-.538.91-.663.537-.952.455-.166 0-.496.165-.331.125-.745.414a9 9 0 0 0-.745.497 86 86 0 0 1-.703.496l-.414.29q-.496.496-1.448 1.075-.91.579-1.365.993a5.4 5.4 0 0 1-.827.58 3.2 3.2 0 0 0-.704.579q-.414.247-1.406.786-.952.538-2.028 1.282-.868.58-1.075.58-.29 0-.58-.249-.248-.29-.248-.538-.083-.454.91-1.117.993-.703 2.441-1.448 1.49-.786 1.945-1.2.869-.66 1.82-1.365a53 53 0 0 1 1.531-1.117q.579-.373 1.944-1.24l1.738-1.16q.869-.579 1.407-.454.538.082.538.786m-4.427 4.55q.414 0 .496.621.124.579.166 2.938 0 .33-.124 1.365-.166 1.282 0 1.448.165.166.91-.662.33-.413 1.241-1.283.91-.91 1.324-1.49.29-.454.496-.62.248-.206.497-.579.704-.91 1.2-.786 1.076.29-.58 2.276-1.613 1.985-4.385 4.881-1.282 1.283-1.945 1.076-.496-.206-.62-.58-.083-.413.083-1.406.33-2.11.413-4.882.083-1.86.29-2.068a.67.67 0 0 1 .538-.248m-2.11 11.502q.207-.042.91.248t.786.29q1.075.207 2.896.993t2.482.993q.786.248 2.441 1.034 1.697.744 2.772 1.076.29.082.993.29.703.248 1.159.371.455.166 1.199.249a10 10 0 0 0 1.572.124q.952.041 1.283.207.331.206.331.662 0 .951-1.365.951-.952 0-3.641-.703-2.648-.703-3.393-1.076-.868-.496-2.73-1.158-1.861-.662-2.524-.993a17.5 17.5 0 0 0-2.11-.869 47 47 0 0 0-2.979-.993q-1.778-.579-2.316-.786-.207-.083-1.159-.248-.91-.165-1.158-.29-.373-.29-.703.083-.29.373-.621.993-.29.62-.497.745-.537.827-1.448 1.903-.91 1.035-1.448 1.406-.29.165-.786.662a7.4 7.4 0 0 1-1.324.952q-.786.495-1.117.496-.91.042-.703-.827.166-.786.703-.993a.5.5 0 0 1 .29 0q.414-.041.621-.207.454-.29 1.779-1.655 1.365-1.366 1.572-1.737.29-.496.538-.786 1.323-1.904 3.02-6.165.248-.827 1.034-.62.58.04.703.206.125.124-.124.538-.248.207-.455.662-.165.413-.372 1.035-.207.579-.331.868-.332.786-.248.828.123.04 1.075.248.993.207 1.572.414.621.165.993.372.497.207.828.207m-31.732-10.966q.456 0 2.317-.786t2.4-1.241q.041-.166.372-.207.372-.083.828-.042.455 0 .62-.083.125-.04 1.862-.29 1.779-.247 1.903-.33.414-.125 2.151-.041 1.779.04 2.152.206 3.185 1.49-.042 6.62-1.282 1.82-2.482 2.648-1.2.827-2.606.827-.538 0-.745-.083-.207-.082-.166-.29 0-.206.414-.371t.952-.332.703-.29q.703-.413 1.572-1.323.869-.951 1.324-1.779.58-.703.91-2.11.331-1.324-.083-1.738-.412-.454-2.151-.579-.62-.083-2.027.124-1.407.166-2.524.414t-1.117.331q-.248.414-.207 1.324t.166 2.358q.166 1.407.124 1.738 0 2.565-.621 6.412-.207 1.324-.496 1.572-.414.373-.786.207-.332-.206-.414-.662a1.55 1.55 0 0 1 .083-.868q.58-1.406.662-5.379.124-3.971-.373-5.585-.082-.372-.537-.33-.414.041-.786.247-.373.166-.911.414-.496.248-.744.29-.332.123-.414.248-.042.124.124.455.125.29-.165 1.53-.497 2.11-.249 2.607.29.456.083.91-.165.414-.579.497-.372.04-.745-.372l-.496-.456.165-1.737q.042-.705.124-1.531.124-.87.124-1.2-.082-.207-.703.042-.579.247-1.572.744-.951.456-1.241.58-.62.206-1.738.827-1.116.62-1.406.91a1.8 1.8 0 0 1-.414.372l-.372.249q-.083.041-.042.33.042.249.29.745.538.993-.042 1.366-.455.29-.868-.083-.414-.414-.911-1.696a25 25 0 0 1-.289-.662l-.373-.87a5.5 5.5 0 0 0-.413-.744 6.5 6.5 0 0 0-.497-.786q-.58-.455-.248-1.034t.91-.703q.745 0 1.076 1.365.082.414.372.869t.373.662l.165.372q.165-.33.248-.662.125-.372.207-.455.082-.125.373-.29.33-.206 1.075-.579.704-.372 1.241-.58.538-.206.745-.247.249-.083.662-.414t1.076-1.034q.744-.745 1.448-1.531.703-.828 1.034-1.241.372-.414 1.2-1.572.869-1.16 1.158-1.531.953-1.2.786-1.49-.083-.165-1.862.207-2.316.497-5.585.745a.6.6 0 0 1-.207-.29 9 9 0 0 1-.082-.496q-.042-.33-.083-.373-.082-.454.207-.537.29-.084 1.779-.042 1.323.124 3.061-.248 1.738-.414 2.565-.496.538 0 .952-.083a4 4 0 0 1 .455-.124q.082 0 .538.207.248.248.165.868-.123.662-.538 1.407-.372.745-.62 1.117-.249.372-.952 1.241a28 28 0 0 1-.827.952 20 20 0 0 1-1.365 1.655q-.828 1.076-.58 1.117m-22.465.165q.125-.372 0-.455-.125-.123-.207-.124-.041 0-.289.124l-.373.125q-.454.33-.993 0-.537-.33-.662-.87-.083-.579.373-1.116.372-.496.62-.621 1.325-.496 2.4.455 1.076.952.869 2.11-.249 1.406-1.283 3.062-1.034 1.613-2.027 2.316-.414.165-.703.083-.249-.124-.249-.455.042-.372.414-.745.662-.702 1.324-1.985.704-1.283.786-1.904m-14.356-8.646q0 .579-.331.951-.33.372-.827.042-.373-.249-1.738-.207-2.275.04-2.275-.58 0-.372.579-.95.248-.25.372-.29.125-.084.455 0 .497.082 1.903.082 1.242 0 1.531.166.331.165.331.786m-17.873 1.986q.663-.456.911-.497.29-.082.413.207a.7.7 0 0 1 0 .662q-.165.29-.91.951a9 9 0 0 0-.951 1.035q-.497.662-1.076 1.53-.579.828-.786 1.118t-.497.91q-.248.62-.537.993-.249.372-.786.662-.828.413-1.076-.083-.414-.786 1.034-2.4.414-.455 1.655-2.44a8.8 8.8 0 0 1 2.606-2.648m-.124 7.488q.456.164.621.662.165.495-.166 1.117-.248-.29-.496 3.31-.125 1.405-.041 2.11.29.62-.249 1.448-.496.826-1.117.579-.62-.166-.372-1.365.125-.497.207-1.49.125-1.035.207-2.4t.124-1.778q.125-.538 0-.538t-.786.91q-.621.87-.786 1.241a3.2 3.2 0 0 1-.786 1.324 2.17 2.17 0 0 1-1.242.58.8.8 0 0 1-.413-.332.9.9 0 0 1-.083-.538q.207-.496 1.448-2.15 1.283-1.698 1.572-2.194.62-.91 1.49-2.068a47 47 0 0 0 1.489-1.986q.951-1.53 1.2-1.696.579-.331.91.082t-.083.952q-1.034 2.027-1.986 3.103-.951 1.117-.662 1.117m16.797-.58q0-1.737-.248-1.737-.083 0-.372.166-.248.123-1.655.455-1.365.29-1.779.29-.745 0-.91-.58-.166-.579.496-.951.372-.29.579-.331.207-.084.993-.083.828.082 1.738-.29.91-.413 1.489-.869.167-.289.786-.413.621-.124.786-.166.621-.29.869.207.249.497-.207 1.076l-.372.372a4 4 0 0 0-.207.372 6 6 0 0 0-.124.414q0 .124-.083.703-.082.539-.207 1.076-.082.745-.289 4.261-.207 3.475-.207 4.51.041 1.53-.165 1.986-.414.91-1.076 1.034a1.82 1.82 0 0 1-1.241-.29q-.58-.413-1.366-.992-.786-.62-1.158-.787a3.3 3.3 0 0 0-.538-.248 2.5 2.5 0 0 1-.455-.207 1.6 1.6 0 0 0-.29-.206 1.1 1.1 0 0 1-.248-.373 8 8 0 0 1-.165-.579q-.166-.497.496-.827.663-.332.952.082 2.11 1.697 3.144 2.193.29.083.414-.124.165-.248.124-.662 0-1.53.207-4.261.248-2.73.289-4.22M291.757 5.792q.455-.414.868-.248.455.165.497.62a.94.94 0 0 1-.29.786q-.58.497-1.613.786-.414.124-.786 1.738-.207 1.2-1.49 2.896 0 .29 1.241-.414 3.642-1.779 5.048-2.234.62-.04.579.538 0 .579-.414.951-.579.498-1.944.952-1.324.455-2.069.91a23 23 0 0 1-2.399 1.076q-1.16.455-1.903.662-.745.206-2.69.662l-1.158.33q-.91-.785-.497-1.24.332-.663 1.49-.828 1.447-.165 1.986-.33.579-.167.786-.249.207-.083.413-.62.249-.58.58-.993 1.034-1.45 1.117-2.441.082-.58-.083-.662-.124-.125-.745.082-1.78.745-2.192-.993 0-.412 1.323-.579 1.449-.207 1.738-.413.332-.207.372-.952.084-.33.125-.538.041-.207.124-.496.123-.331.248-.497.124-.207.29-.33a.39.39 0 0 1 .372-.125q.248 0 .538.166.29.206 0 1.448-.166.702-.083.827.125.124.621-.248m-15.308 4.964q.744.207 1.076 1.076.33.827-.455 1.241-.166.207-.497-.041a6 6 0 0 1-.662-.58q-.331-.372-.455-.33-.951-.207-1.158-.373-.207-.207-.207-.827-.042-.786.455-.952.537-.165 1.076.331.372.29.827.455m8.192 18.121q0 .083-.952.87-.91.785-1.034.661a.7.7 0 0 1-.455-.165q-.207-.165-.207-.331.248-.704 2.275-2.814t2.11-2.316q.166-.29.414-.538a5 5 0 0 0 .414-.455q.082-.207-.29-.373-1.035-.414-.124-1.53.373-.497.496-1.159.124-.662.166-2.151.04-.414.041-.952v-.744q.042-.166.124-.414a.64.64 0 0 1 .331-.331q.248-.082.704-.166.289 0 .455.414.166.29.289.29.166 0 1.035-.331.703-.414 1.696-.249 1.034.166.827 1.076-.124.993-1.53 2.358-.62.621-.538.87.207.66.082 1.116-.124.455-.703 1.034-.537.58-.662 1.2-.124.621-.041 2.4.082 1.82.124 1.862.083.041.827-.87.538-.702.621-.95.082-.249-.207-.373-.413-.124-.455-.828-.042-.62.207-.827.248-.249 1.282-.703 1.531-.621 2.276-1.283.455-.372.662-.414.207-.082.496.125.29.206.248.786 0 .538-.372.703-1.614 1.365-1.572 1.779.041.247.621.58.496.247 1.82 1.24 1.986 1.449 2.689 1.903.704.414 1.034.414.538 0 .704.372.207.374-.042.993-.29.828-.786.828-.165.04-1.034-.58l-1.903-1.448q-1.035-.785-1.407-.992-.289-.165-.869-.58a6.4 6.4 0 0 0-1.075-.703 2.35 2.35 0 0 0-.993-.33q-.165 0-1.076 1.364-1.283 1.905-1.779 2.441-.455.497-.869.497-.413 0-.537-.373-.084-.372-.083-2.068 0-3.062-.29-3.227-.207.124-.869.827-.661.663-1.489 1.614-.786.91-.827.951m6.164-10.84q0-.04-.041-.04 0-.042-.083 0a.7.7 0 0 0-.207.04l-.372.125q-.952.372-1.117.952a1 1 0 0 0 0 .413q.04.166.165.166.124 0 .869-.745.786-.786.786-.91m-14.977 4.428q-.083.123-.206.29l-.207.206-.083.166q-.042.082.041.165.082.082.249.166.455.248.661.455.249.166.58.496t.413.704q.124.33.124.868t-.248 1.159a8.1 8.1 0 0 1-1.696 2.896q-.207.29-.455.538a5 5 0 0 0-.455.62q-.083.083.041.124t.29.083q.207.041.62.083 1.986.247 6.496.744 4.55.497 5.875.662 1.158.166 2.316.207h2.896a132 132 0 0 1 2.152-.041q.993 0 1.903-.083a93 93 0 0 0 2.193-.33 118 118 0 0 1 1.861-.29q1.449-.249 1.903-.414.704-.372 1.035.165.33.497-.083 1.035-.124.248-.745.455-.62.165-1.696.33-1.076.166-1.282.208-2.442.537-4.51.579-2.482.207-4.634.124-2.11-.082-2.689-.166-.537-.04-2.524-.29a85 85 0 0 0-4.137-.496q-.703-.04-2.399-.248a121 121 0 0 0-2.896-.33q-1.2-.126-2.855-.166-1.614-.084-2.193.124-.62 0-.827-.248-.372-.456 0-.993.372-.538 1.241-.787.744-.206 1.241-.744.29-.33.538-.58.248-.289.414-.455l.331-.413q.165-.207.248-.29.083-.124.207-.33a2 2 0 0 1 .165-.249q.042-.041.207-.29.165-.29.207-.372.124-.082.331-.58.207-.537.207-.744-.662-1.2-1.448-1.324-1.075-.455-1.2-.91t.621-1.241q.744-.828 1.324-1.614.579-.827.537-1.075 0-.207-.165-.248-.125-.042-.993-.042h-.786q-.207 0-.497-.041-.29-.082-.372-.166a1 1 0 0 1-.041-.33q0-.25.124-.58.124-.495 1.655-.538 1.572-.083 1.944.124.91.373.662 1.573-.248 1.158-1.531 2.689m-14.149-1.159q.496.372.662.372.04-.082.951.372.952.414 2.027.952 1.117.537 1.366.62.537.124.62.58.124.455-.289.91-.663.786-1.531-.041-.497-.497-2.069-1.2-1.53-.745-1.82-.62-.041 0-.083.04a.7.7 0 0 1-.041.166.7.7 0 0 1-.042.207 3 3 0 0 0-.082.414 5 5 0 0 1-.124.537q-.042.249-.166.745-.125.455-.207.952-1.034 4.178-2.192 4.882-.414.33-.869.248-1.117-.083-1.945-1.572-.703-1.035-.372-1.49.248-.29.703.373.62 1.158 1.324 1.117.704-.083 1.076-1.283.827-2.069 1.241-4.799.165-.91.041-1.076.042-.082-.827-.33a44 44 0 0 0-2.234-.663q-1.324-.413-1.531-.455-.207-.083-.331-.413-.082-.331.041-.58.415-.413 1.117-.372.745.041 1.283.248.579.207 1.324.497.744.29 1.158.33.248 0 .29-.04.082-.042.124-.29.206-.91.29-3.145.124-2.275-.042-3.02-.123-.29-.413-.248-.25.041-1.076.497-.125.04-.579.248a5 5 0 0 0-.58.29q-.082.04-.455.206l-.496.166q-.083 0-.414.083-.29.04-.414 0a1.3 1.3 0 0 0-.372-.042.94.94 0 0 1-.414-.165 4 4 0 0 0-.331-.29 3 3 0 0 1-.413-.414q-.496-.538-.621-1.903-.124-1.405.29-2.11.248-.33.703-.33t.786.413q.332.372 0 .786-.165.33-.124.91t.29 1.117q.248.539.455.414.744-.041 2.151-.827 1.448-.787 2.275-.787.538.041.745.332.207.247.414 1.2.165.495.207 1.323.04.786 0 1.407a42 42 0 0 1-.166 1.655 24 24 0 0 0-.082 1.365zm-25.816-4.096q.207.04.413 0 .207-.042.414 0 .207.04.331.248.331.248.455.704.125.412.248 1.696.207 2.151.455 2.151.167 0 .621-1.53.828-1.491 1.903-1.407.414-.084 1.241.703.869.745.952 1.158.083.248.289.704.249.455.373.868.124.373.207.828.165.828.331.91.165.041.62-.538.828-1.2 1.159-.703.207.248 0 .827-.083.125-.621 1.035-.538.869-.662.993-.579.702-.579 2.068 0 .705-.248 1.862-.207 1.158-.414 1.613-.249.455-.703.621-.456.125-.786-.165-.207-.373-.166-.538.042-.207.248-.538.249-.33.29-.497.082-.33.124-.827t-.041-.538q-.042-.04-1.076.952-1.448 1.406-1.862 1.406-.04 0-.372-.248-.29-.29-.372-.248-.124.041-.166.703.041 1.035-.91 1.324-.372 0-.497-.414-.082-.413-.082-2.316-.042-3.765-.124-4.924-.042-1.158-.373-3.185-.248-1.614-.414-2.152t-.455-.538q-.207 0-.91.662-.662.663-1.075 1.242-.746 1.2-1.035 1.53-.248.29-.538.29-.537 0-.537-.703 0-.29.413-1.076.414-.786.869-1.283.249-.206.952-1.778.744-1.614 1.406-3.103.703-1.53.952-1.531.083-.042.289-.207l.29-.29a1 1 0 0 1 .372-.124.47.47 0 0 1 .497.124q.207.125.124.704 0 .414-.496 1.24-.456.787-.911 1.49-.455.662-.413.745m5.419 3.972q-.91-.58-1.365.248a4 4 0 0 0-.331.455q-.124.207-.248.455l-.207.414q-.042.123-.124.414-.083.288-.124.413a6 6 0 0 0-.124.497 3 3 0 0 1-.083.455q0 .082-.083.538-.04.413-.083.537.332.042 1.2-.662.91-.702 1.283-.827.91-.497 1.075-.662.167-.206 0-.662-.372-1.2-.786-1.613m1.035 5.337q.123-.373.124-.828.041-.495-.248-.58-.373.083-1.159.704t-.869.662q-1.737 1.449-1.696 2.276 0 1.2.248 1.2.249 0 1.862-1.531 1.614-1.53 1.738-1.903M212.488 9.681q-.373.579-.497.207-.124-.455.373-1.034.165-.165.496-.662.373-.497.703-.828.373-.33.828-.537.29-.165 1.861-1.035 1.614-.868 2.441-1.117 1.738-.537 2.483.455.786.952.082 2.524-.082.207-.455 1.034l-.537 1.2q-.124.331-.538 1.034-.373.663-.704 1.035-.29.33-.786.744a4.6 4.6 0 0 1-.993.621q-.454.165-1.489.745-.993.538-1.448.703-.786.414-1.365-.62-.083-.29-.042-.456.042-.207.373-.703.33-.372.455-2.027.165-1.655-.248-1.986-.166-.082-.497.165a1.9 1.9 0 0 0-.496.538m7.488-3.227q-.041-.33-.497-.372-.413-.041-.496.33-.083.332-.91 1.449-.786 1.075-.91 1.696-.042.249-.414.786a86 86 0 0 0-.579.952q-.207.373-.042.496.084-.041.993-.786.952-.745 1.076-.745.372-.123 1.034-1.737.703-1.655.745-2.069m-3.31.952q0-.29-.869.538-.454.413-.496.62-.166.29-.124.828.04.496.207.744.04 0 .662-1.282.62-1.324.62-1.448m-7.695.703q-.042-.207.248-.372.332-.207.662-.207.331-.042.497.083.248.207.372.496.165.248.29.662.165.372.331.662.744 1.655.951 3.103.207 2.069-.289 2.565-.29.29-.787.165-.454-.165-.537-.661a72 72 0 0 1-.083-1.2q-.041-.704-.083-.993a7 7 0 0 0-.165-.828 4 4 0 0 0-.331-1.075 28 28 0 0 0-.662-1.407q-.414-.87-.414-.993m-6.785 8.399q.414 0 .952 1.655a13.4 13.4 0 0 1 .662 3.185q.248 1.573-.331 4.675-.58 3.062-1.366 4.22-.248.373-.91 1.903t-.91 1.738q-.414.372-.993.455-.58.083-.827-.207-.166-.207-.538-1.117-.331-.91-.207-1.158.083-.373.248-.538.207-.165.372 0 .166.124.166.496.165 1.821 1.076 0l.331-.662q.082-.33.703-1.655.62-1.323.745-1.779.413-1.2.662-2.896.248-1.737.206-3.02-.082-1.324-.289-1.324-.166 0-.455.87-.414 1.157-1.324 2.937-1.035 1.944-1.738 2.73-.703.745-1.324.62-.207-.04-.413-.372a1.7 1.7 0 0 1-.166-.786q0-.33.745-1.075.786-.745.91-.952.993-1.447 2.441-5.296.414-.62.248-1.2-.124-.578-.703-.785-.372 0-.828 1.282a6 6 0 0 1-.662 1.2q-.413.621-.703.786-.207.124-.414.58-.413.785-.827 1.034-.414.206-.662-.166-.207-.29-.165-.496.083-.25.579-.91.248-.373.62-.87a8 8 0 0 0 .662-.992q.29-.497.538-1.324.207-.704.083-.87-.083-.206-.869-.495-.703-.125-.745-.497 0-.414.249-.869.165-.207.248-.207.125-.04.579 0 .993.124 1.158.083.207-.041.331-.455.29-.91.662-2.979a1.2 1.2 0 0 1 .497-.62q.372-.29.827.082a.68.68 0 0 1 .248.62q0 .208-.165.87t-.414 1.49q-.207.826-.248 1.158-.124.455-.124.579.04.083.248.248.083.082.621.58.537.454.703.496m14.149 7.943q.29 0 .828.497l.538-.207q1.282-.704 1.737.827 0 .248-.579 1.034-.538.786-1.241 1.697-.662.91-.869 1.282-.207.497-.041.662.123.124.413-.083.332-.206.662-.496.332-.33.455-.331.124-.083.331-.248.25-.165.455-.29a2.3 2.3 0 0 1 .455-.207.8.8 0 0 1 .497-.082q.29.04.538.206.29.207.372.456.083.205.248 1.2.124.744.373 1.571.289.786.455.828.207.083.786-1.117.62-1.241 1.034-2.69.331-1.2.414-1.944.124-.786.207-2.896.166-1.365.082-2.068-.082-.704-.248-.87-.123-.205-.662-.537a2 2 0 0 1-.207-.083 2 2 0 0 0-.206-.083.3.3 0 0 0-.125-.041h-.206a.7.7 0 0 0-.207-.041h-.621q-.951 0-2.358.951-1.365.91-1.738 1.076-.496.165-1.324.745-.827.537-1.489.951-.662.372-.91.372-.165.041-.828.29-.62.207-1.199.248-.621.082-.869-.165-.249-.29-.331-.869.04-.703 1.076-2.482 1.075-1.78 1.241-2.234.041-.125.496-.91.456-.828.538-1.242.083-.538.248-.744.166-.207.662-.207.993 0 .704 1.158-.207.827-1.2 2.69-.993 1.86-1.241 2.523 0 .413 1.572-.331.58-.29 1.034-.62.372-.249 1.986-1.2 1.614-.993 2.11-1.366.248-.123 1.241-.248.993-.165 1.531-.165.62 0 1.53.579.952.579 1.324 1.2.414.703.497 1.82a7 7 0 0 1-.083 2.151q-.124.704-.083 1.242.042 1.53-.744 4.137-.786 2.565-1.572 3.475-.331.372-.331.455-.124.165-.373.414a6 6 0 0 1-.662.538 2.8 2.8 0 0 1-.827.537 3.2 3.2 0 0 1-.952.29q-.497.125-.827-.166-.29-.29-.166-.579.125-.248.497-.248.29 0 .207-.207-.083-.372-.455-1.572-.332-1.2-.414-1.986-.042-.579-.621-.207-.414.29-1.365 1.117-1.53 1.325-1.531 1.407-.165.249-.62.538a2.4 2.4 0 0 1-.952.29q-.455 0-.703-.456-.124-.248.083-.662.91-1.779.992-2.027.125-.248 0-.372a.7.7 0 0 1-.206-.083q-.124-.083-.166-.083 0-.041-.124-.082l-.124-.125-.124-.124a2 2 0 0 0-.083-.207.7.7 0 0 0-.041-.206v-.248q.04-.166.041-.331l.083-.414q.124-1.117.124-1.78 0-.66.165-.827.207-.165.786 0 .496.165.58.125.082-.042.082-.414 0-.414.166-.745.165-.33.372-.33m1.283 2.524q.247-.414 0-.662-.207-.249-.538 0-.29.62.041 1.034.248.248.497-.372m-2.234 1.365q.248 0 .248-.786-.042-.662-.372-.207a.5.5 0 0 0-.083.124 1.4 1.4 0 0 0-.042.58q.083.29.249.289m-40.876-3.683q-.082 1.035-.703 3.061-.62 2.028-1.283 1.945a.7.7 0 0 1-.455-.166q-.207-.165-.207-.372 0-.042.538-2.317.538-2.317.786-3.724.29-1.448.331-2.233 0-.207.166-1.076.165-.91.207-1.448a2.1 2.1 0 0 0-.166-1.034q-.414.496-.951.744-.539.207-.993-.083-.621-.455.496-1.654 1.035-.993 2.565-3.393t2.276-3.31q.289-.29.455-.496.207-.249.289-.373.083-.123.207-.248a1 1 0 0 1 .331-.207q.621-.29.993-.082.414.165.414.703 0 .33-.166.538-.123.165-.786.786-.661.62-1.324 1.613a51 51 0 0 1-.91 1.283 5 5 0 0 0-.496.58q-.166.248-.373.578-.165.29-.331.497-.207.289-.248.414 0 .083.166.413.29 1.49.124 3.351-.125 1.862-.497 3.31a61 61 0 0 1-.455 2.4m-11.543-12.826q.166 0 .621.042.496 0 .703.041t.58.083q.372.041.537.165.207.083.414.249.249.165.331.413.083.249.083.58 0 .537-.207 1.117a7 7 0 0 1-.621 1.2l-.496.827q-.125.248-.579.91-.414.662-.786 1.241-.331.58-.373.869 0 .165.745.414.662.207.91.455t.455.91q.125.33.248.496.125.124.29.083.165-.082 1.448-1.53 1.325-1.49 1.779-2.152.414-.537.621-.62.248-.125.496.124.249.247.041.579-.454.786-2.358 3.144-1.862 2.317-2.192 2.813-.207.083-.29 1.117-.082.993-.166 2.069-.04 1.076-.165 1.282a6 6 0 0 1-.165.662 4 4 0 0 1-.166.621 4 4 0 0 1-.165.538 2 2 0 0 1-.249.538q-.124.207-.372.455t-.414.29q-.124.04-.455 0-.827-.125-1.489-.828-.621-.703-.869-1.779a2.4 2.4 0 0 0-.248-.786q-.207-.414-.249-.662 0-.455-.744-.166-.828.456-1.365-.124-.497-.62.041-1.24.166-.208 1.489-.539 1.365-.372 1.697-.62.33-.29.992-.662.663-.372.911-.455.496-.124.496-.952 0-.579-.124-.786-.124-.248-.455-.33-1.076-.333-1.448-.58-.372-.29-.372-.869.041-.62.661-1.82.331-.704 1.324-2.358 1.035-1.656 1.2-2.11.207-.539-.207-.662-.414-.165-1.075-.166-.662-.04-.869-.29-.869-.578-.414-1.034.165-.207 1.034-.207m-.537 18.41q.454 0 .786-1.158.33-1.2.248-2.482 0-.372-.042-.538-.04-.207-.165-.206a.18.18 0 0 0-.165 0q-.084 0-.331.165a2 2 0 0 1-.331.165q-.249.207-.787.58-.537.33-.827.579l.248.496q.042.082.331.87.331.744.579 1.157.249.373.456.373m27.181.415a4.3 4.3 0 0 0-.703-.29 3 3 0 0 1-.538-.207q-.497-.248-.29-.703.249-.497.869-.414.373.042.496-.041.166-.372-.91-3.186-.537-1.117-1.696-3.972t-1.572-3.765q-.29-.66-1.117-1.448-.869-.827-.993-1.282-.124-.454.414-.786.372-.207.827-.166.455 0 .703.249 2.069 2.358 3.6 6.867.207.704.91 2.276.704 1.53.993 2.523.579 1.78.91 2.359.372.58.372.91 0 .29-.289.745-.455.578-.828.662-.372.04-1.158-.331m-10.591-8.564q.661-.91 1.489-3.145.124-.413.621-.579.538-.207.868.041.207.165.249.538.04.332.041 2.276v2.606l.372.745q.249.537.249.703.04.124-.124.331-.497.662-1.076.248-.662-.495-.869-1.696-.207-1.034-.29-1.324-.123-.248-.165-.248-.042-.04-.166.124-.29.414-.786 1.49-.454 1.035-.786 1.53-.29.373-.413.455-.125.084-.455.083-.332 0-.456-.041-.124-.083-.289-.331a1.4 1.4 0 0 1-.207-.745q0-.414.165-1.696.373-3.186.373-4.261.04-1.324.414-1.738.29-.33.786-.165.537.123.579.537.041.248-.042 1.366-.083 1.076-.206 1.613-.207 1.283.124 1.283M145.92 8.978q.165-.33-.745-.124a28 28 0 0 0-1.324.455l-.992.248q-.29.042-.414.248-.083.165-.124.745 0 .538-.124.951-.166 1.656-.456 2.069-.496.91-1.075.538-.704-.456-.29-1.572.042-.125.124-.248.166-.373.249-2.07.083-1.737.041-2.895 0-.414-.041-.786v-.62a2.3 2.3 0 0 0-.042-.456q-.04-.207 0-.29.042-.123 0-.206 0-.083.083-.166l.124-.083a1 1 0 0 1 .248-.124.9.9 0 0 0 .29-.165q.331-.042.745.29l.372.33.538-.413q.165-.165.538-.497a6 6 0 0 1 .703-.496 1.8 1.8 0 0 1 .703-.29q1.49-.33 2.234.166.786.496.869 1.903-.04.703 0 .91.042.207-.083.786-.124.539-.165.662-.042.125-.248.62l-.207.621-.207.455.248.414q.249.496.083.786-.124.29-.91.745-.579.33-1.614 1.158-1.034.827-1.448 1.034-.497.331-.993.042-.497-.331-.413-.745.372-.455 1.241-1.117a16 16 0 0 0 1.572-1.365q.662-.704.91-1.448m-2.896-1.076q.29.041.869-.165.579-.249 1.282-.538.745-.29 1.035-.373.372 0 .455-.455a1.47 1.47 0 0 0-.042-.91q-.165-.455-.413-.455-.538-.165-.993 0a1.6 1.6 0 0 0-.579.207q-.29.165-.58.496a9 9 0 0 1-.455.497q-.165.207-.455.62-.248.414-.331.497-.124.083-.124.372.042.29.331.207m-1.407 20.727q.124-.247.621-.951t.827-1.324q.374-.621.414-.993 0-.082-.041-.124-.042-.042-.166 0-.083 0-.248.041a6 6 0 0 0-.331.124 2.9 2.9 0 0 1-1.531.331q-.786-.082-1.075-.538-.249-.496.372-1.406 1.779-2.359 2.193-4.551-1.324.207-2.731 1.076-.497.29-.993.206-.454-.082-.579-.455-.082-.372.248-.827.249-.372.952-.662.703-.33 1.655-.662.951-.33 1.365-.538.662-.372 2.648-1.282 2.027-.91 3.061-1.614.497-.495 1.117-.124.663.33.373.91-.084.207-.911.662-.786.455-.992.455-.166.042-.662.414-.456.33-.662.372-.704.166-1.324.993-.58.786-1.366 2.4a123 123 0 0 0-.868 1.903q-.704 1.2-.497 1.324.207.082 1.572-.704 2.855-1.779 4.675-2.358.414-.165 1.738-.165 1.613-.041 2.234.33.662.374.827 1.407.332 2.69-.372 4.965-.662 2.275-2.027 4.675-.662 1.2-1.407 1.448-.703.248-2.358-.165-.29-.084-.662-.455-.372-.414-.372-.621 0-.372-.373.414-.083.123-.165.29-.621 1.406-1.572 2.647-.952 1.283-1.365 1.283-.994-.331-.745-1.283a2 2 0 0 0 .041-.372 1.2 1.2 0 0 0 .042-.29l.082-.165a.6.6 0 0 0 .124-.166.5.5 0 0 1 .125-.083.7.7 0 0 1 .165-.04q.042 0 .207-.042a2 2 0 0 1 .289-.042q.207.041.662-.868a27 27 0 0 0 1.035-2.276q.537-1.365.703-1.613.29-.58.455-1.117.207-.538.455-1.366.249-.827.455-1.448.538-1.695.621-2.11.124-.413-.041-.455-.166-.041-.745.248a4.5 4.5 0 0 0-.91.497q-.249.248-.745 1.49-.538 1.365-1.283 2.688-.702 1.283-1.075 1.655-.332.372-.786.248-.414-.123-.538-.496-.124-.372.165-.745m5.337 2.855q.166-.042.497.414.33.454.62.372.497-.083.911-.248.413-.207.62-.414.248-.207.497-.62.247-.456.331-.704.123-.29.372-.951.248-.704.372-1.035.538-1.366.662-2.068.124-.745.124-2.027 0-1.366-.207-1.738-.165-.249-.289-.29t-.621-.041q-1.24.041-1.365.248-.165.415-1.034 3.31-.828 2.895-1.324 4.054-.62 1.242-.497 1.573.042.165.331.165m-16.797-9.019q.662 0 .662.455-.247.372-.786.952-.537.578-.993 1.034-.455.414-1.282 1.158-.828.705-1.035.91-.702.704-2.565 2.028-.413.372-.993.041-.538-.372-.289-.951.207-.456.331-1.531.165-1.075.248-2.607a64 64 0 0 1 .166-1.861q.04-.373 0-.497-.042-.165-.166-.165a.7.7 0 0 0-.29.082 3 3 0 0 0-.372.166 1.3 1.3 0 0 1-.414.165q-2.44 1.2-2.771.704-.041-.539.082-.828.166-.289.373-.413.248-.124.786-.373a17 17 0 0 0 .993-.496q.538-.33 1.075-.58.58-.247.704-.33.165-.124.289-.373.166-.29.331-.91.042-.207.083-.745.082-.537.207-.827.124-.33.372-.372.621-.249.993 0 .414.247.124.91-.207.62-.083.703.166.083.911-.248.91-.414 1.406-.786.786-.579 1.159-.207.29.248.041.703-.331.621-2.317 1.697-1.24.66-1.572 1.116-.29.456-.372 1.82a48 48 0 0 1-.249 2.442q-.248 1.82.125 1.861.207 0 .703-.496.414-.455 1.448-1.2 1.034-.786 1.531-1.282.993-.87 1.406-.869m-15.431-4.013q-.29 0-.993.455-.166.083-.538.29-2.565 1.407-3.393 1.696-.786.249-2.937.538-1.697.247-2.937.414-.703.124-1.779.372l-1.862.372q-.828.166-1.82.331-.952.124-1.862.124a8 8 0 0 1-1.697-.248q-.248-.082-.579-.786-.165-.372 0-.372.083 0 .166.041.29-.04.827-.372.538-.331 1.655-.248 1.448-.042 3.103-.414 1.696-.372 2.896-.455 1.49-.125 2.482-.29a27 27 0 0 0 1.531-.29q.538-.165 2.276-.661.662-.166 1.944-.62a313 313 0 0 0 2.193-.787q.951-.372 1.034-.414.786-.495.993.248.207.704-.331.993a.8.8 0 0 1-.372.083M69.092 6.248q-.497 0-.249-.91.124-.207.166-1.242.04-1.035.29-1.117.495-.247.868 0 .414.207.414.786.083.496.207.621.165.166 2.234-1.034 1.778-1.117 3.227-.58.372.165.869.662.537.497.62.786.124.29.083 1.118 0 .826-.124 1.365-.207.744-1.117 2.44-.91 1.656-1.448 2.193a3.7 3.7 0 0 1-1.738 1.035q-1.035.248-1.738-.124-.372-.165-.455-.124-.082 0-.124.33-.041.166-.082.249-.084.744-.497 1.034-.413.248-.869-.166-.33-.454-.124-2.895.207-2.482.083-3.145-.124-1.282-.496-1.282m7.24-.745q0-.497-.083-.662-.041-.165-.29-.414-.413-.413-.827-.372-.414 0-1.2.414-.662.372-2.855 1.82-.041.165.083 1.034.124.87.166.952.207.207.786-.786.29-.414.91-.91.662-.497 1.158-.662 1.53-.539 1.82.165.207.538.29-.083.042-.206.042-.496m-.414 1.53q.083-.206 0-.206-.082-.041-.414.124-.62.249-.869.372-.207.084-.538.373-.33.248-.786.786l-.868.951-.042.786q0 .58.042.745.04.125.248.248.248.124.372.083.125-.082.62-.58 1.077-.909 2.235-3.681m3.103 6.662q.123.33-.538.91-.662.537-.952.455-.165 0-.496.165-.33.125-.745.414a9 9 0 0 0-.745.497q-.29.206-.703.496l-.413.29q-.497.496-1.449 1.075-.909.579-1.365.993-.33.29-.827.58a3.2 3.2 0 0 0-.704.579q-.413.247-1.406.786-.952.538-2.027 1.282-.87.58-1.076.58-.29 0-.58-.249-.248-.29-.248-.538-.082-.454.91-1.117.994-.703 2.442-1.448 1.488-.786 1.944-1.2.87-.66 1.82-1.365a54 54 0 0 1 1.531-1.117q.579-.373 1.945-1.24l1.737-1.16q.87-.579 1.407-.454.538.082.538.786m-4.427 4.55q.414 0 .496.621.124.579.166 2.938 0 .33-.124 1.365-.165 1.282 0 1.448t.91-.662q.33-.413 1.241-1.283.91-.91 1.324-1.49.29-.454.496-.62.25-.206.497-.579.703-.91 1.2-.786 1.076.29-.58 2.276-1.613 1.985-4.385 4.881-1.283 1.283-1.944 1.076-.497-.206-.62-.58-.084-.413.082-1.406.33-2.11.413-4.882.084-1.86.29-2.068a.67.67 0 0 1 .538-.248m-2.11 11.502q.207-.042.91.248t.786.29q1.076.207 2.896.993t2.483.993q.786.248 2.44 1.034 1.697.744 2.772 1.076.291.082.993.29.704.248 1.159.371.454.166 1.2.249a10 10 0 0 0 1.572.124q.951.041 1.282.207.33.206.331.662 0 .951-1.365.951-.951 0-3.64-.703-2.649-.703-3.393-1.076-.87-.496-2.73-1.158-1.863-.662-2.525-.993a17.5 17.5 0 0 0-2.11-.869q-1.2-.454-2.978-.993-1.779-.579-2.317-.786-.207-.083-1.159-.248-.909-.165-1.158-.29-.373-.29-.703.083-.29.373-.62.993-.291.62-.497.745-.538.827-1.448 1.903-.91 1.035-1.448 1.406-.29.165-.786.662-.538.496-1.324.952-.786.495-1.117.496-.91.042-.704-.827.165-.786.704-.993a.5.5 0 0 1 .29 0q.413-.041.62-.207.454-.29 1.779-1.655 1.365-1.366 1.572-1.737.29-.496.538-.786 1.324-1.904 3.02-6.165.248-.827 1.034-.62.578.04.704.206.123.124-.124.538-.249.207-.456.662-.165.413-.372 1.035-.207.579-.33.868-.332.786-.25.828.125.04 1.076.248.994.207 1.573.414.62.165.992.372.496.207.828.207M44.227 14.397q.497 0 .662.455.165.456.166 1.531-.042.91.041 1.2.083.247.414.414.248.165 1.49.455 1.282.248 1.695.248.455 0 2.441.703 1.986.704 3.062 1.241.413.208 1.034.538 1.118.579 1.448.828.33.247.331.579 0 .29-.414.993-.248.372-.868.207-.621-.165-.786-.455-1.696-1.242-4.096-2.11-2.4-.911-4.675-1.117-.993-.083-1.117.082-.166.414-.166 1.738t-.124 1.945q-.125.744-.29 2.73a99 99 0 0 1-.29 3.64q-.165 1.656-.454 2.193a1 1 0 0 1-.745.621q-.496.124-.745-.29-.123-.29-.29-1.365a11.6 11.6 0 0 1-.04-2.193q.083-1.158.537-1.24.166 0 .207-.29.124-.663.207-2.234.125-1.573.248-2.193.124-.124.083-1.738 0-1.655-.083-3.6-.082-1.985-.124-2.068-.248.165-.62.745-.373.58-.786 1.282-.414.663-.787 1.366-.372.662-.661 1.117-.25.414-.29.372a355 355 0 0 0-2.565 4.344q-.993 2.193-1.49 2.565-.495.331-.868.248-.331-.124-.331-.537t.372-1.035q.372-.993.869-1.944.537-.993 1.448-2.482a66 66 0 0 0 1.158-1.903q.25-.497 1.82-3.269a432 432 0 0 0 2.359-4.261q0-.372-.828 0-.04.04-.62.29-.579.248-.786.372l-.828.33q-.579.249-.951.373-.33.124-.91.331a10 10 0 0 1-.952.248q-.372.083-.828.166a10 10 0 0 1-.868.041 4 4 0 0 1-.662-.124q-.414-.415-.497-.91-.041-.538.414-.869t1.365-.083q1.325.124 2.607-.62a19.6 19.6 0 0 0 4.178-1.738q1.903-1.075 4.344-2.772.207-.248.662-.455.497-.206.91-.083.414.084.414.58-.083.413-.869 1.117-.785.702-.951 1.034-.29.372-.993 1.117a13 13 0 0 0-1.117 1.324 7.5 7.5 0 0 0-.745 1.324q-.496.951.124.951M15.97 7.281q.208-.207.456-.165.248 0 .869.248.496.207 1.737.207 1.283-.042 1.82-.248.621-.29.994.041.372.33.33.91-.123.497-2.027.786-1.861.29-3.35.042-.373-.043-.497-.124-.083-.083-.248-.456-.249-.62-.29-.827 0-.207.207-.414m.25 5.296q.909 0 2.895-.869 1.986-.91 2.441-1.407.041-.166.58-.537.413-.331.62-.331.207-.042.455.206.372.332.166.91-.208.54-.828.87-2.483 1.778-4.923 2.482-.993.29-1.366.33a1.23 1.23 0 0 1-.62-.165q-.372-.289-.166-.869.249-.62.745-.62m-7.944 2.689q0 .538-.62.703-.622.166-.828-.413-.538-.786-1.655-.786-.662.082-1.034-.29-.373-.413-.29-.869.124-.496.662-.62.496-.125 1.324.082.869.207 1.365.497.414.29.745.827.33.496.33.869m9.35 2.813q-.662.082-.62-.579.04-.828.661-1.158a.47.47 0 0 1 .331-.042q.62 0 1.82-.62 1.2-.662 1.986-1.448.456-.456.62-.497.167-.082.456.124.33.249.166.787-.165.495-.704.992-2.69 2.193-4.716 2.441m.207 1.78q0-.497.124-.663.166-.165.703-.33.662-.248 1.696-1.118.828-.703 1.159-.827a.55.55 0 0 1 .662.124q.372.33-.207 1.034-.496.663-1.614 1.531-1.116.869-1.613.952-.414.082-.662-.083-.248-.207-.248-.62M5.049 23.912q0 .124.538.372.951.496 1.158 1.572.207 1.035-.414 2.276-.082.29-.993 1.365-.868 1.035-.951 1.2 0 .165.33.248.332.042 1.49.124 2.483.166 3.558.372 1.862.249 7.406.331 5.544.042 8.44-.33.33-.124 1.24-.166.952-.042 1.325-.166 1.035-.248 1.282-.248a.52.52 0 0 1 .455.248q.29.456 0 1.035-.247.537-.786.62-.041 0-1.737.207-1.696.165-2.07.248-1.82.291-7.777.207-5.916-.083-8.523-.413-5.13-.828-7.405.041-.952.33-1.2.207-.414-.207-.414-.703-.04-.58 1.2-1.283 1.241-.703 1.448-.952.249-.248.414-.372l.207-.207a1 1 0 0 0 .207-.165q.124-.165.33-.455.125-.166.456-.58.372-.413.496-.62.165-.207.331-.58.166-.413.207-.785 0-.456-.331-.662-.29-.207-1.158-.414-.828-.207-.87-.786-.04-.579.704-1.2.414-.372.869-1.117.496-.745.372-.91-.083-.124-.62-.042-.952.124-.952-.62-.083-.414.497-.745.58-.33 1.24-.372.662-.083 1.118.083.952.495.165 2.192-.165.538-.662 1.076-.455.537-.62.869m15.225-2.152v.538q.04.082.248 0 1.282-.33 1.862-.207.62.125 1.117.87.413.537.413 1.034.125.868-.579 2.358t-1.779 2.44q-1.035.953-1.82.414-.208-.289-.91-.041-.662.207-.704-.166-.041-.083-.124-1.034a44 44 0 0 1-.041-1.903q.04-.951.165-.91.207-.62.58-2.151.372-1.573.413-1.655a.78.78 0 0 1 .207-.455q.331-.331.62-.042.332.29.332.91m1.944 2.193q-.787-.496-1.696.58-.87 1.034-.786 2.15a12 12 0 0 0-.042.704q.041.125.249.29.371.29.579.206.248-.123.662-.744 1.695-2.648 1.034-3.186m372.805 43.739q-.24 1.06-.24 1.573v.102q-.308 3.282-2.427 7.59-.445.992-.786 1.436-.343.445-1.06.991-.855.615-1.334.616-.342 0-.957-.24-.752-.307-.923-.444-.136-.136-.376-.615-.171-.342-.171-.581 0-.206.274-.206.239 0 .786.274.547.273.82.273.308 0 .958-.273a2.9 2.9 0 0 0 1.025-.82q.445-.514.616-.958.204-.41.512-1.23.274-.788.445-1.197.205-.445.273-.65t.24-.786q.136-.582.273-.992.171-.547.24-1.606.102-1.094.273-1.676.171-.752.171-1.025 0-.342-.308-.342-.274 0-.991.957-.479.65-.889.957-.376.308-.991.479a1.5 1.5 0 0 1-.377.068q-.17 0-.478-.136a2 2 0 0 1-.821-.684q-.307-.445-.615-1.539-.752-2.427-.752-3.692 0-1.197.547-1.197.479 0 .854 1.607 0 .547.684 2.496.274.752.342 1.026.137.65.547.65a.66.66 0 0 0 .342-.103q.82-.616 2.085-2.906t1.471-3.692q0-.274.273-.48a1 1 0 0 1 .615-.204q.41 0 .65.273a.93.93 0 0 1 .274.684q0 .273-.171.786-.24.855-.479 2.086-.205 1.196-.205 1.778 0 .479-.239 1.572m-11.077 3.863a.6.6 0 0 1-.171.035q-.582 0-1.47-2.462-.171-.41-.581-.991a7 7 0 0 1-.547-1.06q-.513-1.128-.821-1.128-.206 0-.615.65-.24.34-.376.512-1.334 2.017-2.667 2.735-.752.41-1.436.41-1.23 0-1.504-1.025a4.2 4.2 0 0 1-.103-.958q0-1.572 1.026-3.897.239-.582.547-.957.307-.377 1.026-1.094 1.128-1.095 1.47-1.3.342-.204 1.299-.41h.068q.136 0 .342.103.205.068.376.17.205.105.445.308.273.171.41.308.171.103.41.308.24.17.274.205.239.205.307.41.069.205.103 1.06.068.89.171 1.23.103.343.649 1.403a24 24 0 0 1 1.47 3.487q.342.99.342 1.333 0 .273-.171.444a.6.6 0 0 1-.273.171m-8.855-3.59q0 .65.547.65.615 0 1.881-1.333a11.9 11.9 0 0 0 2.188-3.077q.34-.58.341-1.06 0-.99-1.094-1.128-.478 0-.82.205-.308.206-1.06 1.026-1.539 1.606-1.812 3.453-.171.957-.171 1.265m-5.436-10.633q0-.65.376-.65.273 0 .615.41.376.412.616.855.102.445.102.958 0 .717-.273 2.017-.24 1.265-.308 1.743-.102.992-.308 1.607-.137.377-.239.684a22 22 0 0 1-1.094 3.111q-.65 1.574-1.265 2.462-.581.855-1.299.854-.924 0-1.641-1.504-.17-.375-.889-2.154-.718-1.778-1.197-2.564a19 19 0 0 1-.615-1.196 6 6 0 0 0-.547-1.094q-.342-.342-.444-.342-.138 0-.342.273-.206.24-.582.992-.375.718-.615 1.23-.238.513-.855 1.812-1.128 2.428-1.504 3.009-.342.58-.649.581-.309 0-.718-.41-.274-.307-.274-1.128 0-.582.103-1.744.102-1.197.102-1.572 0-.684-.137-2.36-.102-1.71-.102-2.358 0-.992.171-1.265a.54.54 0 0 1 .478-.274q.309 0 .513.24.137.17.308 1.675.171 1.503.171 2.735 0 .375-.034.683v.445q0 .786.273.786.342 0 .821-1.128.375-.958 1.265-2.359.718-1.163 1.06-1.538.34-.41.683-.41h.034q.137.033.24.033.376.138.786.684.444.513.684.992t.615 1.299q.308.649.445.923.581 1.23 1.162 2.974.411 1.266.615 1.744.24.478.479.478.137 0 .171-.102.786-1.026 1.538-2.803.753-1.813.958-3.42.034-.238.376-1.948t.342-2.53q0-.376-.103-.786a4 4 0 0 1-.068-.65m-25.026 10.359v.342q0 .513.137 1.23.137.685.308.992.205.309.205.547 0 .309-.239.445a.86.86 0 0 1-.376.102q-.445 0-.855-.58a3.4 3.4 0 0 1-.376-.616q-.069-.273-.103-1.197-.102-1.538-.307-1.948-.206-.274-.206-.513 0-.274.274-.752.273-.513.308-.753.17-1.367.547-3.077.41-1.743.512-2.7.034-.411.24-1.094.204-.684.239-1.06.035-.48.239-.752.24-.308.547-.308l.274.068q.342.411.342.684 0 .103-.103.547-.068.41-.102.889-.103 1.265-.582 3.521-.444 2.223-.444 2.633t.342.41a1 1 0 0 0 .205-.034q.308-.103 1.538-1.368 1.265-1.299 1.778-1.983.513-.786.787-.923a.8.8 0 0 1 .444-.136q.308 0 .513.205.239.17.239.41 0 .137-.239.444-.24.309-.581.684a5 5 0 0 0-.445.616q-.82 1.299-1.949 2.017-.41.273-.786.684-.342.375-.342.615 0 .341 1.026.41 1.128.136 3.726 1.47 1.162.582 1.47.82.308.206.308.445 0 .582-.82.581-.342 0-1.847-.513-1.504-.546-2.085-.888-.205-.103-1.06-.274-.855-.17-1.06-.308a2.3 2.3 0 0 0-1.094-.273.85.85 0 0 0-.376.068q-.137.069-.171.171m-9.402-1.538.069.068h.034q.17-.204.649-.854.478-.65.855-1.026.273-.24.821-.82.58-.615 1.059-1.06.478-.48.855-.718.377-.205.513-.205t.342.136q.205.138.205.274 0 .24-.513.82-.479.582-2.12 2.257-.478.479-1.641 2.154-1.162 1.674-1.333 1.846-.17.17-.65 1.06-.478.855-.547.991-.204.24-.581.24-.615 0-.615-.48 0-.376.41-1.162.684-1.128.684-3.316 0-2.871-.308-3.35a.85.85 0 0 1-.273-.616q0-.205.171-.376a.56.56 0 0 1 .41-.17q.581 0 .991.922.411.924.411 2.12 0 .24-.035.444v.274q0 .171.035.342zm-6.632-3.521q1.3.75 1.3 1.846 0 .41-.274 1.094-.65 1.675-2.393 3.077-1.745 1.401-3.111 1.401-1.128 0-1.71-1.025-.58-1.025-.581-2.36 0-1.64.855-2.7.888-1.06 2.53-1.915.375-.17.889-.17 1.23 0 2.495.752m-.854 3.487q.752-.958.752-1.368 0-.479-.786-.991-.616-.376-1.505-.376-.546 0-.889.17a5 5 0 0 1-.478.206q-.376.17-.547.376-.171.17-.513.889-.513 1.06-.513 1.436 0 .308.205 1.025.308 1.026.889 1.026.24 0 .65-.171 1.504-.615 2.735-2.222m-9.915-8.787q0-.65.376-.65.273 0 .615.41.376.412.616.855.102.445.102.958 0 .717-.273 2.017a45 45 0 0 0-.308 1.743q-.103.992-.308 1.607-.137.377-.239.684a22 22 0 0 1-1.094 3.111q-.65 1.574-1.265 2.462-.582.855-1.299.854-.924 0-1.641-1.504-.171-.375-.889-2.154-.719-1.778-1.197-2.564a19 19 0 0 1-.615-1.196 6 6 0 0 0-.547-1.094q-.342-.342-.445-.342-.137 0-.341.273-.205.24-.582.992-.375.718-.615 1.23-.24.513-.855 1.812-1.128 2.428-1.504 3.009-.342.58-.65.581-.307 0-.718-.41-.273-.307-.273-1.128 0-.582.103-1.744.102-1.197.102-1.572 0-.684-.137-2.36-.102-1.71-.102-2.358 0-.992.171-1.265a.54.54 0 0 1 .478-.274q.307 0 .513.24.137.17.308 1.675.171 1.503.171 2.735 0 .375-.034.683v.445q0 .786.273.786.342 0 .821-1.128.375-.958 1.265-2.359.717-1.163 1.059-1.538.342-.41.684-.41h.034q.137.033.24.033.375.138.786.684.444.513.684.992.238.479.615 1.299.307.649.445.923.581 1.23 1.162 2.974.41 1.266.615 1.744.24.478.479.478.137 0 .171-.102.786-1.026 1.538-2.803.753-1.813.958-3.42.034-.238.376-1.948t.342-2.53q0-.376-.103-.786a4 4 0 0 1-.068-.65m-31.043 9.897q0 .48-.239.582-.24.137-1.539.17-1.436.035-1.982.172-1.505.41-2.052.444-.513.069-2.325.103-2.427.034-3.794 0-1.333-.034-1.641-.103a32 32 0 0 0-1.197-.102 50 50 0 0 0-2.496-.103q-1.777-.035-2.119-.068-.308-.035-.479-.171-.205-.206-.205-.342 0-.103.034-.137t.376-.273q.444-.308 1.197-.377.786-.068 2.666.035 4.377.204 8.376.17 1.231.069 2.633-.273t2.256-.376q1.88-.102 2.188 0 .342.069.342.65" fill="#FCFCFD"/></svg>