<svg width="663" height="100" viewBox="0 0 663 100" fill="none" xmlns="http://www.w3.org/2000/svg"><path d="M482.564 7.092q0 .532-.304.876-.304.341-.762.038-.343-.23-1.599-.19-2.095.038-2.095-.534 0-.342.533-.876.23-.228.343-.266.114-.077.419 0 .458.075 1.752.076 1.142 0 1.409.152.304.153.304.724M466.113 8.92q.609-.42.837-.457.267-.077.381.19a.65.65 0 0 1 0 .61q-.152.266-.838.875a9 9 0 0 0-.875.952 32 32 0 0 0-.991 1.41q-.532.76-.723 1.028-.19.267-.457.838-.229.57-.495.914-.23.342-.724.609-.762.38-.99-.076-.381-.724.952-2.21.381-.417 1.523-2.246a8.1 8.1 0 0 1 2.4-2.437m-.115 6.893q.42.152.572.609.152.458-.153 1.028-.228-.266-.457 3.047-.114 1.294-.038 1.942.267.571-.228 1.333-.458.762-1.029.533-.57-.152-.342-1.256.114-.457.19-1.372.114-.951.191-2.208.075-1.257.114-1.638.114-.495 0-.495-.115 0-.724.838-.571.8-.723 1.142a2.95 2.95 0 0 1-.724 1.219q-.495.457-1.142.533a.73.73 0 0 1-.381-.305.8.8 0 0 1-.076-.495q.19-.456 1.333-1.98 1.18-1.561 1.447-2.018a51 51 0 0 1 1.371-1.904q.837-1.066 1.371-1.828.876-1.41 1.104-1.562.533-.305.838.076t-.076.876q-.952 1.866-1.828 2.856-.876 1.029-.61 1.029m15.462-.533q0-1.6-.228-1.6-.076 0-.343.152-.229.115-1.523.42-1.257.266-1.638.266-.685 0-.838-.533-.152-.534.457-.876.343-.267.533-.305.19-.076.914-.076.762.076 1.6-.267.837-.38 1.371-.8.151-.266.723-.38.571-.114.724-.152.571-.267.8.19.228.457-.191.99l-.343.343q-.075.114-.19.343a5 5 0 0 0-.114.38q0 .115-.076.648-.077.495-.191.99-.076.686-.266 3.923-.19 3.198-.191 4.15.039 1.41-.152 1.829-.381.838-.99.952a1.67 1.67 0 0 1-1.143-.267q-.533-.381-1.256-.914-.724-.57-1.067-.724a3 3 0 0 0-.495-.228 2.3 2.3 0 0 1-.419-.19 1.5 1.5 0 0 0-.266-.19 1 1 0 0 1-.229-.344 7 7 0 0 1-.152-.533q-.152-.456.457-.761.609-.306.876.076 1.942 1.56 2.894 2.018.267.076.381-.114.152-.229.114-.61 0-1.408.19-3.922.23-2.513.267-3.884M447.3 2.94q.419-.38.799-.228.42.153.457.571a.87.87 0 0 1-.266.724q-.534.457-1.485.723-.38.115-.724 1.6-.19 1.104-1.371 2.666 0 .265 1.143-.381 3.35-1.638 4.646-2.057.571-.038.533.496 0 .533-.381.875-.533.457-1.79.876-1.218.42-1.904.838-1.105.572-2.209.99a19 19 0 0 1-1.752.61 74 74 0 0 1-2.475.609l-1.066.305q-.838-.725-.457-1.143.305-.61 1.371-.761 1.332-.153 1.828-.305a9 9 0 0 0 .723-.229q.19-.075.381-.57.228-.534.533-.915.953-1.332 1.028-2.247.077-.532-.076-.61-.114-.113-.685.077-1.638.685-2.019-.914 0-.381 1.219-.533 1.333-.19 1.6-.38.304-.192.342-.877.076-.304.115-.495.037-.191.114-.457.114-.304.228-.457a1 1 0 0 1 .267-.305.36.36 0 0 1 .343-.114q.228 0 .495.152.266.191 0 1.333-.152.648-.077.762.115.114.572-.228m-14.091 4.57q.685.191.99.99.305.763-.419 1.143-.152.19-.457-.038a6 6 0 0 1-.609-.533q-.305-.343-.419-.305-.876-.19-1.066-.342-.19-.19-.191-.762-.037-.725.419-.876.495-.153.99.305.343.266.762.419m7.54 16.68q0 .078-.875.8-.838.724-.953.61a.65.65 0 0 1-.418-.152q-.19-.153-.191-.305.228-.648 2.095-2.59 1.866-1.941 1.942-2.132.152-.267.381-.495a4 4 0 0 0 .381-.42q.076-.189-.267-.342-.953-.381-.114-1.41.342-.457.457-1.065.114-.61.152-1.98.038-.382.038-.877v-.685q.039-.153.114-.381a.6.6 0 0 1 .305-.305 5 5 0 0 1 .648-.152q.266 0 .418.38.153.267.267.267.153 0 .952-.304.648-.38 1.561-.229.952.153.762.99-.114.915-1.409 2.171-.572.571-.495.8.19.61.076 1.028-.114.42-.647.952-.495.534-.61 1.105-.113.57-.038 2.208.076 1.676.115 1.714.075.039.761-.8.495-.647.571-.876.077-.228-.19-.342-.38-.114-.419-.762-.038-.57.191-.762.228-.228 1.18-.647 1.41-.57 2.095-1.18.418-.344.609-.381.19-.077.457.114.267.19.229.723 0 .495-.343.648-1.486 1.256-1.447 1.637.037.229.571.534.457.228 1.676 1.142 1.827 1.333 2.475 1.752.648.38.952.38.495 0 .647.343.191.344-.038.914-.266.762-.723.762-.153.039-.952-.533l-1.752-1.333q-.952-.723-1.295-.914-.267-.153-.8-.533a6 6 0 0 0-.99-.648 2.2 2.2 0 0 0-.914-.304q-.151 0-.99 1.256-1.18 1.752-1.638 2.247-.418.457-.799.457t-.495-.342q-.077-.344-.077-1.905 0-2.817-.266-2.97-.19.114-.8.762-.609.609-1.371 1.485-.723.837-.762.876m5.675-9.977q0-.038-.038-.038 0-.037-.076 0a.6.6 0 0 0-.191.038l-.343.114q-.875.343-1.028.876a1 1 0 0 0 0 .381q.038.152.153.152t.799-.685q.724-.724.724-.838m-13.786 4.075a6 6 0 0 1-.191.267l-.19.19-.076.152q-.039.076.038.153.076.075.228.152.42.228.61.419.228.153.533.457.304.305.381.647.114.305.114.8t-.229 1.066q-.495 1.486-1.561 2.666a4 4 0 0 1-.419.495 4 4 0 0 0-.266.343l-.153.229q-.076.075.038.114.114.037.267.076.19.037.571.076 1.828.227 5.979.686 4.19.456 5.408.609 1.067.152 2.133.19h2.665q1.6-.038 1.981-.038.913 0 1.752-.076a86 86 0 0 0 2.018-.305 108 108 0 0 1 1.714-.266q1.332-.229 1.751-.381.648-.343.953.152.304.457-.077.952-.114.229-.685.42-.571.15-1.562.304-.99.153-1.18.19-2.247.495-4.151.534a35 35 0 0 1-4.265.114q-1.942-.077-2.476-.152a68 68 0 0 1-2.323-.267 79 79 0 0 0-3.808-.457 41 41 0 0 1-2.209-.229 111 111 0 0 0-2.666-.304 34 34 0 0 0-2.628-.153q-1.484-.075-2.018.115-.571 0-.762-.229-.342-.42 0-.914.344-.495 1.143-.723a2.4 2.4 0 0 0 1.142-.686q.267-.304.495-.533.23-.267.381-.419l.305-.38a4 4 0 0 1 .228-.267q.077-.115.191-.305t.152-.228.191-.267q.152-.267.19-.343.114-.075.305-.533.19-.495.19-.686-.609-1.104-1.333-1.218-.99-.42-1.104-.838-.114-.42.571-1.142.685-.762 1.219-1.486.532-.762.495-.99 0-.19-.153-.228-.114-.039-.914-.039h-.723q-.19 0-.457-.038-.267-.075-.343-.152a1 1 0 0 1-.038-.304q0-.229.114-.534.114-.457 1.524-.495 1.446-.075 1.79.115.837.342.609 1.447-.228 1.066-1.409 2.475m-13.024-1.069q.458.343.609.343.039-.076.876.342.876.381 1.866.876 1.029.494 1.257.572.495.114.571.533.115.418-.266.837-.61.724-1.409-.038-.458-.456-1.904-1.104-1.41-.685-1.676-.571-.039 0-.076.038a.6.6 0 0 1-.038.152q0 .076-.038.19a2.4 2.4 0 0 0-.077.381 4 4 0 0 1-.114.495q-.038.229-.152.686-.114.42-.191.876-.951 3.846-2.018 4.494-.38.304-.8.228-1.028-.076-1.79-1.447-.647-.953-.342-1.37.228-.268.647.342.571 1.065 1.219 1.028.646-.075.99-1.18.761-1.904 1.142-4.418.153-.839.038-.99.039-.077-.761-.305a40 40 0 0 0-2.057-.61q-1.218-.38-1.409-.418-.19-.076-.304-.381-.077-.304.038-.533.38-.38 1.028-.343.685.038 1.18.229.534.19 1.219.457.686.266 1.066.304.23 0 .267-.038.077-.038.114-.266.19-.839.267-2.895.114-2.094-.038-2.78-.114-.267-.381-.228-.228.037-.99.457a8 8 0 0 0-.533.228q-.42.19-.534.267-.075.038-.419.19l-.456.152q-.077 0-.381.077-.267.038-.381 0a1.2 1.2 0 0 0-.343-.038.9.9 0 0 1-.381-.153 4 4 0 0 0-.304-.266 2.7 2.7 0 0 1-.381-.381q-.457-.495-.571-1.752-.115-1.294.266-1.942.228-.305.648-.305.419 0 .723.381.304.343 0 .724-.152.304-.114.837.038.534.266 1.029.229.495.419.38.685-.038 1.981-.761 1.332-.724 2.094-.724.495.039.686.305.19.228.381 1.104.152.457.19 1.219.037.723 0 1.295-.038.533-.152 1.523-.077.99-.077 1.257zm-23.764-3.77a1 1 0 0 0 .381 0 1 1 0 0 1 .381 0 .46.46 0 0 1 .305.228q.304.228.419.648.114.38.228 1.561.19 1.98.419 1.98.152 0 .571-1.409.762-1.37 1.752-1.295.381-.076 1.142.648.801.685.876 1.066.076.228.267.647.229.42.343.8.114.343.19.762.152.762.305.838.152.037.571-.495.762-1.105 1.066-.648.19.229 0 .762-.076.114-.571.952-.495.8-.609.914-.534.647-.533 1.904 0 .648-.229 1.714-.19 1.066-.381 1.485-.228.42-.647.571-.419.114-.724-.152-.19-.343-.152-.495.038-.19.228-.495.23-.305.267-.457.076-.304.114-.762.039-.457-.038-.495-.037-.037-.99.876-1.333 1.295-1.714 1.295-.037 0-.342-.229-.267-.265-.343-.228-.114.038-.153.647.039.952-.837 1.219-.343 0-.457-.38-.076-.383-.076-2.133-.039-3.466-.115-4.532-.038-1.067-.342-2.933-.23-1.485-.381-1.98-.153-.495-.419-.495-.19 0-.838.61a9.3 9.3 0 0 0-.99 1.142q-.686 1.104-.952 1.409-.23.266-.495.266-.495 0-.495-.647 0-.267.38-.99.381-.724.8-1.18.228-.192.876-1.638.686-1.485 1.295-2.857.647-1.409.876-1.409.076-.038.266-.19l.267-.267a.9.9 0 0 1 .343-.114.44.44 0 0 1 .457.114q.19.114.114.648 0 .38-.457 1.142-.419.725-.838 1.371-.418.61-.381.686m4.989 3.656q-.837-.534-1.257.228a3.4 3.4 0 0 0-.304.419 6 6 0 0 0-.229.419l-.19.38a8 8 0 0 0-.114.382 9 9 0 0 1-.115.38 6 6 0 0 0-.114.457 2.6 2.6 0 0 1-.076.42q0 .075-.076.494a3 3 0 0 1-.076.495q.305.039 1.104-.609.838-.646 1.181-.762.837-.456.99-.609.151-.19 0-.61-.343-1.103-.724-1.484m.952 4.912q.114-.342.114-.761.039-.457-.228-.534-.343.076-1.066.648-.724.57-.8.61-1.6 1.332-1.562 2.094 0 1.104.229 1.104.228 0 1.714-1.409t1.599-1.752m-27.458-15.5q-.342.534-.457.191-.114-.419.343-.952.153-.152.457-.61a7 7 0 0 1 .647-.76q.343-.306.762-.496.267-.153 1.714-.952 1.485-.8 2.247-1.028 1.6-.495 2.285.419.723.876.076 2.323-.077.19-.419.952-.344.762-.495 1.104-.114.304-.495.952a5.6 5.6 0 0 1-.648.952 6.5 6.5 0 0 1-.723.686 4.2 4.2 0 0 1-.914.571q-.418.152-1.371.686-.914.495-1.333.647-.723.38-1.257-.571-.076-.267-.038-.42.038-.19.343-.647.305-.342.419-1.866.152-1.523-.229-1.828-.152-.076-.457.153-.266.19-.457.495m6.893-2.97q-.037-.304-.457-.342-.38-.038-.457.304-.075.305-.838 1.333-.723.99-.837 1.562-.039.228-.381.723-.305.495-.533.876-.19.342-.038.457.075-.038.914-.724.876-.685.99-.685.343-.114.952-1.6.647-1.523.685-1.904m-3.046.876q0-.267-.8.495-.419.381-.457.572-.153.266-.114.761.038.457.19.686.038 0 .609-1.18.572-1.22.572-1.334m-7.084.648q-.038-.191.229-.343a1.14 1.14 0 0 1 .609-.19q.304-.038.457.076.228.19.343.457.152.228.266.609.152.343.305.61.685 1.523.876 2.855.19 1.905-.267 2.362-.266.266-.723.152-.42-.153-.495-.61-.039-.495-.076-1.104a13 13 0 0 0-.077-.914 7 7 0 0 0-.152-.761 3.7 3.7 0 0 0-.305-.99 25 25 0 0 0-.609-1.295q-.381-.8-.381-.914m-6.245 7.73q.38 0 .876 1.524.495 1.485.609 2.932.228 1.448-.305 4.304-.532 2.817-1.257 3.884-.228.343-.837 1.752-.61 1.409-.838 1.6a1.7 1.7 0 0 1-.914.418q-.534.077-.762-.19-.152-.19-.495-1.028-.305-.838-.19-1.067.076-.342.228-.495.19-.151.343 0 .152.114.152.457.153 1.675.99 0l.305-.61q.077-.303.647-1.523.572-1.218.686-1.637.381-1.104.609-2.666.229-1.6.191-2.78-.077-1.218-.267-1.219-.152 0-.419.8-.381 1.066-1.218 2.704-.952 1.79-1.6 2.514-.648.685-1.219.57-.19-.037-.38-.342a1.6 1.6 0 0 1-.153-.724q0-.305.686-.99.723-.685.838-.876.914-1.332 2.246-4.874.382-.572.229-1.105-.114-.532-.647-.723-.343 0-.762 1.18-.19.495-.609 1.105-.381.57-.648.723-.19.114-.381.534-.38.724-.761.952-.38.19-.61-.153-.19-.266-.152-.457.077-.228.533-.838.23-.342.571-.8a7 7 0 0 0 .61-.913q.266-.457.495-1.219.19-.648.076-.8-.076-.19-.8-.457-.647-.114-.685-.457 0-.38.228-.8.153-.19.229-.19.114-.037.533 0 .914.114 1.066.076.19-.038.305-.419.267-.837.609-2.742.115-.342.457-.57.344-.268.762.075a.62.62 0 0 1 .228.572q0 .19-.152.8a31 31 0 0 1-.381 1.37q-.19.762-.228 1.067-.115.419-.115.533.039.076.229.228.076.076.571.534.495.418.648.456m13.024 7.312q.267 0 .762.457l.495-.19q1.18-.648 1.599.762 0 .229-.533.952a34 34 0 0 1-1.142 1.561q-.61.838-.8 1.18-.19.457-.038.61.114.114.381-.076a5 5 0 0 0 .609-.457q.305-.305.419-.305a5 5 0 0 0 .304-.228q.229-.152.419-.267.19-.114.419-.19.23-.114.457-.076.267.037.495.19.267.19.343.419.076.19.229 1.104.114.686.342 1.447.267.724.419.762.19.075.724-1.028a14.3 14.3 0 0 0 .952-2.476q.304-1.104.381-1.79.114-.723.19-2.665.153-1.257.076-1.904-.076-.648-.228-.8-.114-.19-.609-.495a1.4 1.4 0 0 1-.191-.076 2 2 0 0 0-.19-.077.3.3 0 0 0-.115-.038h-.19a.6.6 0 0 0-.19-.038h-.572q-.876 0-2.17.876-1.257.838-1.6.99-.457.152-1.219.686-.76.495-1.37.876-.61.342-.838.342-.153.039-.762.267a4.5 4.5 0 0 1-1.104.229q-.572.076-.8-.153-.228-.266-.305-.8.039-.647.99-2.284.99-1.638 1.143-2.057.038-.114.457-.838.418-.761.495-1.142.077-.495.228-.686.153-.19.61-.19.914 0 .647 1.066-.19.762-1.104 2.475t-1.143 2.324q0 .38 1.447-.305.534-.267.952-.571.343-.228 1.828-1.105 1.486-.914 1.943-1.257.228-.114 1.142-.228.915-.152 1.409-.152.572 0 1.409.533.876.533 1.219 1.104.38.648.457 1.676.114.99-.076 1.98a4.6 4.6 0 0 0-.076 1.143q.038 1.41-.686 3.808-.724 2.36-1.447 3.199-.305.343-.305.419-.114.152-.342.38-.19.192-.61.496a2.6 2.6 0 0 1-.761.495 3 3 0 0 1-.876.267q-.458.114-.762-.153-.267-.267-.152-.533.114-.228.457-.229.266 0 .19-.19-.076-.342-.419-1.447-.304-1.105-.381-1.828-.037-.533-.571-.19-.381.266-1.257 1.028-1.409 1.218-1.409 1.295-.152.228-.571.495a2.2 2.2 0 0 1-.876.266q-.419 0-.647-.419-.114-.228.076-.609.837-1.638.914-1.866.114-.229 0-.343a.7.7 0 0 1-.19-.076q-.115-.075-.153-.076 0-.038-.114-.076l-.114-.115-.115-.114a1.3 1.3 0 0 0-.076-.19.6.6 0 0 0-.038-.19v-.23q.039-.15.038-.304l.076-.38q.115-1.029.115-1.638t.152-.762q.19-.151.724 0 .456.153.533.114.076-.038.076-.38 0-.381.152-.686.153-.305.343-.305m1.181 2.323q.228-.38 0-.609-.19-.228-.496 0-.266.57.039.952.228.228.457-.343m-2.057 1.257q.228 0 .229-.723-.039-.61-.343-.19a.4.4 0 0 0-.076.113 1.25 1.25 0 0 0-.038.534q.076.266.228.266m-37.627-3.39q-.075.951-.647 2.818-.571 1.866-1.181 1.79a.65.65 0 0 1-.418-.153q-.19-.151-.191-.342 0-.039.495-2.133.495-2.133.724-3.427.267-1.334.304-2.057 0-.19.153-.99.152-.838.19-1.333a1.9 1.9 0 0 0-.152-.952 2.5 2.5 0 0 1-.876.685q-.495.19-.914-.076-.572-.419.457-1.523.952-.914 2.361-3.123t2.095-3.047q.266-.266.419-.457.19-.228.266-.342t.191-.229a.9.9 0 0 1 .304-.19q.572-.267.914-.076.381.152.381.647a.77.77 0 0 1-.152.495q-.115.153-.724.724-.609.57-1.218 1.485-.61.876-.838 1.18-.267.267-.457.534-.153.228-.343.533-.152.267-.305.457-.19.267-.228.38 0 .077.152.381.267 1.372.114 3.085-.114 1.714-.457 3.047a54 54 0 0 1-.419 2.209M328.747 8.5q.152 0 .572.038.456 0 .647.038.19.038.533.076t.495.153q.19.076.381.228a.74.74 0 0 1 .305.38q.075.23.076.534 0 .495-.191 1.028-.19.495-.571 1.105l-.457.761q-.114.23-.533.838-.38.609-.724 1.143-.304.533-.342.8 0 .152.685.38.61.19.838.42.228.227.419.837.114.304.228.457a.27.27 0 0 0 .267.076q.153-.075 1.333-1.409 1.218-1.371 1.638-1.98.38-.495.571-.571.228-.116.457.114.228.228.038.533-.419.723-2.171 2.894-1.713 2.133-2.018 2.59-.19.076-.267 1.028-.076.915-.152 1.904-.038.99-.153 1.18a5 5 0 0 1-.152.61 3.5 3.5 0 0 1-.152.572 3.4 3.4 0 0 1-.153.495q-.075.265-.228.495-.114.19-.343.418-.228.23-.381.267-.113.039-.419 0-.76-.114-1.37-.761-.572-.648-.8-1.638a2.2 2.2 0 0 0-.229-.724q-.19-.381-.228-.609 0-.42-.686-.152-.76.418-1.256-.115-.457-.57.038-1.142.151-.19 1.371-.495 1.256-.344 1.561-.571.305-.267.914-.61t.838-.419q.457-.114.457-.876 0-.533-.114-.723-.115-.228-.419-.305-.99-.304-1.333-.533-.343-.266-.343-.8.038-.571.609-1.675.305-.647 1.219-2.171.952-1.524 1.104-1.942.19-.495-.19-.61-.381-.152-.99-.152-.61-.038-.8-.267-.8-.532-.381-.952.153-.19.952-.19m-.495 16.947q.42 0 .724-1.066a6.9 6.9 0 0 0 .228-2.285q0-.343-.038-.495-.038-.19-.152-.19a.16.16 0 0 0-.152 0q-.077 0-.305.151a1.7 1.7 0 0 1-.305.153q-.228.19-.723.533-.495.304-.762.533l.229.457q.037.075.304.8.305.685.533 1.066.229.343.419.343m25.021.38a4 4 0 0 0-.648-.266 3 3 0 0 1-.495-.19q-.456-.229-.266-.648.228-.456.799-.38.343.037.457-.039.153-.343-.837-2.932-.495-1.029-1.562-3.656-1.066-2.628-1.447-3.465-.266-.61-1.028-1.333-.8-.762-.914-1.181t.381-.724a1.3 1.3 0 0 1 .761-.152q.42 0 .648.229 1.904 2.17 3.313 6.321.19.648.838 2.095.647 1.41.914 2.323.532 1.638.838 2.17.342.534.342.839 0 .266-.266.685-.42.533-.762.61-.343.037-1.066-.305m-9.749-7.882q.609-.838 1.371-2.895.114-.38.571-.533.495-.19.799.038.191.153.229.495.038.305.038 2.095v2.399l.343.685q.228.495.228.648.039.114-.114.305-.458.609-.99.228-.61-.457-.8-1.561a22 22 0 0 0-.266-1.219q-.115-.229-.153-.229-.038-.038-.152.115-.267.38-.724 1.37-.418.953-.723 1.41-.267.342-.381.419t-.419.076-.419-.038a1.1 1.1 0 0 1-.266-.305 1.27 1.27 0 0 1-.191-.685q0-.381.152-1.562.343-2.932.343-3.922.039-1.22.381-1.6.267-.305.724-.152.495.114.533.495.037.228-.038 1.257-.077.99-.191 1.485-.19 1.18.115 1.18M313.057 5.873q.152-.304-.685-.114-.38.114-1.219.419l-.914.228q-.265.038-.381.229-.075.152-.114.685 0 .495-.114.876-.152 1.524-.419 1.904-.457.838-.99.495-.648-.419-.267-1.447a1 1 0 0 1 .115-.228q.151-.343.228-1.905.077-1.6.038-2.665 0-.38-.038-.724v-.571a2 2 0 0 0-.038-.42q-.037-.19 0-.266.037-.115 0-.19 0-.076.076-.152l.114-.077a1 1 0 0 1 .229-.114.8.8 0 0 0 .266-.152q.305-.039.686.266l.343.305.495-.38q.151-.153.495-.458.381-.304.647-.457.267-.19.648-.266 1.37-.305 2.056.152.724.457.8 1.752-.037.646 0 .838.038.19-.076.723-.114.495-.153.61t-.228.57l-.191.572-.19.419.229.38q.228.458.076.724-.115.267-.838.686-.534.304-1.485 1.066t-1.333.952q-.458.305-.914.038-.458-.304-.381-.685.342-.42 1.142-1.028.838-.647 1.448-1.257.609-.648.837-1.333m-2.665-.99q.266.038.799-.153.533-.228 1.181-.495.685-.266.952-.342.343 0 .419-.42a1.36 1.36 0 0 0-.038-.837q-.153-.42-.381-.419-.495-.153-.914 0a1.5 1.5 0 0 0-.533.19 2.1 2.1 0 0 0-.533.457q-.229.267-.419.457-.152.19-.419.572-.228.38-.305.457-.114.076-.114.342.038.268.305.19m-1.295 19.08q.114-.23.571-.877.457-.646.762-1.218.342-.572.381-.914 0-.077-.039-.114-.038-.039-.152 0a1 1 0 0 0-.228.038 6 6 0 0 0-.305.114 2.67 2.67 0 0 1-1.409.305q-.724-.077-.99-.495-.229-.458.342-1.295 1.638-2.172 2.019-4.19-1.219.19-2.514.99-.456.267-.914.191-.419-.075-.533-.419-.076-.342.229-.761.228-.343.876-.61.647-.304 1.523-.61.876-.303 1.257-.494.609-.343 2.437-1.18 1.866-.839 2.818-1.486.458-.457 1.028-.114.61.304.343.838-.076.19-.838.609-.723.42-.914.419-.151.038-.609.38-.419.306-.609.343-.648.153-1.219.914-.533.724-1.257 2.21-.685 1.484-.799 1.751-.648 1.104-.457 1.219.19.076 1.447-.648 2.628-1.638 4.303-2.17.38-.153 1.6-.153 1.485-.038 2.056.305.609.342.762 1.295.305 2.475-.343 4.57-.609 2.094-1.866 4.303-.61 1.104-1.295 1.333-.647.228-2.171-.152-.265-.076-.609-.42-.343-.38-.343-.57 0-.344-.342.38a3 3 0 0 0-.153.267 12 12 0 0 1-1.447 2.437q-.876 1.18-1.257 1.18-.914-.303-.685-1.18.038-.19.038-.343.038-.152.038-.266l.076-.152a.6.6 0 0 0 .114-.153.5.5 0 0 1 .115-.076.6.6 0 0 1 .152-.038q.038 0 .19-.038.19-.038.267-.038.19.038.609-.8.457-.876.952-2.095.495-1.255.648-1.485.266-.533.419-1.028.19-.495.419-1.257t.419-1.333q.495-1.56.571-1.942.114-.38-.038-.419t-.686.229a4.2 4.2 0 0 0-.838.457q-.228.228-.685 1.37-.495 1.258-1.181 2.476-.647 1.18-.99 1.523-.305.343-.723.229-.38-.114-.496-.457-.114-.343.153-.686m4.913 2.627q.151-.037.456.38.305.42.572.344.457-.076.838-.229.38-.19.571-.38.228-.192.457-.572.228-.42.304-.647.115-.267.343-.876.23-.649.343-.952.495-1.257.609-1.905.115-.685.115-1.866 0-1.256-.191-1.599-.152-.228-.266-.267-.115-.038-.572-.038-1.142.039-1.256.229-.152.381-.953 3.047-.761 2.665-1.218 3.732-.571 1.142-.457 1.447.038.152.305.152m-15.462-8.302q.609 0 .609.419-.228.342-.723.876-.495.533-.914.952-.42.382-1.181 1.066-.762.648-.952.838-.648.648-2.361 1.866-.381.343-.914.038-.495-.342-.267-.876.19-.419.305-1.409.152-.99.228-2.399.115-1.409.153-1.714.037-.342 0-.457-.038-.152-.153-.152a.6.6 0 0 0-.266.076 3 3 0 0 0-.343.152 1.2 1.2 0 0 1-.381.153q-2.247 1.104-2.551.647-.038-.495.076-.762.152-.266.343-.38.228-.115.723-.343t.914-.457q.495-.304.99-.533.534-.229.648-.305a.95.95 0 0 0 .266-.343q.152-.266.305-.838.038-.19.076-.685.076-.495.191-.762.114-.304.342-.342.572-.23.914 0 .38.228.115.837-.19.572-.077.648.153.075.838-.229.838-.38 1.295-.723.724-.534 1.066-.19.267.227.038.647-.305.57-2.132 1.561-1.143.61-1.447 1.028-.267.42-.343 1.676a45 45 0 0 1-.229 2.247q-.228 1.675.115 1.714.19 0 .647-.457.38-.42 1.333-1.105.952-.723 1.409-1.18.914-.8 1.295-.8m-14.205-3.692q-.266 0-.914.42-.152.075-.495.266-2.361 1.294-3.123 1.561-.723.23-2.704.495-1.56.23-2.703.381-.648.114-1.638.343l-1.714.343q-.761.152-1.675.304a13 13 0 0 1-1.714.114 7.4 7.4 0 0 1-1.561-.228q-.23-.076-.534-.724-.151-.342 0-.342a.34.34 0 0 1 .153.038q.266-.039.761-.343t1.524-.228q1.332-.039 2.856-.381 1.561-.343 2.666-.42a29 29 0 0 0 2.285-.266q.914-.152 1.409-.266.495-.153 2.094-.61.61-.152 1.79-.57 1.18-.42 2.019-.724.876-.344.952-.381.723-.458.914.228.19.648-.305.914a.76.76 0 0 1-.343.076M242.336 3.36q-.457 0-.228-.838.114-.19.152-1.142t.267-1.029q.457-.228.799 0 .381.19.381.724.077.457.191.571.152.153 2.056-.952 1.638-1.028 2.971-.533.342.152.799.61.495.456.572.723.114.266.076 1.028 0 .762-.114 1.257-.19.686-1.029 2.247-.838 1.523-1.333 2.018a3.4 3.4 0 0 1-1.599.952q-.952.228-1.6-.114-.343-.153-.418-.114-.076 0-.115.304-.037.153-.076.229-.076.685-.457.952-.38.228-.8-.152-.304-.42-.114-2.666.19-2.285.076-2.895-.114-1.18-.457-1.18m6.665-.686q0-.456-.076-.609-.039-.153-.267-.38-.381-.382-.762-.344-.38 0-1.104.381-.609.343-2.628 1.676-.038.153.076.952.115.8.153.876.19.19.723-.724.267-.381.838-.837.61-.457 1.067-.61 1.408-.496 1.675.153.19.495.267-.077.038-.19.038-.457m-.381 1.41q.076-.19 0-.191-.076-.038-.381.114-.571.23-.8.343-.19.075-.495.343-.304.228-.723.723l-.8.876-.038.724q0 .533.038.685.038.115.229.229.228.114.342.076.114-.076.572-.533.99-.839 2.056-3.39m2.856 6.13q.114.306-.495.839-.609.496-.876.418-.152 0-.457.153a3.2 3.2 0 0 0-.685.38 8 8 0 0 0-.686.458 71 71 0 0 1-1.028.723q-.457.457-1.333.99-.837.534-1.257.914a5 5 0 0 1-.761.534 2.9 2.9 0 0 0-.648.533q-.38.228-1.295.723-.875.495-1.866 1.18-.8.534-.99.534-.266 0-.533-.228-.228-.267-.228-.495-.076-.42.837-1.029.915-.647 2.247-1.333 1.371-.723 1.79-1.104.8-.609 1.676-1.257a49 49 0 0 1 1.409-1.028q.533-.344 1.79-1.142l1.599-1.067q.8-.533 1.295-.419.495.076.495.724m-4.075 4.19q.382 0 .457.571.115.534.153 2.704 0 .304-.115 1.257-.151 1.18 0 1.333.153.152.838-.61.304-.38 1.143-1.18.838-.838 1.218-1.371.267-.42.457-.571.23-.19.457-.534.648-.838 1.105-.723.99.267-.533 2.094-1.486 1.83-4.037 4.494-1.18 1.18-1.79.99-.457-.19-.571-.533-.077-.38.076-1.295.305-1.942.381-4.493.075-1.715.266-1.905a.61.61 0 0 1 .495-.228m-1.942 10.587q.19-.038.838.229.648.266.724.266.99.19 2.665.914t2.285.914q.725.229 2.247.952 1.562.685 2.552.99l.914.267q.647.228 1.066.343.418.151 1.104.228.724.114 1.448.114.876.04 1.18.19.305.191.305.61 0 .876-1.257.876-.876 0-3.351-.647-2.437-.648-3.123-.99-.8-.457-2.513-1.067-1.714-.608-2.324-.914a16 16 0 0 0-1.942-.8q-1.104-.419-2.742-.914a56 56 0 0 1-2.132-.723q-.19-.076-1.067-.229-.837-.152-1.066-.266-.343-.267-.647.076a6.5 6.5 0 0 0-.572.914q-.266.571-.457.685a18 18 0 0 1-1.333 1.752q-.837.953-1.332 1.295-.267.153-.724.61-.495.456-1.219.875-.723.457-1.028.457-.837.039-.647-.761.152-.724.647-.914a.5.5 0 0 1 .267 0q.38-.04.571-.19.419-.267 1.637-1.524 1.257-1.257 1.448-1.6.266-.457.495-.723 1.218-1.752 2.78-5.675.228-.761.952-.57.533.037.647.19.114.113-.114.495-.228.19-.419.609-.152.38-.343.952-.19.533-.304.8-.305.723-.229.762.114.037.99.228.915.19 1.447.38.572.153.914.344.458.19.762.19m-26.01-14.129q.456 0 .609.419t.152 1.409q-.037.837.038 1.104.077.229.381.38.23.153 1.371.42 1.18.228 1.562.228.418 0 2.247.648 1.827.647 2.818 1.142.38.19.952.495 1.028.534 1.333.762t.304.533q0 .266-.38.914-.229.343-.8.19-.571-.151-.724-.418-1.561-1.143-3.77-1.943-2.21-.837-4.303-1.028-.914-.075-1.029.076-.152.38-.152 1.6 0 1.218-.114 1.79-.114.686-.267 2.513a92 92 0 0 1-.266 3.351q-.153 1.524-.419 2.019a.93.93 0 0 1-.686.571q-.456.114-.685-.267-.114-.266-.267-1.256a10.7 10.7 0 0 1-.038-2.019q.076-1.065.495-1.142.153 0 .191-.267.114-.609.19-2.056.114-1.447.228-2.019.115-.114.077-1.6 0-1.523-.077-3.312-.075-1.829-.114-1.904-.228.152-.571.685t-.724 1.18q-.38.61-.723 1.257-.343.61-.609 1.029-.23.38-.267.342a317 317 0 0 0-2.361 4q-.915 2.018-1.371 2.36-.457.305-.8.229-.305-.115-.305-.495 0-.381.343-.953.343-.913.8-1.79.495-.913 1.333-2.284.876-1.41 1.066-1.752.228-.457 1.676-3.009a382 382 0 0 0 2.17-3.922q0-.344-.761 0-.039.038-.571.266a7 7 0 0 0-.724.343l-.762.305a12 12 0 0 1-.876.342q-.305.115-.837.305-.495.153-.876.229-.344.075-.762.152a9 9 0 0 1-.8.038 4 4 0 0 1-.609-.114q-.38-.38-.457-.838-.037-.495.381-.8.418-.304 1.257-.076 1.218.114 2.399-.571a18 18 0 0 0 3.846-1.6q1.752-.99 3.999-2.551.19-.229.609-.42.457-.189.838-.075.381.075.381.533-.077.381-.8 1.028-.723.649-.876.952a16 16 0 0 1-.914 1.028 12 12 0 0 0-1.028 1.22 7 7 0 0 0-.686 1.218q-.456.876.115.876m-26.01-6.55q.19-.19.419-.153.228 0 .8.229.457.19 1.599.19 1.18-.038 1.676-.228.571-.267.914.038.343.304.304.838-.114.456-1.866.723-1.713.267-3.084.038-.343-.038-.457-.114-.076-.075-.229-.419-.228-.57-.266-.762 0-.19.19-.38m.229 4.874q.838 0 2.665-.8 1.828-.837 2.247-1.294.039-.153.533-.496.381-.304.572-.304.19-.038.419.19.342.305.152.838-.19.495-.762.8-2.285 1.637-4.532 2.285-.914.267-1.256.305-.305 0-.572-.153-.342-.267-.152-.8.228-.57.686-.57m-7.312 2.476q0 .494-.572.647-.57.153-.761-.38-.495-.725-1.524-.725-.609.076-.952-.266-.342-.38-.266-.8.114-.457.609-.571.457-.114 1.219.076.8.191 1.256.457.381.267.686.762.305.456.305.8m8.606 2.59q-.609.075-.571-.534.039-.762.609-1.066a.43.43 0 0 1 .305-.038q.571 0 1.676-.572 1.104-.609 1.828-1.332.418-.42.571-.458.153-.075.419.115.305.228.152.723-.152.458-.647.914-2.476 2.019-4.342 2.247m.191 1.637q0-.457.114-.61.152-.152.647-.304.61-.229 1.562-1.028.762-.648 1.066-.762a.504.504 0 0 1 .609.114q.344.304-.19.952-.458.609-1.485 1.41-1.029.798-1.485.875-.38.075-.61-.076-.228-.19-.228-.571m-11.768 3.732q0 .114.495.343.876.456 1.067 1.447.19.952-.381 2.094-.077.267-.914 1.257-.8.953-.876 1.104 0 .153.304.229.306.037 1.371.114 2.285.153 3.276.343 1.713.228 6.816.305 5.104.038 7.769-.305.305-.114 1.143-.152.876-.038 1.219-.153.951-.228 1.18-.228.266 0 .419.228.267.42 0 .952-.228.494-.724.572-.037 0-1.599.19-1.562.153-1.904.229-1.676.265-7.16.19-5.445-.076-7.845-.38-4.722-.763-6.817.037-.876.305-1.104.19-.381-.19-.381-.647-.037-.533 1.104-1.18 1.143-.648 1.333-.876.23-.23.381-.343l.191-.19a.8.8 0 0 0 .19-.153q.114-.152.305-.419.113-.152.419-.533.342-.38.457-.571.152-.19.304-.533.153-.38.191-.724 0-.419-.305-.61-.267-.19-1.066-.38-.762-.19-.8-.724-.038-.532.647-1.104.381-.342.8-1.028.457-.685.343-.838-.076-.114-.571-.038-.876.114-.876-.571-.077-.381.457-.686a2.6 2.6 0 0 1 1.142-.343q.61-.076 1.028.077.876.456.153 2.018-.153.495-.61.99-.418.495-.571.8m14.015-1.98v.495q.038.075.228 0 1.18-.305 1.714-.19.571.113 1.028.799.381.495.381.952.114.8-.533 2.17-.648 1.372-1.638 2.248-.951.875-1.675.38-.191-.266-.838-.038-.609.191-.648-.152-.037-.075-.114-.952a41 41 0 0 1-.038-1.752q.038-.876.152-.838.19-.57.534-1.98.342-1.448.38-1.523a.72.72 0 0 1 .191-.42q.304-.303.571-.037.305.266.305.838m1.79 2.018q-.724-.457-1.562.533-.8.953-.723 1.98-.038.495-.038.648.037.114.228.266.343.268.533.19.23-.113.61-.685 1.56-2.437.952-2.932m251.139 35.533q.165-.728.828-1.324.661-.63 1.423-.629.464 0 .926.298.463.265.696.695.099.233.099 1.092.033.828-.066 1.225-.232.86-1.424 1.754-.397.265-.562.331-.132.066-.497.066-.793 0-1.026-.165-.232-.198-.529-.96a2.2 2.2 0 0 1-.166-.86 8 8 0 0 1 .066-.696q.067-.231.232-.827m1.49 2.218q.033 0 .165.066a1 1 0 0 0 .199.033q.099-.034.264-.232.166-.197.364-.596.365-.727.464-.96.099-.264.099-.496.033-.264-.165-.562-.232-.365-1.093.132-.33.198-.43.397-.099.198-.265.96a5 5 0 0 1-.132.53 2 2 0 0 0-.033.363.4.4 0 0 1 0 .232q-.033.066.066.1.132.032.099.066h.166q.198-.033.232-.033m-13.67-9.897a.73.73 0 0 1-.232.53q-.198.198-1.324.993-.827.563-1.125 2.019-.066.231.066.198.132 0 .298-.165.066-.066.662-.464.596-.43.827-.695.398-.496.563-.496.298 0 .397.463.132.43-.132.596-.166.066-.397.397-.2.33-.166.397.066.066.298.066t.364.067q.166.033.166.198 0 .265.033.43.066.133-.067.43a4 4 0 0 1-.165.398q-.033.132-.199.397-.165.265-.231.364-.066.1-.232.331-.165.2-.199.232.034.1-.231.43-.232.331-.563.728-.331.398-.397.563.033.033.596-.232 1.49-.761 2.052-.298.463.365-.364 1.159-.894.894-.795 1.026.265.264 1.059.066.663-.232.927.166.266.396-.099.827-.894.63-1.49.927a3.6 3.6 0 0 0-.562.364.64.64 0 0 0-.265.397 1.5 1.5 0 0 0-.066.397q0 .165.033.695.033.497.033.86.033 1.291-.165 3.906-.166 2.582-.133 4.005 0 .927-.033 1.158a1.1 1.1 0 0 1-.132.397q-.265.465-1.225.1-.827-.331-.629-.728.066-.133.331-.265.364-.132.397-.265.232-4.469.232-7.314a12 12 0 0 1 0-1.258q.033-.497-.033-.728a6 6 0 0 0-.099-.364q-.033-.133-.199-.1t-.331.1q-.133.066-.43.165-.265.099-.53.133a2.7 2.7 0 0 0-.728.297q-.331.165-.596.265-.264.2-.463.1a3 3 0 0 1-.298-.166 2 2 0 0 1-.165-.331q-.1-.165.496-.629.629-.463.861-.496.596-.165 1.886-.762.298-.132.364-.198.1-.1.1-.298 0-.264-.133-.629-.099-.397-.198-.496-.1-.1-.894.231-1.522.663-1.953.232-.264-.298-.165-.53.132-.232.86-.76.1-.067.232-.2.496-.363.563-.463.066-.099.033-.298a5 5 0 0 1-.067-.86v-.397q0-.2-.033-.331a.5.5 0 0 0-.033-.199q-.033-.066-.165-.033-.133 0-.364.132-.795.398-1.192 0-.264-.297-.132-.562t.728-.728q.629-.465.827-.695.199-.265.464-.828.464-1.026.132-1.026-.165 0-.96.397-.76.398-1.092.662a1.7 1.7 0 0 1-.927.331q-.397.033-.496.033-.099-.033-.166-.198-.165-.496.795-1.159a5 5 0 0 1 .794-.53q.463-.264 1.059-.562.629-.297.927-.43.298-.2.364-.298.099-.1.132-.331.068-.265 0-.662-.033-.43-.099-.463t-.662.099q-.562.132-1.026.232-.463.066-.596-.034-.363-.1-.529.034-.464.264-.761-.034-.265-.33-.398-.926-.099-.431-.595-1.456-.464-1.026-.728-1.39-.166-.233-.199-.762-.033-.563.132-.695.299-.298.728-.132.464.165.596.629.133.429.199.463.066 0 .232-.364.463-1.158 4.368-2.648.299-.166 2.913-.364.331.067.662.166.364.065.794.231.464.166.662.397.232.232.331.596.099.365-.231.794-.563.927-1.49 1.92-.893.96-1.721 1.49-.231.099-.728.463-.464.33-.695.463-.331.132-.364.265 0 .133.132.364.166.232.166.43.033.133.066.232l.066.132a.4.4 0 0 1 .099.067h.133l.132-.067a.5.5 0 0 0 .133-.099q.099-.066.165-.1.099-.065.199-.165.132-.099.231-.165.63-.563.96-.331.232.133.232.43m-1.225-5.593q0 .165-.463 1.059-.43.893-.497.893-.099 0-.629.696-.53.695-.529.794-.033.264.96-.364 1.356-.828 1.39-.795.397-.132 1.125-.926.132-.166.298-.364l.298-.298.199-.265a1 1 0 0 0 .165-.199l.066-.198q.066-.1.033-.166a.3.3 0 0 0-.033-.132.32.32 0 0 0-.132-.166.9.9 0 0 0-.199-.198q-.198-.066-.86-.1-.63-.032-.861.034-.331.065-.331.695m-1.224-.133q-.1-.165-.464-.099a1.4 1.4 0 0 0-.662.265q-.33.232-.265.43.034.132-.066.629-.099.464-.132.794-.033.298.099.464.165.099.662-.662.728-1.259.828-1.82m-3.906 1.92q0 .033-.298.397-.265.33-.198.464 0 .396.264 1.224.265.794.398.794.132 0 .463-.264.364-.299.563-.563l.264-.331-.132-.629q-.066-.198-.099-.96-.034-.795-.166-.926-.1-.001-.596.364-.463.33-.463.43m4.832 9.532q.464-.695-.132-.695-.695-.132-1.026.662-.298.761.033 1.423.133.132.331-.132a5 5 0 0 0 .463-.728q.265-.464.331-.53m.728 3.64q.034-.264-.132-.231-.231.033-.265.265a.14.14 0 0 0 0 .132q.067.099.133.133a.22.22 0 0 0 .165-.067.7.7 0 0 0 .099-.231m0 1.788q.364-.1.067-.364-.298-.231-.398.1-.099.165 0 .264.133.099.331 0m-17.475-6.653q-.265.232-1.059.596-.762.364-1.258.497-.198 0-.463-.232-.265-.265-.265-.43a.8.8 0 0 1 .165-.331q.133-.133.365-.265.264-.133.364-.232.397-.231 1.125-.562t1.158-.596l.828-.464.198-.827q.2-.927.232-1.191a.61.61 0 0 1 .364-.464q.628-.264.96.629.066.232.132.364a.32.32 0 0 0 .232.1q.166-.034.265-.067t.331-.165q.264-.166.397-.232.264-.166.563-.199.297-.033.397.1.264.231-.066.695-.299.43-.993.926-.828.53-1.126.762a1.6 1.6 0 0 0-.496.53q-.166.297-.133.463.034.165.1.794t.066 1.258v.563a4 4 0 0 0-.033.43q0 .132.033.33.066.165.165.133.1-.033.298-.066.894-.497.265.629a5 5 0 0 1-.165.297q-.365.729-.497 1.06-.132.33-.165.53-.033.164-.033.827.033.628-.034 1.357-.066.628-.066 1.688 0 1.059-.099 1.688-.1.595-.43 1.026-.166.232-.431.165a1.7 1.7 0 0 1-.496-.298 10 10 0 0 0-.496-.397q-.265-.232-.398-.265-.53-.264-.993-1.29-.132-.365-.529-.696-.364-.33-.497-.53a1 1 0 0 1-.099-.396q.033-.165.166-.166.264-.198.695-.662.464-.496 1.026-1.059.563-.596.728-.794l.761-.762-.033-2.316q0-2.317-.033-2.549-.165-.562-.993.066m.066 7.58q-.199.165-.298.397a.8.8 0 0 1-.165.298q-.365.33.265 1.357.695 1.092.86.662.066-.165.232-2.25 0-1.392-.033-1.424-.066-.033-.331.33-.232.331-.53.63m-31.906-2.882a.8.8 0 0 1 .232.596q.033.365-.166.761-.198.397-.43.795-.231.363-.496.761-.232.364-.298.596 0 .099.397.165 1.29.199 1.026 1.754a6.9 6.9 0 0 1-.96 2.45l-.033.033q-.099.364-.033.43.1.033.695.033h.331q.96-.066 3.475.232 2.516.297 2.747.298.397 0 .497-.066.132-.067.132-.365 0-.165.265-.695.298-.53.397-.53.232-.065.463-.33.265-.298.497-.728.264-.464.397-.63.596-.76.397-.926a4 4 0 0 0-.397-.033q-.133-.033-.463.033l-.497.1q-.132.032-.463.132-.331.099-.431.132-1.224.265-1.026-.629.166-.562 1.324-.827.066-.033.199-.066 1.159-.398 1.423-.695.298-.331.364-1.49l.033-.86a5 5 0 0 0-.893.231q-.563.232-.828.067-.264-.199-.165-.762.132-.662.695-.662.264 0 .629-.132.397-.132.496-.265.099-.132.166-.993.033-.794.198-1.158.166-.398.563-.794l.331.165q.33.165.364.331.066.165-.099.629a4 4 0 0 0-.166.794q0 .364.133.43.099.033.529-.165.463-.232.53-.331.033-.032.198-.596.2-.596.298-.695.166-.232.132-.364 0-.132-.231-.265a.69.69 0 0 1-.364-.463q-.066-.33 0-1.125.099-1.456-.066-3.244-.1-1.29-.1-1.721.034-.43.232-.794.132-.232.463-.331.331-.133 1.556-.364 1.688-.199 1.853.198.463.53-.066 1.622-.596 1.191-1.92 2.317l-.463.43-.198.86q-.233 1.292.099 1.358.264-.067.927-.795.695-.728.794-1.125.231-.264.695-.132t.331.53q-.132.693-1.423 2.051-.662.663-.762 1.092-.1.398.1.63.43.562-.232 1.125-.43.396-.629.728-.166.33-.43 1.191-.265 1.125-.166 1.126.1.099.662-.364a7 7 0 0 0 1.093-1.06q.496-.629.397-.86 0-.497.265-.662t.628.132q.232.165.199.695 0 .496-.232.993-.297.53-1.125 1.324-.828.795-1.622 1.258-1.026.63-1.489 1.158-.463.53-.861 1.49-.496 1.224-2.052 3.243-.33.43-.264.497.132.066.628.132t1.126.132q.662.034.926.1.96.198 3.906.132 2.979-.099 3.773-.298.629-.165 1.688-.364a54 54 0 0 0 1.655-.33q.595-.167 1.357-.53a5.7 5.7 0 0 0 1.423-.927q.298-.265.563-.232.198.033.231.1.067.033.1.231.033.365-.232.695-.265.331-1.026.86a6 6 0 0 1-1.092.597 7 7 0 0 1-.96.33q-.397.1-1.92.497-1.919.464-4.832.629-2.913.132-5.428-.166-1.423-.132-4.468-.364-3.012-.264-4.336-.43a9.4 9.4 0 0 0-1.324.033 9 9 0 0 1-1.324.033q-1.026 0-1.29.166-.795.496-1.026.596-.233.099-.629.132-.562.033-.795-.199-.364-.364-.198-.728.198-.397.86-.629a6 6 0 0 1 .563-.231q.397-.166.596-.232.198-.1.463-.265.265-.199.463-.397.496-.596.927-1.49.463-.893.364-1.489l-.927-.066q-.662-.033-.827-.066-.132-.033-.199-.199-.231-.43.398-1.125.297-.364.893-1.258.629-.894.629-1.026 0-.33-1.092-.364-.563-.033-.695-.066a.52.52 0 0 1-.265-.199.7.7 0 0 1-.132-.496.62.62 0 0 1 .298-.43q.132-.232 1.423-.133 1.29.1 1.456.43m14.993-10.79q-.1-.198-.794-.066-.695.1-.761.331-.068.1 0 .696.033.562.165.595.165 0 .695-.562.761-.762.695-.993m-3.409 10.625q-.033-.33-.43-.132t-.463 1.555q-.067.927.099.927a.3.3 0 0 0 .099-.033q.1-.066.397-1.092.331-1.026.298-1.225m-2.714-11.518q1.027.265 1.39.794.397.53.199 1.093-.165.563-.728 1.125a4.8 4.8 0 0 1-1.291.96q-.232.132-.497.264-.33.165-.397.331-.066.133-.132.894-.033.165-.033.265-.233 2.45.033 2.45.365-.3 1.059-1.457.695-1.191 1.026-1.423.165-.033.298.132a.84.84 0 0 1 .198.397.7.7 0 0 1-.066.43q-.1.2-.761 1.225-.497.993-1.191 1.853-.663.861-1.291.795-.43 0-.53-.232-.099-.231-.099-1.191-.033-.398.066-1.49.132-1.092.132-1.886 0-.828-.264-1.026-.2-.2-.199-.298 0-.132.199-.497.165-.297.165-.53.033-.263.033-1.124l-.033-1.225.298-.298q.299-.33 1.125-.397.828-.066 1.291.066m.397 1.887q.133-.365-.331-.53a1.67 1.67 0 0 0-.926-.066q-.298.033-.398.695-.066.33.034.43.099.066.463-.066 1.092-.33 1.158-.463m-11.286 3.839q.198-.2.331-.232.133-.066.199-.033.099.033.331.133.264.098.529.165.894.33 1.126.629.364.397.297.728-.066.298-.43.331t-.894-.199q-.231-.132-.794-.264-.563-.166-.827-.364-.43-.364.132-.894m19.792 13.603q0 .199-.231.463-.232.265-.431.265-.397 0-2.614-1.986a6.2 6.2 0 0 0-1.291-.926q-.562-.364-.894-.563-.33-.232-.463-.397-.132-.2-.066-.331.066-.132.298-.265.497-.33 1.125-.066.596.297 1.886 1.39 1.325 1.059 1.556 1.191 1.125.828 1.125 1.225m-30.052-7.316q.397.298.529.298.034-.066.762.298.761.33 1.621.761.894.43 1.093.496.43.1.496.464.1.364-.232.728-.53.63-1.224-.033-.398-.398-1.655-.96-1.225-.595-1.456-.496-.033 0-.066.033a.6.6 0 0 1-.034.132q0 .066-.033.166a2 2 0 0 0-.066.33 4 4 0 0 1-.099.43 8 8 0 0 1-.133.597 8 8 0 0 0-.165.76q-.828 3.344-1.754 3.906-.332.265-.695.199-.894-.066-1.556-1.258-.562-.827-.298-1.191.199-.232.563.298.497.926 1.059.893.563-.066.861-1.026.661-1.655.993-3.84.132-.727.033-.86.033-.066-.662-.264a35 35 0 0 0-1.788-.53q-1.059-.33-1.224-.364-.166-.066-.265-.331a.66.66 0 0 1 .033-.463q.332-.331.894-.298.596.033 1.026.198.464.165 1.059.398.596.231.927.264.198 0 .231-.033.066-.034.1-.231.165-.729.231-2.516.099-1.82-.033-2.416-.099-.231-.331-.199-.198.034-.86.398a7 7 0 0 0-.464.198q-.363.166-.463.232-.066.033-.364.165l-.397.133q-.066 0-.331.066-.232.033-.331 0a1 1 0 0 0-.298-.033.74.74 0 0 1-.331-.133 3 3 0 0 0-.265-.231 2.3 2.3 0 0 1-.331-.331q-.397-.43-.496-1.523-.1-1.125.231-1.688a.66.66 0 0 1 .563-.264q.364 0 .629.33.264.3 0 .63-.132.264-.099.727.033.464.231.894.2.43.364.331.597-.033 1.721-.662 1.159-.63 1.821-.629.43.033.596.265.165.199.331.96.132.398.165 1.059.033.63 0 1.125-.033.464-.132 1.324-.067.86-.067 1.093zm-20.653-3.277q.166.035.331 0a.8.8 0 0 1 .331 0q.166.034.265.199.264.198.364.563.099.33.198 1.357.166 1.72.365 1.72.132 0 .496-1.224.662-1.192 1.522-1.125.332-.066.993.563.696.596.762.926.066.199.231.563.2.364.298.695.1.298.166.662.132.662.264.728.133.033.497-.43.661-.96.927-.563.165.199 0 .662-.066.099-.497.828-.43.695-.529.794-.464.562-.464 1.655 0 .562-.198 1.49-.166.926-.331 1.29a1.03 1.03 0 0 1-.563.496.64.64 0 0 1-.629-.132q-.165-.298-.132-.43.033-.166.198-.43.2-.266.232-.398.066-.264.099-.662.033-.397-.033-.43-.033-.033-.86.761-1.159 1.126-1.49 1.126-.033 0-.298-.199-.231-.23-.297-.199-.1.034-.133.563.034.828-.728 1.06-.298 0-.397-.332-.066-.33-.066-1.853-.033-3.012-.1-3.939-.033-.927-.297-2.548-.2-1.291-.331-1.721-.133-.43-.365-.43-.165 0-.728.529-.53.53-.86.993-.595.96-.828 1.224-.198.232-.43.232-.43 0-.43-.563 0-.23.331-.86.33-.63.695-1.026.198-.165.761-1.423.595-1.29 1.125-2.483.563-1.224.762-1.224a2 2 0 0 0 .231-.166l.232-.231a.8.8 0 0 1 .298-.1.38.38 0 0 1 .397.1q.165.099.099.562 0 .33-.397.993-.364.63-.728 1.192-.364.53-.331.595m4.336 3.178q-.729-.464-1.092.198a3 3 0 0 0-.265.364q-.1.166-.199.364l-.165.331q-.033.1-.1.331a9 9 0 0 1-.099.331 5 5 0 0 0-.099.398 2 2 0 0 1-.066.364q0 .066-.066.43-.034.33-.067.43.266.033.96-.53.729-.562 1.026-.661.728-.398.861-.53.132-.165 0-.53-.299-.96-.629-1.29m.827 4.27q.1-.3.1-.663.032-.396-.199-.463-.298.066-.927.563-.629.495-.695.53-1.39 1.158-1.357 1.82 0 .96.199.96t1.489-1.225q1.291-1.224 1.39-1.523m-13.834-12.974q0 .464-.265.762-.264.298-.662.033-.298-.2-1.39-.166-1.82.033-1.82-.463 0-.298.463-.761.199-.2.298-.232.1-.066.364 0 .397.066 1.523.066.992 0 1.224.133.265.132.265.628m-14.298 1.59q.53-.365.728-.398.231-.067.331.165a.56.56 0 0 1 0 .53q-.132.231-.728.761a7.4 7.4 0 0 0-.761.828q-.397.529-.861 1.224-.464.662-.629.894-.166.231-.397.728a3.3 3.3 0 0 1-.43.794q-.199.299-.629.53-.661.33-.861-.066-.33-.63.828-1.92.33-.364 1.324-1.953a7.05 7.05 0 0 1 2.085-2.118m-.1 5.99a.8.8 0 0 1 .497.53q.132.396-.132.893-.199-.232-.398 2.648-.099 1.125-.033 1.688.232.496-.198 1.158-.397.662-.894.464-.496-.133-.298-1.093.1-.397.166-1.191.099-.828.165-1.92t.099-1.423q.1-.43 0-.43-.099 0-.628.728-.497.694-.629.993-.199.628-.629 1.059-.43.398-.993.463a.64.64 0 0 1-.331-.265.7.7 0 0 1-.066-.43q.165-.397 1.158-1.72 1.026-1.358 1.258-1.755.497-.728 1.191-1.655.729-.926 1.192-1.589.76-1.224.96-1.357.463-.264.728.067.264.33-.066.76-.828 1.623-1.589 2.483-.76.894-.53.894m13.438-.464q0-1.39-.199-1.39-.066 0-.297.133-.2.099-1.324.364-1.092.231-1.423.231-.596 0-.729-.463-.132-.464.398-.761.297-.232.463-.265.165-.066.794-.066.663.066 1.39-.232.729-.33 1.192-.695.132-.232.629-.33.496-.1.629-.133.496-.232.695.165.198.398-.166.86l-.298.299a3 3 0 0 0-.165.297 5 5 0 0 0-.1.331q0 .1-.066.563a12 12 0 0 1-.165.86q-.067.596-.232 3.41-.165 2.78-.165 3.607.033 1.225-.133 1.589-.33.728-.86.827a1.45 1.45 0 0 1-.993-.231q-.463-.33-1.092-.795-.63-.495-.927-.628a3 3 0 0 0-.43-.199 2 2 0 0 1-.365-.166 1.3 1.3 0 0 0-.231-.165.9.9 0 0 1-.199-.298 6 6 0 0 1-.132-.463q-.132-.398.397-.662.53-.265.761.066 1.688 1.358 2.516 1.754.23.066.331-.1.132-.198.099-.529 0-1.224.165-3.409.2-2.184.232-3.376m-36.243-7.545q.099-.165.166-.629.099-.463.264-.629.199-.198.729 0 .53.232.33.96-.066.066-.132 1.092-.066.993-.165 2.384a61 61 0 0 1-.166 1.952q-.199.496-.298 1.953-.066 1.455-.132 3.31a65 65 0 0 1-.066 2.316q-.066.1-.1 2.152 0 1.589-.099 2.118-.066.53-.298.662-.199.1-.463.1a.54.54 0 0 1-.364-.2q-.2-.098-.166-2.018.033-1.953.133-2.284.066-.33.099-3.64.066-3.344.199-3.575.099-.199.132-1.721.066-1.523.132-2.88.066-1.389.265-1.423m3.078 1.423q1.059-.628 2.052-1.026a55 55 0 0 0 1.622-.728q.1-.066.794-.298.729-.231.828-.298.397-.297 1.688-.397 1.323-.1 2.151.133 1.06.397 1.655 2.085.596 1.688.463 3.674.033 1.489.133 2.019.198 1.026.198 3.706.033 2.682-.132 3.707a33 33 0 0 0-.265 1.655q-.231 1.655-.893 1.688-.365.033-.729-.364-.33-.397-.827-1.39-.464-.894-.563-1.191-.066-.332.133-.43.396-.233.86.727.595 1.425.828-.463 0-.165.033-.53.033-.397.066-.496 0-.596.066-.927.099-.53 0-2.68-.099-2.153-.232-2.88-.165-.861-.165-2.416 0-1.424-.099-2.052a3.1 3.1 0 0 0-.398-1.159q-.694-1.191-2.416-1.158-.464 0-1.224.298-.728.264-1.721.728-.96.43-1.291.563a12 12 0 0 0-2.88 1.621q-.596.465-.893 0-.497-.76 1.158-1.72m6.289 1.655q.596.63-1.126 1.754-.264.299-1.588.728-1.324.43-1.556.563a2.77 2.77 0 0 1-1.456.265q-.728-.1-.761-.794.033-.398 1.423-.729.33-.099 1.125-.33.795-.232 1.225-.365.464-.165.993-.397t.794-.496q.033 0 .132-.1.133-.099.166-.099a.4.4 0 0 1 .132-.066q.1-.066.133-.066a.5.5 0 0 1 .165.033.8.8 0 0 1 .199.1m-5.494 7.15q0-1.59.066-2.086.099-.496.43-.761.198-.165.827-.1l-.033.464v.165a.6.6 0 0 1-.033.199v.298q-.033.53 0 .629.066.066.43-.166.299-.232.894-.43a5.4 5.4 0 0 1 1.125-.298q.696-.132 1.06.397.397.53.331 1.291-.067.729-.53 1.192-.364.363-1.523 1.92-.231.297-.827.628-.562.33-1.191.463-.63.1-1.026-.297-.497-.597-.166-1.225.166-.298.166-2.284m1.456 2.15a.3.3 0 0 0 .198 0q.133-.033.331-.231.232-.2.364-.364.166-.165.365-.397t.264-.298q.066-.1.265-.364a3.4 3.4 0 0 0 .298-.53.9.9 0 0 0 .132-.43q.033-.232 0-.298t-.198-.1q-.53 0-1.39.96-.861.96-.695 1.655.066.298.066.398m-25.319-6.588q-.066.133-.198.364a7 7 0 0 1-.232.497q-.033.098 0 .165.033.033.033.1.033.065.166.132a.9.9 0 0 1 .231.165q.1.066.331.232.232.132.431.265 1.423.993 5.328 2.813.265.132 1.159.563t1.357.661q.497.2 1.257.53.794.298 1.49.497.695.198 1.39.297 1.456.199 2.251.596.33.133.331.464 0 .33-.298.562-.266.2-.662.133-.795.066-3.343-.695a32 32 0 0 1-2.681-.96 77 77 0 0 1-3.21-1.424 117 117 0 0 0-2.615-1.257q-.332-.132-1.754-.894-1.39-.794-2.052-1.026-.133-.033-.398.232a10 10 0 0 0-.562.629q-.298.396-.563.761-.264.364-.563.794l-.397.53q-.596.827-2.747 3.442a1 1 0 0 1-.165.199 1.5 1.5 0 0 0-.133.198.7.7 0 0 1-.132.166.7.7 0 0 1-.166.132 1 1 0 0 1-.132.1q-.066.065-.132.066h-.166a.35.35 0 0 1-.198-.067 1 1 0 0 0-.166-.132q-.397-.331-.232-.794.166-.497.464-.894.297-.397.496-.53a6.7 6.7 0 0 0 1.49-1.29q.728-.828 1.787-2.317a72 72 0 0 1 1.191-1.688q.894-1.16 1.688-3.045.828-1.888.828-3.244-.033-1.191.529-1.29.43-.067.662.661 0 .1.033.199.232 1.787-1.026 4.402m-22.572-2.053a.3.3 0 0 1 .033.1q0 .133-.232.265-.264.231-.96 1.589-.695 1.323-.926 1.555a52 52 0 0 0-1.953 2.88 54 54 0 0 1-1.456 2.316q-.43.63-.431.894 0 .132.066.232.1.067.1.165 0 .199-.431.761-.43.53-.463.63-.231.43-.794.43a.76.76 0 0 1-.43-.133.31.31 0 0 1-.133-.265v-.231q.033-.33.695-1.688t.96-1.688q.265-.365 1.357-2.151 1.125-1.788 1.423-2.086.265-.264.993-1.688.762-1.455.761-1.853-.033-.397-.463-.397-.265 0-.927.265-.629.264-.728.264-.231.133-1.158.43-.894.299-1.159.298-.397 0-.397-.463 0-.364.166-.695.132-.199.496-.397.397-.232.596-.232h.033q1.622-.33 4.733-1.787a.7.7 0 0 0 .43-.199q.2-.198.265-.364.066-.165.132-.496.1-.298.166-.397.199-.761 1.489-2.648.166-.397.629-.397.364 0 .563.297.264.332.264.464t-.43.629q-.33.363-.728 1.026-.397.662-.397.927 0 .132.165.132.265 0 1.159-.43.496-.2 2.085-.993 1.589-.829 2.747-1.192a1 1 0 0 1 .298-.066q.297 0 .563.199.264.165.264.364 0 .132-.132.264-.231.431-1.953 1.026a5 5 0 0 0-.596.232q-.33.166-.529.232-.166 0-.265.165-.264.266-1.357.795-1.059.53-2.184.86-.696.233-1.357.927-.663.662-.662 1.191zm3.773 14.895q-.331-.729-.331-1.159 0-.264.132-.264.133 0 .397.33.265.3.365.63.198.561.43.562.298 0 .43-1.125.132-1.026.132-2.615v-.232q0-.563-.099-.662-.563.133-1.886.695-1.291.563-2.019.596-.43 0-.563.133-.099.066-.166.827a77 77 0 0 1-.198 3.078 1.1 1.1 0 0 1-.298.596q-.231.231-.496.232a.57.57 0 0 1-.365-.133q-.364-.297-.364-.894l.133-1.026q.132-.53.364-3.64t.364-3.972q.132-.662.199-2.88.066-2.25.331-2.912.099-.397.794-.397.463 0 .662.198.198.133.198.331 0 .233-.264.795-.232.529-.232.695v.033a1 1 0 0 0-.033.231q0 .265.165.265.232 0 .927-.695.661-.629 1.026-.86.397-.265 1.125-.464.463-.099.762-.099.43 0 .662.265.264.231.529.86.2.464.232.828.033.364.033 1.886l.033 2.152q.53.265.629.364a.32.32 0 0 1 .132.265q0 .264-.397.86-.298.464-.397.662-.066.198-.066.629 0 .53-.066.927a6 6 0 0 0-.034.496 95 95 0 0 1-.264 3.773q0 .662-.067.86-.033.166-.198.398-.298.397-.695.397-.298 0-.53-.265l-.43-.43q-.398-.43-.728-1.125m1.555-10.161q.133-.165.133-.497 0-.132-.033-.496-.067-.762-.166-.993-.099-.265-.331-.265-.33 0-1.125.629l-.132.132q-.2.233-.795.729-.563.463-.761.661a.9.9 0 0 1-.43.331q-.364.133-.464.828v.298q0 .496.398.496.53 0 1.555-.53 1.06-.528 1.688-.992.364-.165.463-.331m.067 1.986q-.067-.232-.265-.232-.298 0-1.324.629-1.06.629-1.556.794-1.191.331-1.29.728-.067.232-.067.828 0 .695.232.695.695 0 2.118-.563 1.423-.595 2.119-1.125.099-.066.099-.828 0-.695-.066-.926m-31.841-13.272q-.397 0-.198-.728.099-.165.132-.993t.232-.894q.397-.198.695 0 .331.165.331.63.066.397.165.496.133.132 1.788-.828 1.423-.893 2.581-.463.298.132.695.53.43.397.497.628.099.233.066.894 0 .662-.099 1.092-.166.596-.894 1.953-.728 1.324-1.158 1.754a3 3 0 0 1-1.391.828q-.827.198-1.39-.1-.298-.132-.364-.099-.066 0-.099.265a1 1 0 0 1-.066.198q-.067.596-.397.828-.332.198-.695-.133-.265-.364-.1-2.316.166-1.986.067-2.516-.1-1.026-.398-1.026m5.792-.596q0-.395-.066-.53-.033-.131-.231-.33-.332-.33-.662-.298-.332 0-.96.331-.53.297-2.284 1.456-.033.133.066.828.1.695.133.76.166.167.628-.628.232-.33.729-.728.53-.397.926-.53 1.225-.43 1.457.133.165.43.231-.066.033-.165.033-.398m-.331 1.225q.067-.166 0-.166-.066-.032-.331.1-.496.198-.695.298-.165.066-.43.298a4.2 4.2 0 0 0-.629.628l-.695.762-.033.629q0 .462.033.595.033.1.199.199.198.099.298.066.099-.066.496-.463.861-.729 1.787-2.946m2.483 5.329q.1.264-.431.728-.529.43-.761.364-.132 0-.397.132a2.8 2.8 0 0 0-.596.331q-.33.2-.595.397a78 78 0 0 1-.894.63q-.398.395-1.158.86-.729.463-1.093.794a4.3 4.3 0 0 1-.662.464q-.364.232-.562.463-.331.198-1.126.629-.761.43-1.621 1.026-.696.463-.861.463-.232 0-.463-.198-.2-.232-.199-.43-.066-.364.728-.894.795-.563 1.953-1.159 1.191-.628 1.556-.96.694-.53 1.456-1.092.794-.596 1.224-.893.464-.298 1.556-.993l1.39-.927q.696-.463 1.125-.364.43.066.431.629m-3.542 3.64q.331 0 .397.497.1.463.133 2.35 0 .264-.099 1.092-.134 1.026 0 1.158.132.133.728-.53.264-.33.993-1.025.728-.729 1.059-1.192.232-.364.397-.496.199-.165.397-.464.563-.727.96-.628.86.23-.463 1.82-1.291 1.59-3.509 3.906-1.026 1.026-1.555.86-.398-.166-.497-.463-.066-.33.066-1.126.265-1.688.331-3.905.067-1.49.232-1.655a.53.53 0 0 1 .43-.199m-1.688 9.202q.166-.034.728.198.564.232.629.232.86.165 2.317.794 1.457.63 1.986.794.628.2 1.953.828 1.357.596 2.217.86l.795.232q.563.198.926.298.364.132.96.199.629.099 1.258.099.76.033 1.026.165.264.165.265.53 0 .76-1.093.761-.76 0-2.912-.562-2.118-.563-2.714-.861-.695-.397-2.185-.927-1.488-.53-2.018-.794a14 14 0 0 0-1.688-.695 38 38 0 0 0-2.383-.794 48 48 0 0 1-1.854-.63q-.165-.065-.927-.198-.728-.132-.926-.232-.299-.231-.563.067-.232.297-.497.794-.23.496-.397.596-.43.661-1.158 1.522-.729.828-1.159 1.126-.232.131-.628.53-.43.397-1.059.76-.63.398-.894.398-.728.032-.563-.663.132-.628.563-.794a.4.4 0 0 1 .232 0q.33-.033.496-.165.364-.232 1.423-1.324 1.093-1.092 1.258-1.39.231-.397.43-.63 1.06-1.522 2.416-4.93.2-.663.828-.497.463.033.562.165.1.1-.099.43-.198.165-.364.53-.132.33-.298.828-.165.463-.265.695-.264.629-.198.662.1.033.86.198.795.165 1.258.331.497.133.794.298.398.165.662.166m-25.385-8.771q.364 0 1.854-.63 1.488-.629 1.919-.992.034-.133.298-.166.298-.066.662-.033.364 0 .497-.066.099-.033 1.489-.232 1.423-.198 1.522-.264.332-.1 1.721-.034 1.424.034 1.722.166 2.548 1.192-.034 5.295-1.026 1.456-1.985 2.119a3.6 3.6 0 0 1-2.086.662q-.43 0-.595-.067-.166-.065-.133-.231 0-.165.331-.298.332-.133.761-.265.43-.132.563-.232.562-.33 1.258-1.059.695-.761 1.059-1.423.464-.563.728-1.688.266-1.06-.066-1.39-.331-.364-1.721-.463-.497-.066-1.622.099-1.125.133-2.019.33-.894.2-.893.266-.2.33-.166 1.059.033.728.132 1.886.133 1.126.1 1.39 0 2.053-.497 5.13-.165 1.06-.397 1.258-.331.298-.629.166-.264-.165-.331-.53a1.24 1.24 0 0 1 .066-.695q.464-1.125.53-4.303.1-3.177-.298-4.468-.066-.297-.43-.264-.331.033-.629.198a55 55 0 0 0-.728.331q-.398.2-.596.232-.264.099-.331.198-.033.1.099.364.1.232-.132 1.225-.397 1.687-.199 2.085.232.365.067.728a.6.6 0 0 1-.464.398q-.297.032-.595-.298l-.398-.364.133-1.39q.033-.564.099-1.225.099-.695.099-.96-.066-.166-.562.033-.463.199-1.258.596-.762.364-.993.463-.496.165-1.39.662t-1.125.728q-.133.165-.331.298l-.298.199q-.066.033-.033.265.033.198.231.595.43.795-.033 1.093-.363.231-.695-.067-.33-.33-.728-1.357-.033-.066-.232-.53l-.298-.694a4.4 4.4 0 0 0-.33-.596 5 5 0 0 0-.398-.629q-.464-.363-.198-.827.264-.465.728-.563.596 0 .86 1.092.067.332.298.695.232.365.298.53l.133.298q.132-.265.198-.53.1-.297.166-.364.066-.099.298-.232.264-.165.86-.463a9 9 0 0 1 .993-.463q.43-.165.596-.199.198-.066.529-.33.332-.266.861-.828.595-.596 1.158-1.225.563-.662.828-.993.297-.33.96-1.258.695-.926.926-1.224.762-.96.629-1.192-.066-.132-1.489.166-1.854.397-4.468.596a.5.5 0 0 1-.166-.232 7 7 0 0 1-.066-.397q-.033-.265-.066-.298-.066-.364.165-.43.232-.067 1.423-.033 1.06.1 2.45-.199 1.389-.33 2.052-.397.43 0 .761-.066.331-.1.364-.1.066 0 .43.166.2.198.133.695a3.8 3.8 0 0 1-.431 1.125 9 9 0 0 1-.496.894q-.199.298-.761.993-.563.662-.662.76-.596.795-1.093 1.325-.661.86-.463.893m166.867 34.718q-.2.882-.199 1.31v.086q-.257 2.734-2.023 6.324-.37.826-.656 1.197-.284.37-.883.826-.712.513-1.111.513-.285 0-.798-.2-.626-.255-.769-.37-.114-.114-.313-.513-.143-.284-.143-.484 0-.17.228-.17.2 0 .656.227.455.228.683.228.256 0 .798-.228.484-.228.855-.684.37-.427.513-.797.17-.342.427-1.026.228-.656.37-.997.171-.371.228-.541t.2-.656q.114-.484.228-.826.142-.456.199-1.339.085-.912.228-1.396.142-.627.142-.855 0-.285-.256-.285-.228 0-.826.798-.399.541-.741.798-.313.256-.826.399a1.2 1.2 0 0 1-.314.057q-.143 0-.398-.114a1.7 1.7 0 0 1-.684-.57q-.256-.37-.513-1.282-.627-2.023-.627-3.077 0-.997.456-.997.399 0 .712 1.339 0 .456.57 2.08.228.626.285.854.114.542.456.542a.55.55 0 0 0 .285-.086q.684-.513 1.738-2.421 1.053-1.91 1.225-3.078 0-.227.228-.398a.83.83 0 0 1 .512-.171q.342 0 .542.228a.77.77 0 0 1 .228.57q0 .227-.143.655a23 23 0 0 0-.399 1.738q-.171.996-.171 1.481 0 .4-.199 1.31m-9.231 3.22a.5.5 0 0 1-.143.029q-.484 0-1.225-2.052a4.5 4.5 0 0 0-.484-.826 5.7 5.7 0 0 1-.456-.883q-.428-.94-.684-.94-.171 0-.513.54a8 8 0 0 1-.313.428q-1.111 1.68-2.222 2.28-.627.34-1.197.341-1.025 0-1.253-.854a3.5 3.5 0 0 1-.086-.798q0-1.31.855-3.248.2-.484.456-.798.257-.313.854-.911.94-.912 1.226-1.083.284-.171 1.082-.342h.057q.114 0 .285.086.17.057.313.142.171.086.371.257.228.142.342.256.143.085.342.256.2.143.228.171a.8.8 0 0 1 .256.342q.057.172.085.883.057.741.143 1.026t.541 1.168a20 20 0 0 1 1.225 2.906q.285.826.285 1.111a.5.5 0 0 1-.142.37.5.5 0 0 1-.228.143m-7.379-2.991q0 .54.456.54.513 0 1.567-1.11a9.9 9.9 0 0 0 1.823-2.564q.285-.485.285-.883 0-.827-.912-.94-.399 0-.684.17-.255.172-.883.855-1.281 1.34-1.51 2.877-.142.798-.142 1.055m-4.53-8.861q0-.54.314-.541.228 0 .513.342.312.342.512.712.086.37.086.798 0 .598-.228 1.68a39 39 0 0 0-.257 1.454q-.085.826-.256 1.339a22 22 0 0 0-.199.57 18.4 18.4 0 0 1-.912 2.592q-.541 1.311-1.054 2.051-.484.712-1.083.712-.769 0-1.367-1.253a70 70 0 0 1-.741-1.795q-.598-1.482-.997-2.137a16 16 0 0 1-.513-.997 5 5 0 0 0-.456-.912q-.285-.284-.37-.284-.114 0-.285.228-.171.198-.484.826-.313.598-.513 1.025-.2.428-.713 1.51-.94 2.024-1.253 2.507-.285.485-.541.485t-.599-.342q-.228-.256-.228-.94 0-.485.086-1.453.085-.998.085-1.31 0-.57-.114-1.967a39 39 0 0 1-.085-1.965q0-.827.142-1.055a.45.45 0 0 1 .399-.227.54.54 0 0 1 .428.199q.114.142.256 1.396.142 1.253.142 2.28 0 .312-.028.569v.37q0 .656.228.656.285 0 .684-.94.313-.799 1.054-1.966.598-.97.883-1.282.285-.342.57-.342h.028a1 1 0 0 0 .2.028q.313.114.655.57.37.427.57.826t.513 1.083q.255.54.37.77.484 1.025.969 2.478.34 1.054.512 1.453.2.399.399.399.114 0 .143-.086.655-.854 1.282-2.336.627-1.51.797-2.85.029-.198.314-1.623t.285-2.108q0-.314-.086-.656a3.5 3.5 0 0 1-.057-.54m-20.855 8.632v.284q0 .427.114 1.026.114.57.256.826.171.256.171.456 0 .257-.199.37a.7.7 0 0 1-.314.086q-.37 0-.712-.484a3 3 0 0 1-.313-.513q-.057-.228-.086-.997-.085-1.282-.256-1.624-.171-.228-.171-.428 0-.227.228-.626.228-.428.256-.627.143-1.14.456-2.564.342-1.454.428-2.25.028-.343.199-.913.17-.57.199-.883.029-.399.2-.627.2-.256.456-.256l.228.057q.285.342.284.57 0 .085-.085.456a8 8 0 0 0-.085.74q-.086 1.054-.485 2.935-.37 1.851-.37 2.194 0 .341.285.341.057 0 .171-.028.256-.085 1.282-1.14 1.053-1.082 1.481-1.652.428-.655.655-.77a.66.66 0 0 1 .371-.113q.256 0 .427.17.2.144.2.343 0 .114-.2.37-.2.255-.484.57-.257.314-.37.513-.685 1.082-1.624 1.68a3.6 3.6 0 0 0-.656.57q-.285.314-.285.513 0 .285.855.342.94.114 3.106 1.225.968.484 1.225.684.256.17.256.37 0 .484-.684.484-.285 0-1.538-.427-1.254-.456-1.738-.74-.17-.086-.883-.229-.713-.142-.883-.256a1.9 1.9 0 0 0-.912-.228.7.7 0 0 0-.314.057q-.114.057-.142.143m-7.834-1.283.057.057h.028q.143-.17.542-.712.399-.54.712-.855.228-.198.684-.683.484-.513.883-.883a4.4 4.4 0 0 1 .712-.599q.314-.17.428-.17t.284.113.171.228q0 .2-.427.684-.4.485-1.766 1.88-.399.399-1.368 1.795t-1.111 1.539q-.142.141-.541.883-.399.712-.456.826-.17.2-.484.2-.513 0-.513-.4 0-.312.342-.968.57-.94.569-2.764 0-2.393-.256-2.792a.7.7 0 0 1-.228-.513q0-.17.143-.313a.46.46 0 0 1 .341-.142q.485 0 .827.769.342.77.342 1.766 0 .2-.029.37v.228q0 .143.029.285zm-5.527-2.934q1.082.626 1.082 1.539 0 .341-.227.911-.541 1.397-1.995 2.564-1.453 1.17-2.592 1.169-.94 0-1.425-.855-.484-.855-.484-1.966 0-1.368.712-2.25.741-.884 2.108-1.596a1.8 1.8 0 0 1 .741-.143q1.026 0 2.08.627m-.712 2.906q.626-.798.626-1.14 0-.397-.655-.826-.513-.313-1.253-.313-.456 0-.741.142a4 4 0 0 1-.399.171q-.313.143-.456.314-.142.143-.427.74-.428.884-.428 1.197 0 .257.171.855.257.855.741.855.2 0 .541-.143 1.254-.513 2.28-1.852m-8.262-7.322q0-.54.313-.541.228 0 .513.342.314.342.513.712.085.37.085.798 0 .598-.228 1.68a41 41 0 0 0-.256 1.454q-.085.826-.256 1.339-.114.313-.2.57a18.5 18.5 0 0 1-.911 2.592q-.542 1.311-1.055 2.051-.483.712-1.082.712-.77 0-1.368-1.253a68 68 0 0 1-.74-1.795q-.599-1.482-.998-2.137a16 16 0 0 1-.512-.997 5 5 0 0 0-.456-.912q-.285-.284-.371-.284-.114 0-.285.228-.17.198-.484.826-.313.598-.513 1.025-.2.428-.712 1.51-.94 2.024-1.254 2.507-.284.485-.541.485-.256 0-.598-.342-.228-.256-.228-.94 0-.485.085-1.453.086-.998.086-1.31 0-.57-.114-1.967a39 39 0 0 1-.086-1.965q0-.827.143-1.055a.45.45 0 0 1 .399-.227q.256 0 .427.199.114.142.257 1.396.142 1.253.142 2.28 0 .312-.028.569v.37q0 .656.227.656.285 0 .684-.94.313-.799 1.054-1.966.599-.97.884-1.282.284-.342.569-.342h.029a.8.8 0 0 0 .199.028q.314.114.655.57.37.427.57.826t.513 1.083q.257.54.37.77.484 1.025.969 2.478.342 1.054.513 1.453.2.399.399.399.114 0 .142-.086.655-.854 1.282-2.336.627-1.51.798-2.85.028-.198.313-1.623t.285-2.108a2.7 2.7 0 0 0-.085-.656 3.5 3.5 0 0 1-.057-.54m-25.869 8.247q0 .399-.2.484-.2.114-1.282.143-1.197.028-1.652.142-1.254.343-1.71.37-.427.057-1.937.086a86 86 0 0 1-3.162 0q-1.111-.028-1.368-.085a26 26 0 0 0-.997-.086 42 42 0 0 0-2.08-.085q-1.48-.03-1.766-.057a.76.76 0 0 1-.399-.143q-.171-.171-.171-.285 0-.085.029-.114.028-.029.313-.228.37-.256.997-.313.656-.057 2.222.028 3.647.172 6.98.143 1.026.057 2.194-.228 1.169-.285 1.88-.313 1.568-.086 1.824 0 .285.057.285.54" fill="#FCFCFD"/></svg>