<svg width="160" height="120" viewBox="0 0 160 120" fill="none" xmlns="http://www.w3.org/2000/svg"><path d="M79.162 0c9.69.013 19.745 3.735 26.996 10.308 1.791 1.622 3.38 3.522 4.85 5.443 6.104 7.979 7.765 15.475 9.123 25.23.716 5.141 1.363 10.219 3.32 15.064 1.938 4.8 3.972 6.62 6.976 10.538 3.186 4.157 5.335 9.192 5.62 14.484.107 1.979-.075 7.044-1.346 8.485 1.842.91 5.352 5.666 6.542 7.504 1.11 1.712 5.539 10.295 5.172 12.094 1.728.006 12.154-.287 13.015.272.288.189.523.599.563.944.028.254-.025.457-.201.646-.351.379-1.02.504-1.515.554-1.928.198-3.983.011-5.927.013l-12.971.006c.029.101.041.119.041.24-.005 1.344-1.055 3.123-1.991 4.024-1.099 1.06-2.207 1.358-3.689 1.32-.584.86-1.468 1.718-2.463 2.05-1.463.488-2.782-.107-4.08-.755-.043.086-.052.111-.123.194-.615.712-1.653 1.168-2.569 1.235-1.547.114-2.718-.49-3.848-1.501-.429.423-.849.804-1.379 1.093-.94.511-2.008.671-3.034.345-1.417-.45-2.207-1.539-2.859-2.819-.75.419-1.486.766-2.35.851-1.071.104-2.082-.223-2.909-.919-1.577-1.327-2.08-3.372-2.248-5.352l-25.56-.002-24.119-.001c-.167 1.395-.426 2.751-1.138 3.979-.608 1.049-1.536 1.956-2.732 2.241-1.316.314-2.452-.102-3.564-.797-.33.586-.668 1.154-1.134 1.642-.759.794-1.757 1.334-2.863 1.347-1.465.017-2.5-.777-3.506-1.763-.733.84-1.608 1.461-2.721 1.628-1.561.234-2.87-.489-4.077-1.405-1.021.668-2.048 1.151-3.292.963-1.395-.212-2.297-1.168-3.107-2.255-1.034.04-1.936.017-2.88-.467-1.93-.992-2.662-3.165-3.28-5.117l-14.542-.007c-1.888-.007-3.896.176-5.77.014-.428-.037-.945-.122-1.279-.416-.216-.189-.298-.467-.312-.749a1.12 1.12 0 0 1 .286-.816c.224-.244.485-.355.808-.4 1.363-.193 2.88-.071 4.257-.069l8.179.001c2.465-6.969 5.724-12.368 11.053-17.446-1.05-2.654-1.674-5.379-1.772-8.243-.21-6.118 1.805-11.828 5.46-16.676 3.125-4.143 5.486-6.41 7.417-11.46 1.61-4.209 2.266-8.63 2.896-13.071 1.685-11.88 3.495-20.503 11.883-29.62 2.137-2.322 4.626-4.294 7.257-6.008C64.423 2.256 71.235.268 79.162 0" fill="#1B1813"/><path d="M66.337 31.354c.288.291.523 2.454.745 3.033a28 28 0 0 0 3.889 6.954c2.873 3.706 8.36 8.029 13.148 8.48.342.032.538.039.803-.183-.004-.308-.095-.481-.267-.734-.5-.735-1.223-1.319-1.739-2.045-2.296-3.232-4.037-7.464-4.213-11.46a19 19 0 0 0 2.217 3.435c7.182 8.897 16.41 12.316 27.388 13.408-.938 11.539-1.028 16.99-7.532 27.223a33 33 0 0 1-3.303 3.843c-4.803 4.772-10.989 7.963-17.803 7.87-7.319-.099-14.388-3.73-19.429-8.998-8.707-10.04-9.155-17.945-9.999-31.31 8.223-4.411 12.554-10.965 16.095-19.516" fill="#FFD6B6"/><path d="M59.641 67.779c.98-.008 1.941.15 2.825.599 1.143.58 2.06 1.584 2.454 2.826a4.78 4.78 0 0 1-.315 3.616c-.703 1.368-1.854 2.094-3.27 2.536-1.338.136-2.575-.185-3.64-1.033a5.64 5.64 0 0 1-2.09-3.746c-.133-1.162.103-2.353.84-3.276.82-1.025 1.944-1.4 3.196-1.522m38.543.005c.997-.023 1.945.029 2.853.492a3.7 3.7 0 0 1 1.881 2.225c.419 1.337.188 2.827-.466 4.046-.841 1.567-2.103 2.315-3.738 2.82a4.4 4.4 0 0 1-3.169-.85 4.9 4.9 0 0 1-1.872-3.263c-.161-1.28.235-2.614 1.013-3.628.882-1.15 2.1-1.68 3.498-1.842" fill="#FFAC7F"/><path d="M83.527 79.591a1.07 1.07 0 0 1 1.319-.684c.552.165.874.74.741 1.3l-.014.054c-.785 2.7-3.37 3.913-5.669 3.94-2.244.025-4.787-1.093-5.457-3.693l-.03-.125-.011-.054a1.09 1.09 0 0 1 .813-1.255 1.073 1.073 0 0 1 1.278.759l.014.054.015.06c.329 1.273 1.657 2.092 3.354 2.073 1.706-.02 3.2-.895 3.63-2.375z" fill="#000"/><path d="M64.141 52.048c1.742-.185 4.508-.117 5.916 1.044.304.25.477.557.495.957.012.27-.076.562-.266.756-.675.692-3.008-.167-3.886-.294-.54-.078-1.116-.06-1.66-.06-1.707.305-3.978 1.89-5.424 1.395-.132-.128-.27-.215-.306-.406-.067-.361.18-.82.378-1.101 1.083-1.54 3.026-2.003 4.753-2.291m27.716-.01c.508-.028 1.021-.059 1.53-.046 1.722.042 4.326.64 5.524 2.004.35.4.531.774.516 1.312-.145.29-.208.452-.541.563-.89.296-1.888-.346-2.664-.736-1.09-.442-2.08-.681-3.262-.66-1.156.02-3.633 1-4.561.512-.185-.097-.284-.323-.341-.522a1.03 1.03 0 0 1 .117-.81c.683-1.05 2.565-1.408 3.682-1.617M77.165 68.884c1.008.276 1.211 1.253 1.923 1.902.722.658 1.841.758 2.46 1.568.05.204.119.344.059.553-.138.48-.723.867-1.128 1.101a9 9 0 0 1-.917-.163c-1.217-.293-2.545-1.355-3.182-2.437-.253-.429-.397-.933-.257-1.426.17-.596.538-.829 1.042-1.098" fill="#1B1813"/><path d="M104.941 77.426q1.68.388 3.347.826c11.934 3.098 25.115 10.072 31.568 21.174.866 1.49 4.191 8.24 3.815 9.707l-3.628-.006c.116-.158.183-.329.222-.522.339-1.618-.504-3.698-1.387-5.011-2.585-3.839-8.265-5.845-12.587-6.68-7.038-1.362-14.826-.217-20.804 3.934-2.944 2.043-4.607 4.766-5.265 8.293l-38.44-.002c-.328-2.003-1.094-3.843-2.34-5.442-3.75-4.813-10.426-6.529-16.13-7.234-1.34-.047-2.682-.088-4.024-.032-5.317.223-12.257 2.016-15.967 6.165-1.709 1.91-2.249 3.998-2.139 6.518l-4.847-.006c.893-2.656 1.921-5.183 3.309-7.616C26.766 89 41.976 82.967 55.043 79.438c2.426 3.484 5.189 6.25 8.606 8.728.081 4.14 1.483 8.286 4.414 11.251 3.45 3.49 8.387 4.93 13.168 4.884 4.569-.044 9.266-1.567 12.497-4.957 3.442-3.611 4.34-8.404 4.241-13.234 2.804-2.605 4.996-5.398 6.972-8.684" fill="#778EEE"/><path d="M39.684 98.829c5.044-.13 10.209.75 14.545 3.488 2.637 1.665 4.315 3.743 5.025 6.825l-2.94.003c.003-.693.033-1.395.001-2.087-.017-.369-.12-.75-.42-.987a1.08 1.08 0 0 0-.803-.237c-.415.054-.719.359-.836.758-.166.561-.082 1.369-.092 1.958-.037 2.051-.118 5.053-1.568 6.626-.292.317-.651.51-1.085.487-4.355-.233-1.343-8.851-3.024-10.619-.227-.072-.308-.13-.535-.056-2.4.778-.1 8.972-1.45 11.541-.256.488-.656.93-1.198 1.078-.79.216-1.353-.075-2.027-.445-2.631-3.569-1.307-11.067-2.155-12.188-.16-.213-.453-.385-.72-.398a1 1 0 0 0-.812.331c-.598.672-.367 2.828-.367 3.694-.017 2.416.396 4.816.89 7.17-.308.589-.601 1.153-1.148 1.549-.407.296-.886.44-1.383.344-2.508-.487-3.15-5.635-3.318-7.669-.091-1.103.22-3.685-.396-4.549-.258-.36-.638-.533-1.05-.575-1.429.921-.477 7.099-.161 8.636.158.771.547 1.614.621 2.374.02.2-.048.386-.146.556-.234.402-.91.652-1.34.741-.34.071-.679.005-.964-.198-1.403-1.002-1.923-4.506-2.09-6.194-.082-.832-.052-1.849-.266-2.646-.082-.303-.194-.42-.467-.55-.286-.136-.564-.108-.852.005-1.758.686.52 5.995.012 7.158q-.08.013-.16.022c-.524.049-1.05-.285-1.427-.62-1.394-1.238-2.012-3.961-2.119-5.766-.098-1.653.542-3.052 1.618-4.27 3.32-3.754 9.878-5.047 14.607-5.29m79.958-.001c3.687-.072 7.331.449 10.801 1.741 2.678.996 5.951 2.668 7.17 5.426.695 1.574.233 4.319-.357 5.879-.439 1.161-1.24 2.622-2.414 3.149-.059-.083-.223-.258-.246-.347-.091-.326.62-4.051.66-4.845.032-.636.098-1.605-.409-2.079-.274-.258-.473-.265-.821-.275-1.359.829-.785 6.927-2.658 9.119-.282.329-.628.557-1.067.575-.473.019-1.138-.248-1.47-.604-.238-.258-.202-.355-.173-.702.089-1.013.473-2.119.684-3.126.366-1.73.56-3.576.567-5.346.002-.678-.052-1.764-.608-2.235-.24-.204-.394-.179-.683-.125-.412.292-.611.667-.728 1.161-.197.83-.093 1.774-.15 2.629-.144 2.084-.489 4.239-1.146 6.223-.308.938-.806 2.029-1.745 2.465a1.9 1.9 0 0 1-1.51.036c-.718-.278-1.088-.965-1.401-1.624.306-1.529.58-3.043.763-4.592.138-1.646.248-3.354.172-5.004-.028-.615-.107-1.197-.577-1.634-.323-.15-.609-.182-.947-.038a1.06 1.06 0 0 0-.624.785c-.189.893-.062 1.954-.07 2.868-.022 2.406-.156 5.375-1.114 7.61-.306.713-.775 1.355-1.529 1.618-.522.183-1.031.167-1.524-.093-2.053-1.082-1.32-3.809-1.18-5.609.106-1.371.259-4.837-.12-5.986-.112-.34-.543-.714-.872-.843-.259-.102-.32-.057-.561.042-1.286 1.633-.145 6.606-1.203 9.114-.234.555-.62 1.098-1.203 1.304a1.94 1.94 0 0 1-1.472-.102c-2.656-1.342-1.519-6.658-2.305-8.966-.149-.439-.272-.619-.672-.826-.358.062-.595.239-.844.507-.618.665-.401 2.199-.385 3.059l-2.961.014c.413-1.783 1.058-3.262 2.275-4.644 3.61-4.098 9.497-5.364 14.657-5.68m-24.199-10.55.113.143c.049.582-.031 1.154-.115 1.729-.496 3.43-2.242 6.737-5.024 8.8-3.48 2.583-8.178 3.312-12.384 2.664-3.86-.596-7.261-2.384-9.615-5.615-1.28-1.955-1.962-4.028-2.392-6.31 2.773 1.62 5.698 2.81 8.848 3.427 7.654 1.502 14.218-.478 20.569-4.838M112.53 50.54c.436-.046.926-.08 1.36-.012.997.156 1.987.798 2.585 1.613 1.144 1.562 1.282 3.666 1.003 5.527-.461 3.075-1.776 5.846-4.28 7.712-1.36.893-2.446 1.186-4.062 1.296.946-3.405 1.548-7.002 2.009-10.512.172-1.309.058-3.901.467-5.028.122-.337.615-.457.918-.597m-67.962-.031c.848-.03 1.648.281 2.439.552.475 5.31 1.197 10.442 2.457 15.625a8.5 8.5 0 0 1-2.51-.534c-1.894-.823-3.411-2.536-4.325-4.377-1.084-2.185-1.854-5.645-1.038-8.022.525-1.53 1.558-2.556 2.977-3.244" fill="#FFD6B6"/><ellipse cx="65.964" cy="63.417" rx="3.226" ry="3.271" fill="#1B1813"/><ellipse cx="92.313" cy="63.417" rx="3.226" ry="3.271" fill="#1B1813"/></svg>