<svg width="12" height="12" viewBox="0 0 12 12" fill="none" xmlns="http://www.w3.org/2000/svg"><path d="M6 8.5q.213 0 .356-.144A.48.48 0 0 0 6.5 8a.48.48 0 0 0-.144-.356A.48.48 0 0 0 6 7.5a.48.48 0 0 0-.356.144A.48.48 0 0 0 5.5 8q0 .212.144.356A.48.48 0 0 0 6 8.5m-.5-2h1v-3h-1zM6 11a4.9 4.9 0 0 1-1.95-.394 5 5 0 0 1-1.587-1.069 5 5 0 0 1-1.07-1.587A4.9 4.9 0 0 1 1 6q0-1.038.394-1.95a5 5 0 0 1 1.069-1.587q.675-.675 1.587-1.07A4.9 4.9 0 0 1 6 1q1.038 0 1.95.394a5 5 0 0 1 1.587 1.069q.675.675 1.07 1.587Q11 4.962 11 6t-.394 1.95a5 5 0 0 1-1.069 1.587q-.675.675-1.587 1.07A4.9 4.9 0 0 1 6 11m0-1q1.675 0 2.838-1.162Q10 7.675 10 6T8.838 3.163 6 2 3.163 3.163 2 6t1.163 2.838T6 10" fill="currentColor"/></svg>