<svg width="124" height="48" viewBox="0 0 124 48" fill="none" xmlns="http://www.w3.org/2000/svg"><path d="m118.557 43.102 2.061-4.809h2.091l-2.793 6.586a10 10 0 0 1-.852 1.628q-.447.717-1.06 1.105-.612.388-1.479.388-.462 0-.821-.06a3 3 0 0 1-.702-.18v-1.417q.254.09.464.119.223.03.447.03.612 0 .941-.284.344-.284.687-.956l-3.166-6.959h2.105zm-40.699-4.958q1.987 0 2.912.97.942.956.942 2.718t-.926 2.733q-.926.957-2.928.956-1.986 0-2.912-.956-.925-.97-.925-2.733 0-1.762.925-2.718.94-.97 2.912-.97m32.518 0q1.597 0 2.464.657.88.642.881 2.075v4.496h-1.747l-.105-.642a3 3 0 0 1-1.03.582q-.612.209-1.538.209-.672 0-1.255-.239a2.3 2.3 0 0 1-.926-.732q-.344-.493-.344-1.225 0-1.044.732-1.672.747-.627 2.195-.627h2.091v-.195q0-.657-.373-.926-.359-.268-1.464-.268-1.21 0-2.329.373v-1.418q.492-.195 1.194-.315.717-.134 1.554-.133m-22.723 1.523q-.403.06-.88.179-.478.12-.912.268-.433.15-.732.315v4.943h-2.016v-7.079h1.867l.09.732q.477-.3 1.179-.539.717-.254 1.404-.342zm11.583 3.226 1.18-3.689v-.911h1.538l1.345 4.6 1.045-4.6h2.001l-1.852 7.08h-1.851l-1.36-4.139-1.388 4.138h-1.882l-1.868-7.079h2.017zM65.51 42.25l1.568-5.242v-1.254h1.643l1.852 6.512 1.493-6.512h1.972l-2.226 9.617H69.9l-1.761-6.152-1.897 6.152h-1.927l-2.24-9.617h1.987zm25.19-1.403 2.644-2.554h2.3L92.79 41.19l3.018 4.181h-2.136l-2.15-3.12-.823.791v2.33h-2.015V35.305H90.7zm19.048 1.433q-1.18 0-1.18.971 0 .94 1.285.94.671 0 1.165-.223.492-.225.776-.568v-1.12zm-31.89-2.42q-.956 0-1.374.449-.418.432-.418 1.523t.418 1.538q.42.434 1.374.434.972 0 1.39-.434.418-.448.418-1.538t-.418-1.523q-.418-.449-1.39-.449M42.76 3.49c6.806 0 12.322 5.516 12.322 12.32v13.82a12.3 12.3 0 0 1-3.598 8.532v6.871h-1.418c-.55 0-1.132-.158-1.65-.346a14 14 0 0 1-1.732-.793 27 27 0 0 1-3.306-2.128q-.232.01-.467.014l-.15.001H34.8a12.27 12.27 0 0 1-7.616-2.638 10.5 10.5 0 0 0 2.11-1.96 9.44 9.44 0 0 0 5.507 1.763h8.075q.403-.005.799-.044l.561-.052.445.345c1.105.861 2.296 1.642 3.337 2.199q.332.176.63.316v-4.785l.467-.422a9.5 9.5 0 0 0 1.962-2.483H38.182v-2.944h13.927q.126-.726.137-1.485l.001-.13v-2.2H41.453v-2.945h10.794V20.5h-7.85v-2.944h7.85V15.81a9.486 9.486 0 0 0-9.486-9.486H34.8l-.189.005a13 13 0 0 0-1.208-2.762q.688-.077 1.398-.078z" fill="#141A1F"/><path d="M21.608 0c5.46 0 10.02 3.86 11.098 8.999 1.581 5.305 3.392 14.758 3.404 14.825h-5.56v2.945h-5.234c0 1.799 1.811 4.269 4.199 4.27 0 1.962-2.76 7.015-8.779 7.015H12.34C6.077 38.054 1 32.977 1 26.714V11.34C1 5.077 6.077 0 12.34 0zm3.598 12.648a2.18 2.18 0 1 0 0 4.362 2.18 2.18 0 0 0 0-4.362" fill="#4A69E8"/><path d="M101.713 3.377q.52.98.979 2.14l.111.285q.377.978.591 1.7l.028.097-.092.033-1.799.648h5.579v2.917h-6.236v3.288h5.567v.349q0 .218-.03.491v.486a290 290 0 0 1-.213 6.298 78 78 0 0 1-.244 4.232l-.067.777q-.108 1.099-.269 1.791l-.099.429q-.155.598-.374.918l-.103.142q-.362.482-.79.684a3.1 3.1 0 0 1-1.062.344h.001a8 8 0 0 1-1.327.093q-.763 0-1.586-.03l-.091-.005-.009-.09q-.06-.568-.241-1.292l-.047-.17a4.5 4.5 0 0 0-.429-1.02l-.102-.175.201.017q.76.06 1.397.09.638.031.938.031c.216 0 .369-.03.47-.08l.038-.022q.136-.08.288-.28c.051-.078.103-.201.152-.378q.074-.265.134-.672v-.002h.001q.15-.814.272-2.333.122-1.549.212-3.981l.023-.632q.048-1.418.087-3.152h-2.737a51 51 0 0 1-.266 3.494 25.8 25.8 0 0 1-1.19 5.56h-.002q-.887 2.785-2.783 5.353l-.072.098-.086-.086q-.39-.39-.993-.842l-.002-.002a11 11 0 0 0-1.115-.783l-.097-.06.066-.092.108-.148q1.642-2.29 2.402-4.719a25.3 25.3 0 0 0 1.03-4.999l.03-.306q.213-2.288.214-4.307v-4.307h-3.104V8.28h5.552a13 13 0 0 0-.477-1.545l-.11-.29a33 33 0 0 0-.91-2.153l-.049-.107.112-.038 2.578-.848zM71.335 7.395h-1.31v24.428h-2.399v-5.768q-1.205.272-2.398.533h.001l-3.56.79-.102.023-.595-2.644.11-.018q.768-.123 1.676-.285V7.394h-1.46V4.6h10.037zm12.533-3.909.008 1q.037 3.478.144 6.724l.04.911q.007.18.016.357h5.42v2.674h-5.277q.09 1.488.197 2.868.16 1.847.354 3.416a26.6 26.6 0 0 0 2.117-5.11l.036-.12.112.056 2.301 1.167-.028.085a28.2 28.2 0 0 1-2.657 5.771 28 28 0 0 1-1.266 1.936q.248 1.13.515 1.897l.06.156q.211.529.433.804c.167.21.326.302.476.31.048 0 .125-.043.216-.217q.136-.254.256-.795l.03-.139q.22-1.064.334-2.857l.017-.276.17.218q.205.264.533.563.36.3.72.54.366.244.557.402l.044.037-.008.058q-.285 2.144-.737 3.39l-.06.163c-.326.835-.679 1.424-1.065 1.746-.355.333-.723.51-1.101.51h-.003c-.868-.02-1.607-.483-2.217-1.359l-.058-.086q-.655-.983-1.15-2.556l-.049.053-.25.266q-1.984 2.076-4.155 3.543l-.082.056-.06-.08a8 8 0 0 0-.752-.84 12 12 0 0 0-.87-.752l-.119-.09.124-.081q1.08-.705 2.105-1.572h-1.452v-.79h-3.471v2.19h-2.462v-13.26h8.333v11.012q.463-.438.914-.911l.237-.251q.674-.728 1.292-1.527a60 60 0 0 1-.614-4.405l-.12-1.22a123 123 0 0 1-.295-3.919H70.76V12.48h1.776q-.06-.462-.161-1.002l-.001-.002a19 19 0 0 0-.454-2.088l-.032-.113.116-.02 1.67-.277h-2.336V6.485h3.327q-.06-.184-.126-.379h-.001a72 72 0 0 0-.699-2.004l-.043-.119 2.496-.447.08-.015.035.076q.396.885.793 1.922l.095.253q.14.378.25.713h3.13v2.492h-2.6l1.782.308.12.02-.038.116a136 136 0 0 0-.668 2.128h-.001q-.141.494-.275.93h2.47q-.18-4.226-.27-8.99l-.002-.107h2.675zm29.685.437-.027.107a31 31 0 0 1-1.02 3.246h10.119v2.826h-11.356q-1.063 2.16-2.335 3.776h.006q1.97-.425 3.972-.94a60 60 0 0 0 3.763-1.154l.433-.151a28 28 0 0 0 2.599-1.062l.063-.029.052.046 2.373 2.117-.15.066q-1.678.732-3.753 1.373-.772.24-1.565.465.335 2.166.827 4.202.738-.651 1.455-1.345l.216-.21q.739-.729 1.268-1.363l.069-.083 2.203 1.941-.08.08a46 46 0 0 1-2.684 2.407l-.859.7q-.417.335-.812.637a21.5 21.5 0 0 0 1.574 3.642q1.268 2.233 3.133 3.525l.121.084-.119.087a5 5 0 0 0-.715.655q-.272.316-.525.649l-.168.224a10 10 0 0 0-.542.813l-.06.103-.095-.074q-2.087-1.627-3.465-4.17h-.001q-1.344-2.538-2.198-5.803h-.001a60 60 0 0 1-1.177-6.017l-.035.008a98 98 0 0 1-2.231.507v11.289l4.228-1.773v.157q0 .57.09 1.355.122.756.241 1.204l.024.087-.083.036-3.376 1.491q-1.307.609-2.037.943-.725.36-1.083.571-.33.24-.536.417l-.151.129-.019-.183a4.5 4.5 0 0 0-.381-.698 19 19 0 0 0-.574-.785l-.001-.001a3.4 3.4 0 0 0-.47-.531l-.09-.076.087-.08q.38-.35.77-1.01c.252-.445.382-1.024.382-1.743V14.011l-.008-.015q-.25.313-.508.604l-.079.088-.078-.088a3.5 3.5 0 0 0-.679-.56l-.004-.003-.003-.003-.852-.669a5.6 5.6 0 0 0-.746-.508l-.124-.067.101-.1q1.658-1.627 2.839-4.077l.145-.307a26.4 26.4 0 0 0 1.703-4.874l.024-.098zM97.372 23.447a28 28 0 0 1-.466 1.7q-.792 2.526-2.526 4.898.548.335 1.126.79.608.457 1.004.852a9.5 9.5 0 0 0-1.003-.851q-.577-.456-1.126-.791 1.734-2.372 2.526-4.898.263-.855.465-1.7m-10.677 8.177.08.003-.124-.008zm-.493-.085.088.024q-.045-.01-.088-.024m15.278-.127.384.002q-.334-.001-.681-.008zm-1.928-2.554q.304.517.487 1.217.182.731.243 1.309h.002a10 10 0 0 0-.244-1.309 4.8 4.8 0 0 0-.487-1.217m9.536 2.355-.046-.086zm5.718-12.417q.26 1.276.565 2.487.851 3.255 2.19 5.78 1.37 2.526 3.439 4.138-2.069-1.614-3.437-4.137-1.339-2.526-2.19-5.78a55 55 0 0 1-.567-2.488m-6.045 9.136q-.083.254-.204.47-.395.67-.791 1.034.213.183.486.548.305.396.579.791h.001a20 20 0 0 0-.579-.79 3.5 3.5 0 0 0-.486-.549q.395-.364.791-1.034.12-.216.203-.47m-31.569 1.961q.395.303.882.76-.486-.456-.882-.76M88.02 30.93l.046-.053zm-8.245-.097.088-.065zm8.382-.073.037-.051zm-3.347-.222-.11-.144-.004-.005q.056.076.114.15m3.58-.135.066-.117zm.114-.213.075-.145zm-7.897-.013.292-.242zm.508-.43q.133-.114.264-.231-.131.117-.264.231m7.728-.31-.087.213.027-.061zm-16.883.09h2.25zm30.817-.973a1.1 1.1 0 0 1-.365.335l-.008.003.009-.003q.182-.091.365-.334zm-20.658.275q.115-.11.23-.223-.115.114-.23.223m7.037-.374.01-.036zm-6.184-.478q-.168.175-.34.347l.092-.092zq.213-.224.42-.453-.208.229-.42.453m6.263.16.038-.159zm-11.344-.008h1.628l.001-.001h-1.628v-.79zm8.153-.41-.042-.09zm17.631-10.376a251 251 0 0 1-.107 3.788l-.024.596a93 93 0 0 1-.189 3.39q-.122 1.52-.274 2.342l-.007.044.008-.044q.152-.822.274-2.343.121-1.551.213-3.984.06-1.654.106-3.79m-17.75 10.119.005.012-.01-.02zm1.577-.35-.033.162q.047-.222.09-.474zm1.926.103.019-.102zm.076-.439.024-.143zm20.669-13.066q-.612.14-1.22.272v12.625l-.002.088.003-.088V13.982q.608-.131 1.219-.272M89.59 26.223l.005-.034.04-.28-.002-.002zm-.096-.424-.037-.027zm-.192-.139-.045-.032-.073-.05zm-11.41-.3v-2.465zm-3.576-.105h3.47V23h-3.47zm-9.218-1.242 2.528-.524v-3.591h-2.528zm17.457-.391.026.162zm-.173-1.176.033.236zm4.845-.376q.04-.07.078-.142-.038.072-.078.142m.313-.595.104-.205zm31.273-.41.16-.127zm-40.922-.177h.001v-2.372zm9.964-.051.133-.28zm-13.54-.054h3.472V18.62h-3.471zm45.196-.28.07-.054.241-.198-.311.253m-21.402-2.54q-.06 1.052-.17 2.165l-.023.222.025-.222q.109-1.113.168-2.164m-9.952 2.22.14-.314zm12.397-.239.013-.133zm-12.093-.467q.072-.17.141-.343zm-6.485-.695.032.352zm36.834-.98q-.65.617-1.316 1.2h.001q.666-.583 1.315-1.2m-29.792.226.059-.16.132-.387h-.002a31 31 0 0 1-.189.547m25.058-2.84.103-.024h.001zm6.497.772a20 20 0 0 1-1.49 1.582l-.053.05.053-.05a20 20 0 0 0 1.491-1.582zm-33.904 1.383q.042-.117.082-.235l.01-.03zm-21.57-.058h2.527v-3.654h-2.528zm16.69-.863.008.129q-.05-.74-.094-1.504H81.7zm16.394-.86.001-.06v-4.41zm-27.32-2.979v2.464h.002v-2.464zm35.47 2.38.001-.019v-.051zm-.393-2.197q.335.182.761.517l.852.67q.456.303.699.577a3.6 3.6 0 0 0-.698-.578l-.852-.67a6 6 0 0 0-.76-.516q.132-.133.261-.272-.13.138-.263.272m6.997.273h.002l.402-.113zm-36.004-1.065q-.08.316-.163.609h.001q.082-.293.162-.61m4.365-8.487q.092 4.807.275 9.066v.03h.002l-.002-.03a364 364 0 0 1-.223-6.697l-.05-2.369zm-8.722 8.545q-.044-.275-.099-.575a19 19 0 0 0-.456-2.099l2.007-.335-2.008.335q.274.974.457 2.099.056.3.099.575m1.551-3.042q.307.92.52 2.05.176.812.258 1.439h1.786q.192-.686.368-1.5v-.002l.067-.278q.22-.954.327-1.72v-.002h-3.33zm.659 3.405q-.016-.119-.035-.242zm-.07-.46-.032-.174.031.175m44.367-.964q-1.05.456-2.374.912l-.028.01.029-.01a30 30 0 0 0 3.041-1.217zM86.471 5.292q.459.825.916 1.832l.112.242q.39.847.711 1.65l.09.225q.3.78.462 1.399l.024.09-2.423.93-.026-.12q-.13-.63-.402-1.429l-.081-.231a29 29 0 0 0-.758-1.91 23 23 0 0 0-.878-1.848l-.057-.107 2.183-.77.083-.03zm-.691 4.08q.09.237.174.473.25.707.398 1.295l.088.379-.087-.38a15 15 0 0 0-.4-1.294q-.166-.471-.357-.95zm9.3 1.721h.002V8.385h-.002zm-29.982-.044h2.528V7.395h-2.528zm45.724-.304.06-.112zm-33.425-.808a24 24 0 0 1 .09-.488zm11.217.563-.048-.168zm-.12-.398-.045-.14zm-.123-.363-.06-.167zm-.147-.4-.022-.06-.037-.092zm-16.782-2.75v2.283h9.127-9.126zm39.038-2.452a26 26 0 0 1-1.68 4.521l-.043.086.044-.086a26.4 26.4 0 0 0 1.855-5.202zm-11.354.11q.457.974.913 2.16h.001a33 33 0 0 0-.913-2.16l2.494-.821zm13.227 3.134h.002q.023-.06.044-.123zm-50.95-.091V4.704zM84.31 6.073q.228.425.45.89l-.222-.455q-.113-.222-.227-.435l2.068-.73zm18.765.78-.043-.126zm-25.679-.476-.086-.251zm35.503-.55.052-.162zm-35.697 0-.006-.017-.05-.133zm-2.394.759a81 81 0 0 0-.528-1.562l-.343-.959q.334.913.7 2.008l.172.517zm-2.159 5.959" fill="#141A1F"/></svg>