<svg width="120" height="160" viewBox="0 0 120 160" fill="none" xmlns="http://www.w3.org/2000/svg"><path d="M38.35 5.688C44.068 1.72 51.022-.275 58.076.031 68.322.527 77.263 5.004 84.11 12.255c8.012 8.485 11.311 19.96 12.096 31.158.407 5.818.364 11.586 1.32 17.368a84 84 0 0 0 1.362 6.538c1.12 4.419 2.614 8.932 2.351 13.526-.1 1.75-.551 3.324-1.305 4.919 4.907 1.78 8.304 4.068 10.518 8.767 1.687 3.583 2.61 7.609 3.55 11.423a216 216 0 0 1 4.794 26.3c.466 4.026.942 8.149.691 12.201a15.3 15.3 0 0 1-1.011 4.614c-.3.761-.863 2.258-1.872 3.14-.441.569-1.408 1.536-1.802 1.818-1.231 1.667-5.06 2.75-7.119 3.089-3.815.628-7.707.862-11.568 1.071a284 284 0 0 1-17.879.451c-1.191 0-5.072.268-5.896-.325-.354-.255-.453-.632-.493-1.034a14 14 0 0 1-.05-.818c-2.674.446-5.459-.175-8.135.052-1.612.138-3.11.98-4.739 1.228-4.36.664-8.638-.43-12.561-2.215l-.134-.061c-.948-.431-2.01-.914-2.832-1.524a1.8 1.8 0 0 1-.29-.279c-.551-.089-1.346-.688-1.687-1.112-1.546 2.944-5.01 5.735-8.243 6.77-3.646 1.166-8.127.801-11.552-.854-1.785-.862-4.573-3.271-6.024-4.721-.966-.967-2.335-3.586-2.818-4.439-4.6-8.123-7.943-19.305-9.809-28.364-1.629-7.913-3.904-20.241.998-27.262 2.384-3.414 6.002-5.287 9.855-6.846-2.303-3.52-2.381-6.88-1.435-10.806.524-2.177 1.218-4.315 1.758-6.488a57.4 57.4 0 0 0 1.48-9.322c.272-3.584.137-7.157.129-10.745-.024-11.246.48-22.617 6.526-32.617 2.085-3.45 4.906-6.845 8.483-8.97 2.373-1.412 4.817-2.005 7.584-2.198" fill="#141A1F"/><path d="m81.137 81.856-.14.012c-.004 1.028 8.453 11.526 8.407 12.877-.012.335-.173.63-.384.89-.989 1.217-3.79 3.32-5.133 4.455 1.06.773 4.646 2.959 5.18 3.816.16.256.01.74-.077 1.011-.33 1.035-.895 2.056-1.354 3.047-.554 1.196-1.061 2.413-1.6 3.616-4.017 8.986-8.318 17.88-14.234 25.891-.556.754-1.512 2.304-2.36 2.729.086.031.092.036.195.057.76.154 5.229-.846 6.317-1.039q4.769-.842 9.558-1.572c1.918-.286 3.873-.493 5.776-.851a1.4 1.4 0 0 0 .505-.203c.323-3.73 1.127-7.503 1.762-11.199a857 857 0 0 1 3.554-19.601c.294-1.503.873-5.623 1.455-6.78.175-.35.368-.414.72-.53.325.035.485.111.739.307.079.144.149.294.165.459.051.54-2.008 10.295-2.242 11.568a1460 1460 0 0 0-3.23 18.163c-.351 2.047-.62 5.499-1.17 7.312.064.029.166.083.24.101.688.169 3.123-.122 3.696-.47 1.127.579 5.788-.683 7.016.173.267.185.282.343.348.63-.096.294-.133.425-.427.594-.862.495-3.578.27-4.68.35a127 127 0 0 0-10.574 1.158 333 333 0 0 0-10.749 1.71c-2.258.396-4.516.884-6.787 1.2a2.1 2.1 0 0 1-.71-.008c.358 1.141.848 2.232 1.17 3.394.975 3.516 1.555 7.961 1.503 11.617.112.068.231.129.36.158 1.124.269 3.48.115 4.708.116q8.902.012 17.79-.512c3.378-.204 6.827-.412 10.169-.934 1.7-.265 3.381-.667 4.924-1.418 2.616-1.272 4.444-3.445 5.35-6.103.671-1.971.858-4.043.865-6.107.013-3.994-.506-8.086-1.039-12.044a213 213 0 0 0-4.177-22.237c-1.037-4.365-2.022-9.244-4.166-13.245-.994-1.854-2.279-3.412-4.079-4.615-3.422-2.286-7.919-3.25-11.853-4.463z" fill="#778EEE"/><path d="M44.042 16.735c-.373.753-.446 1.998-.62 2.844a23.5 23.5 0 0 1-.812 3.003c-2.678 7.564-7.679 13.994-14.228 18.898-.1 1.78-.088 3.566.037 5.346.655 8.764 4.125 18.305 11.238 24.184 4.613 3.814 10.795 5.922 16.9 5.48 6.492-.471 13.127-3.696 17.37-8.413a23.9 23.9 0 0 0 5.274-10.138c.245-1.024.083-2.644.7-3.496.222-.148.46-.268.742-.222.901.147.55 1.163 1.023 1.638.16.161.348.193.574.188 1.186-.027 2.977-1.32 3.783-2.1 2.23-2.157 2.928-5.428 2.906-8.373-.015-2.032-.436-4.485-2.026-5.953-.74-.682-1.9-1.04-2.923-.986-.326.017-.695.074-.904.345-.676.873-.8 6.36-1.867 7.279-.225.194-.37.173-.642.146-.388-.224-.543-.367-.678-.788-.416-1.3-.485-2.86-.75-4.21-.488-2.488-1.469-4.72-2.584-7.002-11.14-2.944-25.823-8.322-32.513-17.67" fill="#FFD6B6"/><path d="M63.374 57.868c-.214.048-.436.121-.6.267-.493.439-.854 1.133-1.285 1.644-1.347 1.601-3.416 2.66-5.512 3.033-1.6.285-3.825.317-5.394-.158-1.255-.38-3.234-2.158-4.446-1.96-.212.172-.264.197-.306.46-.068.425.242.747.494 1.06 2.074 1.753 4.56 2.433 7.291 2.428 3.344-.005 6.549-1.129 8.92-3.431.707-.687 1.412-1.489 1.371-2.512-.014-.378-.27-.585-.533-.83m-.409-26.031c-1.689-.135-4.236.22-5.586 1.29-.248.196-.477.424-.492.748a.84.84 0 0 0 .246.598c.717.728 2.688-.464 3.597-.606.921-.145 1.84-.092 2.77-.06.604.108 1.223.211 1.806.402.755.247 2.591 1.366 3.287 1.162.16-.166.28-.248.318-.485.06-.374-.204-.815-.444-1.095-1.204-1.407-3.698-1.81-5.502-1.954m-.636 9.196c-.303-.04-.626-.066-.929-.008-.531.101-.974.482-1.24.92-.55.906-.484 2.221-.186 3.193.288.944.716 1.59 1.63 2.06.228.041.493.05.723.018.5-.067.977-.37 1.262-.763.567-.788.578-1.984.397-2.888-.219-1.1-.684-1.907-1.657-2.532m-19.384 2.558c-.348-.031-.746-.052-1.08.06-.5.166-.891.564-1.122 1.01-.495.956-.384 2.304-.036 3.285.312.882.76 1.453 1.64 1.87.209.002.434.009.641-.023.534-.08.986-.394 1.283-.818.585-.833.56-2.021.34-2.961-.246-1.047-.72-1.84-1.666-2.423m.109-9.082c-2.151-.13-4.48.47-6.27 1.609-1.022.65-2.296 1.69-2.505 2.924-.064.382-.016.543.202.843.274.097.449.102.737.032.43-.103.574-.353.794-.694l.075-.118c.14-.186.286-.366.45-.534 1.653-1.69 4.027-2.435 6.416-2.369.633.018 1.265.204 1.897.163.366-.023.523-.202.754-.455l-.055-.31.117.204c.012-.028.028-.055.035-.085a.6.6 0 0 0-.14-.557c-.511-.61-1.756-.605-2.507-.653m8.235 13.133q-.118.031-.233.069c-.343.117-.494.265-.649.578-.56 1.129-1.98 4.624-1.544 5.745.524 1.351 2.387 2.403 3.669 2.99.327.035.782.035 1.069-.139.198-.12.19-.193.234-.396-.21-1.027-2.075-1.888-2.778-2.723l-.049-.058c-.921-1.092.955-3.74.86-5.149-.032-.469-.233-.624-.58-.917" fill="#17120D"/><path d="M31.53 82.618c-2.292.6-4.577 1.629-6.827 2.394-4.526 1.539-10.156 2.98-14.27 5.275-3.56 1.985-5.893 4.922-6.938 8.74-3.15 11.507 5.117 40.061 11.357 50.223 2.359 3.841 5.598 7.48 10.292 8.614 3.195.771 6.804.476 9.645-1.178 7.215-4.2 11.25-17.155 13.763-24.584 1.357-4.013 2.719-8.032 3.792-12.127a499 499 0 0 1-9.152-3.384c-2.936-1.233-5.988-2.298-8.967-3.439-1.215 2.572-11.38 21.781-11.971 22.176-.185.123-.366.171-.587.117a.96.96 0 0 1-.576-.472c-.127-.261-.091-.501 0-.766.265-.78.776-1.552 1.17-2.28 1.093-2.024 3.227-5.521 3.943-7.498l.037-.103c-.181-.219-5.305-14.233-5.815-15.543a251 251 0 0 0-2.536-6.382c-.645-1.524-1.433-3.068-1.949-4.632-.103-.315-.217-.737-.15-1.065.062-.296.153-.363.41-.515.173-.008.36-.019.527.033.383.118.634.5.817.822.398.698.643 1.498.957 2.236.658 1.548 1.316 3.083 1.935 4.646a656 656 0 0 1 5.269 13.706c.541 1.471.955 3.071 1.623 4.489l.042.086c.776-.535 3.737-6.66 4.34-7.885-.768-1.714-4.37-9.18-4.288-10.658.628-.98 3.968-2.627 5.186-3.356-1.004-.902-4.688-3.778-5.046-4.72-.126-.332-.083-.66.02-.991.29-.924 2.314-4.156 2.918-5.27-.347-2.489.163-4.402 1.029-6.709" fill="#778EEE"/><path d="M71.695 93.826c-4.481 2.797-10.41 4.083-15.711 3.428.703 2.728.752 5.466-.158 8.159-.38 1.124-.886 2.246-1.129 3.405-.69 3.299-1.023 6.101-2.01 9.441q.327.086.648.193c.38.127.742.323.894.701.435 1.08-5.038 17.105-6.044 19.353.053.064.086.108.146.162.245.216.548.289.87.271.214.245.486.346.78.478 2.5 1.119 9.487 3.568 12.223 2.617.518-.695 1.403-4.246 1.731-5.333 4.223-13.969 7.104-28.333 7.76-42.875" fill="#FEFEFE"/><path d="M41.998 75.198c-.822-.044-1.58-.005-2.355.289a4.8 4.8 0 0 0-1.706 1.13c-1.676 1.687-4.338 6.162-5.293 8.368-.51 1.177-.719 2.243-.514 3.513.73 4.542 6.527 10.455 8.533 15.142-.907 3.053-2.401 5.82-3.977 8.594q7.166 2.772 14.378 5.441.75-2.649 1.285-5.344c.314-1.638.534-3.307.898-4.934.442-1.972 1.298-3.624 1.382-5.698.107-2.628-.673-5.717-2.215-7.904-.417-.592-.955-1.115-1.46-1.638-.402-.37-1.288-1.048-1.39-1.594-.05-.277.074-.382.237-.582.384-.176.76-.085 1.167-.033.644-.438.301-1.891.795-2.545.197-.093.268-.164.492-.101.328.092.582.488.71.768.457.994-.178 2.307-.546 3.235.518.488.983 1.03 1.458 1.556.79-.349 1.362-.79 1.841-1.49.712-1.042.924-2.375.645-3.583-.394-1.704-1.791-3.391-3.315-4.313-5.005-3.026-8.826 3.86-11.045 4.245-.195.033-.21-.008-.374-.112a1 1 0 0 1-.05-.28c-.008-.714.512-1.447 1.022-1.918 2.731-2.522 4.927-4.277 8.926-4.207-.984-1.24-2.222-2.2-3.867-2.443-3.307-.488-6.36 2.785-8.375 4.89-.448.467-1.053 1.276-1.593 1.602-.2.121-.275.085-.492.044-.236-.209-.425-.4-.486-.713-.106-.548.19-1.073.507-1.508 1.802-2.47 5.426-5.15 8.547-5.666-1.05-1.225-2.17-1.837-3.77-2.211" fill="#FFD6B6"/><path d="M73.152 77.854c-.243.503.156 2.116.188 2.772q.22 4.624.217 9.252c-.046 14.376-2.743 28.409-6.482 42.293-.645 2.396-1.706 6.969-2.77 9.119.112.045.112.049.248.079.457.096 1.09-.064 1.481-.284.052-.014.121-.031.172-.056 1.583-.755 6.502-7.464 7.275-9.208.626-.502 1.34-1.994 1.78-2.737 4.652-7.854 8.359-16.133 11.938-24.476-1.511-1.03-3.106-2.071-4.517-3.222-.397-.324-.87-.772-.876-1.306-.004-.335.183-.623.397-.874.51-.598 1.293-1.108 1.903-1.616a97 97 0 0 0 3.393-2.935 541 541 0 0 0-5.844-8.497c-1.241-1.787-3.023-4.802-4.626-6.178-1.06-.911-2.605-1.51-3.877-2.127" fill="#778EEE"/><path d="M47.853 140.283c-.21.079-.273.098-.395.292-.423.677-.688 1.645-.99 2.391-.732 1.808-2.816 6.999-4.095 8.151.808 1.224 5.379 3.213 6.864 3.766 3.384 1.259 7 1.83 10.578.999 1.12-.261 2.184-.734 3.304-.987.892-.204 1.941.145 2.756-.201.094.06.185.097.292.134.861.292 4.74.221 5.543-.153-.32-4.077-.87-7.842-2.236-11.724-.48.361-8.035.982-9.091.96-3.565-.079-6.93-1.215-10.196-2.492-.723-.282-1.793-.597-2.334-1.136m22.631-66.778c-1.313.94-2.845 1.696-4.328 2.357-5.085 2.265-9.932 2.915-15.475 2.251 1.31.927 2.717 1.901 3.587 3.248.307.474.442 1.077.788 1.514.906 1.145 2.057 1.993 2.664 3.356.81 1.817.249 3.8-.484 5.548a7.1 7.1 0 0 1-1.274 1.787c-.295.302-1.046.695-1.156 1.06l.143.209c.53.314 1.247.365 1.852.464 5.055.824 10.899-.938 14.999-3.74-.024-3.659.034-7.377-.288-11.022-.207-2.343-.681-4.702-1.028-7.032" fill="#FFD6B6"/><path d="M31.295 91.593c-.698.788-1.43 2.458-1.988 3.426 1.012.925 4.74 3.895 5.27 4.678.173.256.258.545.166.844-.318 1.041-4.288 3.087-5.4 3.733a282 282 0 0 0 2.928 6.751c.135.32.202.673.501.872.286-.163.587-.348.892-.477.433-.184.89.05 1.298.205a39.5 39.5 0 0 0 3.747-7.712c-2.308-4.197-5.242-8.073-7.414-12.32" fill="#778EEE"/><path d="M25.911 46.15a6 6 0 0 0-.56-.026c-.456.006-.88.29-1.183.595-.962.972-1.14 2.814-1.09 4.082.12 3.141 1.657 5.684 4.007 7.793.649.49 1.38.788 2.134 1.091a78 78 0 0 1-2.04-7.655c-.407-1.933-.682-3.994-1.268-5.88" fill="#FFD6B6"/></svg>