<svg width="196" height="196" viewBox="0 0 196 196" fill="none" xmlns="http://www.w3.org/2000/svg"><path d="M140.722 62.98c4.425-4.93 6.457-11.767 6.082-18.335-.424-7.436-3.882-14.1-9.443-18.996-6.683-5.884-16.789-9.94-25.751-9.334-4.355.295-9.882 1.252-12.878 4.722a6.5 6.5 0 0 0-.842 1.274c-2.849-.608-5.63.186-8.041 1.742-4.698 3.03-8.014 8.426-9.158 13.84-.96 4.544-.419 10.123 2.144 14.09.323.5.69.966 1.07 1.424-.002 11.453-.93 23.998 7.87 32.823 1.799 1.803 3.833 3.167 6.07 4.361.05.495.096.99.163 1.484-1.227.737-2.466 1.463-3.642 2.281-1.04.723-2.065 1.648-3.196 2.209-1.342.666-2.87 1.09-4.267 1.637-3.645 1.424-7.623 2.94-11.093 4.741-2.234 1.159-4.25 2.594-5.877 4.53-4.99 5.94-10.296 21.37-12.92 29.063-.808-1.376-3.738-7.004-5.225-7.38-.59-.149-1.202.034-1.772.184-.934-1.345-1.628-2.547-1.892-4.183.532-1.332 1.074-2.661 1.418-4.057 1.117-4.54.487-9.455-.208-14.014-.291-1.913-.712-3.917-.73-5.855-.021-2.43 1.43-6.296.47-8.42-.315-.699-.945-1.2-1.66-1.45-1.144-.398-2.462-.266-3.529.288-1.881.977-3.066 2.877-3.66 4.855-.791 2.644-1.03 5.931-.685 8.68-2.777-1.975-9.916-5.09-13.34-4.524a4.16 4.16 0 0 0-2.764 1.728c-.915 1.312-1.16 3.174-1.202 4.733-1.177.774-1.926 1.682-2.237 3.092-.24 1.095-.114 2.116.096 3.203-1.27 1.403-1.8 2.995-1.709 4.884.027.565.115 1.105.248 1.654-.775 1.482-.988 2.886-.479 4.496 1.258 3.98 6.018 7.695 9.59 9.512 1.484.755 3.005 1.32 4.6 1.785l.537 1.133c-1.232 1.102-3.233 2.823-3.35 4.583-.097 1.48 7.53 16.406 8.793 18.769a150 150 0 0 0 4.424 7.749c1.864 2.988 3.898 5.965 6.285 8.564 2.665 2.903 5.814 5.061 9.864 5.235 4.132.177 8.116-1.929 11.081-4.665.526-.486 1.059-1.007 1.485-1.584.054 1.121.362 7.834.878 8.283.17.147.35.211.576.177.23-.035.45-.187.637-.314l17.73-.007c.16.111.301.215.489.275.223.071.462.069.663-.064.131-.088.31-.328.357-.478.154-.496-.091-4.133-.113-4.871-.204-6.861-.13-13.689.009-20.548.124-6.142.25-12.262.677-18.394a303 303 0 0 1 4.71-35.379c2.737 2.406 5.926 3.393 9.548 3.342 6.843-.097 12.41-3.615 17.052-8.36-1.212 4.643-2.182 9.372-3.171 14.068-4.258 20.22-6.616 40.219-4.626 60.909.138 1.435.758 8.322 1.343 9.42.127.24.308.325.558.41.355-.015.568-.157.868-.336l22.831.005c3.874 0 7.827-.169 11.691.034.192.147.35.212.574.293.364-.008.605-.186.91-.369 1.024.103 2.087.05 3.117.049l5.335-.005c4.912-.004 9.833.071 14.744-.002.253.165.516.358.837.313a.67.67 0 0 0 .528-.375c.36-.783-.136-6.481-.221-7.781a291 291 0 0 0-3.582-29.844c-1.695-9.725-3.756-19.723-7.919-28.722-1.358-2.933-3.023-5.763-5.205-8.164-5.712-6.284-15.422-10.006-23.256-12.875-1.803-.66-3.627-1.258-5.432-1.91-1.65-2.727-3.831-4.779-6.68-6.223-.063-2.785-.207-5.56-.194-8.347.932-1.588 1.808-3.162 2.431-4.903 2.179.321 4.028.068 5.836-1.264 2.491-1.836 4.16-4.938 4.584-7.974.121-.868.147-1.744.146-2.62" fill="#1E1E1E"/><path d="M136.92 109.299c-.573-5.743-2.118-14.043-6.772-17.854a29 29 0 0 0-1.794-1.339c-.374 2.297-1.008 4.59-1.542 6.856a614 614 0 0 0-2.747 11.911c-1.198 5.456-2.384 10.94-3.335 16.445a215 215 0 0 0-2.892 27.048 180 180 0 0 0 .612 21.565q.279 2.956.693 5.896c.177 1.234.526 2.595.504 3.837l22.831.005c3.874 0 7.827-.169 11.691.034.192.147.35.212.574.293.364-.008.605-.186.91-.369 1.024.103 2.087.05 3.116.049l5.336-.005c4.912-.004 9.833.071 14.744-.002-.328-4.277-.424-8.566-.789-12.846-1.323-15.504-4.947-42.271-12.363-55.557a27 27 0 0 0-1.208-1.98 26 26 0 0 0-2.914-3.603 27 27 0 0 0-1.684-1.594c-6.456-5.493-16.379-8.98-24.339-11.786.815 2.261 3.666 11.838 2.746 13.646-.654 1.282-6.448 3.708-7.986 4.524 1.766 1.358 5.62 4.058 6.907 5.568.216.254.317.517.421.829l.063.186c-.804 2.617-2.025 5.226-3.107 7.745a1424 1424 0 0 1-6.088 13.869l-4.88 11.306-1.409 3.242c-.18.421-.31.876-.523 1.281-.163.311-.406.653-.731.811-.159.078-.282.063-.45.043-.216-.147-.29-.251-.355-.508-.094-.37.035-.836.164-1.182.386-1.032.906-2.033 1.344-3.046a391 391 0 0 1 3.023-6.972l5.337-12.32c2.074-4.74 4.193-9.468 6.017-14.311a85 85 0 0 0-4.807-3.889c-.824-.621-1.769-1.198-2.53-1.89-.237-.215-.512-.496-.548-.831-.035-.316.164-.579.382-.782.995-.929 6.675-3.436 8.378-4.323" fill="#778EEE"/><path d="M155.653 183.627c-.196-1.344-.531-2.673-.786-4.008a366 366 0 0 0-1.487-7.709l-3.85-18.847-2.905-14.324-.89-4.423c-.134-.674-.219-1.386-.405-2.046-.069-.243-.143-.506-.359-.661a.75.75 0 0 0-.661-.099.77.77 0 0 0-.479.49c-.152.532.163 1.641.264 2.194 1.656 9.104 3.685 18.168 5.529 27.238l2.568 12.634c.64 3.214 1.224 6.447 1.977 9.637.192.147.35.212.574.293.364-.008.605-.186.91-.369m-31.496-13.286a3 3 0 0 0-.321.005 3 3 0 0 0-.477.065 3 3 0 0 0-.31.081l-.152.052a4 4 0 0 0-.438.2 4 4 0 0 0-.404.261l-.126.1a4 4 0 0 0-.236.218 3 3 0 0 0-.214.239q-.05.063-.097.127a3 3 0 0 0-.256.408 3 3 0 0 0-.193.441q-.026.076-.049.153a3 3 0 0 0-.105.469q-.011.08-.019.16a3 3 0 0 0-.015.32 3 3 0 0 0 .016.321q.008.08.019.159a3 3 0 0 0 .063.315q.02.078.042.155a4 4 0 0 0 .173.449 3 3 0 0 0 .15.284q.041.069.085.136l.092.131q.048.065.098.127a3 3 0 0 0 .215.239q.056.057.115.112a4 4 0 0 0 .247.205 3 3 0 0 0 .265.18q.07.042.14.08.07.039.142.074a4 4 0 0 0 .448.177 3 3 0 0 0 .31.081 3 3 0 0 0 .317.051q.08.009.16.013a3.2 3.2 0 0 0 .866-.061 4 4 0 0 0 .42-.116q.102-.036.203-.078a3 3 0 0 0 .388-.196 3.2 3.2 0 0 0 .526-.385 3 3 0 0 0 .304-.311 4 4 0 0 0 .261-.349 3.5 3.5 0 0 0 .299-.579 3 3 0 0 0 .133-.414 3.2 3.2 0 0 0 .099-.863 3 3 0 0 0-.077-.647 3 3 0 0 0-.121-.418 3 3 0 0 0-.282-.588 3 3 0 0 0-.25-.356 3.2 3.2 0 0 0-.809-.721 3.2 3.2 0 0 0-.583-.291 3 3 0 0 0-.416-.128 3.2 3.2 0 0 0-.646-.087" fill="#1E1E1E"/><path d="M124.113 172.165c-.301.045-.58.096-.849.245-.385.214-.691.572-.788 1.007a1.4 1.4 0 0 0-.009.525 1.4 1.4 0 0 0 .194.489c.296.462.742.62 1.249.75.318-.042.613-.086.896-.248.373-.213.671-.577.772-.999a1.6 1.6 0 0 0 .036-.271 1.6 1.6 0 0 0-.02-.273 1.2 1.2 0 0 0-.074-.263 1.4 1.4 0 0 0-.125-.244c-.308-.477-.753-.612-1.282-.718M98.05 94.048c-5.858 3.468-10.992 8.026-13.512 14.537 1.299.808 5.057 3.341 5.765 4.416.065.306.019.523-.148.782-.783 1.217-6.66 3.959-8.364 5.164a166 166 0 0 0 3.81 27.239q.825 3.747 1.784 7.462c.272 1.043.696 2.091.907 3.141.078.388.153.918-.115 1.256a.67.67 0 0 1-.566.248c-.277-.012-.482-.245-.616-.467-.535-.893-.667-2.22-.956-3.23-2.416-8.445-3.954-17.232-5.024-25.943a104 104 0 0 1-.681-7.463c-.056-.926-.157-1.878-.144-2.805 1.446-1.742 5.922-3.856 8.033-5.108-1.074-.823-5.058-3.313-5.265-4.499-.305-1.748 3.072-6.172 4.19-7.615.58-.75 1.18-1.485 1.86-2.147-4.462 2.068-9.15 3.506-13.458 5.939-1.842 1.04-3.475 2.34-4.815 3.982-3.693 4.525-7.545 15.223-9.644 20.944a345 345 0 0 0-2.974 8.553c1.55 2.725 3.078 5.477 4.689 8.165 1.068 1.783 2.304 3.57 3.253 5.414.154.298.375.711.293 1.058a.9.9 0 0 1-.489.561c-.18.076-.4.126-.582.026-.311-.17-.522-.518-.708-.811-1.306-2.061-2.46-4.258-3.683-6.373a882 882 0 0 0-8.968-15.339c-3.403 5.513-10.995 10.223-17.262 11.719q-1.389.34-2.814.446c4.234 9.094 14.646 32.797 23.916 36.23 2.922 1.082 5.955.672 8.73-.639 2.813-1.33 4.968-3.319 6.915-5.708-.427-4.763-.48-9.601-.585-14.38a472 472 0 0 1 .336-30.941c.043-1.019.037-4.197.22-4.984a1 1 0 0 1 .228-.416.92.92 0 0 1 .635-.302c.197-.006.422.082.538.245.143.199.155.378.16.613.033 1.463-.154 2.959-.224 4.423a686 686 0 0 0-.274 8.229q-.43 16.216.26 32.423.198 5.07.53 10.134c.112 1.659.497 3.835.322 5.45l17.73-.007c-.493-8.119-.364-16.343-.206-24.469.24-12.291.775-24.449 2.42-36.645q1.195-8.631 2.739-17.207c.653-3.728 1.467-7.536 1.814-11.301" fill="#778EEE"/><path d="M100.567 31.399c-.428-.038-.87-.024-1.299-.03-.119.28-.287.83-.557.995-.535.324-1.689.342-2.328.474-1.415.293-2.9 1.192-4.016 2.09-4.207 3.386-6.061 9.074-6.6 14.284-.354 3.44-.259 6.97-.213 10.423.112 8.429.293 16.907 5.918 23.793 3.038 3.72 7.258 6.372 12.093 6.828 6.522.615 13.242-2.272 18.188-6.383 2.292-1.94 4.277-4.267 5.662-6.94.31-.599 1.412-3.668 1.759-3.899.507-.337 1.422.082 1.971.187 1.22.234 2.6-.25 3.6-.928 2.117-1.437 3.571-3.834 4.027-6.331.394-2.157.252-4.547-1.047-6.384-.439-.62-1.018-1.097-1.789-1.207-1.436-.207-4.3 1.668-5.222 2.676-.372.406-.564 1.064-1.036 1.36a.81.81 0 0 1-.664.121.88.88 0 0 1-.64-.55c-.288-.698-.342-2.97-.694-4.114-.574-1.87-1.717-2.95-2.852-4.478-.489-.66-.886-1.366-1.272-2.088a17 17 0 0 1-1.085-.133c-2.104-.356-3.93-1.3-5.648-2.535-5.523-3.974-6.535-7.845-10.264-12.994-1.495-2.064-3.399-3.825-5.992-4.237" fill="#FED5B6"/><path d="M111.383 73.047c-.214-.013-.486-.044-.687.047-.521.238-1.134 1.034-1.58 1.438-1.586 1.436-4.216 2.1-6.311 2.173-1.747.062-4.053-.184-5.566-1.133-.76-.477-1.37-1.127-2.03-1.728-.402-.367-.73-.622-1.289-.6-.256.142-.457.31-.51.621-.062.379.238.74.438 1.029 1.856 2.035 4.16 3.14 6.907 3.449 3.49.392 7.031-.511 9.778-2.72.515-.414 1.221-1.04 1.266-1.746.022-.36-.193-.583-.416-.83m-10.549-12.711a3.6 3.6 0 0 0-.63.05c-.533.322-.742 1.212-.967 1.765-.207.505-.42 1.004-.737 1.45-.622.873-1.66 1.686-1.954 2.737a2.68 2.68 0 0 0 .283 2.09c.673 1.118 1.926 1.56 3.118 1.879.28.04.481.044.715-.125a.98.98 0 0 0 .415-.685c-.262-.954-1.96-1.123-2.632-1.817-.176-.182-.37-.493-.328-.76.091-.574.976-1.335 1.341-1.82.667-.889 1.926-2.837 1.861-3.982-.02-.37-.23-.553-.485-.782m11.524-11.143c-1.171-.135-3.226-.047-4.261.527-.338.187-.772.533-.826.948a.62.62 0 0 0 .097.43c.083.119.3.327.444.366.416.112 2.234-.478 2.836-.531 1.101-.098 2.079.029 3.147.295 1.204.388 2.611 1.47 3.436 1.654.186-.035.317-.065.473-.185a.78.78 0 0 0 .319-.597c.02-.272-.088-.508-.256-.714-1.027-1.261-3.843-2.016-5.409-2.193m-19.011-.858c-1.504-.138-3.708.19-4.926 1.145-.326.256-.64.685-.62 1.124.01.255.056.304.226.468.985.331 2.268-.706 3.27-.914l.14-.028c1.088-.12 2.412-.19 3.443.237.43.178.892.477 1.346.564.209.04.492-.02.654-.167.178-.163.275-.331.273-.578-.001-.28-.153-.56-.332-.766-.666-.768-2.514-1.02-3.474-1.086m.487 8.091c-.18.02-.371.047-.544.102-.54.173-.98.725-1.191 1.23-.353.843-.334 1.891.025 2.728.288.673.68 1.044 1.349 1.328.228-.01.46-.033.673-.123.538-.23.935-.746 1.142-1.28a3.64 3.64 0 0 0-.075-2.727c-.303-.665-.704-1.008-1.38-1.258m17.786.767a2.4 2.4 0 0 0-.635.118c-.546.206-.959.76-1.158 1.29a3.65 3.65 0 0 0 .102 2.734c.311.67.695.988 1.377 1.238a1.9 1.9 0 0 0 .662-.17c.53-.245.914-.79 1.109-1.323.309-.844.276-1.883-.111-2.697-.295-.621-.697-.976-1.346-1.19m23.609 3.638c-1.41.217-2.741.693-3.701 1.81-.872 1.014-1.34 2.677-1.196 4.015.044.418.245.621.55.878.265 0 .548-.016.772-.18.474-.346.309-1.392.41-1.943.468-2.556 2.071-2.124 3.486-3.213.146-.113.246-.264.247-.451.001-.404-.289-.664-.568-.916" fill="#1E1E1E"/><path d="M115.231 18.019c-4.652-.22-11.63.265-15.002 3.854-.473.504-.898 1.95-1.53 2.189-.457.172-2.217-.26-2.849-.27-1.24-.02-2.55.326-3.672.839-4.052 1.852-7.397 6.47-8.91 10.528-1.97 5.28-1.686 10.381.646 15.46.506-5.196 1.668-10.334 4.956-14.533 2.151-2.747 5.099-4.746 8.611-5.164.233-.311.49-.634.814-.854.91-.619 2.229-.469 3.255-.262 5.34 1.077 8.289 8.036 11.024 12.152 2.206 3.064 5.421 6.166 9.1 7.34.873.278 2.184.118 2.951.582.548.331.78 1.357 1.133 1.885.465.696 1.043 1.34 1.567 1.994 1.451 1.814 2.081 3.501 2.456 5.786 1.211-.987 2.931-2.178 4.401-2.698 1.064-.377 2.164-.369 3.18.15 1.592.816 2.369 2.394 2.892 4.015 2.84-3.373 4.435-8.173 4.799-12.542.564-6.77-1.457-13.423-5.896-18.593-5.639-6.569-15.303-11.193-23.926-11.858" fill="#313030"/><path d="M46.827 92.786c-1.28-.056-2.175.126-3.17 1.016-2.689 2.405-2.59 7.088-2.607 10.398-.005.939-.091 1.918-.035 2.853.045.758.36 1.465.297 2.238-.125 1.514-1.02 2.656-2.144 3.589.37 1.178.497 2.244.106 3.449-.474 1.457-1.425 2.295-2.756 2.952.217.729.306 1.492.196 2.248-.201 1.393-1.005 2.323-2.084 3.141l.088.22c.252.644.184 1.281-.117 1.905-.514 1.067-1.5 2.099-2.625 2.488-1.375.475-6.705-.727-7.987-1.395-.25-.13-.462-.338-.509-.629-.044-.273.036-.382.175-.595.932-.532 2.709.232 3.68.483 1.368.353 3.368 1.112 4.655.308.536-.334 1.06-.893 1.178-1.533.484-2.62-9.618-3.427-10.655-4.885-.006-.195-.015-.342.07-.525.109-.234.269-.323.506-.397 1.066-.335 7.59 1.886 8.899 2.421.595.243 1.145.542 1.698.868.665-.55 1.23-1.174 1.426-2.042.994-4.423-9.836-5.361-10.484-6.841-.086-.196-.05-.397.062-.574.114-.18.327-.289.53-.335 1.362-.309 6.646 2.058 8.065 2.8.809.424 1.566.914 2.324 1.419.542-.193 1.058-.413 1.462-.836.577-.603.933-1.648.883-2.479-.043-.717-.403-1.316-.928-1.79-1.527-1.378-5.245-2.492-7.253-3.11-.805-.248-2.111-.465-2.71-1.068-.107-.107-.217-.295-.197-.452.029-.235.244-.54.446-.661.628-.377 2.685.502 3.372.725 2.628.837 5.328 1.808 7.58 3.422.67-.633 1.224-1.267 1.411-2.205a2.84 2.84 0 0 0-.516-2.268c-1.576-2.142-8.579-4.434-11.311-4.867-.904-.144-1.855-.046-2.601.533-1.473 1.142-1.293 3.692-1.543 5.345-.687.467-1.367.862-1.808 1.593-.78 1.292-.353 2.919-.022 4.279-.568.567-1.091 1.067-1.454 1.794-.683 1.37-.487 2.879-.018 4.271-.71 1.208-1.162 2.125-.806 3.57 1.133 4.606 8.519 9.323 12.871 10.492q.923.254 1.862.432c.732.131 2.479.088 3.024.488.161.118.24.391.23.581-.012.229-.124.494-.308.638-.59.464-2.242.068-2.953-.028.663 1.489 1.302 2.995 2.056 4.441a34 34 0 0 0 4.262-1.883 33.5 33.5 0 0 0 3.962-2.453 34 34 0 0 0 2.436-1.93c.909-.777 1.9-1.645 2.58-2.635-1.197-1.813-2.708-3.811-2.955-6.031-.184-1.653.964-3.552 1.367-5.157.339-1.351.449-2.68.49-4.066.099-3.296-.387-6.547-.868-9.796-.287-1.937-.638-3.911-.628-5.874.01-1.936 1.185-5.693.674-7.275-.146-.454-.47-.604-.87-.785m79.273-10.783c-.841.758-1.58 1.649-2.406 2.432-1.642 1.557-3.544 2.877-5.516 3.98-5.732 3.207-12.165 4.596-18.59 2.774.046 3.72-.31 7.282-1.086 10.922.452.66 1.016 1.142 1.638 1.633 2.048 1.416 4.493 2.096 6.971 2.127 5.564.07 11.201-2.675 15.108-6.537 1.083-1.072 2.434-2.444 3.094-3.812.333-.69.469-1.513.609-2.259.222-1.181.444-2.401.475-3.605.028-1.075-.124-2.178-.191-3.252a59 59 0 0 1-.106-4.403" fill="#FED5B6"/><path d="M33.53 138.456c-1.049.938-1.74 1.937-2.322 3.212l1.087-.058c.796-.08 1.576-.202 2.364-.344a21 21 0 0 0-1.128-2.81" fill="#778EEE"/><path d="M42.915 26.721c-1.886-.315-4.59-.002-6.445.46a18 18 0 0 0-1.34.388 19 19 0 0 0-2.156.867 18.8 18.8 0 0 0-5.915 4.434 20 20 0 0 0-.889 1.074 19 19 0 0 0-1.296 1.93 19 19 0 0 0-1.559 3.382 18.6 18.6 0 0 0-.86 3.623 19 19 0 0 0-.168 2.48c-.081 12.603 9.22 13.864 11.668 23.323-.424.72-.498 1.3-.51 2.12-.026 1.56-.21 4.954.118 6.35.075.319.196.538.435.768.604.58 1.418.508 2.192.51q.1.287.218.566c.59 1.422 1.677 2.297 3.058 2.87 1.316.405 2.657.408 3.933-.15 1.525-.669 2.346-1.785 2.938-3.283.664-.001 1.36.04 1.922-.378.45-.336.586-.756.673-1.292.192-1.182.2-6.117-.08-7.272-.079-.323-.264-.574-.458-.837.596-2.263 1.536-4.262 2.932-6.149 1.077-1.457 2.37-2.708 3.571-4.058 2.753-3.092 4.533-6.703 4.94-10.85a19 19 0 0 0 .031-3.79 19 19 0 0 0-.59-3.264 19 19 0 0 0-.95-2.681 20 20 0 0 0-.624-1.28 20 20 0 0 0-.976-1.626 19.5 19.5 0 0 0-2.367-2.889 18 18 0 0 0-1.365-1.236 19 19 0 0 0-1.48-1.094 18 18 0 0 0-2.826-1.541 18.6 18.6 0 0 0-3.051-1.028 18.6 18.6 0 0 0-2.724-.447" fill="#1E1E1E"/><path d="M42.302 28.347c-1.905-.185-3.911.03-5.75.543a17 17 0 0 0-2.006.696 17 17 0 0 0-1.535.731 19 19 0 0 0-1.1.646 17 17 0 0 0-1.048.724 17.2 17.2 0 0 0-4.73 5.394c-1.382 2.47-2.077 5.176-2.174 8-.16 4.653 1.61 8.744 4.623 12.216 1.672 1.927 3.473 3.735 4.846 5.9 1.079 1.7 1.736 3.436 2.276 5.36l2.487-.015c-.157-1.686-.14-3.423-.189-5.116a305 305 0 0 1-.164-11.01c-1.312-.006-2.757-.078-3.843-.898-.832-.63-1.327-1.548-1.446-2.58-.127-1.096.097-2.207.814-3.068.554-.664 1.34-1.113 2.206-1.19.917-.083 1.954.228 2.641.849 1.383 1.249 1.267 3.377 1.344 5.07l.115.137c.978-.014 1.959.01 2.937.019-.014-1.655-.09-3.644 1.04-4.995.588-.7 1.49-1.104 2.398-1.144.876-.04 1.721.296 2.366.884a4 4 0 0 1 .537.61 4 4 0 0 1 .315.521 4 4 0 0 1 .23.564 4 4 0 0 1 .142.593 4 4 0 0 1 .048.608c.008 1.024-.351 2.009-1.084 2.735-1.163 1.155-2.73 1.274-4.27 1.285l-.134 16.126 2.526.009c1.69-9.302 10.569-10.925 11.482-21.414a18 18 0 0 0 .068-1.285 17 17 0 0 0-.1-2.142 18 18 0 0 0-.27-1.695 18 18 0 0 0-.571-2.067 17 17 0 0 0-1.217-2.742 19 19 0 0 0-.664-1.103 18 18 0 0 0-.743-1.051 18 18 0 0 0-.538-.669c-3.032-3.591-7.213-5.633-11.865-6.036" fill="#FED033"/><path d="M42.625 52.414h-3.083q.012 8.054.246 16.106c.922.078 1.87.026 2.796.018-.17-5.356.023-10.763.04-16.124" fill="#FED033"/><path d="M47.283 70.198H35.175l-.015 2.4h12.128zm.004 4.1-12.118.005q.012 1.17.01 2.338c4.021.136 8.08.025 12.105.019z" fill="#A3A2A2"/><path d="M46.407 46.295c-.533-.012-.963.082-1.352.475-.918.928-.74 2.752-.735 3.97l1.528-.06c.24-.065.485-.12.717-.208a2.27 2.27 0 0 0 1.245-1.2 2.2 2.2 0 0 0 .028-1.705c-.279-.667-.786-1.005-1.43-1.272m-10.044.095c-.243-.029-.5-.049-.74.007-.488.112-.943.45-1.181.89-.306.565-.335 1.264-.125 1.866.26.744.697 1.053 1.38 1.392l.174.031c.66.121 1.303.13 1.972.143.002-.909.083-1.93-.18-2.806-.228-.762-.622-1.145-1.3-1.524" fill="#FED033"/><path d="M44.501 78.458c-2.159-.11-4.362-.032-6.525-.014.279.383.573.723.897 1.068.255.206.545.398.848.527.99.422 2.159.385 3.143-.03.665-.28 1.35-.88 1.637-1.551" fill="#A3A2A2"/><path d="M41.34 12.23c-.376.048-.81.148-1.03.492-.292.458-.3 8.208-.108 9.062.082.367.38.524.672.717l.098.002c.331-.01.81-.086 1.004-.395.24-.383.283-8.492.114-9.15-.096-.37-.449-.547-.75-.729m17.724 4.977c-.378-.007-.692-.033-.99.247-.45.424-4.369 6.46-4.685 7.167a.9.9 0 0 0-.073.503c.055.387.395.588.684.8.297.018.651.025.883-.194.627-.596 4.301-6.33 4.725-7.23a.8.8 0 0 0 .08-.444c-.043-.401-.337-.612-.624-.849m-34.794.57c-.415-.012-.838-.016-1.16.294a.73.73 0 0 0-.253.62c.018.537 4.214 6.767 4.798 7.283.11.02.199.04.314.04.324.003.691-.152.888-.415.149-.199.176-.449.152-.688-.052-.52-4.121-6.568-4.739-7.134" fill="#1E1E1E"/></svg>