<svg width="400" height="400" viewBox="0 0 400 400" fill="none" xmlns="http://www.w3.org/2000/svg"><circle cx="160" cy="240" r="160" fill="#D7F4EC"/><path d="M244.678 50.59c1.752-2.96 2.703-5.823 3.929-9.011.141.021.419.07.554.068.448-.003.767-.337 1.049-.65 1.902-2.11 2.55-6.144 2.44-8.902-.225-5.663-3.336-10.847-7.412-14.617-3.366-3.114-6.629-4.115-10.62-6.059-1.252-.61-2.335-1.715-3.473-2.522-3.819-2.708-8.003-3.437-12.617-3.248-6.712.276-18.354 3.732-22.939 8.75-.51.065-.733-.01-1.196-.225-.869-.659-1.577-.831-2.666-.688-5.283.694-10.88 5.473-13.906 9.627-4.885 6.704-6.724 15.735-5.399 23.876.716 4.393 2.834 10.492 6.27 13.512l1.366 1.45c.791 4.986 3.147 8.919 7.296 11.893 2.728 1.957 5.744 2.741 9.072 2.718.312 2.41.693 4.829.761 7.26-3.624.801-6.456 3.59-8.489 6.572-.187-.565-.178-.802-.758-1.102-2.466-1.278-19.106 2.733-22.281 3.699-1.726.525-3.382 1.207-5.013 1.976-14.002 6.606-38.136 22.57-47.223 35.068-1.523 2.094-2.783 4.539-3.643 6.981-.8 2.271-1.283 4.674-1.581 7.059-.771 6.189-2.734 41.584-1.459 44.083.596 1.168 2.993 1.921 4.196 2.255-.387 7.336-2.443 19.496 2.828 25.423 3.441 3.871 8.644 4.198 13.467 4.441 2.262.114 4.02.127 6.2-.671 1.251.474 2.96.495 4.183-.109.795-.393 1.275-1.069 1.528-1.908.264-.876.147-2.131.527-2.917.246-.51 1.092-.867 1.501-1.281 1.684-1.703 2.278-4.809 2.642-7.095 7.325 5.167 14.64 10.332 23.32 12.925 2.792 8.024 9.006 14.573 15.944 19.24-.601 5.233-1.073 10.75-2.255 15.884-3.143-1.751-11.433-5.991-14.837-6.106-.615.201-.885.598-1.279 1.078-1.52-.849-3.158-1.642-4.54-2.703-.282-.726-.554-1.622-1.071-2.214-2.26-2.587-9.615-6.733-12.79-8.118a9.5 9.5 0 0 0-1.241-.431c-1.405.346-2.551.741-3.741 1.61-4.222 3.08-10.735 13.829-13.55 18.496-3.89 6.45-9.837 16.841-10.994 24.166-.352 2.226-.266 4.636.287 6.823.538 2.13 1.614 3.958 3.548 5.092 1.798 1.054 3.913 1.397 5.931.85 4.573-1.24 7.051-5.359 10.257-8.435 2.297-2.203 4.821-4.335 7.282-6.359 2.347-1.929 5.082-3.357 7.484-5.211.648-.5 2.137-2.318 2.885-2.23.586.428.801.823.9 1.525.174 1.238-.093 2.581-.04 3.842 6.901 7.072 28.344 16.631 38.195 16.752 3.517.043 6.418-1.432 8.87-3.869 6.691-6.652 12.598-20.738 15.312-29.791 2.619 1.65 5.224 3.329 7.866 4.943 3.786 11.123 8.698 21.939 13.19 32.798a588 588 0 0 0 6.283 14.935c1.033 2.402 1.958 4.906 3.234 7.193.457.819.915 1.469 1.777 1.886 1.015.491 2.327.583 3.443.733 1.18 3.826 3.391 7.348 4.68 11.175-1.376 1.707-1.528 3.534-1.292 5.652.671 6.035 4.749 16.317 9.598 20.24 1.371 1.109 2.911 1.494 4.65 1.274 2.174-.274 4.576-1.362 6.465-2.441 3.051-1.743 5.906-3.982 8.744-6.046l10.639-7.609c4.592-3.255 9.651-6.048 14.022-9.584 2.71-2.191 5.302-4.565 7.396-7.365 2.234-2.988 3.778-6.526 3.221-10.324-.341-2.328-1.359-4.57-3.317-5.971-2.927-2.093-7.101-1.901-10.469-1.258-4.737.903-9.271 3.136-13.829 4.712-5.611 1.94-11.305 3.309-17.121 4.492-.881-2.114-1.881-4.242-2.632-6.403 1.741-1.176 3.258-2.551 3.665-4.721a5.2 5.2 0 0 0 .009-1.955c-.376-2.172-1.264-4.367-1.899-6.481l-3.389-11.419c-4.169-13.682-7.96-27.78-13.596-40.944-1.006-2.348-2.465-4.43-3.956-6.492-4.042-5.59-8.911-10.258-14.057-14.813-1.674-1.481-3.341-3.062-5.199-4.309 2.24-1.047 3.673-2.506 4.542-4.87 2.466-6.706-.965-17.455-2.14-24.389-.565-3.339-.77-6.782-1.418-10.095l-.122-.776c-.101-2.244.153-4.504.397-6.732 2.466 4.557 5.482 8.904 10.245 11.28 3.142 1.568 6.399 1.922 9.748.773 2.634-.904 5.17-2.355 7.492-3.877 6.054-3.969 21.185-16.296 24.182-22.495-.004-3.029-.858-4.974-2.345-7.527 4.55-8.843 7.717-16.375 8.665-26.433.195-2.067.451-4.285.13-6.347-.531-3.414-2.476-4.733-5.083-6.642l.17-.296c.253-.213.476-.413.658-.692 1.231-1.881 4.311-13.192 4.749-15.673.151-.853.209-1.735.04-2.59-.199-1.01-.718-1.914-1.607-2.46-.925-.567-2.11-.903-3.178-1.072-3.003-.473-15.411-.687-18.011-.023-1.688.431-2.747 1.302-3.575 2.845-1.547 2.884-3.606 12.285-4.664 15.993-1.615 5.664-3.695 11.256-4.957 17.017-.232 1.057-.509 2.657-.15 3.69.26.745 1.06 1.386 1.703 1.791 1.128.711 2.505 1.168 3.724 1.716 1.516.683 2.992 1.468 4.47 2.229-.202 2.656.105 4.552 1.031 7.048-3.213.475-5.824 2.705-8.245 4.734-.626-2.852-1.709-5.596-2.624-8.364a696 696 0 0 0-4.137-12.433c-2.335-6.614-5.374-14.824-10.404-19.846-4.728-4.722-14.49-8.945-20.581-11.854l.488-2.406q.782-.03 1.562-.094c4.707-.406 9.495-2.389 12.57-6.053 8.088-9.637 6.604-23.832 5.538-35.497" fill="#201D17"/><path d="M196.951 85.71c-6.666 3.206-10.545 11.593-13.618 18.007 2.398 1.174 9.079 5.453 10.582 7.4l.086.456c-1.906 1.572-7.115 3.957-9.545 5.371 2.577 4.676 17.811 34.128 16.953 37.73-.06.25-.074.25-.184.441-.404.18-.411.159-.842.045-.322-.294-.529-.541-.712-.941-.598-1.303-.919-2.767-1.45-4.11-1.331-3.361-2.766-6.703-4.221-10.013-2.37-5.391-5.157-10.726-7.899-15.94-1.104-2.098-2.571-4.256-3.436-6.453-.07-.178-.169-.428-.173-.622-.015-.584.287-.856.698-1.225 2.134-1.915 5.478-3.369 7.998-4.758-2.629-2.222-8.132-4.35-9.428-7.468l-.134-.316c.894-3.37 4.921-9.977 7.072-12.92-.1.062-.198.127-.3.185-1.291.735-5.14.655-6.784.887-5.315.75-10.744 1.83-15.871 3.438-3.169.995-6.111 2.662-9.027 4.225a175 175 0 0 0-16.407 9.929 175 175 0 0 0-15.221 11.664c-2.409 2.088-4.835 4.171-6.981 6.536-2.958 3.262-5.544 6.891-6.901 11.118-1.585 4.94-1.715 10.437-2.032 15.587-.658 10.709-.595 21.386-1.018 32.091 8.108-2.232 17.022-2.047 25.313-.996q.114-6.272.539-12.531c.175-2.584 2.091-24.471 2.991-25.374 1.145-1.148 3.772-1.915 5.267-2.67 3.134-1.582 18.345-9.936 20.842-9.794.491.028.792.167 1.204.443l.174.412c-.237.572-.708.776-1.25.996-.799.324-1.623.59-2.401.963a242 242 0 0 0-.189 15.301c.052 2.698.687 6.651.223 9.161-.223 1.209-4.783 7.388-5.786 8.885-5.33 7.957-10.383 15.963-15.062 24.32 2.363 2.892 3.565 5.787 3.806 9.522 3.292 1.112 6.577 3.926 9.502 5.824 3.091 2.005 6.398 3.865 9.787 5.314 4.391 1.55 8.699 2.755 13.143.621 10.679-5.127 21.496-30.606 25.274-41.612 5.64-16.434 5.885-33.911 2.752-50.879-1.061-5.75-2.573-11.488-3.953-17.17-1.16-4.776-3.38-11.793-3.644-16.519-.085-1.52.117-3.05.263-4.561" fill="#778EEE"/><path d="m158.424 174.324-.705.168c-1.288 1.275-3.198 5.988-3.332 7.863-.059.826.071 1.813.678 2.432 1.331 1.359 16.09 7.256 18.793 7.995 1.372.375 2.583.457 3.997.431 1.378-.829 2.334-1.987 3.12-3.374.83-1.467 2.678-4.187 2.123-5.86-.066-.199-.182-.433-.36-.556-1.38-.957-4.918-1.695-6.612-2.278-4.134-1.424-8.368-2.822-12.341-4.645q-1.025-.424-2.054-.835c-.823-.327-1.348-.619-2.208-.247-.096.267-.229.387-.079.659 1.336 2.425 18.489 7.764 21.888 8.642-1.009 2.211-2.186 5.358-4.309 6.67-2.716.419-17.753-6.603-21.116-8.364.689-2.523 2.462-4.835 2.927-7.37.116-.633-.056-.816-.41-1.331m5.378-75.464c-.487.124-.696.188-1.027.574-.173 1.315.863 2.559 1.484 3.657 3.728 6.59 4.163 14.282 1.944 21.458-.573 1.852-1.612 3.545-2.124 5.398.209.598.459.731.934 1.135 2.663-2.359 3.907-8.965 4.289-12.309.803-7.024-1.072-14.354-5.5-19.912m-33.734 36.049c-.123.001-.246-.017-.367.002-.48.074-.618.226-.876.588.025.162.009.337.075.487.459 1.044 2.991 3.536 3.844 4.617 1.149 1.456 2.165 2.973 3.154 4.541.169-.016.5-.04.655-.094.435-.152.467-.392.596-.779-.485-2.658-4.881-7.647-7.081-9.362" fill="#3B3937"/><path d="M223.636 200.515c-2.434.458-4.863.916-7.328 1.185-6.044.659-19.082 1.277-24.587-.473-3.799 6.382-9.883 16.01-17.508 17.915-1.835.459-3.542.474-5.409.249 2.838 4.793 5.475 9.503 9.645 13.321 4.433 4.059 9.946 6.867 15.116 9.86l16.02 9.392a264 264 0 0 1 9.418 5.817c2.654 1.702 5.349 3.554 8.158 4.989 1.226 4.273 2.921 8.298 4.6 12.404q2.934 7.22 5.979 14.395c3.924 9.304 7.565 18.73 11.797 27.902 1.451-1.591 2.895-3.117 4.616-4.424 4.465-3.393 12.745-7.415 18.32-7.664 1.112-.05 2.342-.03 3.412.289l.216-.221c-.653-1.282-1.001-2.989-1.411-4.378l-2.605-8.865a1110 1110 0 0 0-8.323-27.239c-1.948-6.059-3.899-12.517-6.699-18.222-1.035-2.109-2.367-4.061-3.736-5.966-5.094-7.09-12.013-13.227-18.854-18.616-3.882-3.057-7.97-6.103-12.113-8.791l-7.749-5.086c-1.049-.682-2.213-1.222-3.225-1.954-.444-.321-.786-.597-1.067-1.069-.085-.512-.103-.752.101-1.234l.415-.138c2.105.511 14.398 9.422 17.375 11.241l.165.099.034-.165c-.515-.947-2.657-2.088-3.592-2.751l-.028-.355c-.527-.182-.891-.205-1.186-.732-.762-1.36-.004-8.652.033-10.715" fill="#4A6B8D"/><path d="M228.464 247.351c-.257.106-.344.112-.544.295-1.302 1.187-2.292 6.997-2.506 8.824-.142 1.204-.261 2.054.53 3.066l.664-.178c.484-.612 1.356-6.192 1.683-7.432.246-.937.822-2.315.844-3.258.015-.611-.318-.87-.671-1.317" fill="#3B3937"/><path d="M236.812 111.531c-3.443-5.338-8.357-11.292-12.98-15.616 2.991 15.829 4.08 30.632 3.958 46.738-.075 10.002-1.077 20.269.136 30.222a95 95 0 0 0 4.192 18.204c1.85 5.436 4.112 10.8 5.526 16.371.168.66.486 1.559.039 2.169-.175.239-.348.389-.577.571-.452-.074-.617-.031-.905-.416-.921-1.231-3.187-9.963-4.126-12.368-.736-1.886-2.199-3.42-2.883-5.271l-.305-.02.272.304-.055.173c-.536 1.806.415 5.9-1.461 6.834-.765.38-1.328.378-1.628 1.287-.785 2.385.091 9.221-.497 10.805-.129.347-.401.602-.702.798.936.664 3.077 1.805 3.593 2.751l-.034.166a793 793 0 0 0 6.409 4.661c.431-.275.874-.549 1.281-.858 5.717-4.331 2.675-15.064 1.525-20.864-.737-3.716-1.504-7.452-2.005-11.208-.194-1.454-.558-3.198-.357-4.65.449-.54.895-.505 1.571-.658l-.122-.776c-.398.298-.76.561-1.218.765-.346-.182-.412-.191-.516-.595-.482-1.88.081-5.158.296-7.102.81-7.315 2.195-14.583 3.214-21.871.726-5.188 1.561-10.365 2.25-15.555.426-3.203.648-6.484 1.186-9.665.096-.565.226-1.139.545-1.625.216-.33.281-.3.622-.44.367.19.586.27.728.701.683 2.059-5.546 39.176-6.278 45.447 2.656 5.47 6.116 11.406 12.227 13.477 3.576 1.212 6.634.272 9.868-1.355 8.889-4.472 18.9-13.963 25.673-21.334-5.135-.725-10.201-4.17-13.279-8.277-1.78-2.377-3.175-5.603-2.698-8.619q.048-.31.104-.619c-2.716 1.858-18.112 13.971-19.185 14.194-.454-.158-.508-.209-.817-.58.012-.735.497-1.268 1.011-1.75 3.142-2.948 7.286-4.894 10.411-7.899-3.758-10.788-9.109-32.147-16.696-39.895-3.496-3.569-8.781-6.349-13.249-8.506a77 77 0 0 0-1.494-.71c1.779 1.641 9.113 10.45 9.226 12.688.031.628-.447 1.137-.873 1.544-1.479 1.415-3.502 2.516-5.213 3.655 2.016.966 5.892 2.311 6.618 4.625.232.738.156 1.516.036 2.267-.485 3.039-1.426 6.092-2.164 9.08-1.701 6.89-3.358 13.771-5.35 20.583-.52 1.78-.748 3.993-1.71 5.582-.179.295-.371.461-.676.627-.425-.034-.408-.01-.69-.327-.177-1.493 5.288-21.519 6.11-24.833 1.04-4.192 2.078-8.425 2.821-12.681q-.097-.072-.196-.142c-1.539-1.09-6.594-2.985-7.212-4.358.141-1.043 1-1.615 1.793-2.223 1.614-1.235 3.266-2.429 4.91-3.623" fill="#778EEE"/><path d="M230.117 10.56q-.684-.448-1.399-.844c-7.405-4.107-18.293-1.642-25.393 1.95-1.595.806-4.465 3.09-5.977 3.408-.596.126-1.265-.386-1.759-.674-.51.064-.733-.011-1.196-.226-.869-.659-1.577-.831-2.665-.688-5.284.694-10.881 5.473-13.907 9.627-4.885 6.704-6.724 15.735-5.398 23.876.715 4.393 2.833 10.492 6.269 13.512l1.367 1.45.229-1.334c.056-.331.104-.664.176-.992.445-2.005 1.805-3.908 3.54-4.996 1.577-.99 3.472-1.367 5.293-.936 2.834.67 4.758 2.774 6.249 5.127.718-3.025 1.502-6.233 2.59-9.142.369-.984 1.248-1.646 1.422-2.697-.735-.058-1.51-.039-2.059-.587-.059-.447-.084-.57.201-.966 1.041-1.449 3.728-2.703 5.16-4.935 1.031-1.605 1.995-3.513 2.497-5.36.399-1.467.142-3.96.93-5.116.518-.246.537-.318 1.081-.172.494.63.525 1.437.481 2.21-.3 5.278-2.59 9.421-6.523 12.863 2.141.04 4.133-.09 6.192-.725 6.496-2.001 12.017-8.629 12.001-15.569-.004-1.723-1.507-4.45-.716-5.94 2.404.427 4.352 1.741 6.887 1.983.82-.692 1.763-1.657 2.87-1.787 1.459-.172 2.831.536 3.961 1.393 4.719 3.579 8.929 10.358 10.582 15.994.68 2.32.961 4.732 1.303 7.12 1.692-3.108 2.398-6.98 2.151-10.5-.072-1.029-.433-1.96-.378-3.003.343-.472.386-.664.958-.835 2.154 1.122.572 4.578 1.546 6.345l.325-.187c1.039-1.754 1.411-3.32 1.539-5.335.318-5.015-1.714-9.496-5.013-13.192-3.977-4.454-10.327-7.547-16.247-8.138-1.825-.182-3.649.046-5.474-.082-.694-.048-1.364-.093-1.847-.643.009-.447.061-.597.387-.947 1.017-1.091 6.292-.41 7.764-.31" fill="#31302F"/><path d="M194.393 14.174c-.869-.659-1.578-.831-2.666-.688-5.283.693-10.881 5.473-13.907 9.627-4.885 6.704-6.723 15.735-5.398 23.876.716 4.393 2.833 10.492 6.27 13.511.412.034.22.067.577-.08.134-1.096-3.091-6.932-3.693-8.603-1.292-3.589-1.768-7.328-1.703-11.13.168-9.833 5.432-19.646 14.489-23.939 1.147-.544 5.196-1.646 5.836-2.344q.099-.113.195-.23" fill="#3B3937"/><path d="M290.278 112.584c-.461-.377-.666-.458-.77-1.073-.442-2.6 5.925-16.087 4.048-18.398-1.516-1.865-14.957-1.678-17.714-1.57-1.303.052-3.083.145-4.001 1.161-.563.624-.952 1.367-1.259 2.145-.666 1.691-1.067 3.608-1.562 5.366-1.323 4.692-2.47 9.411-4.033 14.037 3.074-.692 5.853-.37 8.947-.037-1.348-1.082-3.948-2.474-4.124-4.329-.08-.85.267-1.761.857-2.371 1.059-1.094 2.776-1.246 4.215-1.215 5.557.119 11.022 3.172 15.226 6.58z" fill="#688398"/><path d="M288.413 95.03a3 3 0 0 0-.311-.032 2 2 0 0 0-.516.047 3 3 0 0 0-.202.053 2 2 0 0 0-.29.114 3 3 0 0 0-.183.099 2.3 2.3 0 0 0-.334.247 2 2 0 0 0-.149.146 2.5 2.5 0 0 0-.251.33 2 2 0 0 0-.102.182 3 3 0 0 0-.083.19l-.036.098-.03.1a3 3 0 0 0-.046.203l-.016.102-.011.104a2 2 0 0 0-.007.207l.003.105.009.103.013.103a4 4 0 0 0 .042.204 3 3 0 0 0 .061.199 3 3 0 0 0 .079.192q.022.047.047.093a3 3 0 0 0 .105.18 2 2 0 0 0 .123.168l.066.08a2 2 0 0 0 .145.148l.078.07a2 2 0 0 0 .164.127q.043.03.087.058a2.2 2.2 0 0 0 1.006.333 2.2 2.2 0 0 0 .879-.111 2.1 2.1 0 0 0 .65-.355 2.16 2.16 0 0 0 .694-.95q.025-.068.048-.14.021-.07.037-.144a2 2 0 0 0 .047-.293 3 3 0 0 0 .007-.298 2.5 2.5 0 0 0-.066-.44 2 2 0 0 0-.042-.143 2.17 2.17 0 0 0-1.15-1.301 2 2 0 0 0-.276-.109 2 2 0 0 0-.289-.07" fill="#3B3937"/><path d="M229.222 187.83c-.385 3.663-.544 7.468-1.164 11.087l-2.33.808c-.232 2.349-.46 4.715-.511 7.076-.03 1.378.146 2.866.002 4.224-.038.357-.225.652-.43.937l.028.354c.3-.196.572-.451.701-.798.588-1.584-.288-8.42.497-10.805.3-.909.864-.907 1.628-1.287 1.876-.934.925-5.028 1.461-6.834l.055-.172-.272-.305.305.02c.684 1.851 2.147 3.385 2.883 5.271.939 2.405 3.205 11.138 4.126 12.368.288.385.453.342.905.416-.386-.341-.684-.659-.884-1.142-.908-2.198-1.418-4.658-2.182-6.922-1.607-4.767-3.413-9.461-4.818-14.296" fill="#4A6B8D"/><path d="M273.42 310.76c.536-.506 1.055-1.019 1.526-1.587 1.043-1.258 1.304-2.119 1.154-3.723l-.215.222c-.057.255-.073.654-.263.847-.709.724-2.986.594-3.99.67.525 1.236 1.086 2.425 1.788 3.571" fill="#5E5A55"/><path d="M229.115 24.755c-1.199.219-1.788 1.244-2.492 2.141-1.736-.498-3.571-.765-5.345-1.107q.2 1.5.192 3.012c-.023 4.75-2.335 9.45-5.676 12.758-4.206 4.165-8.982 5.222-14.701 5.197-1.243 3.46-2.69 7.284-3.354 10.895-.285 1.553.331 3.673-.321 5.05-.177.374-.262.398-.623.542-1.374-.464-2.552-3.041-3.448-4.204-1.259-1.631-3.083-3.294-5.217-3.49-1.476-.136-2.859.488-3.944 1.456-1.295 1.155-2.017 2.468-2.108 4.217-.169 3.216 1.622 6.161 3.71 8.461 3.553 3.915 6.719 4.889 11.845 5.12 2.341 5.436.734 10.467.965 15.89.131 3.065 1.35 7.454 2.304 10.398 3.258 2.679 7.827 4.999 11.754 6.433q1.078.361 2.185.615c2.157.49 5.019.594 6.908-.703.714-.489 1.15-1.2 1.226-2.068.141-1.603-1.084-2.62-1.281-4.095-.366-2.746.827-6.489 1.36-9.183-5.03-1.245-10.009-2.594-14.782-4.639-1.053-.451-2.464-1.01-2.913-2.14.095-.485.14-.489.516-.819 1.403-.278 4.222 1.55 5.658 2.095 6.753 2.564 13.846 5.364 20.862 2.154 4.642-2.124 7.389-6.096 9.133-10.783a30.2 30.2 0 0 0 1.656-7.045c.984-8.632.021-26.576-3.555-34.194-1.996-4.254-5.881-10.31-10.514-11.964" fill="#FFD6B6"/><path d="m232.992 72.074-.094.018c-1.643.294-2.844 1.657-4.591 2.005-2.254.448-5.028.016-7.158-.81-.771-.3-1.446-.75-2.287-.813-.534.19-.586.224-.931.674-.052.54-.021.64.199 1.14.12.08.239.16.364.231 3.372 1.921 8.363 2.17 12.034 1.086 1.019-.301 1.951-.75 2.455-1.74.343-.674.228-1.118.009-1.79m-3.889-18.573c-.17.02-.518.053-.674.103-.358.117-.565.384-.648.744-.475 2.064 2.673 7.022 3.747 8.932-.817 1.312-2.095 2.207-2.74 3.62.038.59.198.72.537 1.19 2.166-.619 3.31-2.525 4.357-4.373-.574-1.653-1.529-3.228-2.289-4.81-.848-1.764-1.569-3.587-2.29-5.407m-13.177-8.744c-.127-.013-.254-.032-.381-.038-1.982-.091-4.352.364-5.816 1.778-.527.508-.837 1.015-.847 1.76.166.244.173.38.48.456.835.205 1.647-.538 2.302-.982 3.473-1.859 4.723-.045 7.815-.222.097-.137.271-.369.323-.523.148-.44.002-.765-.276-1.103-.694-.842-2.569-.998-3.6-1.126m-1.009 8.271c-.241.023-.503.092-.74.138-.297.264-.515.473-.666.848-.529 1.321-.209 3.062.368 4.312.43.928.966 1.226 1.895 1.553.832-.487 1.32-.944 1.597-1.895.347-1.188.258-2.39-.357-3.476-.521-.919-1.116-1.18-2.097-1.48m20.807-2.876c-.659.072-1.302.295-1.729.829-.469.587-.555 1.393-.467 2.116.183 1.498.89 2.782 2.092 3.67.213-.02.37-.029.573-.069.543-.106.958-.499 1.244-.955.535-.854.513-1.955.279-2.902-.318-1.279-.871-2.018-1.992-2.689m3.014-9.03c-2.457-.104-4.804-.005-6.877 1.513-.547.4-1.028.91-1.063 1.627-.031.63.342.97.709 1.414 1.369-.611 2.343-2.234 3.857-2.526.902-.173 1.88.023 2.792-.07.554-.057.682-.238.998-.669.038-.583-.128-.807-.416-1.29" fill="#3B3937"/><path d="M201.901 104.06c-.314.215.342 2.811.462 3.336 2.102 9.185 4.448 18.088 5.35 27.506 2.285 23.87-3.806 44.154-15.211 64.949 2.808-.062 5.68.269 8.489.392 4.621.201 9.04.143 13.651-.248a75 75 0 0 0 11.566-2.258c.544-2.382 1.653-12.848 1.455-15.236-.187-2.258-.792-4.556-1.16-6.8-.532-3.254-.752-6.536-.831-9.829-.281-11.709.486-23.427.208-35.152-.181-7.666-1.097-15.319-2.021-22.925-1.302 1.225-2.568 2.056-4.362 2.424-6.037 1.239-12.754-3.001-17.596-6.159" fill="#F8FBFA"/><path d="M218.404 183.445c-.253.022-.446.033-.693.073-1.175.19-4.05 2.205-5.324 2.84-2.188 1.092-4.368 2.047-6.74 2.671-1.123.295-3.594.645-4.253 1.64-.06.591.143.886.429 1.373.448.021.872-.064 1.309-.152 3.068-.619 14.251-4.552 15.405-7.014.273-.584.06-.869-.133-1.431" fill="#3B3937"/><path d="M184.954 239.895c-.656.982-.846 5.441-1.05 6.835-.529 3.608-1.011 7.245-1.707 10.825-.386 1.989-.921 3.941-1.338 5.922-.322 1.534-.418 3.781-1.294 5.057-.331.481-.668.831-1.257.942l-.293-.317c-.317-1.426 2.095-10.75 2.592-13.056-1.973-.637-3.853-1.685-5.737-2.547a165 165 0 0 0-8.328-3.57c-6.302 6.542-9.353 16.328-9.459 25.248 4.829 3.562 9.734 6.631 15.148 9.229 3.004 1.408 5.994 2.815 9.149 3.86 4.739 1.569 12.05 3.984 16.723 1.53 6.183-3.247 12.535-16.693 15.091-23.188 1.116-2.835 1.992-5.761 2.88-8.672-3.134-1.66-6.148-3.633-9.178-5.476a480 480 0 0 0-13.348-7.843c-2.836-1.63-5.657-3.336-8.594-4.779" fill="#4A6B8D"/><path d="M144.693 237.792c-1.459.664-2.521 1.469-3.64 2.61-2.07 2.112-3.704 4.681-5.379 7.109-5.796 8.403-12.064 18.276-15.619 27.835-1.328 3.572-2.646 8.664-.959 12.328.654 1.421 1.884 2.741 3.405 3.229.445.143.91.242 1.366.342.234.075.415.074.663.074 4.711.004 8.441-5.658 11.461-8.661-.955-.754-1.62-1.667-2.304-2.663-.685-.998-1.673-2.376-1.434-3.642l.312-.17c1.94.589 3.426 3.682 4.468 5.329 1.287-.982 2.517-2.015 3.747-3.067-1.179-1.343-4.733-5.489-4.647-7.174.027-.524.133-.612.475-.969l.452.03c1.745 1.246 3.806 5.198 5.061 7.111.984-.972 2.054-1.855 3.105-2.753-.909-1.677-4.47-5.725-4.453-7.296.005-.475.063-.746.407-1.067.062.006.124.003.183.017 1.433.314 4.848 6.039 5.731 7.482 1.971-1.454 3.934-2.904 5.82-4.469-1.076-1.28-1.832-3.34-3.169-4.315-.328-.239-.389-.312-.802-.259-.018.609.041 1.301-.397 1.743-.24-.045-.257-.033-.507-.163-.884-.458-2.49-2.949-2.689-3.918-.524-2.564 1.83-6.239 3.131-8.328 2.027-3.256 4.745-7.916 8.714-8.836-3.204-1.788-6.179-3.909-9.434-5.641-1.003-.677-1.993-1.295-3.068-1.848" fill="#688398"/><path d="M144.693 237.792c-1.459.664-2.521 1.469-3.64 2.61-2.07 2.112-3.705 4.681-5.38 7.109-5.795 8.403-12.063 18.276-15.618 27.835-1.328 3.572-2.646 8.664-.959 12.328.654 1.421 1.884 2.741 3.405 3.229.445.143.91.242 1.365.342.235-.065.093-.01.397-.223a17 17 0 0 1-.245-.353c-1.926-2.828-2.682-4.059-2.006-7.569 1.666-8.651 8.448-18.832 13.064-26.366 3.523-5.748 7.017-13.211 12.685-17.094-1.003-.677-1.993-1.295-3.068-1.848m14.231-99.542c-7.082 2.957-13.535 7.21-20.595 10.122-.638 8.553-2.001 17.042-2.567 25.615-.153 2.317-.035 11.349-.777 12.84-.674 1.356-2.587 1.698-3.898 2.115l3.014 2.021c1.586.937 3.147 1.887 4.679 2.91 2.767-6.071 6.608-11.818 10.254-17.389 3.216-4.913 6.447-9.893 10.013-14.559.152-3.066-.176-6.214-.254-9.286q-.157-7.197.131-14.389" fill="#F8FBFA"/><path d="M275.227 108.316a6 6 0 0 0-1.173-.03c-.727.065-1.689.291-2.171.869-.495 3.541 13.441 6.266 14.603 9.502.145.404.165.696-.084 1.061-.676.988-1.849.03-2.636-.328-5.037-2.296-11.067-4.157-16.668-3.636-.889.082-1.98.208-2.55.978-.232.313-.27.726-.185 1.102.128.569.382.956.873 1.285.938.627 12.009 3.39 14.108 4.052.849.268 1.997.457 2.721.961.555.387.9.833.993 1.51-.255.352-.348.424-.826.444-1.233.051-3.064-.838-4.278-1.233-3.015-.982-12.181-4.095-14.802-3.182-.288.297-.502.424-.445.882.13 1.061 1.165 1.849 2.048 2.298 1.466.743 3.243 1.021 4.811 1.508 2.819.876 9.177 3.056 10.998 5.267.317.385.425.623.402 1.114l-.265.15c-1.623.093-7.978-3.326-10.169-4.159-1.477-.521-3.706-1.568-5.257-1.403-.489.053-.673.192-.995.543-.061.29-.122.565-.074.863.446 2.743 7.983 5.732 10.374 7.559.908.694 2.007 1.631 2.17 2.828-.221.406-.26.4-.687.592-1.526-.123-2.992-2.167-4.304-3.01l-.245-.156c.007 1.246-.03 2.556.37 3.75.368 1.101 1.277 2.213 1.403 3.362.181 1.653-1.143 2.844-2.101 4.01 1.415 4.56 4.864 7.989 9.009 10.173 1.728-1.857 2.988-4.2 4.233-6.394 4.071-7.179 7.233-14.534 8.397-22.764.344-2.43.883-7.414.318-9.746-.158-.655-.548-1.253-.958-1.778-.958-1.225-2.249-2.143-3.492-3.056-4.147-3.045-8.311-5.157-13.466-5.788" fill="#FFD6B6"/><path d="M313.768 311.235c-4.47-1.686-10.503 1.569-14.661 3.085-2.242.817-4.602 1.468-6.789 2.41-.746 1.795-1.429 3.868-3.239 4.862l-.475-.345c.113-1.539.735-2.661 1.435-4-1.214.408-2.459.779-3.652 1.24-.521 1.319-1.453 4.414-2.844 5.045-.487-.123-.462-.197-.744-.623-.127-1.373.746-2.796 1.317-4.005l-3.344.842c-.801 1.898-1.782 5.31-3.63 6.362-.502-.042-.48-.022-.818-.394-.163-1.654 1.533-4.096 2.275-5.557-2.602.57-4.901 1.349-6.451 3.699-1.573 2.388-2.315 5.003-4.531 6.972-1.614 1.435-3.905 2.596-5.853 3.526-.523.249-2.763.946-2.97 1.278-.658 1.056-.065 3.621.211 4.813.865 3.73 2.548 7.352 4.283 10.751a45 45 0 0 0 2.349 3.829c.95-2.173 3.014-4.169 4.707-5.781 2.354-2.241 4.925-4.283 7.392-6.401l11.552-9.981q5.892-5.081 11.86-10.072c2.706-2.277 5.494-4.926 8.578-6.67 3.098-1.753 5.648-2.419 9.212-2.328-1.463-1.827-2.956-2.232-5.17-2.557" fill="#688398"/><path d="M313.768 311.235c-2.376.279-4.73 1.222-6.745 2.51-2.941 1.88-6.011 4.061-8.668 6.313-2.093 1.774-4.051 3.705-6.132 5.491L277.9 337.745c-4.177 3.584-10.476 8.018-13.708 12.137-.332.423-.637.847-.904 1.315a45 45 0 0 0 2.349 3.828c.95-2.172 3.014-4.169 4.707-5.781 2.354-2.241 4.925-4.283 7.392-6.4l11.552-9.981q5.892-5.082 11.86-10.072c2.706-2.277 5.494-4.926 8.578-6.671 3.098-1.753 5.648-2.419 9.212-2.328-1.463-1.826-2.956-2.232-5.17-2.557" fill="#F8FBFA"/><path d="M127.74 186.278a84 84 0 0 0-14.563.747c-.613 6.24-1.71 15.841-.514 21.784.78 3.881 2.785 6.132 6.006 8.265-.951-1.291-2.483-2.894-2.556-4.542.228-.431.218-.419.674-.595 1.925.535 3.291 4.107 4.824 5.441.71.618 1.892 1.101 2.835 1.044.601-.782-2.545-4.599-2.42-6.06.043-.492.255-.579.619-.835.408-.033.672-.123.997.19 1.245 1.197 1.503 4.789 3.644 6.106.928.572 2.6 1.084 3.675.679.485-.183.517-.296.718-.734l-.296-.718c-.649-1.37-3.095-4.617-2.779-6.053.061-.28.227-.298.45-.437 2.914-.036 3.439 6.387 6.294 7.647.541.011.955-.125 1.396-.439 2.683-1.915-2.242-10.86-1.44-14.158.163-.669.475-.935 1.015-1.287.54-.076.751-.021 1.239.219.463 1.282.013 3.287.218 4.701.27 1.863.916 3.796 1.39 5.624.28-.37.565-.742.817-1.132 1.747-2.701 2.16-6.457 1.487-9.586-1.26-5.855-5.804-7.792-10.314-10.8-2.165-1.444-2.901-2.521-3.416-5.071" fill="#FFD6B6"/><path d="M317.988 315.601q-.108-.006-.216-.008c-2.845-.016-5.205 1.005-7.597 2.447-3.141 1.893-5.879 4.643-8.724 6.951a756 756 0 0 0-18.983 16.232c-3.483 3.026-7.137 5.907-10.492 9.072-1.893 1.786-3.544 3.803-5.408 5.619.743.713 1.515 1.337 2.33 1.962q.148.07.297.136c1.224.528 3.204-.243 4.395-.695 4.601-1.744 8.653-5.245 12.605-8.113 3.924-2.848 7.867-5.694 11.841-8.467 4.657-3.249 9.672-5.946 13.937-9.745 2.78-2.477 5.504-5.479 7.041-8.911.598-1.335 1.37-4.003.673-5.4-.372-.746-.962-.862-1.699-1.08" fill="#F8DCBE"/><path d="M269.75 307.657c-5.059 1.091-13.204 5.21-17.06 8.638 2.853 4.678 5.238 10.181 7.035 15.36l.493 1.474c2.243-1.225 4.901-2.349 6.668-4.247 1.266-1.36 1.556-2.691 2.181-4.356.939-2.498 3.877-4.244 6.074-5.53-1.678-3.839-3.537-7.585-5.391-11.339M156.913 247.31c-.34.098-.64.237-.926.447-3.456 2.542-8.352 10.384-8.94 14.697l1.363.172c.389.047.786.08 1.167.176 2.434.609 3.625 3.323 4.824 5.284.359.363.623.568 1.09.8.42-.193.835-2.713.983-3.322 1.344-5.491 3.821-9.882 6.777-14.641-2.04-1.17-4.074-2.952-6.338-3.613" fill="#5E5A55"/><path d="M285.355 154.051c-1.3 1.007-2.199 3.493-3.548 4.837l1.539.672c.681.155 1.541.421 2.244.284.552-.107.749-.294 1.084-.728.505-1.725-.602-3.54-1.319-5.065" fill="#4E8EC8"/><path d="M261.776 125.134c-.441.634-.489 2.075-.538 2.871-.053.877.199 1.172.747 1.794l.004-.202c-.388-1.74.156-1.901.951-3.284-.237-.61-.647-.791-1.164-1.179" fill="#688398"/><path d="M83.324 283.768a18 18 0 0 0-1.585-.117q-.795-.022-1.59.03a17 17 0 0 0-3.136.498c-3.574.944-6.355 3.032-8.177 6.254-1.873 3.312-2.29 6.923-1.26 10.589 2.174 7.731 10.383 11.601 16.824 15.253-1.307.126-2.463.252-3.627.931-1.317.77-2.264 1.997-2.635 3.481-.506 2.026.041 4.325 1.147 6.063.998 1.57 2.55 2.848 4.397 3.238 2.084.44 7.746-1.739 9.478-2.987 1.505-1.084 1.896-2.418 2.158-4.156 4.566 2.51 9.014 5.332 13.468 8.037a1098 1098 0 0 0 18.829 11.198c-.843-.02-1.732-.069-2.559.113-1.396.307-2.716 1.15-3.471 2.377-.948 1.539-.959 3.451-.49 5.152.565 2.046 1.903 3.97 3.824 4.948 2.575 1.31 5.722-.258 8.257-1.06.868-.327 1.759-.728 2.548-1.22 1.745-1.087 2.201-2.508 2.611-4.399.72.273 1.478.496 2.227.68 7.645 1.874 16.251.469 22.943-3.672 3.094-1.914 5.778-4.825 6.59-8.458.422-1.888.438-4.842-.696-6.49-.319-.463-.758-.871-1.195-1.222-3.821-3.075-10.148-3.243-14.694-5.012-2.855-1.111-5.571-3.006-8.198-4.593l-35.86-21.804-11.472-7.005c-2.652-1.621-5.298-3.351-8.109-4.687-2.123-1.009-4.233-1.584-6.547-1.96" fill="#3B3937"/><path d="M82.918 285.672c-1.44-.233-3.13-.146-4.563.139-3.051.606-5.85 2.276-7.58 4.896-1.72 2.604-2.353 5.674-1.704 8.74.95 4.486 4.16 7.607 7.877 9.995 4.523 2.906 9.248 5.533 13.858 8.301q14.221 8.637 28.559 17.08l11.268 6.779c2.745 1.655 5.547 3.603 8.581 4.668 4.371 1.534 9.556 1.756 14.065.764 3.38-.768 7.062-2.059 9.949-4.017 2.569-1.742 4.765-4.406 5.287-7.537.231-1.384.149-3.369-.741-4.528a5.2 5.2 0 0 0-1.229-1.145c-3.946-2.584-11.021-2.65-15.772-5.177-5.753-3.061-11.333-6.806-16.898-10.206l-28.871-17.532c-4.873-2.956-11.145-7.211-16.175-9.557-1.922-.897-3.82-1.356-5.911-1.663" fill="#36C99F"/><path d="M83.774 318.632c-.382-.022-.772-.043-1.15.033-.915.182-1.841.75-2.302 1.575-.641 1.146-.543 2.616-.152 3.826.607 1.876 1.747 3.117 3.477 3.999.608.062 1.324.145 1.91-.064a3.3 3.3 0 0 0 .568-.277q.135-.083.26-.18a3.2 3.2 0 0 0 .459-.434 3 3 0 0 0 .362-.517q.077-.139.14-.284c.569-1.304.335-3.002-.194-4.278-.687-1.657-1.737-2.712-3.378-3.399" fill="#688398"/><path d="M83.726 321.551c-.312.117-.63.24-.876.478-.35.339-.456.86-.386 1.327.157 1.054.932 1.832 1.754 2.425.293-.16.71-.362.922-.634.337-.429.44-.876.376-1.412-.121-1.009-1-1.69-1.79-2.184" fill="#3B3937"/><path d="M126.65 344.237c-.534-.051-1.061-.091-1.59.032a3.05 3.05 0 0 0-1.969 1.508c-.618 1.171-.453 2.651-.02 3.853.604 1.676 1.579 2.726 3.169 3.473.557.103 1.09.157 1.654.048.691-.133 1.359-.546 1.728-1.154.595-.981.515-2.394.268-3.466-.467-2.026-1.534-3.232-3.24-4.294" fill="#688398"/><path d="M126.398 346.983c-.248.074-.502.197-.742.295-.314.386-.519.585-.516 1.119.006 1.025.883 1.93 1.566 2.582.373-.079.734-.198 1.013-.477.349-.349.453-.792.404-1.269-.107-1.051-.915-1.71-1.725-2.25" fill="#3B3937"/><path d="M129.739 343.485c.057.301.33.577.491.844 1.904 3.149 2.031 4.588 1.235 8.097 1.016-.406 1.991-.867 2.974-1.345.564-.378 1.113-.791 1.479-1.375.334-.532.461-1.009.297-1.634-.406-1.548-5.033-3.669-6.476-4.587M87.705 318.42l-.192.113q.397.597.776 1.208c1.564 2.537 1.452 4.717.789 7.53.849-.317 1.657-.692 2.474-1.081a5 5 0 0 0 .978-.81 4.8 4.8 0 0 0 .739-1.033c.293-.541.374-1.121.174-1.713-.681-2.013-3.98-3.276-5.738-4.214" fill="#688398"/><path d="M97.214 14.614a29 29 0 0 0-.561-.03c-2.63-.098-5.286-.057-7.919-.061-6.14-.009-11.96-.047-16.7 4.462-4.409 4.193-3.844 12.09-3.987 17.735-.139 5.474-.036 12.15 4.089 16.328 4.453 4.51 16.605 3.587 22.58 3.492q5.325-.1 10.651-.049c.52.322.988.696 1.467 1.074 1.474 1.603 7.676 7.665 9.775 7.704.546.01.623-.09.993-.44.748-2.167-.213-6.604-.477-8.962 2.405-.543 4.711-1.03 6.634-2.696 2.891-2.505 4.075-6.736 4.345-10.427.197-2.675.085-5.374.016-8.052-.141-5.453-.063-10.476-3.899-14.808-6.361-7.186-18.452-4.76-27.007-5.27" fill="#3B3937"/><path d="M107.923 16.513a24 24 0 0 0-.615-.038c-3.448-.145-6.945-.028-10.4-.035-5.574-.01-12.486-.634-17.824.8-2.068.556-4.193 1.756-5.744 3.231-3.076 2.925-2.984 7.805-3.169 11.713-.09 1.93-.222 3.864-.24 5.795-.041 4.286.233 10.27 3.522 13.48 1.148 1.122 2.588 1.812 4.12 2.234 4.626 1.274 13.956 1.01 19.094 1.049 3.14-.14 8.234-.94 10.914.806 1.233.802 2.254 2.146 3.328 3.162 1.506 1.424 3.181 2.688 4.804 3.975q-.26-3.916-.586-7.828c2.374-1.52 5.353-1.36 7.493-3.313 2.57-2.346 3.426-6.12 3.561-9.457.093-2.274.008-4.579-.021-6.855-.061-4.944.136-10.293-3.468-14.164-3.822-4.106-9.53-4.345-14.769-4.555" fill="#D5DDFD"/><path d="M114.928 34.959c-4.136.099-34.052 0-35.363.743-.303.49-.277.56-.247 1.143.075.017.149.038.223.052 3.141.618 9.017.233 12.444.23q7.484.033 14.967-.097c2.099-.045 4.284.018 6.369-.192.526-.053.942-.084 1.386-.395.317-.488.246-.93.221-1.484m-.131-8.687-17.488.174c-3.743.02-7.59-.155-11.317.084-.51.033-.942.011-1.347.359-.173.566-.02.94.148 1.48a660 660 0 0 0 20.357-.122c2.87-.042 5.895.215 8.736-.06.543-.053.698-.18 1.093-.549.149-.515-.019-.88-.182-1.366m-1.089 17.065c-2.005.002-12.95-.324-13.989.657-.185.543-.046.72.124 1.256 3.566-.101 7.132.053 10.698.03.961-.006 2.553.135 3.264-.581.152-.572.046-.797-.097-1.362m205.97-25.515c-1.091-.11-2.213-.11-3.308-.076-5.173.163-10.433 2.834-13.936 6.584-6.506 6.965-8.032 17.197-3.293 25.541 1.497 2.635 4.443 5.092 4.757 8.228.447 4.464-3.604 8.243-2.597 12.909.461 2.135 1.876 3.997 3.077 5.774.191.283.64.792.743 1.094.041.121.026.603.028.758.003.325-.044.733.038 1.048.202.776.937 1.393 1.614 1.761 1.677.913 3.416 1.005 5.22.514 2.324-1.088 1.592-1.724 3.044-2.815 1.132-.852 2.482-1.414 3.623-2.284 3.416-2.603 3.06-6.668 3.642-10.453.988-6.417 4.113-6.484 8.417-9.694 4.522-3.372 7.358-8.244 8.147-13.82.82-5.799-.514-11.756-4.067-16.452-3.805-5.029-8.939-7.759-15.149-8.617" fill="#3B3937"/><path d="M319.664 19.72c-3.647-.605-8.026.471-11.206 2.267-4.753 2.685-8.137 7.347-9.585 12.572-1.368 4.934-.521 10.565 2.217 14.883 1.095 1.727 2.528 3.26 3.509 5.057 1.494 2.74 1.21 5.547.373 8.419 3.463.938 6.972 1.661 10.481 2.396q2.513.474 4.998 1.073c.799-3.639 1.782-6.797 5.214-8.816 1.314-.773 2.722-1.442 3.942-2.363 4.152-3.131 6.738-7.653 7.437-12.79.705-5.18-.589-10.743-3.793-14.923-3.336-4.352-8.186-7.026-13.587-7.775" fill="#FFCF32"/><path d="M313.7 37.508a4.8 4.8 0 0 0-1.232.09c-1.284.28-2.497 1.14-3.161 2.272-.828 1.411-1.043 3.266-.629 4.841.585 2.232 2.082 3.705 4.032 4.791-.258 1.245-2.106 7.765-2.009 8.252.106.536.19.574.628.828 2.411-.746 2.231-7.048 3.426-8.047.566.013.807.031 1.304.346.31 1.491-1.105 6.442-.716 9.088.084.574.202.889.666 1.236.468-.068.566-.177.945-.473.381-.85.292-2.026.331-2.953.107-2.373.532-4.722.896-7.066 1.812-.393 3.253-.875 4.644-2.158 1.542-1.423 2.767-3.733 2.802-5.86.017-1.066-.328-2.043-1.085-2.803-.717-.72-1.984-1.456-3.043-1.356-4.37.417-4.09 8.744-5.286 10.08-.513.056-.624.08-1.09-.128-.009-.396-.041-.298.047-.603.652-2.264 1.87-5.629 1.024-7.911-.499-1.344-1.229-1.883-2.494-2.466" fill="#3B3937"/><path d="M322.455 40.67c-.302.025-.692.031-.978.146-.956.386-1.543 1.526-1.902 2.427-.465 1.165-1.37 4.174-.906 5.32l.428.065c.86-.378 1.663-.757 2.347-1.418 1.141-1.1 2.183-2.65 2.164-4.293-.012-1.013-.431-1.585-1.153-2.247m-9.246-1.51c-.504.12-.892.255-1.311.571-.932.705-1.467 1.729-1.563 2.886-.143 1.738.581 3.028 1.708 4.272.347.274.571.516 1.03.54.986-1.49 1.359-4.325 1.284-6.094-.042-.999-.429-1.523-1.148-2.176" fill="#FEC273"/><path d="M303.757 69.95c-.216-.042-.335-.003-.547.045-.173.849.363 1.834.734 2.586 1.113 2.259 2.596 4.382 5.116 5.173 2.624.825 4.964-.234 7.259-1.411.831-.494 2.239-1.427 2.599-2.339.128-.324.117-.19-.036-.511-2.157-.144-4.359-1.051-6.462-1.577-2.871-.719-5.787-1.257-8.663-1.966m.951-5.121-.207-.005c-.878.532-1.06 2.153-1.3 3.104 5.306 1.454 10.774 2 15.928 4.058l.206.117.276-.19c.416-1.205.57-2.541.79-3.797-4.58-.287-11.046-2.176-15.693-3.287" fill="#688398"/><path d="M88.9 211.232c-1.653.011-3.923.552-5.503 1.062-1.04.335-2.013.842-2.505 1.866-.561 1.167-.041 2.317.392 3.424-2.162.711-4.33 1.407-6.46 2.208-1.524-1.884-2.86-3.486-5.136-4.482l-.165.014-.275.03c-2.256.227-9.559 2.759-11.2 4.176-1.288 1.112-1.025 4.904-1.104 6.523-1.482.621-3.405 1.211-4.217 2.727-.862 1.611-.231 4.087.23 5.766.96 3.5 4.157 14.167 5.846 16.955.602.994 1.625 1.723 2.615 2.288l.258.086c.931.292 1.85.342 2.8.139 2.184-.467 4.314-1.292 6.433-1.987l8.238-2.621 12.3-3.847c2.681-.819 6.092-1.486 8.517-2.879 1.203-.691 2.19-1.588 2.522-2.975.255-1.065.2-2.194-.01-3.26-.473-2.405-5.38-16.672-6.544-18.386-1.285-1.889-2.866-2.515-4.996-2.955-.4-1.718-.555-2.792-2.036-3.872" fill="#3B3937"/><path d="M91.334 216.955c-3.255.164-6.628 1.666-9.69 2.703a155 155 0 0 1-8.032 2.515c-1.026-2.311-2.246-3.882-4.44-5.157-3.27.976-6.692 2.329-9.819 3.703-.283 1.288-.245 6.052-.457 6.509-.476 1.026-3.848 1.133-4.59 2.843-.84 1.938 4.76 17.866 5.973 20.522.403.572.793 1.029 1.44 1.333.758.356 1.744.376 2.555.217 1.46-.288 2.994-.927 4.41-1.406q3.404-1.158 6.843-2.206l14.54-4.512c2.577-.799 5.272-1.486 7.792-2.445 1.036-.394 2.315-.936 2.75-2.053.338-.865.234-1.865.041-2.75-.589-2.704-1.887-5.45-2.8-8.075-.87-2.501-1.508-5.096-2.496-7.559-.86-2.145-1.9-3.29-4.02-4.182" fill="#688398"/><path d="M78.683 222.995a11.1 11.1 0 0 0-4.87.488 12 12 0 0 0-1.517.631 12 12 0 0 0-.953.541 12 12 0 0 0-.895.632 12 12 0 0 0-.83.716 11.5 11.5 0 0 0-1.103 1.218 11 11 0 0 0-.63.896q-.148.233-.282.47-.135.24-.26.484a11 11 0 0 0-.443 1.002 11 11 0 0 0-.478 1.572 11 11 0 0 0-.188 1.08 11.3 11.3 0 0 0-.056 2.188 12 12 0 0 0 .132 1.088 11.5 11.5 0 0 0 .397 1.595 11.4 11.4 0 0 0 .626 1.519 12 12 0 0 0 .538.955 12 12 0 0 0 .63.897 11 11 0 0 0 .713.832 11 11 0 0 0 2.109 1.74 11 11 0 0 0 1.446.779 11 11 0 0 0 1.021.398q.26.087.524.162a12 12 0 0 0 1.069.244 11 11 0 0 0 1.089.138 11 11 0 0 0 1.1.032 11 11 0 0 0 1.097-.077q.274-.033.545-.079a11 11 0 0 0 1.602-.396 11 11 0 0 0 1.028-.393q.252-.111.498-.233a12 12 0 0 0 .959-.54 12 12 0 0 0 .901-.632 10 10 0 0 0 .835-.716 12 12 0 0 0 1.11-1.22 12 12 0 0 0 .92-1.37 12 12 0 0 0 .496-.983 11 11 0 0 0 .397-1.025 11.4 11.4 0 0 0 .538-2.693 11.4 11.4 0 0 0 .001-1.649 11 11 0 0 0-.375-2.166 11.1 11.1 0 0 0-1.334-3.008 11.3 11.3 0 0 0-2.577-2.839 11.5 11.5 0 0 0-1.859-1.173 11.2 11.2 0 0 0-3.671-1.105" fill="#3B3937"/><path d="M78.034 224.97a9.5 9.5 0 0 0-1.344.008 10 10 0 0 0-.888.114 9.4 9.4 0 0 0-1.723.486 9 9 0 0 0-1.21.579 8 8 0 0 0-.756.482 10 10 0 0 0-.704.554 9 9 0 0 0-1.23 1.299q-.138.177-.266.361a9 9 0 0 0-.478.757 10 10 0 0 0-.401.801 9.3 9.3 0 0 0-.712 2.583 9 9 0 0 0 .001 2.235 9 9 0 0 0 .262 1.317 9 9 0 0 0 .852 2.066 10 10 0 0 0 .478.757 9 9 0 0 0 1.166 1.358 10 10 0 0 0 .677.587 10 10 0 0 0 .73.518q.19.12.384.232a10 10 0 0 0 1.212.578q.21.081.421.153.213.07.428.132a9 9 0 0 0 1.762.314 9 9 0 0 0 .902.026 9 9 0 0 0 .9-.062 10 10 0 0 0 .889-.151q.22-.048.438-.108a8 8 0 0 0 .858-.28q.21-.08.417-.171a9 9 0 0 0 1.195-.634 9.4 9.4 0 0 0 1.088-.802 10 10 0 0 0 .654-.621 9 9 0 0 0 .86-1.044 9.3 9.3 0 0 0 .89-1.567 8 8 0 0 0 .325-.842 9 9 0 0 0 .395-1.758 9 9 0 0 0 .065-1.35 9 9 0 0 0-.067-.9 9.1 9.1 0 0 0-.918-3.006 10 10 0 0 0-.446-.783 9 9 0 0 0-.809-1.084 9.2 9.2 0 0 0-2.836-2.196 9 9 0 0 0-.827-.361 9.3 9.3 0 0 0-1.739-.472 8 8 0 0 0-.446-.063 9 9 0 0 0-.45-.042" fill="#F8FBFA"/><path d="M78.2 227.775a6 6 0 0 0-.315-.033 6 6 0 0 0-.632-.02 7 7 0 0 0-.945.086 7 7 0 0 0-.923.223 6 6 0 0 0-.592.223 7 7 0 0 0-.568.28 7 7 0 0 0-.537.335 6.5 6.5 0 0 0-1.383 1.293 6.4 6.4 0 0 0-.686 1.062 7 7 0 0 0-.372.874 6 6 0 0 0-.175.608 6.4 6.4 0 0 0-.166 1.254 6.3 6.3 0 0 0 .08 1.261 6 6 0 0 0 .22.923 6 6 0 0 0 .354.881 6 6 0 0 0 .306.555 7 7 0 0 0 .359.521 6 6 0 0 0 .407.484 7 7 0 0 0 .454.442 6.4 6.4 0 0 0 1.587 1.032 6 6 0 0 0 .89.331q.15.043.306.081a6.5 6.5 0 0 0 2.834.035 6.6 6.6 0 0 0 2.055-.823 7 7 0 0 0 .772-.559 6 6 0 0 0 .68-.666 7 7 0 0 0 .576-.759 6 6 0 0 0 .32-.549 6 6 0 0 0 .373-.876 7 7 0 0 0 .176-.611 6.6 6.6 0 0 0 .168-1.258 7 7 0 0 0-.038-.952 6 6 0 0 0-.177-.936 6.6 6.6 0 0 0-.446-1.188 7 7 0 0 0-.308-.556 6.4 6.4 0 0 0-.772-1.007 6 6 0 0 0-.457-.442 6.5 6.5 0 0 0-2.492-1.356 6.5 6.5 0 0 0-.933-.193" fill="#3B3937"/><path d="M79.882 237.804a5.6 5.6 0 0 0 1.078-1.042c.81-1.034 1.145-2.448.98-3.74-.17-1.319-.838-2.583-1.918-3.377a4.3 4.3 0 0 0-.74-.438 4 4 0 0 0-.812-.277 4 4 0 0 0-.423-.075 4.4 4.4 0 0 0-.859-.017 4 4 0 0 0-.426.058c-1.43.27-2.569 1.236-3.367 2.406-.676.984-1.006 1.972-.786 3.175.26 1.418 1.263 2.731 2.476 3.482 1.046.648 2.194.872 3.39.538.537-.149.95-.382 1.407-.693" fill="#4A6B8D"/><path d="M79.882 237.804a5.6 5.6 0 0 0 1.078-1.042c.81-1.034 1.145-2.448.98-3.74-.17-1.319-.838-2.583-1.918-3.377a4.3 4.3 0 0 0-.74-.438 4 4 0 0 0-.812-.277 4 4 0 0 0-.423-.075 4.4 4.4 0 0 0-.859-.017 4 4 0 0 0-.426.058c-1.43.27-2.569 1.236-3.367 2.406.067.031.132.069.203.091 1.785.559 3.873-.914 5.222 1.262 1.201 1.939.428 3.785 1.062 5.149m8.714-24.541c-1.777.472-4.215.663-5.593 1.953-.196.613-.036.973.097 1.595 1.712-.235 4.015-.862 5.543-1.669.235-.629.06-1.238-.047-1.879" fill="#688398"/><path d="M342.92 143.494c-2.058-.337-4.334-.203-6.081 1.037-1.378.978-2.145 2.825-2.732 4.37-1.683 4.425-2.916 10.439-4.215 15.162-1.173 4.265-3.461 10.963-4.022 15.078-.225 1.644-.138 3.433.944 4.783.716.894 1.755 1.516 2.825 1.895 2.911 1.03 9.744 1.358 13.179 1.734 2.183.29 4.356.294 6.23-1.038 1.139-.81 1.549-1.815 2.052-3.075.915-2.292 1.465-4.819 2.122-7.196q1.862-6.762 3.653-13.544c.935-3.502 2.609-8.042 3.075-11.51a5.8 5.8 0 0 0-.029-1.717 6 6 0 0 0-.297-1.108 6 6 0 0 0-.509-1.029 6 6 0 0 0-.328-.471c-2.092-2.729-6.861-2.496-9.956-2.761a230 230 0 0 1-5.911-.61" fill="#3B3937"/><path d="M342.285 145.393c-1.427-.211-3.009-.212-4.264.58-1.227.774-1.77 2.526-2.254 3.832-.737 1.988-1.183 4.108-1.723 6.157a748 748 0 0 1-2.27 8.295c-1.304 4.708-3.285 10.397-4.177 15.106-.208 1.098-.073 2.334.611 3.25 1.854 2.482 12.08 2.698 15.368 3.078 1.614.193 3.279.346 4.638-.722.784-.616 1.05-1.582 1.358-2.491.832-2.458 1.441-5.03 2.124-7.534l4.014-15c.775-2.897 2.119-6.112 2.491-9.064.125-.994-.052-1.967-.696-2.757-1.901-2.327-11.956-2.451-15.22-2.73" fill="#87DEC5"/><path d="m354.337 149.558-.966.175c-.618.61-7.337 23.318-8.295 26.032-.462 1.309-1.383 3.176-.757 4.488.22-.033.553-.059.766-.154.357-.159.541-.407.698-.748 1.326-2.905 2.469-7.706 3.473-10.925 1.361-4.367 2.827-8.689 4.064-13.096.415-1.481.95-3.033 1.213-4.547.083-.476-.024-.782-.196-1.225m-21.449 30.546a10 10 0 0 0-1.986-.136c-.533.016-.71.084-1.059.477-.042.262-.144.434.019.669.767 1.105 4.235 1.026 5.559 1.17.583.07 1.174.158 1.76.196.709.044.814.032 1.363-.438.071-.26.202-.402.021-.641-.846-1.119-4.294-1.164-5.677-1.297M94.704 128.995c.713.15 1.485.31 2.214.172.528-.1 1.048-.413 1.273-.922.41-.933-.059-2.549-.322-3.508-.845-3.084-2.118-6.127-3.247-9.116-.566-1.499-1.041-3.193-1.794-4.601-1.608-3.01-7.264-9.551-9.562-12.465a1003 1003 0 0 0-9.984-12.575c-1.579-1.96-3.102-4.074-4.837-5.894-.978-1.026-2.09-1.69-3.304-2.389-1.336.245-2.506.66-3.75 1.185-2.258.962-4.693 2.856-5.612 5.196-.449 1.144-.476 2.096.025 3.216 1.869 4.17 5.174 7.898 7.974 11.481l7.827 10.089a704 704 0 0 0 6.098 7.838c.917 1.173 1.79 2.545 2.88 3.555 1.77 1.64 11.833 7.881 14.12 8.738" fill="#3B3937"/><path d="M81.19 117.91c1.226-.202 3.234-2.08 4.283-2.85-6.365-8.091-12.964-16.038-18.992-24.387-1.46.524-3.14 1.792-4.307 2.802 6.175 8.215 12.392 16.581 19.016 24.435m5.66-4.034c1.25-.41 2.698-1.648 3.817-2.397-6.192-8.252-12.655-16.288-18.99-24.428-1.29.432-2.748 1.698-3.877 2.495 3.333 3.38 6.133 7.9 9.06 11.654 3.304 4.234 7.015 8.199 9.99 12.676m-26.064-22c1.563-.49 7.49-5.203 9.567-6.496-1.262-1.69-2.468-3.257-4.095-4.611-.445-.372-.99-.627-1.496-.906q-.89.32-1.773.655c-2.922 1.108-4.402 2.4-5.69 5.258.546 2.153 2.262 4.255 3.487 6.1" fill="#FE7164"/><path d="M90.851 124.493c.241-1.051.195-2.228.903-3.122.567-.715 1.527-.909 2.365-1.094l-2.595-6.827c-1.001.561-1.936 1.257-2.882 1.906-1.865 1.495-3.922 2.721-5.785 4.224a647 647 0 0 1 7.994 4.913" fill="#F8DCBE"/><path d="M308.339 221.869c-.207.031-.381.192-.553.306-.14.304-.21.505-.191.847.055 1.01.913 2.411 1.181 3.466 1.165 4.591 1.305 10.861 5.507 13.978 2.245 1.666 4.868 1.764 7.509 1.324 1.442 2.416 2.939 4.811 4.641 7.054 5.037 6.64 19.231 22.883 25.935 26.819 1.553.912 2.708 1.238 4.475.781.13-.126.262-.25.384-.384.73-.809.941-1.655.86-2.732-.461-6.087-15.189-22.952-19.796-27.658-3.315-3.386-6.946-6.545-10.505-9.671.526-2.77.52-5.641-.966-8.141-3.8-6.393-12.437-4.405-18.481-5.989" fill="#3B3937"/><path d="M337.793 247.798c-1.829-.045-3.08.789-4.367 2.063-.696.689-1.398 1.609-1.323 2.644.095 1.287 2.531 3.474 3.413 4.456 5.103 5.681 10.325 11.253 16.271 16.07.783.624 1.827 1.469 2.854 1.573.513.051.872-.004 1.291-.321.233-.399.31-.681.264-1.149-.451-4.543-14.504-22.034-18.403-25.336" fill="#CF896C"/><path d="m310.676 224.438-.136.244c.357 3.713.902 8.123 2.692 11.456.945 1.758 2.466 3.262 4.428 3.804 2.008.556 3.815-.017 5.556-1.012q-1.8-2.853-4.021-5.392c-1.08-1.21-2.944-2.649-3.719-4.024-.294-.522-.139-.789-.007-1.319.2-.02.507-.07.713-.018 2.433.61 7.074 7.37 8.525 9.583a8 8 0 0 0 1.597-4.493c.087-2.02-.649-4.092-2.035-5.572-3.265-3.489-9.233-3.12-13.593-3.257" fill="#87DEC5"/><path d="M327.177 237.943c-1.218 1.025-2.311 2.167-3.558 3.179 1.238 2.479 4.594 7.718 6.654 9.45.495-.178.611-.588.881-1.025 1.408-1.8 2.76-2.818 4.86-3.695-2.935-2.64-5.805-5.381-8.837-7.909" fill="#C5E0EB"/><path d="M318.602 0a5 5 0 0 0-1.07.444 1.7 1.7 0 0 0-.215.742c-.1 1.477.24 8.927.74 9.945.103.21.299.358.449.537.251-.117.567-.236.786-.402.327-.248.386-.317.425-.716.17-1.742-.23-8.147-.648-9.759-.083-.32-.263-.54-.467-.791m30.652 42.687c-.883-.061-1.737-.146-2.618-.024-.392.282-.546.44-.736.886.063.266.026.272.292.479 1.233.961 5.974.835 7.688.882.701.085 1.537.266 2.236.186.501-.056.519-.189.795-.573.019-.29.102-.446-.089-.69-.955-1.224-5.923-1.05-7.568-1.146m.415-27.498c-1.966.504-7.005 4.69-8.32 6.298-.109.552.052.705.289 1.202l.205-.032c.214-.03.422-.055.632-.112 1.07-.295 6.986-4.962 7.627-6.008.025-.604-.156-.82-.433-1.348M282.242 36.43c-.377-.038-.777-.098-1.156-.084-.487.017-.658.179-.969.524-.062.562-.074.535.259.99 1.986 1.048 5.599.758 7.85.929q.459.026.919.014c.702-.022 1.161-.513 1.592-1.008l-.037-.288c-1.54-1.342-6.377-.92-8.458-1.077m11.286-26.901-.795.09c-.408.29-.389.312-.524.8.43 2.393 3.529 5.705 5.229 7.447l.521.053c.469-.22.482-.195.69-.663-.174-1.475-4.054-6.106-5.121-7.727" fill="#3B3937"/></svg>