<svg width="164" height="164" viewBox="0 0 164 164" fill="none" xmlns="http://www.w3.org/2000/svg"><path d="M54.53 48.759c-1.995-1.545-3.536-3.402-4.532-5.584-2.634-5.779-1.061-13.683 1.64-19.273 3.424-7.084 9.916-13.179 18.048-16.052 5.455-1.927 12.365-2.493 18.036-1.006 1.994.523 3.888 1.475 5.897 1.917 2.52.554 4.853.415 7.336 1.386 6.67 2.608 10.616 8.34 13.122 14.146 3.717 8.614 4.14 17.184-.149 25.674q.29.861.412 1.754c.479 3.304-.992 7.232-3.308 9.813-1.835 2.044-3.921 2.995-6.811 3.281a27 27 0 0 1-.761 2.453 27 27 0 0 1-.999 2.385 28 28 0 0 1-2.677 4.495l.158 5.667c2.609 1.306 4.316 3.504 6.703 5.046 7.673 4.954 17.942 8.214 21.93 16.496 4.71 9.781 3.622 42.885-1.119 53.281-2.029 4.452-4.909 6.67-9.809 8.52-.174.245-.345.522-.584.721-.531.442-2.606-.47-3.528-.47l-.254.001c-5.601.458-11.391.199-17.022.196l-28.964-.007c-4.952.001-9.986-.17-14.93.024-.807.326-1.09.248-1.902.002-3.097-.236-9.179-.25-12.254.082-.173.044-.354.097-.535.114-.551.053-.697.02-1.142-.267-.737-1.719-.036-6.027.08-7.948.875-14.589 2.822-33.55 9.365-46.898-.773-3.417-2.528-7.419-2.633-10.841-.033-1.078.252-2.215 1.153-2.99 2.004-1.723 7.085-.804 9.745-.826 4.118-2.978 8.828-5.077 13.37-7.463 2.345-1.23 4.587-2.677 6.842-4.035-2.229-.808-4.4-1.667-6.372-2.911-6.161-3.889-8.34-9.46-9.57-15.728-1.809-1.556-3.3-3.285-4.172-5.402-1.298-3.148-1.445-6.694.19-9.753" fill="#32271E"/><path d="M52.895 129.711c4.305 5.263 10.128 10.074 17.06 12.438 1.192.407 2.434.773 3.7.947 2.093.29 5.856-.056 7.34 1.472.15.508.12.58-.074 1.082-.816-.011-1.793-1.299-2.593-1.648-.671-.293-1.617-.175-2.286.052a4.04 4.04 0 0 0-2.296 1.943c-.56 1.076-.7 2.3-.195 3.416q.076.169.171.328a3.5 3.5 0 0 0 .73.868 3.7 3.7 0 0 0 .638.451 4 4 0 0 0 .73.325 3.97 3.97 0 0 0 2.803-.13c1.373-.584 1.883-1.619 2.382-2.802 10.517 5.658 19.77 13.128 32.276 14.958-5.601.458-11.391.199-17.022.195l-28.964-.006c-4.952 0-9.986-.171-14.93.024.398-11.298.084-22.624.53-33.913m-14.686 33.996c.496-4.11.407-8.297.735-12.424 1.033-13 2.831-27.444 7.886-39.73 1.134 4.385 3.055 10.062 3.582 14.433.373 3.105.231 6.36.232 9.48q-.02 9.183-.167 18.364c-.036 3.24-.23 6.564-.015 9.795-3.097-.236-9.178-.25-12.253.082" fill="#778EEE"/><path d="M106.549 87.453c2.59.92 5.191 2.575 7.556 3.915 6.707 3.799 12.098 7.265 13.901 14.606 2.478 10.098 2.188 42.21-4.069 50.688-1.686 2.286-4.161 3.964-7.213 4.509-8.101 1.446-17.335-4.43-23.735-8.123a869 869 0 0 1-9.147-5.321c4.596-3.857 6.53-10.913 7.483-16.239l12.932 5.49c1.597.696 3.241 1.34 4.813 2.076 1.609.753 3.36 1.858 5.094 2.325.686.184 1.009.202 1.625-.097.171-.454.155-.541.055-.991-1.472-1.496-4.812-2.519-6.847-3.395.815-6.991 2.06-14.063 4.38-20.799.419-1.216.885-2.43 1.458-3.596.61-1.243 1.584-2.557 1.874-3.885.13-.594.117-.91-.262-1.398-.421-.003-.538-.01-.867.238-.942.713-1.606 2.17-2.119 3.169-4.051 7.886-5.364 16.875-6.429 25.41-5.43-2.352-10.829-4.798-16.367-6.944 2.893-3.636 5.995-7.165 8.988-10.739 2.032-2.427 4.154-4.843 5.733-7.531-1.272-2.203-3.304-4.194-5.039-6.127 2.493-.913 5.115-1.521 7.66-2.312.278-4.83-.836-10.131-1.458-14.929" fill="#778EEE"/><path d="M80.064 26.253c.912 5.83 3.247 10.904 8.16 14.999-1.187.194-2.662.319-3.501 1.18-.409.42-.443.645-.44 1.163.368.319.547.443 1.091.385.838-.09 1.611-.495 2.48-.546 2.723-.16 3.755 1.796 6.032 2.402.575.153.814.126 1.348-.08.107-.696-.46-1.113-.43-1.795.191 0 .334-.003.52.049 5.758 1.611 4.707 5.02 6.707 9.05l.115.225c1.703-1.833 2.304-4.146 5.103-4.984.917-.275 1.969-.416 2.855.018.952.468 1.445 1.419 1.733 2.309.844 2.605.055 5.951-1.431 8.267-2.155 3.358-3.714 2.97-7.247 4.057-1.374.422-2.006 4.394-2.605 5.664-2.534 5.379-6.66 9.458-12.83 11.702-2.15.621-4.335 1.074-6.606 1.104-5.014.066-10.2-1.869-13.783-4.956-6.34-5.463-6.807-12.89-7.55-20.205-.344-3.393-.757-6.816-.81-10.224 1.764-2.602 3.914-5.025 5.795-7.567 1.91-2.58 3.537-5.29 5.189-8.003.196 3.211.455 6.373 2.346 9.217.783 1.178 2.634 3.246 4.247 3.5.457.072.642-.037.993-.272.579-1.505-1.058-3.48-1.361-4.987-.848-4.214 1.155-8.348 3.88-11.672" fill="#FECFAA"/><path d="M88.129 66.39h.646c.502.254.623.366.747.885.532 2.22-.917 5.873-2.431 7.638-1.064 1.24-2.56 2.173-4.334 2.352-2.37.24-4.402-.83-6.19-2.08a16 16 0 0 1-1.47-1.46c-1.11-1.261-2.868-3.54-2.634-5.169.268-.379.389-.545.915-.613 1.254-.16 2.914.11 4.225.106 3.676-.014 7.052-.636 10.526-1.659" fill="#32271E"/><path d="m86.459 69.028.599-.039.194.272c.017 1.166-.561 2.496-1.242 3.485-1.083 1.573-2.063 2.182-4.08 2.603-1.483-.323-2.571-.832-3.792-1.646-1.237-1.053-2.08-2.24-2.879-3.576 3.88.025 7.406-.372 11.2-1.1" fill="#FE997F"/><path d="m66.53 41.394.148-.001c1.154.022 3.04.15 3.817 1.013.338.376.394.582.342 1.043-1.193.87-3.505-.094-5.025.18l-.25.045c-.906.315-2.365 1.362-3.292 1.243-.447-.334-.556-.412-.752-.894.044-.19.08-.365.195-.533.827-1.202 3.35-1.885 4.817-2.096m20.977 10.078c.805.175 1.309.353 1.77.993.675.938.8 2.045.544 3.115-.222.925-.603 1.299-1.47 1.811-.645-.135-1.163-.25-1.6-.72-.715-.77-.937-1.766-.802-2.736.157-1.126.555-1.763 1.558-2.463m-19.673.58c.918.107 1.578.259 2.142.953.534.657.644 1.428.447 2.207-.258 1.02-.794 1.471-1.72 2.025l-.19-.013c-.797-.07-1.296-.236-1.793-.813-.58-.675-.678-1.515-.5-2.33.213-.98.723-1.49 1.614-2.029m6.491 7.933c.044-.002.09-.007.134-.006.602.009.872.099 1.283.475.174.677-.192 1.402-.41 2.053.57.4 1.099.744 1.507 1.287.075.61-.07.846-.329 1.4-.738-.105-1.524-.328-2.122-.74-.65-.447-1.114-1.114-1.176-1.85-.09-1.069.39-1.828 1.112-2.62" fill="#32271E"/><path d="M56.076 110.354c4.8.095 12.652 4.939 16.799 7.386 1.438.849 2.938 1.934 4.502 2.574.438.18.576.106 1.011-.054.295-.336.287-.393.323-.823-.627-1.525-3.878-2.92-5.407-3.852l-.651-2.353c10.127 5.425 8.128 8.539 12.715 16.455.582 1.004 1.12 1.992 2.13 2.715.466.091.966.129 1.326.428-.084 3.725-2.501 8.382-4.725 11.499-5.023-3.897-5.737-2.143-11.247-3.514-6.91-1.72-15.175-7.431-18.663-12.982-.142-.226-.233-.25-.148-.514l.924.507c1.797 1.227 5.887 4.391 8.112 4.67.531.067.764-.164 1.14-.433l.037-.391c-.748-1.372-8.163-5.485-10.117-6.79-1.02-.681-2.534-1.901-2.666-3.105-.048-.432.02-.477.325-.813 3.974-.76 11.216 6.301 14.69 6.931.535.097.708.029 1.147-.229.128-.339.329-.733.085-1.082-.526-.752-2.187-1.45-3.043-1.943-2.258-1.303-4.417-2.676-6.744-3.894-1.803-.943-3.843-1.703-5.535-2.792-.518-.334-.876-.662-1.102-1.204.052-.489.076-.72.517-1.074 3.66-2.937 15.514 7.246 18.255 7.115.546-.026.713-.16 1.06-.508-.048-.532-.135-.728-.558-1.127-1.637-1.543-8.165-4.835-10.468-5.935-1.493-.712-3.854-1.5-5.031-2.542-.43-.38-.393-.618-.376-1.11.352-.58.791-.851 1.383-1.216" fill="#FECFAA"/><path d="M99.917 82.215c1.367.49 2.943 2.296 3.981 3.23 1.345 3.555 1.584 11.44 1.964 15.496-2.172.6-5.285 1.127-7.126 2.249-.46.28-.77.613-.855 1.103-.226 1.306 4.089 5.349 5.066 6.61-3.532 4.713-7.453 9.213-11.26 13.752a461 461 0 0 0-3.967 4.895c-.843-1.341-1.553-2.695-2.231-4.106l7.218-19c2.807-7.464 6.508-16.427 7.21-24.229" fill="#778EEE"/><path d="M83.572 97.856c1.137.378 6.307 6.205 7.42 7.376-.937 2.254-5.806 16.064-6.61 16.88l-.212-.407c-1.755-4.02-4.125-6.29-7.918-8.859q-.413-3.948-.643-7.908c2.564-2.423 5.314-4.729 7.963-7.082" fill="#FEFEFE"/><path d="M97.46 76.72c.603 1.475.29 3.903.29 5.47-1.772 1.679-3.439 3.44-5.235 5.102-2.792 2.581-5.75 5.04-8.646 7.53l-3.397-3.453c-1.167-1.236-2.336-2.462-3.402-3.768-.236-1.516-.232-3.056-.278-4.584 1.554.364 3.078.518 4.687.481 6.365-.145 11.701-2.747 15.98-6.778" fill="#FECFAA"/><path d="M73.389 85.642c.414.316-.068 3.703-.094 4.42-.255 6.945-.17 14.926.916 21.788l-2.076-1.131-.558-2.313c-.9-3.042-2.129-10.241-3.488-12.571-.331-.567-.867-.925-1.423-1.308 1.763-4.278 2.4-6.15 6.723-8.885" fill="#778EEE"/><path d="M96.97 85.996c.605 1.585-4.274 14.494-5.163 16.852l-2.794-2.805a172 172 0 0 1-3.601-3.748c3.957-3.354 7.904-6.68 11.557-10.299M75.4 89.148c1.455 1.004 5.169 5.434 6.918 7.084-1.138.933-2.23 1.915-3.338 2.878a371 371 0 0 1-3.515 3.109c-.299-4.316-.257-8.75-.065-13.07" fill="#FEFEFE"/><path d="M66.5 89.393c.121.723-1.68 4.014-2.077 4.87-2.088.003-4.178-.036-6.266-.056l-.013-.091c.586-1.112 6.865-4.026 8.357-4.723" fill="#778EEE"/><path d="M56.344 49.953c.128.06.189.08.304.175.606.498 1.162 8.354 1.224 9.63l-.25.035c-.609-.993-1.112-1.98-1.461-3.07-.678-2.119-1.088-4.765.183-6.77" fill="#FECFAA"/><path d="M76.266 146.11a3 3 0 0 1 .255-.076 3 3 0 0 1 .264-.046q.068-.008.134-.011.068-.004.135-.003a2 2 0 0 1 .4.037 2 2 0 0 1 .26.064 2 2 0 0 1 .248.093 2 2 0 0 1 .231.122 2 2 0 0 1 .483.412 2 2 0 0 1 .207.306 2 2 0 0 1 .098.223 1.4 1.4 0 0 1 .065.231 1.7 1.7 0 0 1 .022.476 1.4 1.4 0 0 1-.042.236 1.7 1.7 0 0 1-.253.549 1.9 1.9 0 0 1-.778.645 3 3 0 0 1-.245.098 3 3 0 0 1-.284.073 3 3 0 0 1-.195.028l-.098.007-.099.004-.098-.001a3 3 0 0 1-.197-.014l-.097-.014-.097-.017a3 3 0 0 1-.19-.048l-.092-.03-.091-.033a2.5 2.5 0 0 1-.342-.173 2.2 2.2 0 0 1-.427-.361 1.7 1.7 0 0 1-.254-.373 1.7 1.7 0 0 1-.146-.417 1.4 1.4 0 0 1-.032-.26 1.6 1.6 0 0 1 .203-.847 2 2 0 0 1 .094-.153 1.6 1.6 0 0 1 .172-.213 1 1 0 0 1 .133-.129q.035-.031.072-.06.037-.03.075-.057t.078-.053.08-.051a3 3 0 0 1 .258-.128z" fill="#FEDD35"/><path d="M48.838 99.278a2 2 0 0 1 .246-.062 1.8 1.8 0 0 1 .425-.032 2 2 0 0 1 .813.204 1.7 1.7 0 0 1 .342.225 1.5 1.5 0 0 1 .224.228 1.7 1.7 0 0 1 .17.262 2 2 0 0 1 .063.141 1.5 1.5 0 0 1 .095.445 1.5 1.5 0 0 1-.034.376 1.3 1.3 0 0 1-.1.289l-.035.069a1.3 1.3 0 0 1-.125.198 2 2 0 0 1-.157.18l-.058.055a2 2 0 0 1-.126.102l-.067.047q-.033.023-.069.045a2 2 0 0 1-.521.215 2 2 0 0 1-.231.043 1.5 1.5 0 0 1-.235.015 2 2 0 0 1-.236-.012l-.116-.017a1.5 1.5 0 0 1-.228-.053l-.11-.037-.108-.043a1.9 1.9 0 0 1-.556-.382 2 2 0 0 1-.142-.168 1.5 1.5 0 0 1-.235-.477 1.4 1.4 0 0 1-.046-.519 1.4 1.4 0 0 1 .148-.504 1.6 1.6 0 0 1 .69-.697 1.7 1.7 0 0 1 .319-.136" fill="#FEFEFE"/><path d="m56.3 80.967.974.092c.424.277.675.407.754.916.242 1.563-1.209 5.85-2.18 7.196-.365.026-.717-.03-1.077-.074-.344-.272-.536-.364-.637-.794-.373-1.58 1.156-6.002 2.167-7.336m-12.386-.005c.505.007.844.016 1.297.224 1.01.982 1.215 3.142 1.41 4.454.202 1.344.609 2.425-.373 3.566-.39-.039-.718-.17-1.076-.3-.899-.843-1.134-2.512-1.344-3.623-.25-1.32-.834-3.174.086-4.321m-9.816 4.458c.246.084.485.168.706.297 1.186.693 4.62 4.268 4.888 5.405-.148.634-.588.903-1.11 1.31a4.4 4.4 0 0 1-.926-.547c-1.342-1.073-4.47-3.804-4.592-5.446.283-.557.469-.651 1.034-1.018" fill="#32271E"/></svg>