<svg width="164" height="164" viewBox="0 0 164 164" fill="none" xmlns="http://www.w3.org/2000/svg"><path d="M32.712 17.093c.516-.04 1.046-.023 1.564-.03 10.84-.129 21.697-.02 32.539-.02l8.95.002c1.615 0 3.44-.153 5.026.127 1.906.336 4.324 1.871 5.67 3.204 1.495 1.48 2.717 3.513 3.274 5.538.84 3.053.49 11.847.487 15.453 4.14.196 8.372.01 12.524.01l21.728.072 7.274-.017c1.411-.005 2.966-.154 4.35.107 2.07.39 4.372 1.673 5.893 3.098 2.682 2.513 3.706 5.644 3.806 9.224.127 4.597.067 9.243.07 13.843.004 4.193.349 10.546-.713 14.54-.486 1.83-1.505 3.46-2.807 4.822-2.434 2.546-5.91 3.742-9.38 3.813-.212 2.161.382 4.75-.031 6.804-.139.696-.512 1.292-1.109 1.688-.289.192-.811.469-1.162.47-1.781.006-8.83-5.69-10.5-6.95-.78-.59-1.997-1.788-2.925-1.98-1.43-.298-3.063-.163-4.527-.163l-7.169.011-14.052.027c-1.959.011-3.937-.045-5.892.03a.6.6 0 0 0-.348.123c-.538 1.344-.11 7.257-.235 9.227 4.541.194 9.133.079 13.68.079l21.958.022 8.047.013c1.752-.008 3.694-.176 5.424.099 1.508.24 2.984 1.061 4.207 1.945 2.399 1.736 4.356 4.174 4.812 7.165.395 2.588.15 6.395.156 9.108l.005 6.481c-.003 1.577.084 3.256-.206 4.809-.283 1.521-.93 2.898-1.864 4.129-1.647 2.171-4.037 4.035-6.726 4.668-.88.206-1.835.244-2.731.374-.502.999-.28 2.192-.235 3.275.075 1.827.199 3.049-1.109 4.471-.417.272-.932.351-1.41.463-2.337-.529-7.522-4.822-9.648-6.374-.733-.536-1.52-1.21-2.34-1.599-1.825-.865-24.422-.264-28.407-.416-2.886-.11-5.66-1.499-7.6-3.626-.959-1.051-1.764-2.351-2.167-3.722-.972-3.306-.624-11.33-.46-15.012-2.848 1-15.939.655-19.877.654-4.517-.002-9.02.004-13.536.14-2.37 1.324-11.028 8.637-12.918 8.81-.715.066-1.54-.79-2.046-1.218-.831-2.345-.344-5.129-.449-7.59-3.294-.221-6.391-1.293-8.606-3.855-1.169-1.352-2.133-3.044-2.525-4.797-.694-3.096-.371-9.663-.371-13.18 0-3.594-.181-7.287.094-10.87.24-3.134 1.85-5.584 4.207-7.582 1.449-1.228 2.818-1.81 4.668-2.124 3.057-.519 6.259-.435 9.351-.437h10.77q7.776-.084 15.552-.048c2.967.002 5.978-.1 8.936.144-.094-5.882.192-11.812-.098-17.685-4.556.361-9.182.167-13.75.174-1.818.003-4.968-.266-6.593.248-.88.278-1.719 1.13-2.417 1.705-.899.739-1.856 1.393-2.77 2.11-2.075 1.623-5.48 4.57-7.798 5.52-.578-.157-1.17-.345-1.644-.725-1.652-1.326-1.286-3.825-1.299-5.694a33 33 0 0 0-.172-3.203c-3.148.04-5.889-.593-8.327-2.712-2.388-2.076-3.855-4.594-4.066-7.773-.269-4.055-.15-8.226-.124-12.292.018-2.798-.26-6.057.386-8.784.373-1.578 1.224-3.035 2.291-4.243 1.987-2.251 4.358-3.943 7.44-4.118" fill="#000"/><path d="M85.142 43.895c2.79-.167 5.645-.065 8.442-.067l14.893-.003 16.173.007c3.522.004 7.076-.068 10.593.127 2.254.125 4.054 1.155 5.542 2.833 1 1.128 1.96 2.64 2.26 4.138.306 1.535.206 3.25.21 4.81l.013 6.239-.006 11.275c-.005 2.3.059 4.623-.091 6.917-.1 1.531-.705 2.894-1.605 4.132-3.854 5.295-8.508 2.692-10.407 4.51-.735.704-.382 6.142-.368 7.309l-.075 1.414c-4.605-2.678-8.478-6.554-13.014-9.342-3.47.145-6.992.013-10.465-.026l-14.923-.13c-2.796-.032-9.148.25-11.576-.253-1.321-.273-2.748-1.335-3.724-2.236-2.614-2.414-2.892-5.235-3.013-8.596-.23-6.391-.019-12.882.192-19.275.082-2.485-.087-5.39.529-7.79.339-1.322 1.033-2.296 1.965-3.281 2.503-2.649 5.083-2.629 8.455-2.712" fill="#FEFEFE"/><path d="M89.874 55.108c3.045-.132 6.125-.07 9.174-.071l15.052-.004 10.395.009c2.077.01 4.248-.07 6.312.177.69.083 1.23.438 1.818.783-.397.535-.77 1.091-1.152 1.637l-1.946-.037c-9.713-.126-19.44-.025-29.156-.02l-7.79.009c-1.77.008-3.562.093-5.324-.078-.086-.372-.2-.772-.222-1.153-.016-.286.078-.603.282-.81.499-.504 1.881-.41 2.557-.442m-.031 10.862c5.35-.145 10.735-.044 16.087-.037 5.181.006 10.396-.091 15.571.146.078.654.123 1.261.078 1.919-.769.117-1.528.134-2.304.15l-21.844.023-7.038-.019c-.761.001-1.525.124-2.284.09-.284-.012-.55-.066-.771-.254-.197-.167-.295-.418-.317-.673-.03-.347.012-.792.274-1.053.455-.452 1.903-.281 2.548-.293m-1.89 10.474c4.115-.278 8.342-.035 12.472-.03 4.525.007 9.186-.252 13.686.17.238.214.48.44.672.698a.83.83 0 0 1 .166.668c-.105.511-.725.814-1.128 1.08-.238.107-25.085.085-26.128-.242a.97.97 0 0 1-.585-.494c-.18-.389-.059-.901.11-1.272.153-.336.409-.446.735-.578" fill="#000"/><path d="M55.367 77.066c5.394-.13 10.795.072 16.188-.103.094 2.58.36 5.087 1.658 7.387 2.285 4.048 5.482 5.29 9.669 6.437q-.095 5.259-.051 10.519c.001 2.002.125 4.097-.171 6.082-.453 3.038-2.693 5.785-5.572 6.891-2.6 1-11.176.641-14.27.645l-13.085.014c-1.587-.008-4.1-.325-5.585.127-.985.299-1.983 1.239-2.808 1.856a552 552 0 0 1-5.753 4.253c-1.178.862-2.317 1.778-3.59 2.497-.185-2.226.067-4.472-.061-6.696-.023-.4-.092-1.185-.335-1.509-.503-.673-3.887-.662-4.844-.926-1.214-.336-2.303-.971-3.229-1.822-1.899-1.744-2.968-3.884-3.05-6.461-.138-4.394-.086-8.805-.09-13.2-.004-2.737-.267-7.326.342-9.856.315-1.31 1.06-2.438 1.984-3.404.964-1.008 2.23-1.976 3.602-2.334 2.013-.524 6.43-.324 8.623-.337 6.805-.04 13.626.117 20.428-.06" fill="#36C99F"/><path d="m35.988 19.34.94-.013c9.927-.127 19.864-.038 29.791-.034l8.685.037c1.584.01 3.411-.126 4.959.183 1.634.325 3.314 1.543 4.476 2.69 1.112 1.099 1.937 2.365 2.388 3.867.897 2.983.522 11.639.539 15.117-4.328-.124-8.748.156-12.077 3.245-2.99 2.773-3.97 6.237-4.112 10.174q-2.145-.008-4.288.012c-2.46.044-15.726-.205-16.97.282-1.53.599-4.071 3.003-5.47 4.07a232 232 0 0 0-3.285 2.506c-1.14.903-2.287 1.997-3.583 2.665l-.14.071c-.028-2.388.108-4.799.003-7.183-.023-.54-.053-1.283-.457-1.688-1.329-1.33-5.838.278-9.51-3.138-2.109-1.961-2.93-4.376-3.041-7.189-.108-2.723-.08-5.46-.094-8.185-.018-3.47-.37-7.43.561-10.792.409-1.476 1.182-2.762 2.225-3.877 2.492-2.665 5.08-2.717 8.46-2.82" fill="#778EEE"/><path d="m85.067 102.5 31.938.008 10.115.031c1.962.018 4.019-.065 5.962.215a9.2 9.2 0 0 1 4.261 1.741c1.841 1.355 3.174 3.278 3.512 5.561.412 2.796.156 5.887.165 8.721.008 2.869.305 7.888-.203 10.56a8.3 8.3 0 0 1-.588 1.855 8.5 8.5 0 0 1-1 1.669c-2.763 3.656-5.695 3.384-9.743 3.928l-.155.888c-.132 2.46-.054 4.907-.011 7.368-2.21-1.437-10.126-7.691-11.922-8.252-1.5-.469-4.376-.186-6.07-.177l-13.359-.032c-3.054.002-8.42.309-11.18-.395-1.363-.348-2.622-1.198-3.622-2.167-.91-.883-1.73-2.003-2.106-3.229-.865-2.819-.499-6.728-.51-9.712-.008-1.853-.077-3.705-.092-5.557.708-1.065 1.665-1.998 2.452-3.012 2.504-3.224 2.163-6.186 2.156-10.012" fill="#D7F4EC"/></svg>