<svg width="164" height="164" viewBox="0 0 164 164" fill="none" xmlns="http://www.w3.org/2000/svg"><path d="M52.36 58.85c-.216-4.212-.128-8.45-.124-12.666.003-2.335-.251-6.159.306-8.356.252-.995.91-1.86 1.58-2.614 1.86-2.089 2.815-2.927 5.722-3.076 3.9-.2 7.851-.097 11.756-.106q9.577-.057 19.157-.013l8.62.038c1.55.009 3.31-.106 4.836.142 1.46.238 2.979 1.097 4.072 2.074 1.547 1.382 2.666 3.597 2.762 5.668.201 4.344.073 8.734.077 13.082.003 2.85.194 5.733.04 8.577l.118-.053c.831-.38 1.441-1.041 2.208-1.513 1.247-.768 3.645-.736 4.996-.263 1.354.476 2.526 1.555 3.129 2.855.769 1.658.722 3.545.093 5.236-.638 1.719-1.944 3.436-3.141 4.82-.609.704-6.788 6.777-6.824 6.908 1.382.212 2.914-2.278 6.283-.38.82.462 1.55 1.021 2.112 1.782.935 1.263 1.18 3.027.931 4.551a9.4 9.4 0 0 1-.787 2.472c-.404.855-1.821 2.507-1.673 3.377 1.687 2.38 3.464 2.713 2.849 6.267-.492 2.848-2.41 5.442-4.746 7.073-1.832 1.28-3.293 1.425-5.481 1.268a41 41 0 0 0 .006 4.592c2.158-.895 4.109-1.888 6.447-.923 1.597.659 2.482 2.188 4.459 1.371 1.995-.824 3.078-1.409 5.276-.517 1.459.592 2.447 2.153 3.892 2.577.914.268 2.012-.576 2.944-.659 5.015-.45 8.545 4.987 10.202 9.024 2.428 5.916 4.456 14.681 5.524 21.035l1.077 6.422c.331 1.982.573 3.856 1.28 5.753 1.091 2.925 3.297 5.255 4.728 7.987.202.387.383.721.231 1.15-.325.199-.598.199-.961.113-.385-.09-.915-.174-1.196-.465-.868.39-2.054.322-2.996.344-3.331.08-6.675-.004-10.006-.01l-18.257.002c-1.303.002-8.288.225-8.94.037-.073-.021-.187-.084-.248-.115-.552.249-1.709.183-2.305.113-2.123-.25-4.265-2.412-5.922-3.69-3.606-2.782-7.474-6.141-10.097-9.893-2.057-2.942-4.323-7.717-5.94-11.024-1.112-2.271-2.005-5.01-3.567-6.996-1.16-.129-2.377-.03-3.545.002-1.226.871-2.34 2.142-3.447 3.173-2.09 1.948-4.45 3.991-6.842 5.557-.989.647-1.994 1.295-3.044 1.838-1.856.958-3.979 1.536-5.313 3.246-1.633 2.093-2.948 4.535-4.263 6.838-1.062 1.86-2.16 3.703-3.185 5.585-.874 1.605-1.622 3.389-2.712 4.859-.184.247-.389.456-.681.568-.621.238-1.368.036-1.957-.214-.216.109-.433.14-.673.151-2.048.096-4.157-.025-6.21-.032l-12.397-.005-14.305.002c-2.764.002-5.555.079-8.316-.042-.386-.017-.702-.015-1.007-.283-.426.411-.744.394-1.338.39-.466-.004-.943-.003-1.344-.261.383-.364.596-.845.919-1.259 1.273-1.634 2.507-3.281 3.76-4.931 3.24-4.269 6.372-8.615 9.554-12.929 3.749-5.081 7.88-10.409 10.625-16.123 1.124-2.34 1.735-4.664 1.806-7.268.062-2.293-.188-4.592-.272-6.882-.103-2.798-.065-5.613-.067-8.413-.001-1.575-.09-3.237.093-4.8.702-5.982 2.864-11.533 4.838-17.175 1.648-4.713 3.206-9.568 4.2-14.466.476-2.345 1.27-9.123 2.736-10.467.994-.91 2.291-1.519 3.655-1.448 1.543.08 2.764 1.06 4.23 1.41m47.82 70.448c.556-.144 1.182-.254 1.675-.553.183-.593-.099-1.45-.29-2.021-.924-2.757-2.32-5.496-3.497-8.16l-6.583-14.816c-.553-1.234-1.264-2.48-1.7-3.755-5.245-.085-10.505.014-15.753.021-2.36.002-4.96.22-7.294-.132-1.175-.177-2.117-.48-3.065-1.21-1.577-1.212-2.668-2.896-2.9-4.886-.241-2.065-.041-4.358 1.314-6.022 1.404-1.722 3.377-2.609 5.558-2.821 1.753-.171 3.592-.039 5.355-.035l9.885.004 8.758-.01c1.792-.01 3.71-.156 5.48.105 1.382.204 2.763.784 3.832 1.69 1.466 1.242 2.567 3.473 2.721 5.382.158 1.965-.668 3.74-1.921 5.194.461 1.463 3.029 5.545 3.909 7.166.589 1.085 1.13 2.573 1.876 3.526.42.537 1.094.896 1.663 1.251-.647-1.432-.535-2.675-.848-4.165-.376-1.788-1.515-3.545-1.185-5.44.405-2.33 1.424-2.982 1.249-5.904-.148-2.474-1.818-3.417-1.672-6.304.039-.776.153-1.56.422-2.292.35-.951 1.017-1.91 1.124-2.922.251-2.368.065-4.944.064-7.335l-.008-14.343-.047-13.614c.009-2.82.257-5.885-.118-8.675-1.075-1.386-2.483-3.243-4.35-3.494-.966-.13-2.012-.053-2.988-.053-2.731.001-6.687.22-9.291-.121-.244 1.716-.626 3.15-2.074 4.245-.28.211-.553.316-.9.364-2.132.296-4.422.13-6.577.136-2.355.006-4.917.21-7.239-.144-.74-.114-1.418-.851-1.836-1.435-.53-.737-1.16-2.997-1.855-3.115-1.164-.199-2.557.048-3.752.063-2.558.032-5.426-.309-7.933.201a6.1 6.1 0 0 0-2.466 1.126c-.956.743-2.115 2.537-2.257 3.76-.134 1.161-.062 2.391-.064 3.56l-.016 6.333.021 24.26-.014 33.958.02 10.389c.005 1.874-.096 3.801.055 5.669.099 1.218.493 2.02 1.265 2.968 1.074 1.32 2.03 2.036 3.735 2.207 2.388.24 4.838.16 7.236.159l10.817-.002q2.238.003 4.475.028c.844.014 1.808.146 2.631.005.13-.243.049-.448-.032-.706-.538-1.709-1.349-3.179-.476-4.953.68-1.382 2.128-2.391 3.566-2.857 1.703-.552 3.337.07 4.843.875 2.156 1.153 3.909 3.345 5.39 5.243.605.774 1.172 1.614 1.906 2.27l.096.087zm5.346 7.965.241-.077c.025-.198-1.904-5.378-2.117-5.663-.159-.212-.267-.3-.536-.339-.244-.035-.505-.005-.751.01-.273.2-.392.289-.472.642-.219.978.991 2.626 1.546 3.362.632.839 1.221 1.465 2.089 2.065" fill="#000"/><path d="M106.558 140.419c.323-.165.69-.352.952-.606.42-.406.55-.933.499-1.501-.178-2.018-2.194-6.733-3.062-8.837a1207 1207 0 0 0-9.337-21.439c-1.635-3.689-3.504-7.395-4.817-11.21-.397-1.152-.723-2.327-.725-3.557 0-.981.219-1.742.931-2.446.603-.596 1.32-1.088 2.21-1.052 1.048.042 1.917.812 2.562 1.572 1.613 1.903 2.722 4.386 3.926 6.567q3.807 6.933 7.691 13.825c1.626 2.923 3.29 6.662 5.486 9.118.262-.037.566-.058.817-.138.316-.1.399-.214.56-.493-.076-1.198-2.811-5.307-3.577-6.577 1.357-1.03 3.027-2.294 4.794-2.349 4.05-.127 6.473 6.305 9.129 8.701.267.24.543.505.928.473.274-.023.29-.075.459-.272.173-1.481-2.902-5.434-3.903-6.716.448-.356.909-.709 1.434-.944 3.433-1.54 5.631 1.639 7.494 3.986.76.958 1.582 1.88 2.39 2.799.345.392.866 1.099 1.375 1.245.373.107.809.02 1.136-.167.331-.938-1.985-3.401-2.525-4.198-.297-.437-.51-.915-.717-1.399.951-.234 2.063-.389 3.035-.216 7.876 1.406 11.43 23.87 12.617 30.576.52 2.935.814 6.133 1.711 8.971 1.052 3.327 3.122 6.489 5.109 9.325-.869.39-2.054.322-2.997.344-3.33.08-6.674-.004-10.006-.009l-18.256.001c-1.304.002-8.289.225-8.94.037-.074-.021-.187-.084-.248-.115-.698-.264-1.993-1.492-2.638-1.989-4.118-3.171-8.617-6.252-12.06-10.176-4.63-5.276-7.715-13.702-10.936-19.974-.843-1.644-2.166-3.115-2.808-4.848-.302-.816-.274-1.511-.22-2.368.62-.631 1.286-1.208 2.137-1.494 5.466-1.833 10.928 10.207 13.694 13.658 1.311 1.636 2.798 2.964 4.696 3.892M8.965 163.471c.847-.902 1.563-1.993 2.304-2.987l3.916-5.255a903 903 0 0 0 10.256-14.018c3-4.222 6.39-8.658 8.26-13.519 1.262-3.281 1.346-6.192 1.235-9.654-.19-5.975-.779-12.267.093-18.207.788-5.377 2.902-10.535 4.664-15.648A168 168 0 0 0 43.27 72.37c.569-2.104.935-4.288 1.281-6.438.19-1.179.299-2.467.647-3.606.212-.693.55-1.354 1.048-1.886.467-.496 1.084-.857 1.78-.861 1.074-.007 2 .81 2.691 1.548.56.596 1.237 1.395 1.416 2.218.317 1.457.098 3.386.093 4.887-.01 3.515.017 7.046-.124 10.558-.092 2.306-.803 4.453-1.293 6.689-.617 2.81-1.045 7.275-.38 10.029.309 1.277.985 2.633 1.778 3.685l.006 16.788c0 2.689-.274 7.324.331 9.798.328 1.34 1.21 2.679 2.174 3.648 1.022 1.028 2.311 1.837 3.712 2.228 2.418.674 5.377.417 7.873.415l8.136-.018q2.95-.009 5.897-.081c-2.119 2.646-7.45 6.709-10.386 8.387-2.115 1.209-4.678 1.842-6.349 3.712-1.532 1.715-2.697 3.878-3.863 5.854a402 402 0 0 0-5.58 9.846c-.527.944-1.577 3.265-2.284 3.91-.216.109-.433.14-.673.151-2.048.096-4.157-.024-6.21-.032l-12.397-.005-14.305.003c-2.764.001-5.555.078-8.316-.043-.386-.017-.702-.015-1.007-.283" fill="#FED1B1"/><path d="m67.68 64.448.09-.016c1.171-.155 2.55-.018 3.745-.017l8.288.002 11.008-.005c2.333-.007 4.842-.199 7.15.167.882.14 1.72.664 2.418 1.2 1.79 1.373 2.965 3.172 3.249 5.438.241 1.92-.511 3.97-1.701 5.465-1.13 1.418-3.2 2.599-5.003 2.802-2.217.134-4.472.064-6.692.065H79.095l-7.005.005c-1.758.004-3.575.1-5.317-.169-1.127-.173-2.108-.643-3.01-1.337-1.584-1.216-2.702-2.844-2.96-4.844-.263-2.04-.057-4.164 1.245-5.826 1.496-1.908 3.276-2.661 5.632-2.93" fill="#778EEE"/><path d="M68.461 43.8c1.63-.09 3.32.023 4.955.027l10.8.008 8.303-.005c1.602 0 3.305-.118 4.888.111 1.185.172 2.359.632 3.292 1.39 1.658 1.346 2.77 3.39 2.954 5.523.171 1.995-.533 3.776-1.812 5.276-1.537 1.804-3.23 2.458-5.526 2.64-6.288.158-12.599.077-18.888.056-3.193-.011-7.012.186-10.12-.08a6.6 6.6 0 0 1-2.252-.573c-1.845-.85-3.263-2.328-3.945-4.251-.62-1.754-.613-4.173.218-5.86.89-1.81 2.633-3.303 4.53-3.96.832-.287 1.733-.27 2.603-.303" fill="#87DEC5"/><path d="M89.785 99.993c-5.245-.085-10.505.015-15.753.021-2.36.003-4.96.221-7.294-.131-1.175-.178-2.117-.48-3.065-1.21-1.577-1.213-2.668-2.897-2.9-4.887-.241-2.064-.041-4.357 1.314-6.021 1.404-1.723 3.377-2.61 5.557-2.822 1.754-.17 3.593-.039 5.355-.034l9.886.003 8.758-.01c1.792-.009 3.71-.155 5.48.106 1.382.203 2.763.783 3.832 1.69 1.465 1.242 2.567 3.473 2.721 5.382.158 1.965-.668 3.74-1.921 5.194-1.688-2.876-4.135-8.548-7.538-9.462-1.202-.323-2.452-.058-3.513.562-1.161.678-2.184 1.78-2.519 3.109-.739 2.929.509 5.86 1.6 8.51" fill="#778EEE"/><path d="M115.524 61.672q.404-.032.809-.045c.949-.031 1.695.203 2.386.86.747.71 1.244 1.523 1.267 2.582.076 3.42-4.671 7.85-6.9 10.212-.682.766-1.355 1.503-2.126 2.182.746-4.245-.341-8.792.276-13.053 1.391-1.05 2.682-2.03 4.288-2.738m-.515 18.873c.967-.036 1.671.09 2.484.643.876.596 1.394 1.563 1.589 2.59.289 1.532-.33 3.072-1.207 4.307-1.235 1.74-2.897 2.866-4.998 3.226-1.016.109-1.962.006-2.825-.587-.753-.518-1.159-1.321-1.325-2.2-.284-1.506.361-3.075 1.201-4.297 1.162-1.689 3.021-3.293 5.081-3.682m.876 12.545c.38-.03.814-.041 1.176.092 1.238.456 1.981 1.79 2.483 2.924-.125 1.291-.422 2.545-1.063 3.683a9 9 0 0 1-1.03 1.465 9 9 0 0 1-1.295 1.235 9.3 9.3 0 0 1-1.513.959 9 9 0 0 1-1.67.644c-.917.018-1.675-.117-2.458-.622-.688-.443-1.095-1.149-1.255-1.936-.33-1.613.396-3.308 1.292-4.617 1.277-1.867 3.067-3.416 5.333-3.826" fill="#FED1B1"/></svg>