<svg width="164" height="164" viewBox="0 0 164 164" fill="none" xmlns="http://www.w3.org/2000/svg"><g clip-path="url(#a)"><path d="M105.433 39.379c-1.381-1.394-2.204-3.035-2.184-5.032.018-1.853.666-3.756 2.017-5.06 2.104-2.032 4.731-1.77 7.33-2.54 4.217-1.248 7.056-2.879 11.671-2.738 4.938.15 9.999 2.344 13.392 5.954.974 1.036 1.574 2.258 2.393 3.394.62.86 1.41 1.594 2.042 2.449 1.969 2.663 2.732 5.927 2.611 9.198-.1 2.663-.698 5.35-1.965 7.71-.526.978-1.228 1.903-1.673 2.916-.849 1.933-1.027 3.863-2.69 5.388-.949.872-2.129 1.316-3.401 1.436.218 2.359.584 4.697 1.464 6.913 4.952 1.573 15.544 5.87 19.328 9.073 1.191 1.008 2.072 2.252 2.792 3.629 4.026 7.699-.002 27.278-1.375 36.04.836.006 4.147-.119 4.662-.015.252.05.558.184.739.371.178.183.205.303.195.549-.346.388-.972.416-1.467.44-1.471.072-2.953-.076-4.424.018-.6 2.513-1.483 4.594-3.775 6.012-4.555 2.818-19.06 5.43-24.662 5.82a27 27 0 0 1-2.16-1.161c-.766.849-1.604 1.402-2.674 1.806-2.266.855-4.647.714-6.941 1.317-2.461.648-4.806 2.217-7.389 2.358-.475.026-1.009-.006-1.361-.366-.335-.343-.355-.883-.838-1.034-.641.139-1.364.408-1.956.001-.492-.339-.669-.974-1.122-1.304-.539-.392-1.222-.218-1.654-.856-.382-.564-.118-1.523-.802-1.835-1.402.395-6.189 4.503-8.04 5.585l-7.84-1.259c-1.338-.219-2.815-.337-4.108-.716-.76 1.072-3.567 5.575-4.682 5.792-1.53.299-4.422-.721-6.076-.955q-4.29-.636-8.61-1.018c-1.868-.152-3.818-.27-5.691-.135-1.514.109-3.089.536-4.605.397-1.152-.105-2.18-.775-3.289-1.054-2.226-.56-4.662-.72-6.95-.8a120 120 0 0 0-8.112-.039c-1.232.026-3.932.314-5.01.068a1.3 1.3 0 0 1-.349-.145c-.402-.443-.445-.953-.415-1.532a9.5 9.5 0 0 1 .18-1.494c1.878-1.524 4.043-2.756 6.048-4.112a297 297 0 0 1 7.258-4.822c1.174-.764 2.339-1.585 3.556-2.276.42-.237.845-.456 1.316-.568 1.996-.473 10.208.023 12.552.269 1.406.146 2.786.323 4.176.584.989.186 2.012.477 3.012.567 1.047.096 2.132-.188 3.184-.203 2.116-.03 8.207.566 9.966 1.174 1.739-.974 3.23-2.313 5.01-3.237-.245-.284-.483-.594-.772-.836l-31.994-.045c-5.598 0-11.355.159-16.93.005-.986 1.642-1.217 2.196-3.18 2.691a121 121 0 0 1-13.824 2.515c-1.377.157-2.771.361-4.159.361-2.095-.001-4.602-.239-6.418-1.327-1.657-.992-2.397-2.462-2.958-4.254-2.918.133-5.879.01-8.802.008v-1.28c2.872-.001 5.75.034 8.618-.154-.14-6.363 1.234-12.858 2.345-19.106.856-4.814 1.586-9.783 3.216-14.405.694-1.967 1.568-3.933 3.031-5.454 3.006-3.124 12.867-6.716 17.08-8.774 1.087-.531 2.022-1.35 3.074-1.942.43-.242 1.114-.18 1.485-.428.306-.206.623-1.313.762-1.683-.6-1.05-1.051-1.938-1.315-3.133-1.552.02-2.771-.306-3.903-1.422-1.745-1.722-1.902-3.786-2.695-5.944-.373-1.018-.942-1.961-1.367-2.958-1.07-2.502-1.599-5.375-1.599-8.093 0-5.201 2.299-10.463 5.984-14.115 3.879-3.842 9.417-6.465 14.922-6.397 2.83.035 5.754.69 8.224 2.096.937.534 1.84 1.238 2.817 1.682.773.35 1.653.492 2.459.756 1.99.652 3.757 2.058 5.196 3.55 2.712 2.809 4.523 6.352 4.415 10.323-.092 3.416-1.53 6.856-4.03 9.21q-.127.121-.261.235c-.156 2.024-.397 4.06-.637 6.075-.591 4.972-1.34 10.407-5.391 13.87-.325.278-.67.542-1.02.79 2.564 1.38 9.285 4.965 10.937 6.862 1 1.15 1.611 2.611 2.043 4.058 1.475 4.944 1.837 11.473 2.361 16.689L73.658 118c2.904-.003 5.811-.036 8.715-.007-.392-1.612-.255-3.632.324-5.188.209-.56.525-1.084.717-1.642.208-.602.268-1.276.607-1.823 1.072-1.729 3.261-2.782 5.19-3.184-.032-1.293-.53-5.392.356-6.288.35-.354.9-.436 1.373-.403.43.029.836.167 1.129.496 1.373 1.544-.46 6.572 1.443 7.219 1.233-.032 2.466-.775 3.683-1.018l2.766-9.897c1.369-4.899 3.323-13.11 6.415-16.984 1.188-1.49 2.997-2.547 4.645-3.468 1.333-.745 2.846-1.645 4.32-2.058-3.701-1.365-6.234-3.168-7.927-6.861-1.452-3.166-1.825-6.731-2.089-10.163-1.393-1.13-1.898-2.784-2.083-4.525-.093-.873-.06-1.878.544-2.58.317-.368.734-.49 1.189-.606-.396-3.153-.403-6.568.458-9.641" fill="#26201C"/><path d="M137.255 71.299c2.977.496 14.198 5.78 16.773 7.606 2.77 1.964 4.059 4.783 4.588 8.084.369 2.299.354 4.784.243 7.106-.301 6.299-1.285 12.629-2.295 18.85-.402 2.479-.675 5.111-1.406 7.512a8.1 8.1 0 0 1-1.257 2.529c-2.835 3.837-18.884 6.035-23.967 6.803.338-2.664-.023-5.794-1.326-8.177-.697-1.274-1.634-1.89-3.001-2.302 1.52-.421 3.002-1.014 4.508-1.488 2.551-.803 5.131-1.536 7.693-2.307 2.274-.684 5.472-1.947 7.834-1.745 1.491.128 1.65.77 2.827 1.172.233-.053.297-.052.451-.251.141-.182.238-.47.203-.701-.036-.239-.184-.419-.37-.562-1.644-1.269-3.987-1.069-5.899-.836.599-6.491.76-15.95 2.942-21.952.586-1.613 1.471-2.956 2.208-4.482.13-.269.212-.429.145-.726-.158-.243-.189-.278-.448-.407-.309.035-.464.11-.684.333-1.53 1.565-2.614 4.844-3.146 6.95-1.244 4.92-1.672 10.341-2.025 15.406-.122 1.749-.293 3.516-.282 5.269l-2.509.706q-4.305 1.258-8.592 2.577c-1.837.58-3.757 1.396-5.658 1.672-1.289.188-2.68.109-3.982.113a219 219 0 0 1-6.578-.033c-.313-2.192-1.068-4.4-1.552-6.567a189 189 0 0 1-2.739-14.519c-.123-.857-.801-6.693-1.052-7.008-.147-.183-.3-.166-.512-.198-.211.096-.302.116-.416.331-.773 1.463 3.174 21.148 3.815 23.515-1.164 1.483-2.368 2.95-3.461 4.486-2.785.1-5.578-.023-8.363.025.365-1.488.404-2.879.03-4.368-.64-2.549-1.637-4.433-3.922-5.785 5.326-1.565 8.283 2.077 10.065 1.893.263-.188.258-.216.352-.509-.022-.15-.043-.268-.129-.397-1.035-1.55-5.863-2.597-7.65-2.916.693-2.045 1.208-4.159 1.776-6.242a288 288 0 0 1 2.892-10.142c.793-2.568 1.64-5.18 2.884-7.571.489-.938 1.045-1.78 1.811-2.513 2.29-2.193 7.471-4.687 10.459-5.628 1.089 1.3 1.353 2.647 1.662 4.27.587.641 1.24 1.165 2.023 1.549 1.895.93 4.044.83 6.003.155 3.762-1.296 7.282-5.04 9.034-8.58" fill="#525252"/><path d="M28.054 72.334c.566 1.021-2.01 9.285-1.296 10.604.473.873 3.95 1.942 4.895 2.273-1.119 1.042-2.475 2.1-3.275 3.407.774 1.749 1.988 3.442 2.974 5.088 1.725 2.883 3.4 5.796 5.144 8.666-1.487 1.482-2.626 3.478-3.775 5.228-.519.198-.822.366-1.377.196-.438-.135-.888-.282-1.35-.281-.95.003-2.005.26-2.952.38q-3.129.395-6.262.74c.27-1.378.441-2.756.684-4.134.24-1.361 1.079-4.037.848-5.311-.06-.329-.18-.46-.445-.649-.276 0-.313-.008-.54.142-.634 1.068-1.583 8.203-1.94 10.113-1.31.074-4.81.397-5.872.965-.221.119-.209.166-.273.396.055.176.107.363.25.492.175.159.397.196.624.188 1.297-.048 2.65-.349 3.943-.503 3.116-.37 6.226-.722 9.335-1.158l2.397-.312c-.674 4.015-.785 8.196 1.067 11.938-6.018.857-16.188 4.208-21.948 2.233-1.438-.493-2.494-1.11-3.177-2.514-.678-1.394-.745-2.944-.725-4.466.03-2.229.366-4.451.674-6.656a200 200 0 0 1 1.787-10.834c.825-4.482 1.486-9.13 3.002-13.439.588-1.67 1.342-3.527 2.527-4.856 2.498-2.804 11.287-6.127 15.056-7.936" fill="#778EEE"/><path d="M16.813 81.359c.38-.01.627.08.914.326 2.586 2.223 4.962 9.952 5.223 13.193.04.514-.036.653-.352 1.026l-.484-.14c-.598-.48-.944-2.91-1.142-3.704-.628-2.516-1.428-4.97-2.769-7.204-.531-.885-1.43-1.804-1.798-2.738.013-.33.207-.512.408-.76" fill="#26201C"/><path d="M48.554 38.785c2.626 2.655 1.35 8.83 2.064 9.616.28.066.453.071.712-.077 3.018-1.724 4.368-4.762 5.307-7.935.682.758 1.29 1.607 1.842 2.463 1.45 2.249 3.319 6.105 3.431 8.77.068 1.605-.287 3.282-.455 4.876-.235 2.227-.48 4.484-.954 6.672-.711 3.272-2.182 6.54-5.103 8.39a12 12 0 0 1-1.576.826 12.32 12.32 0 0 1-7.558.743 15 15 0 0 1-1.494-.42c-4.194-1.442-7.552-4.31-9.518-8.301-.354-.718-.254-1.746-.656-2.39-.344-.551-2.13-.406-2.758-.557-1.001-.24-1.792-1.231-2.294-2.077-.834-1.404-1.565-3.577-1.131-5.21.191-.722.56-1.739 1.261-2.098.409-.21.844-.144 1.264-.004 2.078.696 3.012 3.23 4.524 3.543.244.05.499.018.69-.155.523-.474.448-2.692.504-3.441 6.793-5.288 8.53-4.105 11.898-13.234" fill="#FED0B4"/><path d="M45.568 64.278c2.075.992 4.309 1.972 6.651 1.276.633-.187 1.29-.657 1.945-.704.327-.023.49.03.738.23.033.109.069.215.07.33.006.356-.21.572-.448.803-.989.518-2.037.806-3.147.927-1.696.184-4.573-.062-5.917-1.23-.226-.196-.39-.436-.404-.742-.018-.395.256-.627.512-.89m7.504-5.958a1.9 1.9 0 0 1 .707.626c.422.577.956 1.65.805 2.379-.145.702-1.376 1.35-1.95 1.736-.1.011-.13.02-.242.002-.316-.05-.474-.15-.667-.39-.008-.118-.023-.245.007-.362.166-.647.804-.985 1.33-1.294-.23-.54-.864-1.454-.686-2.042.101-.331.42-.481.696-.655m-8.548-9.645a9 9 0 0 1 1.73.007c.5.055.907.16 1.233.558.095.274.077.387.01.67-.43.468-1.964.109-2.647.204l-.123.018c-.697.078-1.379.373-2.078.409-.315.016-.531-.033-.764-.235.012-.115.003-.228.065-.328.589-.946 1.578-1.078 2.574-1.303m.178 5.848c.18-.023.367-.049.55-.043.34.01.694.214.91.47.29.345.363.793.315 1.23-.08.731-.426 1.19-.964 1.65-.194.057-.433.109-.636.096-.323-.022-.644-.242-.829-.499-.297-.412-.328-.983-.253-1.469.102-.66.385-1.04.907-1.435m12.91-5.753c.422-.026.824-.036 1.243.032.65.106 1.39.355 1.763.94.161.253.179.448.127.736-.163.192-.208.273-.462.337-.384.096-.706-.097-1.032-.277-1.018-.347-1.817-.09-2.84-.092-.33-.001-.4.028-.64-.21-.05-.21-.1-.29-.002-.493.277-.568 1.29-.81 1.843-.974m-.49 5.502c.148 0 .302 0 .449.028.345.067.67.292.858.587.268.419.281.92.174 1.393-.14.62-.445.988-.968 1.33-.211.013-.441.037-.651.005-.258-.039-.507-.26-.653-.465-.329-.461-.339-1.039-.215-1.572.155-.663.448-.958 1.006-1.306" fill="#26201C"/><path d="M43.608 25.65c3.038-.243 6.441.65 9.04 2.202.725.433 1.325 1.096 2.11 1.428 1.896.803 3.821.976 5.547 2.272 2.81 2.11 5.3 5.526 5.798 9.06.518 3.68-.71 6.5-2.873 9.37-.585-2.425-1.645-4.922-2.863-7.098-.781-1.396-3.01-4.758-4.542-5.189-.466.089-.47.334-.541.755-.58 3.47-1.127 5.042-3.4 7.814-.214-3.535-.623-6.44-2.933-9.301a2.2 2.2 0 0 0-.758-.528c-.51.05-.579.376-.744.807-1.42 3.694-1.99 6.413-5.166 9.193-.264-.35-.49-.696-.873-.926-.462.052-1.03 1.07-1.318 1.465-.817 1.123-1.675 2.063-2.872 2.784-.544.328-1.161.636-1.64 1.052-.64.554-.545 1.907-.572 2.696-.6-.891-1.379-1.74-2.312-2.287-1.583-.928-3.484-.952-4.816.423-.3.31-.524.982-.939 1.087-1.024-2.147-1.543-4.791-1.67-7.156-.25-4.705 1.559-9.62 4.72-13.103 3.436-3.785 8.475-6.57 13.617-6.82" fill="#483730"/><path d="M136.392 51.011c.399.031.812.09 1.183.245.827.342 1.447 1.038 1.758 1.869.564 1.506.088 3.359-.571 4.758-.644 1.366-1.781 2.814-3.391 2.988-.52.056-.997-.139-1.507.047-.255.236-.318.435-.366.777-.319 2.282.883 7.501 2.243 9.29-.464.763-.944 1.51-1.475 2.229-1.925 2.601-4.968 5.34-8.265 5.803-1.707.24-3.162-.324-4.514-1.335-.205-1.534-.492-2.576-1.225-3.955 2.17-.395 4.387-1.258 6.216-2.495.722-.489 2.79-1.794 2.894-2.655.038-.314-.08-.477-.277-.702-.253-.068-.283-.11-.517.028-.799.468-1.537 1.172-2.282 1.73-1.114.834-2.349 1.433-3.628 1.963-.996.38-2.066.628-3.122.756-2.727.33-5.445-.267-7.62-1.99-4.015-3.181-4.471-8.096-5.024-12.787.717.247 1.489.428 2.25.423a4.2 4.2 0 0 0 1.239-.187 4.2 4.2 0 0 0 .769-.33 4 4 0 0 0 .687-.48q.158-.138.303-.29c1.169-1.219 1.412-2.754 1.38-4.378a34 34 0 0 0 2.551.233c.004 1.332.285 2.726 1.099 3.811.811 1.081 1.972 1.628 3.294 1.796 1.483.188 3.154.143 4.372-.831 1.644-1.315 1.931-3.457 2.136-5.414q1.925-.088 3.847-.21c.206.996.335 2.504 1.046 3.257.15.044.239.107.393.054 1.024-.358 1.906-3.336 4.022-3.988z" fill="#FED0B4"/><path d="m120.64 64.21.085-.013c.344-.034.499.05.755.254.057.239.101.326-.001.562-.294.673-1.256 1.16-1.908 1.416-2.298.903-4.448.53-6.652-.412l-.111-.063c-.353-.21-.609-.426-.698-.845-.057-.264-.053-.366.091-.587.204-.084.395-.163.62-.118.322.066.651.289.957.415.52.215 1.084.372 1.63.503 2.017.486 3.514-.068 5.232-1.112m-7.641-6.76c.366.08.619.253.843.546.201.744-.328 1.575-.632 2.248.485.231 1.169.48 1.506.916.17.22.156.328.118.592a1.64 1.64 0 0 1-.591.499c-.665-.195-1.646-.458-2.178-.914a1.11 1.11 0 0 1-.407-.857c-.004-.834.762-2.47 1.341-3.03" fill="#26201C"/><path d="M122.469 25.541c3.071-.372 6.733.667 9.484 2.056 2.043 1.032 3.963 2.482 5.317 4.343.554.76 1 1.6 1.579 2.34 1.502 1.923 2.942 3.34 3.718 5.743 1.466 4.54.384 9.063-1.714 13.177-.242-.9-.707-1.787-1.41-2.413-1.82-1.622-3.517-.961-5.615-.52-.671.14-1.38.165-2.063.21-.52-1.77-1.027-3.532-1.436-5.332-.123-.808-.142-1.646-.293-2.445-.165-.867-.663-.973-1.439-1.184-4.381-1.194-7.459-1.935-11.311-4.47-1.514-.995-2.921-2.14-4.447-3.121a8.3 8.3 0 0 0-1.691.259c-2.161.561-3.91 1.97-5.04 3.876-.644-.961-1.15-1.983-1.283-3.147-.167-1.464.313-3.045 1.25-4.18a4.74 4.74 0 0 1 1.885-1.391c1.449-.587 3.104-.58 4.612-.99 3.364-.912 6.357-2.466 9.897-2.81" fill="#525252"/><path d="M56.662 74.475c2.35 1.383 8.359 4.408 9.834 6.307.964 1.24 1.44 2.81 1.826 4.31.773 2.999 1.06 6.127 1.404 9.198.638 5.69 1.051 11.404 1.697 17.09.24 2.119.359 4.681.858 6.712l-10.238-.011a341 341 0 0 0 2.964-22.072c.235-2.205.784-5.436.752-7.519-.004-.29-.097-.671-.26-.914-.06-.088-.137-.148-.218-.214-.216-.02-.25-.03-.428.118-.293.242-.408.636-.46.997-.201 1.374-.263 2.792-.4 4.176l-.891 8.628a281 281 0 0 1-2.418 16.808l-17.24-.003c-.826-.132-2.184.176-2.883-.264 1.23-.212 2.42-.467 3.61-.845 1.047-.332 2.134-.807 3.217-.977 1.236-.194 2.576-.062 3.826-.032.689.016 1.36.016 2.027-.185.456-.137.75-.264 1.037-.658a7.8 7.8 0 0 0 .889-1.644c1.046-2.583 1.87-5.309 2.793-7.942.907-2.589 1.96-5.204 2.712-7.837.112-.392.385-1.297.267-1.69-.167-.557-.606-1.024-1.128-1.266-.943-.437-2.138-.335-3.154-.33q1.185-3.399 2.577-6.718c-.667-1.036-1.69-1.778-2.687-2.481 1.079-.569 2.395-1.127 3.29-1.969-.393-2.977-1.975-6.033-3.175-8.773" fill="#778EEE"/><path d="M112.201 35.534c.778-.023 3.854 2.56 4.643 3.077 2.779 1.819 5.729 2.969 8.924 3.828.899.241 1.848.523 2.778.606.162 2.467.789 4.813 1.53 7.163-1.113.09-2.224.133-3.34.172-.238-.276-.479-.558-.782-.765-1.682-1.148-6.435-.932-8.399-.517-1.29.485-.906 1.219-1.547 1.703-.485.366-1.97.007-2.589-.077-.205-.318-.423-.638-.704-.895-1.539-1.412-4.339-1.103-6.261-1.033-.038-.405-.159-.925-.001-1.307a.8.8 0 0 1 .343-.103c.773-.042 1.389-.17 2.124-.393.532.178 1.218.509 1.773.27.265-.114.318-.23.42-.488-.044-.268-.106-.43-.294-.633-.44-.473-1.143-.634-1.766-.66-1.065-.047-1.981.244-2.769.967-.047-2.55-.106-5.466 1.241-7.724 1.069-1.794 2.702-2.696 4.676-3.19" fill="#FED0B4"/><path d="M120.822 45.597c.341 0 .693.022 1.03.067.85.113 2.017.438 2.523 1.183.17.251.193.431.148.723-.086.096-.153.209-.273.257-.609.242-1.049-.011-1.606-.258-1.555-.544-2.272.008-3.43-.26-.315-.073-.422-.217-.574-.488-.016-.3-.006-.414.14-.676.619-.48 1.293-.49 2.042-.548" fill="#26201C"/><path d="M46.325 122.486q6.15-.212 12.269.427c1.939.208 3.858.543 5.79.802a825 825 0 0 0-12.282 10.468 27 27 0 0 0-2.24-.984c-4.47-1.451-14.008-1.238-18.795-.701 3.592-2.442 7.167-4.891 10.81-7.257 1.425-.926 2.896-2.072 4.448-2.755" fill="#FEFEFE"/><path d="M42.214 100.329c.41-.061.878-.043 1.294-.06a99 99 0 0 0-.76 2.322c-.743.132-2.12.238-2.667.774-.213.21-.198.35-.188.631.057.096.083.22.172.288.716.541 9.975-2.195 11.9-.988.23.145.314.212.372.471-.574.649-7.739 1.604-9.253 2.528-.23.14-.221.196-.285.445.065.307.12.428.327.665.733.292 7.427-1.748 8.736-1.976.334-.057.527-.036.803.157.067.202.117.271.033.478-.601 1.484-6.929 2.739-8.558 3.417-.414.172-.69.312-.861.73.07.157.082.257.23.357 1.092.74 6.711-1.605 8.26-1.966l.162-.037c-.315 2.773-5.908 2.94-7.635 4.694-.062.277-.044.287.077.548.246.175.302.214.613.25.596-.275 1.229-.445 1.84-.678 1.14-.437 2.259-.906 3.411-1.318-.474.726-.97 1.323-1.689 1.821-2.072 1.434-6.833 2.602-9.339 2.738-1.247.067-2.49-.281-3.737-.099-1.378.202-2.904.896-4.23 1.333-.664-2.871-.57-5.521-.11-8.402.888-.224 1.752-.418 2.576-.831 1.37-1.99 2.532-3.939 4.188-5.734 1.27-1.376 2.364-2.481 4.318-2.558" fill="#FED0B4"/><path d="M84.854 121.502c.373-.052.633.208.928.404 1.011.672 2.094.985 3.276 1.18.265.664.52 1.368.884 1.985.213.361.523.785.955.877a.67.67 0 0 0 .566-.128c.847-.652 1.303-2.886 1.436-3.925q6.697.811 13.369 1.814c-1.331.836-2.796 1.949-3.85 3.118-.643.711-1.172 1.513-1.878 2.168-.769.713-1.716 1.291-2.575 1.889l-2.667 1.938c-6.31-1.686-14.767-3.177-21.297-3.451 2.63-2.498 7.688-6.067 10.853-7.869" fill="#FEFEFE"/><path d="M115.407 121.024c2.467-.281 4.929.18 7.386.204 1.006.011 2.073-.269 3.066-.186.361.03.613.1.892.339 1.434 1.227 1.849 4.404 1.924 6.162-.682.066-1.632.194-2.231.526l-.125.075c-1.036.609-1.516 1.725-2.679 2.28-2.351 1.123-4.949.854-7.403 1.501-2.075.547-4.017 1.794-6.104 2.276-.467.107-.99.041-1.399-.206-.054-.11-.126-.165-.067-.288.327-.683 4.36-2.291 5.228-2.612.584-.216 1.261-.34 1.815-.614.427-.211.721-.465.871-.921-.036-.152-.012-.224-.154-.312-1.397-.862-8.239 3.227-10.033 3.658-.305.074-.602.158-.873-.011.006-.03.007-.061.016-.09.31-.956 3.27-2.495 4.172-3 .781-.408 4.743-2.135 4.982-2.487a.7.7 0 0 0 .1-.573c-.074-.265-.238-.359-.459-.486-1.133-.003-5.446 2.37-6.642 3.094-.922.558-1.793 1.201-2.72 1.751-.419.247-.755.457-1.25.332-.096-.156-.148-.192-.149-.384-.007-1.556 5.18-4.377 6.63-5.109.581-.294 2.942-1.346 3.292-1.748.14-.16.089-.249.063-.443-.171-.207-.271-.326-.546-.382-1.833-.375-8.188 4.441-9.872 5.637-.253.18-.38.295-.691.245l-.105-.209c.071-.273.189-.449.367-.667 1.671-2.051 6.809-5.605 9.297-6.603 1.12-.45 2.204-.647 3.401-.749" fill="#FED0B4"/><path d="M33.069 69.66c1.22 1.293 6.312 25.86 7.176 29.417-1.03.632-1.944 1.463-2.863 2.242-.755-1.224-1.437-2.505-2.144-3.758-1.84-2.915-3.381-6.033-5.33-8.881.953-.854 2.893-2.305 3.42-3.435.149-.32.107-.506 0-.82-.543-.594-4.312-1.745-5.42-2.248.794-3.465 1.33-7.035 1.973-10.534a23 23 0 0 1 3.188-1.983" fill="#778EEE"/><path d="M68.67 123.907c3.002-.087 6.008.476 9.006.622-2.016 1.471-4.203 3.08-5.984 4.823-.04.887-.223 2.008.214 2.811.936.809 5.414 1.074 6.844 1.253-.83.865-1.565 1.837-2.381 2.722-1.546-.513-3.22-.775-4.815-1.087-5.533-.931-11.4-2.051-17-1.114a1488 1488 0 0 1 11.362-9.73 20.5 20.5 0 0 1 2.753-.3m-23.078-41.57c.938.494 4.123 3.998 5.169 5.043-.413 2.258-.727 4.589-1.297 6.81-1.117-.013-2.474-.16-3.482.415-1.3.74-1.612 2.674-1.998 3.992-.478.367-1.787.277-2.411.302-.225-1.596-.678-3.225-1.02-4.806-.449-2.086-.817-4.247-1.438-6.287 1.937-1.03 4.74-3.925 6.477-5.469" fill="#FEFEFE"/><path d="M54.769 73.632c.6.451 3.089 7.665 3.61 8.999-.956.474-2.426 1.004-3.159 1.78-.2.212-.333.46-.3.757.105.947 1.993 2.17 2.702 2.742-.747 1.582-1.283 3.284-1.87 4.93l-.538 1.555c-1.408-.118-2.875-.132-4.288-.126 1.07-4.776 2.915-15.617 2.223-20.172z" fill="#778EEE"/><path d="M35.672 67.79c.626.462 1.205 1.394 1.737 1.99.647.725 1.462 1.357 2.252 1.921 3.34 2.392 7.467 3.575 11.545 2.891a25 25 0 0 1-2.972 3.597c-.813.777-1.674 1.512-2.516 2.26-3.418-2.336-9.52-7.01-10.953-10.96.253-.584.596-1.142.907-1.699" fill="#FED0B4"/><path d="M39.263 133.516c3.198-.049 6.78-.183 9.844.811 1.158.376 2.261.953 3.354 1.486 1.395-.222 2.743-.575 4.154-.722 4.425-.459 9.203.241 13.55 1.062 2.147.405 4.339 1.034 6.504 1.283l.131.014c.625-.414 1.105-1.041 1.697-1.513a17.4 17.4 0 0 1-1.96 2.499c-1.97-.222-3.919-.81-5.89-1.099-4.151-.71-9.567-1.407-13.755-1.22-1.289.058-2.559.36-3.842.482-1.713.164-3.098-.76-4.705-1.154-1.034-.253-2.15-.348-3.207-.455-5.004-.508-9.974-.293-14.983-.168-.35.009-.745.092-1.018-.133-.034-.286-.021-.31.111-.568.717-.484 8.535-.585 10.015-.605" fill="#36C99F"/><path d="M118.661 50.488a42 42 0 0 1 4.046-.008c.605.03 2.041.08 2.457.59.294.361.222 1.197.191 1.645-.108 1.538-.419 2.598-1.608 3.637a3.5 3.5 0 0 1-.603.255c-1.11.357-2.804.32-3.844-.239-.895-.482-1.431-1.349-1.684-2.307-.246-.932-.37-2.196.159-3.052.224-.362.487-.431.886-.522" fill="#FED0B4"/><path d="M120.965 52.27a5 5 0 0 1 .233 0c.392.01.653.12.918.416.375.42.474.98.418 1.525-.079.756-.349 1.123-.912 1.58q-.052.001-.104-.001c-.367-.028-.709-.128-.956-.415-.324-.375-.442-.907-.407-1.391.05-.708.272-1.239.81-1.713" fill="#26201C"/><path d="M96.469 119.438c1.484-.106 3.02-.032 4.509-.031l8.615.008 9.856-.052c1.058.002 2.131-.068 3.187-.022.437.018.823.076 1.232.237l.037.159c-1.123.41-4.457-.074-5.83-.079a42 42 0 0 0-4.334.199c-2.155.331-3.935 1.456-5.741 2.598-2.711-.332-5.416-.783-8.12-1.175-1.535-.223-3.094-.507-4.649-.524.424-.426.827-.878 1.238-1.318" fill="#FEFEFE"/><path d="M96.469 119.438c1.484-.106 3.02-.032 4.509-.031l8.616.008 9.855-.052c1.058.002 2.131-.068 3.188-.022.436.018.822.076 1.231.237l.037.159c-1.122.41-4.457-.074-5.83-.079a42 42 0 0 0-4.334.199l-.039-.207c-.671-.46-14.886.142-17.233-.212" fill="#C2C6CA"/><path d="M36.06 74.423c.636.304 2.31 2.095 2.924 2.643 1.723 1.536 3.538 3.055 5.537 4.222q-1.34 1.155-2.645 2.35c-.99.88-1.977 1.756-3.02 2.574a614 614 0 0 0-2.796-11.79" fill="#FEFEFE"/><path d="M92.631 108.435c1.07.464 1.96 1.224 3.087 1.669l.087.114c.998 1.33 1.51 3.019 1.239 4.674-.301 1.835-1.765 4.216-3.303 5.256-.303.205-.48.279-.834.222-.221-.302-.238-.753-.185-1.117.075-.517.581-.766.973-1.043a24 24 0 0 0 1.962-1.747c.249-.247.454-.481.417-.854-.024-.25-.09-.351-.288-.489-1.317.035-2.264 1.837-3.664 2.133-.12-.036-.233-.032-.299-.152-.746-1.357 1.775-3.71 2.039-4.81.047-.199-.01-.252-.105-.418-.336-.231-.687-.234-1.08-.275-.05-1.051-.037-2.111-.046-3.163m13.885-58.045c1.844-.033 3.789-.236 5.443.706.258 1.75.316 3.017-.756 4.503-.328.318-.676.605-1.11.766-1.14.421-2.207-.005-3.235-.491-.229-1.804-.252-3.667-.342-5.483" fill="#FED0B4"/><path d="M109.235 51.852c.188.027.38.055.562.106.362.101.644.34.821.669.248.46.28.972.124 1.467-.192.612-.504.909-1.065 1.191a6 6 0 0 1-.418-.112c-.423-.135-.718-.44-.91-.834-.241-.496-.287-1.047-.082-1.562.2-.502.478-.728.968-.925" fill="#26201C"/><path d="m89.022 107.78.095.029c.283.574.097 2.782.093 3.537-.222-.228-.518-.586-.82-.699-.255-.096-.401-.003-.63.107-.722 1.208 2.733 3.949 2.539 5.673-.15.287-.225.362-.511.512-.337-.02-.463-.147-.74-.329-1.709-1.705-3.235-3.405-4.292-5.603a5.6 5.6 0 0 1 .476-.922c.88-1.349 2.267-1.98 3.79-2.305" fill="#FED0B4"/><path d="M51.914 76.258c.344.48-.724 8.018-.825 9.324l-2.066-2.083c-.71-.712-1.41-1.438-2.168-2.102 1.938-1.525 3.591-3.162 5.06-5.14" fill="#FEFEFE"/><path d="M72.952 130.692c2.835-.226 17.376 1.997 20.05 2.966.353.128.478.171.636.513a2.6 2.6 0 0 1-.922.046c-4.177-.493-8.733-1.425-12.93-2.086-1.243-.196-5.726-.57-6.527-.973-.238-.119-.23-.234-.307-.466" fill="#C2C6CA"/><path d="M83.905 113.008c.535.191 2.008 2.264 2.509 2.812q1.266 1.41 2.729 2.618c-.014.451-.016.901-.102 1.346-1.71-1.048-3.827-2.611-4.863-4.36-.522-.883-.527-1.447-.273-2.416m-.231 4.2c.71.385 1.653 1.528 2.333 2.089.975.805 2.236 1.422 3.096 2.326-.52.16-1.306-.145-1.786-.378-1.518-.737-3.083-2.446-3.643-4.037" fill="#FED0B4"/><path d="M112.101 115.495c.469.434.62 1.942.771 2.583l-2.251.005a1 1 0 0 1-.457-.068c.068-.617 1.525-1.987 1.937-2.52" fill="#FEFEFE"/><path d="M90.543 118.031c.28.074.508.091.687.347.522.749.155 2.537.036 3.376l-.467-.05c-.155-.112-.248-.201-.315-.385-.28-.769-.283-2.538.059-3.288" fill="#483730"/><path d="M98.508 113.271c.33 1.287.742 3.039.2 4.326-.176.417-.414.457-.808.605-.132-.063-.249-.137-.371-.214-.046-.63.624-1.542.762-2.201.171-.818-.047-1.713.217-2.516" fill="#FED0B4"/><path d="M43.444 118.086c-.773.085-1.572.006-2.35.041-1.06.046-5.002.527-5.774.041l.06-.207c.873-.682 2.125.197 3.09.172.683-.017 1.394-.255 2.092-.311.698.44 2.057.132 2.882.264" fill="#525252"/><path d="M47.386 97.238a.8.8 0 0 1 .52-.132.83.83 0 0 1 .68.483.82.82 0 0 1-.248.984.8.8 0 0 1-.624.162 1 1 0 0 1-.227-.07.84.84 0 0 1-.386-.38.8.8 0 0 1-.082-.303q-.003-.04-.002-.08a.7.7 0 0 1 .019-.156 1 1 0 0 1 .084-.22 1 1 0 0 1 .09-.13.8.8 0 0 1 .175-.158" fill="#FEFEFE"/></g><defs><clipPath id="a"><path fill="#fff" d="M0 0h164v164H0z"/></clipPath></defs></svg>